<svg width="44" height="44" viewBox="0 0 44 44" fill="none" xmlns="http://www.w3.org/2000/svg">
<rect x="0.5" y="0.5" width="43" height="43" rx="21.5" stroke="#076AAB"/>
<path d="M14.0079 13.9124C14.1999 13.9124 14.3679 13.7444 14.3679 13.5524C14.3679 13.3604 14.1999 13.1924 14.0079 13.1924C13.8159 13.1924 13.6479 13.3604 13.6479 13.5524C13.6479 13.7684 13.7919 13.9124 14.0079 13.9124Z" fill="#F9FAFB"/>
<path d="M18.568 13.9124C18.76 13.9124 18.928 13.7444 18.928 13.5524C18.928 13.3604 18.76 13.1924 18.568 13.1924C18.376 13.1924 18.208 13.3604 18.208 13.5524C18.208 13.7684 18.376 13.9124 18.568 13.9124Z" fill="white"/>
<path d="M16.288 13.9124C16.48 13.9124 16.648 13.7444 16.648 13.5524C16.648 13.3604 16.48 13.1924 16.288 13.1924C16.096 13.1924 15.928 13.3604 15.928 13.5524C15.928 13.7684 16.096 13.9124 16.288 13.9124Z" fill="white"/>
<path d="M22.6478 13.9124H28.3118C28.5038 13.9124 28.6718 13.7444 28.6718 13.5524C28.6718 13.3604 28.5038 13.1924 28.3118 13.1924H22.6478C22.4558 13.1924 22.2878 13.3604 22.2878 13.5524C22.2878 13.7444 22.4558 13.9124 22.6478 13.9124Z" fill="white"/>
<path d="M17.296 18.5921H28.336C28.528 18.5921 28.696 18.4241 28.696 18.2321C28.696 18.0401 28.528 17.8721 28.336 17.8721H17.296C17.104 17.8721 16.936 18.0401 16.936 18.2321C16.936 18.4241 17.08 18.5921 17.296 18.5921Z" fill="white"/>
<path d="M15.16 17.8721H13.984C13.792 17.8721 13.624 18.0401 13.624 18.2321C13.624 18.4241 13.792 18.5921 13.984 18.5921H15.16C15.352 18.5921 15.52 18.4241 15.52 18.2321C15.52 18.0401 15.376 17.8721 15.16 17.8721Z" fill="white"/>
<path d="M16.12 20.4881H17.296C17.488 20.4881 17.656 20.3201 17.656 20.1281C17.656 19.9361 17.488 19.7681 17.296 19.7681H16.12C15.928 19.7681 15.76 19.9361 15.76 20.1281C15.76 20.3201 15.928 20.4881 16.12 20.4881Z" fill="white"/>
<path d="M22.2159 19.7681H19.4079C19.2159 19.7681 19.0479 19.9361 19.0479 20.1281C19.0479 20.3201 19.2159 20.4881 19.4079 20.4881H22.2159C22.4079 20.4881 22.5759 20.3201 22.5759 20.1281C22.5759 19.9361 22.4079 19.7681 22.2159 19.7681Z" fill="white"/>
<path d="M19.672 21.688H16.12C15.928 21.688 15.76 21.856 15.76 22.048C15.76 22.24 15.928 22.408 16.12 22.408H19.672C19.864 22.408 20.032 22.24 20.032 22.048C20.032 21.856 19.864 21.688 19.672 21.688Z" fill="white"/>
<path d="M19.2399 23.584H17.2719C17.0799 23.584 16.9119 23.752 16.9119 23.944C16.9119 24.136 17.0799 24.304 17.2719 24.304H19.2399C19.4319 24.304 19.5999 24.136 19.5999 23.944C19.5999 23.752 19.4319 23.584 19.2399 23.584Z" fill="white"/>
<path d="M15.16 23.584H13.984C13.792 23.584 13.624 23.752 13.624 23.944C13.624 24.136 13.792 24.304 13.984 24.304H15.16C15.352 24.304 15.52 24.136 15.52 23.944C15.52 23.752 15.376 23.584 15.16 23.584Z" fill="white"/>
<path d="M19.24 25.5044H16.12C15.928 25.5044 15.76 25.6724 15.76 25.8644C15.76 26.0564 15.928 26.2244 16.12 26.2244H19.24C19.432 26.2244 19.6 26.0564 19.6 25.8644C19.6 25.6724 19.432 25.5044 19.24 25.5044Z" fill="white"/>
<path d="M19.24 27.4004H16.12C15.928 27.4004 15.76 27.5684 15.76 27.7604C15.76 27.9524 15.928 28.1204 16.12 28.1204H19.24C19.432 28.1204 19.6 27.9524 19.6 27.7604C19.6 27.5684 19.432 27.4004 19.24 27.4004Z" fill="white"/>
<path d="M32.44 25.2642H31.672C31.552 24.8802 31.408 24.5202 31.216 24.1842L31.768 23.6322C31.912 23.4882 31.912 23.2722 31.768 23.1282L31.12 22.4802V12.4722C31.12 11.7762 30.544 11.2002 29.848 11.2002H12.472C11.776 11.2002 11.2 11.7762 11.2 12.4722V29.0802C11.2 29.7762 11.776 30.3522 12.472 30.3522H21.736L23.128 31.7442C23.272 31.8882 23.488 31.8882 23.632 31.7442L24.184 31.1922C24.52 31.3842 24.88 31.5282 25.264 31.6482V32.4162C25.264 32.6082 25.432 32.7762 25.624 32.7762H27.76C27.952 32.7762 28.12 32.6082 28.12 32.4162V31.6482C28.504 31.5282 28.864 31.3842 29.2 31.1922L29.752 31.7442C29.824 31.8162 29.92 31.8402 30.016 31.8402C30.112 31.8402 30.208 31.7922 30.28 31.7442L31.792 30.2322C31.864 30.1602 31.888 30.0642 31.888 29.9682C31.888 29.8722 31.84 29.7762 31.792 29.7042L31.216 29.2002C31.408 28.8642 31.552 28.5042 31.672 28.1202H32.44C32.632 28.1202 32.8 27.9522 32.8 27.7602V25.6242C32.8 25.4322 32.632 25.2642 32.44 25.2642ZM12.472 11.9202H29.848C30.16 11.9202 30.4 12.1602 30.4 12.4722V15.2082H11.92V12.4722C11.92 12.1602 12.16 11.9202 12.472 11.9202ZM21.736 29.6322H12.472C12.16 29.6322 11.92 29.3922 11.92 29.0802V15.9282H30.4V21.7602L30.256 21.6162C30.184 21.5442 30.088 21.5202 29.992 21.5202C29.896 21.5202 29.8 21.5682 29.728 21.6162L29.2 22.1682C28.864 21.9762 28.504 21.8322 28.12 21.7122V20.9442C28.12 20.7522 27.952 20.5842 27.76 20.5842H25.624C25.432 20.5842 25.264 20.7522 25.264 20.9442V21.7122C24.88 21.8322 24.52 21.9762 24.184 22.1682L23.632 21.6162C23.488 21.4722 23.248 21.4722 23.128 21.6162L21.616 23.1282C21.472 23.2722 21.472 23.4882 21.616 23.6322L22.168 24.1842C21.976 24.5202 21.832 24.8802 21.712 25.2642H20.944C20.752 25.2642 20.584 25.4322 20.584 25.6242V27.7602C20.584 27.9522 20.752 28.1202 20.944 28.1202H21.712C21.832 28.5042 21.976 28.8642 22.168 29.2002L21.736 29.6322ZM32.08 27.4002H31.384C31.216 27.4002 31.072 27.5202 31.024 27.6882C30.904 28.1922 30.712 28.6482 30.448 29.0802C30.352 29.2242 30.376 29.4162 30.496 29.5362L30.976 30.0162L29.968 31.0242L29.488 30.5442C29.368 30.4242 29.176 30.4002 29.032 30.4962C28.6 30.7602 28.144 30.9522 27.64 31.0722C27.472 31.1202 27.352 31.2642 27.352 31.4322V32.0802H25.936V31.3842C25.936 31.2162 25.816 31.0722 25.648 31.0242C25.144 30.9042 24.688 30.7122 24.256 30.4482C24.112 30.3522 23.92 30.3762 23.8 30.4962L23.32 30.9762L22.312 29.9682L22.792 29.4882C22.912 29.3682 22.936 29.1762 22.84 29.0322C22.576 28.6002 22.384 28.1442 22.264 27.6402C22.216 27.4722 22.072 27.3522 21.904 27.3522H21.208V25.9362H22C22.168 25.9362 22.312 25.8162 22.36 25.6482C22.48 25.1442 22.672 24.6882 22.936 24.2562C23.032 24.1122 23.008 23.9202 22.888 23.8002L22.408 23.3202L23.416 22.3122L23.896 22.7922C24.016 22.9122 24.208 22.9362 24.352 22.8402C24.784 22.5762 25.24 22.3842 25.744 22.2642C25.912 22.2162 26.032 22.0722 26.032 21.9042V21.2082H27.448V22.0002C27.448 22.1682 27.568 22.3122 27.736 22.3602C28.24 22.4802 28.696 22.6722 29.128 22.9362C29.272 23.0322 29.464 23.0082 29.584 22.8882L30.064 22.4082L31.072 23.4162L30.592 23.8962C30.472 24.0162 30.448 24.2082 30.544 24.3522C30.808 24.7842 31 25.2402 31.12 25.7442C31.168 25.9122 31.312 26.0322 31.48 26.0322H32.08V27.4002Z" fill="white"/>
<path d="M26.0558 24.6403C26.0078 24.5203 25.8638 24.4243 25.7198 24.4243C25.5758 24.4243 25.4558 24.5203 25.3838 24.6403L23.7998 28.3123C23.7278 28.5043 23.7998 28.6963 23.9918 28.7923C24.1838 28.8643 24.3758 28.7923 24.4718 28.6003L24.8078 27.8083H26.6318L26.9678 28.6003C27.0158 28.7443 27.1598 28.8163 27.3038 28.8163C27.3518 28.8163 27.3998 28.8163 27.4478 28.7923C27.6398 28.7203 27.7118 28.5043 27.6398 28.3123L26.0558 24.6403ZM25.1198 27.0883L25.7198 25.6963L26.3198 27.0883H25.1198Z" fill="white"/>
<path d="M29.1039 24.4243C28.9119 24.4243 28.7439 24.5923 28.7439 24.7843V28.4803C28.7439 28.6723 28.9119 28.8403 29.1039 28.8403C29.2959 28.8403 29.4639 28.6723 29.4639 28.4803V24.7843C29.4639 24.5923 29.2959 24.4243 29.1039 24.4243Z" fill="white"/>
</svg>
