<svg width="44" height="44" viewBox="0 0 44 44" fill="none" xmlns="http://www.w3.org/2000/svg">
<rect x="0.5" y="0.5" width="43" height="43" rx="21.5" stroke="#076AAB"/>
<path d="M14.0084 13.9119C14.2004 13.9119 14.3684 13.7439 14.3684 13.5519C14.3684 13.3599 14.2004 13.1919 14.0084 13.1919C13.8164 13.1919 13.6484 13.3599 13.6484 13.5519C13.6484 13.7679 13.7924 13.9119 14.0084 13.9119Z" fill="#F9FAFB"/>
<path d="M18.567 13.9119C18.759 13.9119 18.927 13.7439 18.927 13.5519C18.927 13.3599 18.759 13.1919 18.567 13.1919C18.375 13.1919 18.207 13.3599 18.207 13.5519C18.207 13.7679 18.375 13.9119 18.567 13.9119Z" fill="white"/>
<path d="M16.2858 13.9119C16.4778 13.9119 16.6458 13.7439 16.6458 13.5519C16.6458 13.3599 16.4778 13.1919 16.2858 13.1919C16.0938 13.1919 15.9258 13.3599 15.9258 13.5519C15.9258 13.7679 16.0938 13.9119 16.2858 13.9119Z" fill="white"/>
<path d="M22.6491 13.9119H28.3131C28.5051 13.9119 28.6731 13.7439 28.6731 13.5519C28.6731 13.3599 28.5051 13.1919 28.3131 13.1919H22.6491C22.4571 13.1919 22.2891 13.3599 22.2891 13.5519C22.2891 13.7439 22.4571 13.9119 22.6491 13.9119Z" fill="white"/>
<path d="M17.2936 18.5919H28.3336C28.5256 18.5919 28.6936 18.4239 28.6936 18.2319C28.6936 18.0399 28.5256 17.8719 28.3336 17.8719H17.2936C17.1016 17.8719 16.9336 18.0399 16.9336 18.2319C16.9336 18.4239 17.0776 18.5919 17.2936 18.5919Z" fill="white"/>
<path d="M15.161 17.8719H13.985C13.793 17.8719 13.625 18.0399 13.625 18.2319C13.625 18.4239 13.793 18.5919 13.985 18.5919H15.161C15.353 18.5919 15.521 18.4239 15.521 18.2319C15.521 18.0399 15.377 17.8719 15.161 17.8719Z" fill="white"/>
<path d="M16.1178 20.4879H17.2938C17.4858 20.4879 17.6538 20.3199 17.6538 20.1279C17.6538 19.9359 17.4858 19.7679 17.2938 19.7679H16.1178C15.9258 19.7679 15.7578 19.9359 15.7578 20.1279C15.7578 20.3199 15.9258 20.4879 16.1178 20.4879Z" fill="white"/>
<path d="M22.2149 19.7679H19.4069C19.2149 19.7679 19.0469 19.9359 19.0469 20.1279C19.0469 20.3199 19.2149 20.4879 19.4069 20.4879H22.2149C22.4069 20.4879 22.5749 20.3199 22.5749 20.1279C22.5749 19.9359 22.4069 19.7679 22.2149 19.7679Z" fill="white"/>
<path d="M19.6698 21.688H16.1178C15.9258 21.688 15.7578 21.856 15.7578 22.048C15.7578 22.24 15.9258 22.408 16.1178 22.408H19.6698C19.8618 22.408 20.0298 22.24 20.0298 22.048C20.0298 21.856 19.8618 21.688 19.6698 21.688Z" fill="white"/>
<path d="M19.2382 23.584H17.2702C17.0782 23.584 16.9102 23.752 16.9102 23.944C16.9102 24.136 17.0782 24.304 17.2702 24.304H19.2382C19.4302 24.304 19.5982 24.136 19.5982 23.944C19.5982 23.752 19.4302 23.584 19.2382 23.584Z" fill="white"/>
<path d="M15.161 23.584H13.985C13.793 23.584 13.625 23.752 13.625 23.944C13.625 24.136 13.793 24.304 13.985 24.304H15.161C15.353 24.304 15.521 24.136 15.521 23.944C15.521 23.752 15.377 23.584 15.161 23.584Z" fill="white"/>
<path d="M19.2378 25.5039H16.1178C15.9258 25.5039 15.7578 25.6719 15.7578 25.8639C15.7578 26.0559 15.9258 26.2239 16.1178 26.2239H19.2378C19.4298 26.2239 19.5978 26.0559 19.5978 25.8639C19.5978 25.6719 19.4298 25.5039 19.2378 25.5039Z" fill="white"/>
<path d="M19.2378 27.3999H16.1178C15.9258 27.3999 15.7578 27.5679 15.7578 27.7599C15.7578 27.9519 15.9258 28.1199 16.1178 28.1199H19.2378C19.4298 28.1199 19.5978 27.9519 19.5978 27.7599C19.5978 27.5679 19.4298 27.3999 19.2378 27.3999Z" fill="white"/>
<path d="M32.4392 25.264H31.6712C31.5512 24.88 31.4072 24.52 31.2152 24.184L31.7672 23.632C31.9112 23.488 31.9112 23.272 31.7672 23.128L31.1192 22.48V12.472C31.1192 11.776 30.5432 11.2 29.8472 11.2H12.4712C11.7752 11.2 11.1992 11.776 11.1992 12.472V29.08C11.1992 29.776 11.7752 30.352 12.4712 30.352H21.7352L23.1272 31.7439C23.2712 31.888 23.4872 31.888 23.6312 31.7439L24.1832 31.192C24.5192 31.384 24.8792 31.528 25.2632 31.6479V32.416C25.2632 32.608 25.4312 32.776 25.6232 32.776H27.7592C27.9512 32.776 28.1192 32.608 28.1192 32.416V31.6479C28.5032 31.528 28.8632 31.384 29.1992 31.192L29.7512 31.7439C29.8232 31.816 29.9192 31.84 30.0152 31.84C30.1112 31.84 30.2072 31.792 30.2792 31.7439L31.7912 30.232C31.8632 30.16 31.8872 30.0639 31.8872 29.968C31.8872 29.872 31.8392 29.7759 31.7912 29.704L31.2152 29.2C31.4072 28.864 31.5512 28.504 31.6712 28.12H32.4392C32.6312 28.12 32.7992 27.952 32.7992 27.76V25.624C32.7992 25.432 32.6312 25.264 32.4392 25.264ZM12.4712 11.92H29.8472C30.1592 11.92 30.3992 12.16 30.3992 12.472V15.208H11.9192V12.472C11.9192 12.16 12.1592 11.92 12.4712 11.92ZM21.7352 29.632H12.4712C12.1592 29.632 11.9192 29.392 11.9192 29.08V15.928H30.3992V21.76L30.2552 21.616C30.1832 21.544 30.0872 21.52 29.9912 21.52C29.8952 21.52 29.7992 21.568 29.7272 21.616L29.1992 22.168C28.8632 21.976 28.5032 21.832 28.1192 21.712V20.944C28.1192 20.752 27.9512 20.584 27.7592 20.584H25.6232C25.4312 20.584 25.2632 20.752 25.2632 20.944V21.712C24.8792 21.832 24.5192 21.976 24.1832 22.168L23.6312 21.616C23.4872 21.472 23.2472 21.472 23.1272 21.616L21.6152 23.128C21.4712 23.272 21.4712 23.488 21.6152 23.632L22.1672 24.184C21.9752 24.52 21.8312 24.88 21.7112 25.264H20.9432C20.7512 25.264 20.5832 25.432 20.5832 25.624V27.76C20.5832 27.952 20.7512 28.12 20.9432 28.12H21.7112C21.8312 28.504 21.9752 28.864 22.1672 29.2L21.7352 29.632ZM32.0792 27.4H31.3832C31.2152 27.4 31.0712 27.52 31.0232 27.688C30.9032 28.1919 30.7112 28.648 30.4472 29.08C30.3512 29.224 30.3752 29.416 30.4952 29.536L30.9752 30.016L29.9672 31.024L29.4872 30.544C29.3672 30.424 29.1752 30.4 29.0312 30.496C28.5992 30.76 28.1432 30.952 27.6392 31.072C27.4712 31.12 27.3512 31.264 27.3512 31.432V32.08H25.9352V31.384C25.9352 31.216 25.8152 31.072 25.6472 31.024C25.1432 30.9039 24.6872 30.712 24.2552 30.448C24.1112 30.3519 23.9192 30.376 23.7992 30.496L23.3192 30.976L22.3112 29.968L22.7912 29.4879C22.9112 29.368 22.9352 29.176 22.8392 29.032C22.5752 28.6 22.3832 28.144 22.2632 27.64C22.2152 27.472 22.0712 27.352 21.9032 27.352H21.2072V25.936H21.9992C22.1672 25.936 22.3112 25.816 22.3592 25.648C22.4792 25.144 22.6712 24.688 22.9352 24.256C23.0312 24.112 23.0072 23.92 22.8872 23.8L22.4072 23.32L23.4152 22.312L23.8952 22.792C24.0152 22.912 24.2072 22.936 24.3512 22.84C24.7832 22.576 25.2392 22.384 25.7432 22.264C25.9112 22.216 26.0312 22.072 26.0312 21.904V21.208H27.4472V22C27.4472 22.168 27.5672 22.312 27.7352 22.36C28.2392 22.48 28.6952 22.672 29.1272 22.936C29.2712 23.032 29.4632 23.008 29.5832 22.888L30.0632 22.408L31.0712 23.416L30.5912 23.896C30.4712 24.016 30.4472 24.208 30.5432 24.352C30.8072 24.784 30.9992 25.24 31.1192 25.744C31.1672 25.912 31.3112 26.032 31.4792 26.032H32.0792V27.4Z" fill="white"/>
<path d="M26.0568 24.64C26.0088 24.52 25.8648 24.424 25.7208 24.424C25.5768 24.424 25.4568 24.52 25.3848 24.64L23.8008 28.312C23.7288 28.504 23.8008 28.696 23.9928 28.792C24.1848 28.864 24.3768 28.792 24.4728 28.6L24.8088 27.8079H26.6328L26.9688 28.6C27.0168 28.744 27.1608 28.816 27.3048 28.816C27.3528 28.816 27.4008 28.816 27.4488 28.792C27.6408 28.72 27.7128 28.504 27.6408 28.312L26.0568 24.64ZM25.1208 27.0879L25.7208 25.696L26.3208 27.0879H25.1208Z" fill="white"/>
<path d="M29.1022 24.424C28.9102 24.424 28.7422 24.592 28.7422 24.784V28.48C28.7422 28.672 28.9102 28.84 29.1022 28.84C29.2942 28.84 29.4622 28.672 29.4622 28.48V24.784C29.4622 24.592 29.2942 24.424 29.1022 24.424Z" fill="white"/>
</svg>
