<svg width="56" height="56" viewBox="0 0 56 56" fill="none" xmlns="http://www.w3.org/2000/svg">
<rect width="56" height="56" rx="28" fill="#0F5892" fill-opacity="0.2"/>
<g clip-path="url(#clip0_3679_8497)">
<path d="M27.3739 19.0899C27.4458 19.2765 27.5272 19.4504 27.62 19.611C27.9808 20.2367 28.5016 20.6597 29.1731 20.8792L29.03 22.3967H28.5159C27.7653 22.3967 27.1547 23.0074 27.1547 23.758V24.6817C27.1547 24.9234 27.3505 25.1192 27.5922 25.1192H33.1549C33.3965 25.1192 33.5924 24.9234 33.5924 24.6817V23.758C33.5924 23.0074 32.9818 22.3967 32.2312 22.3967H31.717L31.574 20.8793C32.2455 20.6598 32.7663 20.2368 33.1272 19.6111C33.2198 19.4504 33.3013 19.2766 33.3732 19.09C34.4398 18.9637 35.27 18.0545 35.27 16.9545V15.1192C35.27 14.6731 34.9071 14.3103 34.461 14.3103H34.094C34.151 14.0985 34.1981 13.7895 34.0162 13.5414C33.926 13.4182 33.7497 13.2715 33.4226 13.2715H27.3245C26.9973 13.2715 26.8211 13.4183 26.7308 13.5414C26.549 13.7895 26.5961 14.0985 26.6531 14.3103H26.286C25.84 14.3103 25.4772 14.6732 25.4772 15.1192V16.9545C25.4772 18.0545 26.3073 18.9637 27.3739 19.0899ZM32.7174 23.758V24.2442H28.0297V23.758C28.0297 23.4899 28.2478 23.2717 28.5159 23.2717H32.2312C32.4993 23.2717 32.7174 23.4899 32.7174 23.758ZM30.8381 22.3967H29.9089L30.0365 21.0429C30.1463 21.0509 30.258 21.0563 30.3735 21.0563C30.489 21.0563 30.6007 21.0509 30.7104 21.0429L30.838 22.3967H30.8381ZM34.3949 16.9545C34.3949 17.4749 34.0814 17.9227 33.6338 18.121C33.7206 17.6259 33.7633 17.0591 33.7637 16.405C33.7667 16.318 33.7693 16.2375 33.7717 16.1624C33.7862 15.7115 33.7938 15.4726 33.8507 15.1852H34.3949V16.9545ZM33.2302 14.1464C33.227 14.1574 33.2234 14.1688 33.2196 14.181C32.9305 15.0964 32.9228 15.337 32.8971 16.1343C32.8946 16.2109 32.892 16.293 32.8889 16.3821C32.8887 16.3872 32.8887 16.3922 32.8887 16.3973C32.8887 17.6597 32.7187 18.5679 32.3692 19.1739C31.9727 19.8612 31.3386 20.1814 30.3735 20.1814C29.4085 20.1814 28.7743 19.8612 28.3779 19.1739C28.0284 18.568 27.8585 17.6597 27.8585 16.3973C27.8585 16.3922 27.8584 16.3872 27.8582 16.3821C27.8552 16.293 27.8525 16.2108 27.85 16.1342C27.8243 15.337 27.8166 15.0965 27.5275 14.1809C27.5237 14.1689 27.5201 14.1573 27.5168 14.1464H33.2302ZM26.3522 15.1852H26.8964C26.9532 15.4725 26.9609 15.7114 26.9755 16.1624C26.9779 16.2375 26.9805 16.318 26.9835 16.405C26.9838 17.0591 27.0265 17.6259 27.1133 18.121C26.6657 17.9227 26.3522 17.4749 26.3522 16.9545V15.1852ZM38.7512 32.184C37.5878 32.8557 34.7052 34.2616 32.5332 35.0892C32.6107 34.6887 32.5401 34.2708 32.3203 33.901C31.9975 33.3576 31.4296 33.0442 30.8007 33.067C28.1117 33.0657 26.3713 32.3437 24.8355 31.7066C23.4357 31.1259 22.2267 30.6245 20.7943 30.971C19.3513 31.3204 17.8163 32.5143 15.8373 34.8314C15.3222 34.5891 14.6883 34.6789 14.2632 35.104L12.3782 36.9891C12.2073 37.1599 12.2073 37.4369 12.3782 37.6078L18.2052 43.4348C18.2906 43.5202 18.4025 43.5629 18.5145 43.5629C18.6265 43.5629 18.7385 43.5202 18.8239 43.4348L20.7089 41.5497C20.9705 41.2881 21.1146 40.9393 21.1146 40.5675C21.1146 40.3994 21.0837 40.2365 21.0272 40.0838C22.2247 39.5859 23.5607 39.543 25.2668 39.6452C25.652 39.6683 26.0564 39.7009 26.4846 39.7353C27.5008 39.8172 28.5518 39.9019 29.5676 39.8794C31.7037 39.8322 32.9887 39.2325 34.7054 38.3232C36.4541 37.3969 40.1839 35.1844 40.8817 34.2672C41.3785 33.614 41.4066 32.8594 40.9533 32.3445C40.5371 31.872 39.6949 31.6391 38.7513 32.184L38.7512 32.184ZM20.0902 40.9312L18.5146 42.5069L13.3062 37.2985L14.8818 35.7229C15.0822 35.5224 15.4083 35.5224 15.6087 35.7229L20.0902 40.2043C20.1865 40.3006 20.2395 40.4296 20.2395 40.5677C20.2395 40.7057 20.1865 40.8348 20.0902 40.9311L20.0902 40.9312ZM40.1853 33.7375C39.6961 34.3804 36.5634 36.3489 34.2958 37.5501C32.6897 38.4009 31.4916 38.9619 29.5483 39.0047C28.5775 39.0262 27.5492 38.9434 26.5548 38.8633C26.1221 38.8284 25.7133 38.7955 25.3191 38.7719C23.7992 38.6809 22.0615 38.6485 20.4884 39.3649L16.512 35.3885C20.4147 30.8204 21.877 31.4267 24.5003 32.5149C26.0331 33.1507 27.9408 33.942 30.8083 33.942C30.8138 33.942 30.8193 33.9419 30.8248 33.9417C31.1321 33.9298 31.4101 34.082 31.5682 34.348C31.7262 34.614 31.7268 34.9306 31.5696 35.195C31.281 35.6807 30.2316 35.932 28.7618 35.8681C27.3809 35.8078 25.9917 35.4783 25.4464 35.1945C25.2321 35.0828 24.9679 35.1662 24.8563 35.3807C24.7448 35.595 24.8281 35.8592 25.0425 35.9707C25.7849 36.3571 27.3331 36.6816 28.7237 36.7423C28.8788 36.749 29.0391 36.753 29.2025 36.753C29.9432 36.753 30.7428 36.6715 31.3746 36.4059C33.5737 35.786 37.6768 33.8147 39.1887 32.9419C39.7008 32.6462 40.122 32.7248 40.2966 32.923C40.4673 33.1169 40.4257 33.4214 40.1853 33.7375ZM38.9913 19.3869C36.3673 19.3869 34.2325 21.5216 34.2325 24.1457C34.2325 26.7697 36.3673 28.9045 38.9913 28.9045C41.6153 28.9045 43.7501 26.7697 43.7501 24.1457C43.7501 21.5216 41.6153 19.3869 38.9913 19.3869ZM38.9913 28.0295C36.8497 28.0295 35.1075 26.2872 35.1075 24.1456C35.1075 22.004 36.8497 20.2618 38.9913 20.2618C41.1328 20.2618 42.8751 22.004 42.8751 24.1456C42.8751 26.2872 41.1328 28.0295 38.9913 28.0295ZM40.7032 25.2703C40.6453 25.6761 40.3855 26.0305 40.0079 26.2184C39.8352 26.3044 39.6375 26.3634 39.4288 26.3956V26.7448C39.4288 26.9864 39.2329 27.1823 38.9913 27.1823C38.7497 27.1823 38.5538 26.9864 38.5538 26.7448V26.3777C38.0308 26.278 37.5527 26.0174 37.3212 25.5943C37.2052 25.3823 37.2829 25.1164 37.4948 25.0004C37.7068 24.8845 37.9727 24.9622 38.0887 25.1741C38.2777 25.5194 39.1497 25.6682 39.6182 25.435C39.7397 25.3745 39.8195 25.2695 39.8369 25.1469C39.8452 25.0887 39.8445 24.9775 39.7468 24.8874C39.6695 24.8161 39.5088 24.7117 39.1828 24.619C39.0897 24.5925 38.986 24.568 38.8763 24.5421C38.5112 24.4557 38.0975 24.3579 37.7886 24.1182C37.4968 23.8917 37.3227 23.5838 37.2983 23.2512C37.2746 22.9257 37.394 22.6085 37.6345 22.3579C37.8525 22.1309 38.1813 21.9746 38.5538 21.9065V21.5467C38.5538 21.3051 38.7497 21.1092 38.9913 21.1092C39.233 21.1092 39.4288 21.3051 39.4288 21.5467V21.9088C39.9625 22.0077 40.3799 22.2755 40.584 22.6544C40.6985 22.8671 40.619 23.1325 40.4063 23.247C40.1935 23.3617 39.9282 23.2822 39.8137 23.0694C39.7319 22.9176 39.4956 22.798 39.1969 22.7574C38.8211 22.706 38.4296 22.793 38.2657 22.9638C38.1992 23.0331 38.1655 23.1125 38.171 23.1874C38.1787 23.2925 38.259 23.3757 38.325 23.4269C38.4838 23.5501 38.7993 23.6247 39.0777 23.6906C39.192 23.7177 39.3102 23.7456 39.422 23.7774C39.8168 23.8897 40.1256 24.0467 40.3398 24.244C40.626 24.5079 40.7585 24.8819 40.7032 25.2704V25.2703ZM21.7558 28.9045C24.3798 28.9045 26.5147 26.7697 26.5147 24.1456C26.5147 21.5215 24.3798 19.3868 21.7558 19.3868C19.1318 19.3868 16.997 21.5215 16.997 24.1456C16.997 26.7697 19.1318 28.9045 21.7558 28.9045ZM21.7558 20.2619C23.8974 20.2619 25.6397 22.0041 25.6397 24.1457C25.6397 26.2872 23.8974 28.0295 21.7558 28.0295C19.6143 28.0295 17.872 26.2872 17.872 24.1457C17.872 22.0041 19.6143 20.2619 21.7558 20.2619ZM19.8059 26.1282C19.774 26.2947 19.8412 26.4647 19.9785 26.5644C20.0547 26.6199 20.145 26.648 20.2357 26.648C20.308 26.648 20.3807 26.63 20.4466 26.5937L21.7558 25.873L23.0651 26.5937C23.2136 26.6755 23.396 26.6641 23.5332 26.5644C23.6704 26.4647 23.7377 26.2948 23.7058 26.1282L23.4248 24.6604L24.5149 23.6379C24.6386 23.522 24.6841 23.3449 24.6317 23.1836C24.5793 23.0223 24.4385 22.9059 24.2702 22.8847L22.7873 22.6984L22.1518 21.3457C22.0798 21.1922 21.9255 21.0942 21.7559 21.0942C21.5863 21.0942 21.432 21.1922 21.36 21.3457L20.7245 22.6984L19.2416 22.8847C19.0733 22.9059 18.9325 23.0224 18.8801 23.1836C18.8277 23.3449 18.8732 23.5219 18.9969 23.6379L20.087 24.6604L19.806 26.1282H19.8059ZM21.0725 23.5364C21.2213 23.5177 21.3501 23.4241 21.4138 23.2884L21.7558 22.5605L22.0978 23.2884C22.1615 23.4241 22.2904 23.5177 22.4392 23.5364L23.2371 23.6367L22.6505 24.1869C22.5412 24.2895 22.4919 24.4409 22.5202 24.5882L22.6713 25.378L21.9668 24.9902C21.8355 24.9179 21.6762 24.9179 21.5448 24.9902L20.8403 25.378L20.9915 24.5882C21.0197 24.4409 20.9705 24.2895 20.8611 24.1869L20.2745 23.6367L21.0725 23.5364ZM30.4123 27.2001C30.654 27.2001 30.8498 27.396 30.8498 27.6376V30.7898C30.8498 31.0314 30.654 31.2273 30.4123 31.2273C30.1707 31.2273 29.9748 31.0314 29.9748 30.7898V27.6376C29.9748 27.396 30.1707 27.2001 30.4123 27.2001ZM31.8343 30.6559L34.0633 28.427C34.2341 28.2561 34.5112 28.2562 34.682 28.427C34.8528 28.5979 34.8528 28.8749 34.682 29.0457L32.453 31.2747C32.3676 31.36 32.2557 31.4028 32.1437 31.4028C32.0317 31.4028 31.9197 31.36 31.8343 31.2747C31.6634 31.1038 31.6634 30.8268 31.8343 30.6559L31.8343 30.6559ZM26.7614 28.4269L28.9903 30.6559C29.1612 30.8267 29.1612 31.1037 28.9903 31.2746C28.9049 31.36 28.793 31.4027 28.681 31.4027C28.569 31.4027 28.457 31.36 28.3716 31.2746L26.1427 29.0457C25.9718 28.8748 25.9718 28.5978 26.1427 28.4269C26.3135 28.2562 26.5905 28.2562 26.7613 28.4269H26.7614Z" fill="white"/>
</g>
<defs>
<clipPath id="clip0_3679_8497">
<rect width="32" height="32" fill="white" transform="translate(12 12.4172)"/>
</clipPath>
</defs>
</svg>
