<svg width="44" height="44" viewBox="0 0 44 44" fill="none" xmlns="http://www.w3.org/2000/svg">
<rect x="0.5" y="0.5" width="43" height="43" rx="21.5" stroke="#9CA3AF"/>
<g clip-path="url(#clip0_2514_6767)">
<path d="M20.9728 26.5257L23.7131 25.8242C23.8051 25.8081 23.8899 25.7639 23.9557 25.6976L33.495 16.153C33.7485 15.8988 33.8909 15.5546 33.8909 15.1956C33.8909 14.8367 33.7485 14.4924 33.495 14.2382L32.7249 13.4655C32.5991 13.3392 32.4494 13.2392 32.2846 13.1713C32.1198 13.1034 31.9432 13.0689 31.7649 13.0699C31.5871 13.0693 31.411 13.1039 31.2466 13.1718C31.0823 13.2397 30.9331 13.3396 30.8076 13.4655L29.2252 15.0479V12.0651C29.2248 11.8156 29.1752 11.5686 29.0793 11.3384C28.9834 11.1081 28.8429 10.899 28.666 10.7231C28.4891 10.5472 28.2793 10.4079 28.0485 10.3132C27.8177 10.2186 27.5704 10.1704 27.321 10.1714H12.0928C11.5908 10.1721 11.1096 10.3719 10.7546 10.7268C10.3996 11.0818 10.1999 11.563 10.1992 12.0651V28.5855C10.1999 29.0875 10.3996 29.5687 10.7546 29.9237C11.1096 30.2787 11.5908 30.4784 12.0928 30.4791H19.3245L23.8792 33.7363C23.9482 33.7857 24.0294 33.8152 24.114 33.8215C24.1986 33.8278 24.2833 33.8106 24.3588 33.7719C24.4343 33.7332 24.4976 33.6745 24.5419 33.6021C24.5862 33.5298 24.6097 33.4466 24.6098 33.3618V30.4791H27.321C27.823 30.4784 28.3042 30.2787 28.6592 29.9237C29.0142 29.5687 29.2139 29.0875 29.2146 28.5855V23.3556C29.2146 23.2332 29.166 23.1158 29.0794 23.0293C28.9929 22.9427 28.8755 22.8941 28.7531 22.8941C28.6307 22.8941 28.5133 22.9427 28.4267 23.0293C28.3402 23.1158 28.2915 23.2332 28.2915 23.3556V28.5855C28.2915 28.713 28.2664 28.8392 28.2176 28.9569C28.1689 29.0747 28.0974 29.1817 28.0073 29.2718C27.9171 29.3619 27.8101 29.4334 27.6924 29.4822C27.5746 29.5309 27.4484 29.556 27.321 29.556H23.4071C23.2847 29.556 23.1673 29.6047 23.0808 29.6912C22.9942 29.7778 22.9456 29.8952 22.9456 30.0176C22.9456 30.14 22.9942 30.2574 23.0808 30.3439C23.1673 30.4305 23.2847 30.4791 23.4071 30.4791H23.6867V32.4651L19.7306 29.6404C19.6536 29.5857 19.5614 29.5562 19.4669 29.556H12.0823C11.9548 29.556 11.8286 29.5309 11.7109 29.4822C11.5931 29.4334 11.4861 29.3619 11.396 29.2718C11.3059 29.1817 11.2344 29.0747 11.1856 28.9569C11.1369 28.8392 11.1117 28.713 11.1117 28.5855V12.0651C11.1117 11.9367 11.1372 11.8096 11.1866 11.6912C11.2361 11.5727 11.3085 11.4653 11.3997 11.375C11.491 11.2848 11.5992 11.2135 11.7182 11.1653C11.8372 11.1172 11.9645 11.0931 12.0928 11.0945H27.321C27.5784 11.0945 27.8252 11.1968 28.0073 11.3788C28.1893 11.5608 28.2915 11.8077 28.2915 12.0651V15.9815L21.2682 23.0048C21.2025 23.0711 21.1583 23.1557 21.1416 23.2475L20.4085 25.956C20.3852 26.0343 20.3837 26.1174 20.4041 26.1964C20.4246 26.2754 20.4662 26.3473 20.5245 26.4044C20.5829 26.4609 20.6546 26.5017 20.733 26.5229C20.8114 26.5441 20.894 26.5451 20.9728 26.5257ZM30.6783 14.9002L32.0603 16.2822L23.6208 24.7218L22.2388 23.3424L30.6783 14.9002ZM21.8511 24.2418L22.7109 25.1015L21.5161 25.4259L21.8511 24.2418ZM31.7649 13.993C31.8218 13.9928 31.8781 14.0039 31.9306 14.0256C31.9831 14.0474 32.0308 14.0793 32.0709 14.1196L32.841 14.8897C32.8811 14.9296 32.9129 14.9771 32.9346 15.0294C32.9563 15.0816 32.9675 15.1377 32.9675 15.1943C32.9675 15.2509 32.9563 15.3069 32.9346 15.3592C32.9129 15.4115 32.8811 15.459 32.841 15.4989L32.7117 15.6281L31.3324 14.2488L31.4616 14.1196C31.5011 14.0791 31.5482 14.0471 31.6004 14.0253C31.6525 14.0036 31.7085 13.9926 31.7649 13.993Z" fill="#1F2937"/>
<path d="M14.5553 14.8396H18.3162C18.4386 14.8396 18.556 14.7909 18.6425 14.7044C18.7291 14.6178 18.7777 14.5004 18.7777 14.378C18.7777 14.2556 18.7291 14.1382 18.6425 14.0517C18.556 13.9651 18.4386 13.9165 18.3162 13.9165H14.5553C14.4329 13.9165 14.3155 13.9651 14.2289 14.0517C14.1424 14.1382 14.0938 14.2556 14.0938 14.378C14.0938 14.5004 14.1424 14.6178 14.2289 14.7044C14.3155 14.7909 14.4329 14.8396 14.5553 14.8396Z" fill="#1F2937"/>
<path d="M23.2152 14.8396C23.3376 14.8396 23.455 14.7909 23.5415 14.7044C23.6281 14.6178 23.6767 14.5004 23.6767 14.378C23.6767 14.2556 23.6281 14.1382 23.5415 14.0517C23.455 13.9651 23.3376 13.9165 23.2152 13.9165H20.3404C20.218 13.9165 20.1006 13.9651 20.0141 14.0517C19.9275 14.1382 19.8789 14.2556 19.8789 14.378C19.8789 14.5004 19.9275 14.6178 20.0141 14.7044C20.1006 14.7909 20.218 14.8396 20.3404 14.8396H23.2152Z" fill="#1F2937"/>
<path d="M14.5553 18.7033H16.3302C16.4526 18.7033 16.57 18.6547 16.6566 18.5681C16.7431 18.4816 16.7918 18.3642 16.7918 18.2418C16.7918 18.1194 16.7431 18.002 16.6566 17.9154C16.57 17.8288 16.4526 17.7802 16.3302 17.7802H14.5553C14.4329 17.7802 14.3155 17.8288 14.2289 17.9154C14.1424 18.002 14.0938 18.1194 14.0938 18.2418C14.0938 18.3642 14.1424 18.4816 14.2289 18.5681C14.3155 18.6547 14.4329 18.7033 14.5553 18.7033Z" fill="#1F2937"/>
<path d="M20.1699 22.1134C20.1699 21.991 20.1212 21.8736 20.0347 21.7871C19.9481 21.7005 19.8307 21.6519 19.7083 21.6519H18.1022C17.9798 21.6519 17.8624 21.7005 17.7758 21.7871C17.6893 21.8736 17.6406 21.991 17.6406 22.1134C17.6406 22.2358 17.6893 22.3532 17.7758 22.4398C17.8624 22.5263 17.9798 22.5749 18.1022 22.5749H19.7083C19.8307 22.5749 19.9481 22.5263 20.0347 22.4398C20.1212 22.3532 20.1699 22.2358 20.1699 22.1134Z" fill="#1F2937"/>
<path d="M14.5553 26.4413H18.9913C19.1137 26.4413 19.2311 26.3927 19.3177 26.3061C19.4042 26.2196 19.4529 26.1022 19.4529 25.9798C19.4529 25.8574 19.4042 25.74 19.3177 25.6534C19.2311 25.5669 19.1137 25.5182 18.9913 25.5182H14.5553C14.4329 25.5182 14.3155 25.5669 14.2289 25.6534C14.1424 25.74 14.0938 25.8574 14.0938 25.9798C14.0938 26.1022 14.1424 26.2196 14.2289 26.3061C14.3155 26.3927 14.4329 26.4413 14.5553 26.4413Z" fill="#1F2937"/>
<path d="M25.8477 14.8396C25.9701 14.8396 26.0875 14.7909 26.174 14.7044C26.2606 14.6178 26.3092 14.5004 26.3092 14.378C26.3092 14.2556 26.2606 14.1382 26.174 14.0517C26.0875 13.9651 25.9701 13.9165 25.8477 13.9165H24.9615C24.8391 13.9165 24.7217 13.9651 24.6352 14.0517C24.5486 14.1382 24.5 14.2556 24.5 14.378C24.5 14.5004 24.5486 14.6178 24.6352 14.7044C24.7217 14.7909 24.8391 14.8396 24.9615 14.8396H25.8477Z" fill="#1F2937"/>
<path d="M23.6763 18.247C23.6763 18.1246 23.6276 18.0072 23.5411 17.9207C23.4545 17.8341 23.3371 17.7855 23.2147 17.7855H18.2037C18.1431 17.7855 18.0831 17.7974 18.0271 17.8206C17.9711 17.8438 17.9202 17.8778 17.8774 17.9207C17.8345 17.9635 17.8005 18.0144 17.7773 18.0704C17.7541 18.1264 17.7422 18.1864 17.7422 18.247C17.7422 18.3076 17.7541 18.3677 17.7773 18.4237C17.8005 18.4797 17.8345 18.5305 17.8774 18.5734C17.9202 18.6162 17.9711 18.6502 18.0271 18.6734C18.0831 18.6966 18.1431 18.7086 18.2037 18.7086H23.2147C23.3371 18.7086 23.4545 18.6599 23.5411 18.5734C23.6276 18.4868 23.6763 18.3694 23.6763 18.247Z" fill="#1F2937"/>
<path d="M15.9895 21.6519H15.0084C14.886 21.6519 14.7686 21.7005 14.6821 21.7871C14.5955 21.8736 14.5469 21.991 14.5469 22.1134C14.5469 22.2358 14.5955 22.3532 14.6821 22.4398C14.7686 22.5263 14.886 22.5749 15.0084 22.5749H16.0027C16.1251 22.5749 16.2425 22.5263 16.3291 22.4398C16.4156 22.3532 16.4642 22.2358 16.4642 22.1134C16.4642 21.991 16.4156 21.8736 16.3291 21.7871C16.2425 21.7005 16.1251 21.6519 16.0027 21.6519H15.9895Z" fill="#1F2937"/>
</g>
<defs>
<clipPath id="clip0_2514_6767">
<rect width="24" height="24" fill="white" transform="translate(10 10)"/>
</clipPath>
</defs>
</svg>
