<svg width="125" height="56" viewBox="0 0 125 56" fill="none" xmlns="http://www.w3.org/2000/svg">
<path d="M50.7009 9.33113C53.4081 6.54229 57.3497 5.0695 61.2162 5.21645C63.4826 5.36667 65.7489 5.95774 67.6854 7.16602C68.4888 7.66893 69.2888 8.20776 69.9289 8.91313C69.3182 9.6283 68.6031 10.2455 67.9565 10.928C67.2674 11.5909 66.6241 12.3028 65.9154 12.9429C64.8051 11.9338 63.4271 11.1729 61.9281 10.9705C60.3704 10.7876 58.7246 10.8627 57.2975 11.5681C55.7104 12.2832 54.3715 13.5209 53.493 15.0198C53.1893 15.526 52.9901 16.0844 52.7419 16.62C51.1581 15.4542 49.6396 14.2034 48.0688 13.018C48.686 11.6301 49.6265 10.3925 50.7042 9.33113" fill="#EA4335"/>
<path d="M48.0659 13.0148C49.6366 14.2002 51.1551 15.4509 52.739 16.6167C52.5038 17.7532 52.1479 18.9157 52.3667 20.0848C52.432 20.7282 52.6247 21.3486 52.739 21.9822C51.5045 22.9553 50.2505 23.9056 49.0259 24.8951C48.719 25.1433 48.3794 25.3523 48.0332 25.5417C47.1939 23.8436 46.6584 21.9756 46.6061 20.075C46.5539 18.8308 46.5963 17.5703 46.8641 16.349C47.1515 15.2027 47.4715 14.0402 48.0691 13.0148" fill="#FBBC04"/>
<path d="M60.7041 16.7212C64.5542 16.7212 68.4044 16.7212 72.2546 16.7212C72.7444 16.7212 73.2408 16.6853 73.7306 16.7637C74.5797 20.9469 73.6555 25.5841 70.8732 28.8857C70.5695 29.2481 70.2789 29.64 69.8609 29.8751C68.3228 28.7452 66.8532 27.5272 65.3314 26.3744C66.6638 25.3719 67.6892 23.8697 67.8688 22.1879C65.4653 22.1454 63.0651 22.2042 60.6616 22.1585C60.5963 20.7379 60.6583 19.3109 60.6322 17.8871C60.6453 17.4952 60.58 17.0935 60.7041 16.7147" fill="#4284F4"/>
<path d="M49.0256 24.8951C50.2502 23.9056 51.5042 22.9553 52.7386 21.9822C53.0423 22.5471 53.2349 23.1676 53.5876 23.7064C54.6947 25.5221 56.5038 26.9002 58.5579 27.4554C59.9948 27.7917 61.5035 27.746 62.9436 27.4292C63.7927 27.2104 64.5666 26.799 65.3275 26.3777C66.8493 27.5305 68.3188 28.7485 69.8569 29.8784C69.4879 30.352 68.9817 30.6851 68.4984 31.0279C66.206 32.651 63.3681 33.2943 60.5989 33.3629C57.8035 33.3073 55.0016 32.5105 52.6928 30.9071C50.7106 29.5584 49.0876 27.6905 48.0295 25.5417C48.379 25.3523 48.7153 25.1433 49.0223 24.8951" fill="#34A853"/>
<path d="M29.3993 45.9899H25.1931V46.9598H28.4392C28.4032 47.3549 28.3183 47.7011 28.1877 48.0276C28.0571 48.3509 27.8873 48.6253 27.6717 48.8539C27.3974 49.1543 27.048 49.3927 26.6529 49.5854C26.2577 49.765 25.7646 49.8597 25.1801 49.8597C24.5955 49.8597 23.9947 49.7029 23.4656 49.4057C22.9268 49.1184 22.4957 48.7004 22.1724 48.1485C21.8491 47.6097 21.6924 46.9859 21.6924 46.2805C21.6924 45.5752 21.8491 44.9384 22.1724 44.3995C22.4957 43.8607 22.9137 43.4395 23.4558 43.1423C23.9947 42.8419 24.5694 42.6982 25.1801 42.6982C25.683 42.6982 26.15 42.7929 26.581 42.9725C27.0121 43.1521 27.3582 43.4166 27.6358 43.7628L28.3902 43.0084C28.0179 42.6002 27.5509 42.2769 26.9892 42.0483C26.4275 41.8197 25.8136 41.7021 25.167 41.7021C24.3539 41.7021 23.5865 41.9046 22.9039 42.2998C22.2084 42.708 21.6565 43.2598 21.2515 43.9522C20.8433 44.6575 20.6409 45.425 20.6409 46.2773C20.6409 47.1296 20.8433 47.8938 21.2515 48.6024C21.6597 49.298 22.2116 49.8499 22.9039 50.245C23.5865 50.6532 24.3539 50.8426 25.167 50.8426C26.5092 50.8426 27.5738 50.4116 28.3902 49.5364C28.7625 49.1543 29.0368 48.7102 29.2033 48.1942C29.3699 47.6913 29.4548 47.1623 29.4548 46.6234C29.4548 46.4308 29.4417 46.2152 29.396 45.9899H29.3993Z" fill="#5F6368"/>
<path d="M29.507 45.9768L29.494 45.8821H25.0854V47.0675H28.3216C28.2857 47.4039 28.2008 47.7141 28.093 47.9917C27.9722 48.3019 27.8056 48.5664 27.6032 48.782C27.3289 49.0693 26.9925 49.3077 26.6202 49.4873C26.2381 49.6539 25.7581 49.7518 25.1834 49.7518C24.6086 49.7518 24.0339 49.6082 23.5179 49.3208C23.0019 49.0334 22.5839 48.6154 22.2704 48.0994C21.9602 47.5737 21.8034 46.9597 21.8034 46.2772C21.8034 45.5947 21.9602 44.971 22.2704 44.455C22.5709 43.9292 22.9889 43.521 23.5048 43.2337C24.0208 42.9463 24.5825 42.8026 25.1834 42.8026C25.6634 42.8026 26.1173 42.8875 26.5386 43.0671C26.9566 43.2467 27.2929 43.4982 27.5575 43.8215L27.6424 43.9162L28.5404 43.0181L28.4686 42.9463C28.0963 42.5152 27.6064 42.1789 27.0317 41.9503C26.4569 41.7119 25.8332 41.5911 25.1736 41.5911C24.3343 41.5911 23.5571 41.8066 22.8484 42.2148C22.1431 42.623 21.5781 43.1847 21.1601 43.9031C20.7519 44.6085 20.5364 45.4118 20.5364 46.274C20.5364 47.1361 20.7519 47.9394 21.1601 48.6448C21.5781 49.3632 22.1431 49.9282 22.8484 50.3331C23.5538 50.7413 24.3343 50.9438 25.1736 50.9438C26.5386 50.9438 27.6424 50.4899 28.4686 49.6016C28.8506 49.2195 29.138 48.7493 29.3078 48.2235C29.4874 47.7076 29.5723 47.1687 29.5723 46.6169C29.5723 46.4242 29.5495 46.1988 29.5136 45.9703L29.507 45.9768ZM25.1703 50.7348C24.38 50.7348 23.6256 50.5421 22.9529 50.16C22.2835 49.7649 21.7414 49.2261 21.3462 48.5436C20.9511 47.861 20.7486 47.1067 20.7486 46.2805C20.7486 45.4543 20.9511 44.6869 21.3462 44.0044C21.7414 43.3349 22.2802 42.783 22.9529 42.3977C23.6224 42.0156 24.38 41.8099 25.1703 41.8099C25.8038 41.8099 26.4047 41.9307 26.9435 42.1462C27.4595 42.3487 27.9036 42.6491 28.2367 43.0083L27.6489 43.606C27.3746 43.2957 27.0252 43.0443 26.617 42.8745C26.1728 42.6818 25.6928 42.5871 25.1801 42.5871C24.5466 42.5871 23.9457 42.7438 23.4069 43.041C22.855 43.3512 22.4108 43.7823 22.0777 44.3472C21.7545 44.8991 21.5879 45.5457 21.5879 46.2772C21.5879 47.0087 21.7545 47.6553 22.0777 48.2072C22.4141 48.7591 22.855 49.2032 23.4069 49.5004C23.9587 49.8106 24.5564 49.9674 25.1801 49.9674C25.8038 49.9674 26.2937 49.8727 26.7019 49.68C27.1101 49.4873 27.4562 49.2359 27.7567 48.9256C27.9722 48.6873 28.1518 48.3999 28.2955 48.0766C28.4261 47.7402 28.511 47.3679 28.5469 46.9728V46.852H25.3009V46.0976H29.3144C29.3372 46.2903 29.3503 46.4699 29.3503 46.6234C29.3503 47.1491 29.2654 47.6651 29.0988 48.168C28.9421 48.6579 28.6678 49.0922 28.3085 49.4612C27.5313 50.3103 26.4765 50.7315 25.1703 50.7315V50.7348Z" fill="#5F6368"/>
<path d="M36.479 45.8592C36.2047 45.3563 35.8194 44.9611 35.3295 44.6607C34.8495 44.3733 34.2976 44.2166 33.6869 44.2166C33.0762 44.2166 32.5243 44.3733 32.0345 44.6607C31.5447 44.9611 31.1593 45.3563 30.8948 45.8592C30.6205 46.3621 30.4768 46.927 30.4768 47.5377C30.4768 48.1484 30.6205 48.7002 30.8948 49.2162C31.1593 49.7191 31.5414 50.1143 32.0345 50.4147C32.5243 50.7021 33.0762 50.8458 33.6869 50.8458C34.2976 50.8458 34.8495 50.7021 35.3295 50.4147C35.8194 50.1143 36.2047 49.7191 36.479 49.2162C36.7533 48.7002 36.8872 48.1484 36.8872 47.5377C36.8872 46.927 36.7566 46.3621 36.479 45.8592ZM34.7548 49.6212C34.4184 49.8138 34.0723 49.9085 33.6869 49.9085C33.3016 49.9085 32.9456 49.8138 32.6093 49.6212C32.2729 49.4285 32.0116 49.1542 31.8059 48.795C31.6034 48.4357 31.5055 48.0177 31.5055 47.5377C31.5055 47.0576 31.6002 46.6396 31.8059 46.2804C32.0084 45.9212 32.2729 45.6469 32.6093 45.4542C32.9456 45.2616 33.3048 45.1668 33.6869 45.1668C34.069 45.1668 34.4184 45.2616 34.7548 45.4542C35.0911 45.6469 35.3524 45.9212 35.545 46.2804C35.7475 46.6396 35.8455 47.0576 35.8455 47.5377C35.8455 48.0177 35.7508 48.4357 35.545 48.795C35.3524 49.1542 35.0911 49.4285 34.7548 49.6212Z" fill="#5F6368"/>
<path d="M35.6401 46.2184C35.4376 45.8461 35.1502 45.5587 34.8008 45.3562C34.1183 44.9611 33.2562 44.9611 32.5606 45.3562C32.2014 45.5587 31.9271 45.8461 31.7115 46.2184C31.5091 46.6004 31.4013 47.0315 31.4013 47.5377C31.4013 48.0438 31.5091 48.4716 31.7115 48.8439C31.9271 49.2162 32.2014 49.5134 32.5606 49.7191C32.9067 49.9118 33.279 50.0195 33.6872 50.0195C34.0954 50.0195 34.4644 49.9118 34.8008 49.7191C35.147 49.5166 35.4343 49.2162 35.6401 48.8439C35.8425 48.4716 35.9503 48.0308 35.9503 47.5377C35.9503 47.0446 35.8425 46.6037 35.6401 46.2184ZM32.6553 49.5264C32.3451 49.3468 32.0936 49.0823 31.9009 48.7492C31.7083 48.4031 31.6136 47.9948 31.6136 47.5377C31.6136 47.0805 31.7083 46.6755 31.9009 46.3261C32.0936 45.9898 32.3451 45.7285 32.6553 45.5489C32.9786 45.3693 33.3149 45.2746 33.6872 45.2746C34.0595 45.2746 34.3926 45.3693 34.7061 45.5489C35.0065 45.7285 35.2678 45.993 35.4474 46.3261C35.6401 46.6723 35.7348 47.0674 35.7348 47.5377C35.7348 48.0079 35.6401 48.3998 35.4474 48.7492C35.2678 49.0856 35.0033 49.3468 34.693 49.5264C34.0693 49.8856 33.2921 49.8856 32.6553 49.5264ZM35.6401 46.2184C35.4376 45.8461 35.1502 45.5587 34.8008 45.3562C34.1183 44.9611 33.2562 44.9611 32.5606 45.3562C32.2014 45.5587 31.9271 45.8461 31.7115 46.2184C31.5091 46.6004 31.4013 47.0315 31.4013 47.5377C31.4013 48.0438 31.5091 48.4716 31.7115 48.8439C31.9271 49.2162 32.2014 49.5134 32.5606 49.7191C32.9067 49.9118 33.279 50.0195 33.6872 50.0195C34.0954 50.0195 34.4644 49.9118 34.8008 49.7191C35.147 49.5166 35.4343 49.2162 35.6401 48.8439C35.8425 48.4716 35.9503 48.0308 35.9503 47.5377C35.9503 47.0446 35.8425 46.6037 35.6401 46.2184ZM32.6553 49.5264C32.3451 49.3468 32.0936 49.0823 31.9009 48.7492C31.7083 48.4031 31.6136 47.9948 31.6136 47.5377C31.6136 47.0805 31.7083 46.6755 31.9009 46.3261C32.0936 45.9898 32.3451 45.7285 32.6553 45.5489C32.9786 45.3693 33.3149 45.2746 33.6872 45.2746C34.0595 45.2746 34.3926 45.3693 34.7061 45.5489C35.0065 45.7285 35.2678 45.993 35.4474 46.3261C35.6401 46.6723 35.7348 47.0674 35.7348 47.5377C35.7348 48.0079 35.6401 48.3998 35.4474 48.7492C35.2678 49.0856 35.0033 49.3468 34.693 49.5264C34.0693 49.8856 33.2921 49.8856 32.6553 49.5264ZM36.574 45.8134C36.2867 45.2974 35.8915 44.8794 35.3886 44.566C34.8857 44.2655 34.311 44.1218 33.6872 44.1218C33.0635 44.1218 32.4757 44.2655 31.9728 44.566C31.4699 44.8762 31.0747 45.2974 30.7971 45.8134C30.5098 46.3294 30.3792 46.9172 30.3792 47.5377C30.3792 48.1581 30.5098 48.7492 30.7971 49.2619C31.0715 49.7779 31.4666 50.1959 31.9728 50.4963C32.4757 50.7967 33.0504 50.9502 33.6872 50.9502C34.324 50.9502 34.8857 50.7935 35.3886 50.4963C35.8915 50.1959 36.2867 49.7779 36.574 49.2619C36.8483 48.7459 36.992 48.1581 36.992 47.5377C36.992 46.9172 36.8483 46.3261 36.574 45.8134ZM33.6872 50.738C33.0994 50.738 32.5606 50.5943 32.0936 50.32C31.6136 50.0326 31.2413 49.6505 30.98 49.1574C30.7286 48.6774 30.5849 48.1255 30.5849 47.5409C30.5849 46.9564 30.7286 46.4012 30.98 45.9114C31.2445 45.4313 31.6136 45.0362 32.0936 44.7619C32.5606 44.4745 33.0994 44.3308 33.6872 44.3308C34.275 44.3308 34.8139 44.4745 35.2808 44.7619C35.7478 45.0362 36.1201 45.4313 36.3846 45.9114C36.6491 46.4012 36.7798 46.9531 36.7798 47.5409C36.7798 48.1287 36.6491 48.6806 36.3846 49.1574C36.1201 49.6473 35.7511 50.0326 35.2808 50.32C34.8139 50.5943 34.275 50.738 33.6872 50.738ZM35.6401 46.2216C35.4376 45.8493 35.1502 45.562 34.8008 45.3595C34.1183 44.9644 33.2562 44.9644 32.5606 45.3595C32.2014 45.562 31.9271 45.8493 31.7115 46.2216C31.5091 46.6037 31.4013 47.0348 31.4013 47.5409C31.4013 48.0471 31.5091 48.4749 31.7115 48.8472C31.9271 49.2195 32.2014 49.5166 32.5606 49.7224C32.9067 49.915 33.279 50.0228 33.6872 50.0228C34.0954 50.0228 34.4644 49.915 34.8008 49.7224C35.147 49.5199 35.4343 49.2195 35.6401 48.8472C35.8425 48.4749 35.9503 48.034 35.9503 47.5409C35.9503 47.0478 35.8425 46.607 35.6401 46.2216ZM32.6553 49.5297C32.3451 49.3501 32.0936 49.0856 31.9009 48.7525C31.7083 48.4063 31.6136 47.9981 31.6136 47.5409C31.6136 47.0837 31.7083 46.6788 31.9009 46.3294C32.0936 45.993 32.3451 45.7318 32.6553 45.5522C32.9786 45.3726 33.3149 45.2779 33.6872 45.2779C34.0595 45.2779 34.3926 45.3726 34.7061 45.5522C35.0065 45.7318 35.2678 45.9963 35.4474 46.3294C35.6401 46.6755 35.7348 47.0707 35.7348 47.5409C35.7348 48.0112 35.6401 48.403 35.4474 48.7525C35.2678 49.0888 35.0033 49.3501 34.693 49.5297C34.0693 49.8889 33.2921 49.8889 32.6553 49.5297Z" fill="#5F6368"/>
<path d="M43.7525 45.8592C43.4781 45.3563 43.0928 44.9611 42.603 44.6607C42.1229 44.3733 41.571 44.2166 40.9603 44.2166C40.3497 44.2166 39.7978 44.3733 39.3079 44.6607C38.8181 44.9611 38.4328 45.3563 38.1682 45.8592C37.8939 46.3621 37.7502 46.927 37.7502 47.5377C37.7502 48.1484 37.8939 48.7002 38.1682 49.2162C38.4328 49.7191 38.8148 50.1143 39.3079 50.4147C39.7978 50.7021 40.3497 50.8458 40.9603 50.8458C41.571 50.8458 42.1229 50.7021 42.603 50.4147C43.0928 50.1143 43.4781 49.7191 43.7525 49.2162C44.017 48.7002 44.1607 48.1484 44.1607 47.5377C44.1607 46.927 44.017 46.3621 43.7525 45.8592ZM42.0282 49.6212C41.6918 49.8138 41.3457 49.9085 40.9603 49.9085C40.575 49.9085 40.2191 49.8138 39.8827 49.6212C39.5463 49.4285 39.2851 49.1542 39.0794 48.795C38.8769 48.4357 38.7789 48.0177 38.7789 47.5377C38.7789 47.0576 38.8736 46.6396 39.0794 46.2804C39.2818 45.9212 39.5463 45.6469 39.8827 45.4542C40.2191 45.2616 40.5783 45.1668 40.9603 45.1668C41.3424 45.1668 41.6918 45.2616 42.0282 45.4542C42.3515 45.6469 42.6258 45.9212 42.8185 46.2804C43.021 46.6396 43.1189 47.0576 43.1189 47.5377C43.1189 48.0177 43.0242 48.4357 42.8185 48.795C42.6258 49.1542 42.3515 49.4285 42.0282 49.6212Z" fill="#5F6368"/>
<path d="M42.9129 46.2184C42.7104 45.8461 42.423 45.5587 42.0736 45.3562C41.3911 44.9611 40.529 44.9611 39.8204 45.3562C39.4742 45.5587 39.1966 45.8461 38.9811 46.2184C38.7786 46.6004 38.6709 47.0315 38.6709 47.5377C38.6709 48.0438 38.7786 48.4716 38.9811 48.8439C39.1966 49.2162 39.4709 49.5134 39.8204 49.7191C40.1796 49.9118 40.5518 50.0195 40.96 50.0195C41.3683 50.0195 41.7373 49.9118 42.0736 49.7191C42.4198 49.5166 42.7072 49.2162 42.9129 48.8439C43.1154 48.4716 43.2231 48.0308 43.2231 47.5377C43.2231 47.0446 43.1154 46.6037 42.9129 46.2184ZM39.9281 49.5264C39.6179 49.3468 39.3664 49.0823 39.1738 48.7492C38.9811 48.4031 38.8864 47.9948 38.8864 47.5377C38.8864 47.0805 38.9811 46.6755 39.1738 46.3261C39.3664 45.9898 39.6179 45.7285 39.9281 45.5489C40.2514 45.3693 40.5878 45.2746 40.96 45.2746C41.3323 45.2746 41.6556 45.3693 41.9659 45.5489C42.2761 45.7285 42.5406 45.993 42.7202 46.3261C42.9129 46.6723 43.0076 47.0674 43.0076 47.5377C43.0076 48.0079 42.9129 48.3998 42.7202 48.7492C42.5406 49.0856 42.2761 49.3468 41.9659 49.5264C41.3421 49.8856 40.5649 49.8856 39.9281 49.5264ZM42.9129 46.2184C42.7104 45.8461 42.423 45.5587 42.0736 45.3562C41.3911 44.9611 40.529 44.9611 39.8204 45.3562C39.4742 45.5587 39.1966 45.8461 38.9811 46.2184C38.7786 46.6004 38.6709 47.0315 38.6709 47.5377C38.6709 48.0438 38.7786 48.4716 38.9811 48.8439C39.1966 49.2162 39.4709 49.5134 39.8204 49.7191C40.1796 49.9118 40.5518 50.0195 40.96 50.0195C41.3683 50.0195 41.7373 49.9118 42.0736 49.7191C42.4198 49.5166 42.7072 49.2162 42.9129 48.8439C43.1154 48.4716 43.2231 48.0308 43.2231 47.5377C43.2231 47.0446 43.1154 46.6037 42.9129 46.2184ZM39.9281 49.5264C39.6179 49.3468 39.3664 49.0823 39.1738 48.7492C38.9811 48.4031 38.8864 47.9948 38.8864 47.5377C38.8864 47.0805 38.9811 46.6755 39.1738 46.3261C39.3664 45.9898 39.6179 45.7285 39.9281 45.5489C40.2514 45.3693 40.5878 45.2746 40.96 45.2746C41.3323 45.2746 41.6556 45.3693 41.9659 45.5489C42.2761 45.7285 42.5406 45.993 42.7202 46.3261C42.9129 46.6723 43.0076 47.0674 43.0076 47.5377C43.0076 48.0079 42.9129 48.3998 42.7202 48.7492C42.5406 49.0856 42.2761 49.3468 41.9659 49.5264C41.3421 49.8856 40.5649 49.8856 39.9281 49.5264ZM43.8469 45.8134C43.5595 45.2974 43.1643 44.8794 42.6614 44.566C42.1585 44.2655 41.5838 44.1218 40.96 44.1218C40.3363 44.1218 39.7485 44.2655 39.2456 44.566C38.7427 44.8762 38.3476 45.2974 38.07 45.8134C37.7826 46.3294 37.6389 46.9172 37.6389 47.5377C37.6389 48.1581 37.7826 48.7492 38.07 49.2619C38.3443 49.7779 38.7394 50.1959 39.2456 50.4963C39.7485 50.7967 40.3233 50.9502 40.96 50.9502C41.5968 50.9502 42.1585 50.7935 42.6614 50.4963C43.1643 50.1959 43.5595 49.7779 43.8469 49.2619C44.1212 48.7459 44.2649 48.1581 44.2649 47.5377C44.2649 46.9172 44.1212 46.3261 43.8469 45.8134ZM40.96 50.738C40.3624 50.738 39.8334 50.5943 39.3664 50.32C38.8864 50.0326 38.5174 49.6505 38.2529 49.1574C37.9883 48.6774 37.8577 48.1255 37.8577 47.5409C37.8577 46.9564 37.9883 46.4012 38.2529 45.9114C38.5174 45.4313 38.8864 45.0362 39.3664 44.7619C39.8334 44.4745 40.3722 44.3308 40.96 44.3308C41.5479 44.3308 42.0867 44.4745 42.5537 44.7619C43.0207 45.0362 43.3929 45.4313 43.6575 45.9114C43.922 46.4012 44.0526 46.9531 44.0526 47.5409C44.0526 48.1287 43.922 48.6806 43.6575 49.1574C43.3929 49.6473 43.0239 50.0326 42.5537 50.32C42.0867 50.5943 41.5479 50.738 40.96 50.738ZM42.9129 46.2216C42.7104 45.8493 42.423 45.562 42.0736 45.3595C41.3911 44.9644 40.529 44.9644 39.8204 45.3595C39.4742 45.562 39.1966 45.8493 38.9811 46.2216C38.7786 46.6037 38.6709 47.0348 38.6709 47.5409C38.6709 48.0471 38.7786 48.4749 38.9811 48.8472C39.1966 49.2195 39.4709 49.5166 39.8204 49.7224C40.1796 49.915 40.5518 50.0228 40.96 50.0228C41.3683 50.0228 41.7373 49.915 42.0736 49.7224C42.4198 49.5199 42.7072 49.2195 42.9129 48.8472C43.1154 48.4749 43.2231 48.034 43.2231 47.5409C43.2231 47.0478 43.1154 46.607 42.9129 46.2216ZM39.9281 49.5297C39.6179 49.3501 39.3664 49.0856 39.1738 48.7525C38.9811 48.4063 38.8864 47.9981 38.8864 47.5409C38.8864 47.0837 38.9811 46.6788 39.1738 46.3294C39.3664 45.993 39.6179 45.7318 39.9281 45.5522C40.2514 45.3726 40.5878 45.2779 40.96 45.2779C41.3323 45.2779 41.6556 45.3726 41.9659 45.5522C42.2761 45.7318 42.5406 45.9963 42.7202 46.3294C42.9129 46.6755 43.0076 47.0707 43.0076 47.5409C43.0076 48.0112 42.9129 48.403 42.7202 48.7525C42.5406 49.0888 42.2761 49.3501 41.9659 49.5297C41.3421 49.8889 40.5649 49.8889 39.9281 49.5297Z" fill="#5F6368"/>
<path d="M50.1259 44.4191V45.3074H50.0769C49.8744 44.9841 49.5871 44.7196 49.2148 44.5171C48.8425 44.3244 48.4114 44.2167 47.9445 44.2167C47.4056 44.2167 46.9125 44.3604 46.4717 44.6477C46.0275 44.9221 45.6814 45.3172 45.4169 45.8234C45.1524 46.3263 45.0217 46.901 45.0217 47.5378C45.0217 48.1746 45.1524 48.7494 45.4169 49.2523C45.6814 49.7552 46.0275 50.1503 46.4717 50.4279C46.9158 50.7153 47.4056 50.8459 47.9445 50.8459C48.4114 50.8459 48.8425 50.7512 49.2148 50.5454C49.5871 50.3528 49.8744 50.0915 50.0769 49.778H50.1259V50.4736C50.1259 51.1333 49.9463 51.6492 49.5871 52.0084C49.2409 52.3677 48.7347 52.5473 48.0881 52.5473C47.6571 52.5473 47.275 52.4395 46.9484 52.2109C46.6252 51.9823 46.3966 51.6949 46.2529 51.3357L45.3189 51.7439C45.4757 52.224 45.7989 52.6322 46.279 52.9783C46.759 53.3147 47.3566 53.4943 48.0881 53.4943C48.9993 53.4943 49.7308 53.2298 50.2794 52.704C50.8313 52.1783 51.1056 51.4108 51.1056 50.4148V44.4224H50.1226L50.1259 44.4191ZM50.1259 47.5345C50.1259 48.0244 50.0312 48.4457 49.8516 48.8049C49.6589 49.151 49.4205 49.4286 49.1103 49.6213C48.8098 49.8139 48.4768 49.9087 48.0914 49.9087C47.7061 49.9087 47.373 49.8139 47.0725 49.6213C46.7623 49.4417 46.5108 49.1674 46.3312 48.8049C46.1516 48.4457 46.0569 48.0277 46.0569 47.5345C46.0569 47.0414 46.1516 46.6234 46.3312 46.2642C46.5108 45.9181 46.7623 45.6405 47.0725 45.4478C47.373 45.2551 47.7191 45.1604 48.0914 45.1604C48.4637 45.1604 48.8098 45.2551 49.1103 45.4347C49.4205 45.6274 49.6622 45.8887 49.8516 46.2512C50.0312 46.6104 50.1259 47.0284 50.1259 47.5345Z" fill="#5F6368"/>
<path d="M49.946 46.2054C49.7533 45.8332 49.4921 45.5458 49.1688 45.3564C48.8455 45.1539 48.4863 45.0559 48.0911 45.0559C47.696 45.0559 47.3368 45.1637 47.0135 45.3564C46.6902 45.5589 46.4256 45.8462 46.2362 46.2185C46.0436 46.5908 45.9489 47.0316 45.9489 47.5378C45.9489 48.044 46.0436 48.4848 46.2362 48.8571C46.4289 49.2392 46.6902 49.5266 47.0135 49.7193C47.3368 49.9119 47.709 50.0197 48.0911 50.0197C48.4732 50.0197 48.8455 49.9119 49.1688 49.7193C49.4921 49.5168 49.7566 49.2294 49.946 48.8571C50.1256 48.4848 50.2334 48.044 50.2334 47.5378C50.2334 47.0316 50.1256 46.581 49.946 46.2087V46.2054ZM48.0878 49.8009C47.7417 49.8009 47.4184 49.7062 47.118 49.5364C46.8306 49.3568 46.5922 49.0923 46.4224 48.7592C46.2428 48.413 46.1579 48.0048 46.1579 47.5378C46.1579 47.0708 46.2428 46.6626 46.4224 46.3165C46.5889 45.9801 46.8306 45.7189 47.118 45.536C47.4184 45.3694 47.7417 45.2715 48.0878 45.2715C48.434 45.2715 48.7704 45.3564 49.0577 45.536C49.3451 45.7156 49.5737 45.9671 49.7533 46.3034C49.9199 46.6496 50.0178 47.0578 50.0178 47.5378C50.0178 48.0179 49.9231 48.413 49.7533 48.7494C49.5737 49.0955 49.3451 49.347 49.0577 49.5266C48.7704 49.7062 48.4471 49.8009 48.0878 49.8009ZM49.946 46.2054C49.7533 45.8332 49.4921 45.5458 49.1688 45.3564C48.8455 45.1539 48.4863 45.0559 48.0911 45.0559C47.696 45.0559 47.3368 45.1637 47.0135 45.3564C46.6902 45.5589 46.4256 45.8462 46.2362 46.2185C46.0436 46.5908 45.9489 47.0316 45.9489 47.5378C45.9489 48.044 46.0436 48.4848 46.2362 48.8571C46.4289 49.2392 46.6902 49.5266 47.0135 49.7193C47.3368 49.9119 47.709 50.0197 48.0911 50.0197C48.4732 50.0197 48.8455 49.9119 49.1688 49.7193C49.4921 49.5168 49.7566 49.2294 49.946 48.8571C50.1256 48.4848 50.2334 48.044 50.2334 47.5378C50.2334 47.0316 50.1256 46.581 49.946 46.2087V46.2054ZM48.0878 49.8009C47.7417 49.8009 47.4184 49.7062 47.118 49.5364C46.8306 49.3568 46.5922 49.0923 46.4224 48.7592C46.2428 48.413 46.1579 48.0048 46.1579 47.5378C46.1579 47.0708 46.2428 46.6626 46.4224 46.3165C46.5889 45.9801 46.8306 45.7189 47.118 45.536C47.4184 45.3694 47.7417 45.2715 48.0878 45.2715C48.434 45.2715 48.7704 45.3564 49.0577 45.536C49.3451 45.7156 49.5737 45.9671 49.7533 46.3034C49.9199 46.6496 50.0178 47.0578 50.0178 47.5378C50.0178 48.0179 49.9231 48.413 49.7533 48.7494C49.5737 49.0955 49.3451 49.347 49.0577 49.5266C48.7704 49.7062 48.4471 49.8009 48.0878 49.8009ZM50.0178 44.3147V45.0462C49.8154 44.7947 49.5639 44.5922 49.2635 44.4355C48.8814 44.2199 48.4373 44.1252 47.9442 44.1252C47.3923 44.1252 46.8763 44.2689 46.4093 44.5563C45.9554 44.8437 45.5831 45.2519 45.3186 45.7776C45.0541 46.2936 44.9104 46.8912 44.9104 47.5378C44.9104 48.1844 45.0541 48.7853 45.3186 49.298C45.5831 49.814 45.9521 50.232 46.4093 50.5193C46.8763 50.8067 47.3923 50.9504 47.9442 50.9504C48.434 50.9504 48.8781 50.8426 49.2635 50.6402C49.5639 50.4736 49.8154 50.2679 50.0178 50.0295V50.4736C50.0178 51.1071 49.8513 51.6002 49.5149 51.9366C49.1786 52.273 48.7018 52.4395 48.0878 52.4395C47.6796 52.4395 47.3106 52.3317 47.0102 52.1293C46.7098 51.9137 46.4844 51.6394 46.3636 51.3031L46.3146 51.1953L45.188 51.6851L45.2108 51.7799C45.3774 52.2697 45.7137 52.7008 46.2166 53.0632C46.7065 53.4225 47.3302 53.6021 48.0846 53.6021C49.0185 53.6021 49.7729 53.3278 50.3477 52.7759C50.9224 52.237 51.2098 51.4337 51.2098 50.4148V44.3147H50.0113H50.0178ZM51.0008 50.4148C51.0008 51.3749 50.7363 52.1162 50.2105 52.6191C49.6717 53.122 48.963 53.3865 48.0911 53.3865C47.3857 53.3865 46.7979 53.22 46.3407 52.8967C45.9227 52.5865 45.6223 52.2272 45.4525 51.806L46.2069 51.4827C46.3505 51.806 46.5791 52.0934 46.8894 52.2991C47.2257 52.5375 47.6307 52.6583 48.0878 52.6583C48.7573 52.6583 49.2863 52.4656 49.6684 52.0836C50.0407 51.7113 50.2301 51.1594 50.2301 50.4769V49.6735H50.0146L49.9786 49.7225C49.786 50.023 49.5117 50.2744 49.1524 50.454C48.8063 50.6467 48.3981 50.7414 47.9409 50.7414C47.4249 50.7414 46.9449 50.6108 46.5269 50.3462C46.0958 50.0719 45.7595 49.6866 45.508 49.2065C45.2566 48.7265 45.1259 48.1648 45.1259 47.5411C45.1259 46.9174 45.2566 46.3655 45.508 45.8756C45.7595 45.3858 46.0958 45.0004 46.5269 44.7359C46.9449 44.4714 47.4249 44.3277 47.9409 44.3277C48.3948 44.3277 48.803 44.4224 49.1524 44.6151C49.5117 44.8078 49.786 45.0592 49.9786 45.3694L50.0146 45.4184H50.2301V44.5302H50.9975V50.4148H51.0008ZM49.1688 45.3596C48.8455 45.1572 48.4863 45.0592 48.0911 45.0592C47.696 45.0592 47.3368 45.167 47.0135 45.3596C46.6902 45.5621 46.4256 45.8495 46.2362 46.2218C46.0436 46.5941 45.9489 47.0349 45.9489 47.5411C45.9489 48.0473 46.0436 48.4881 46.2362 48.8604C46.4289 49.2425 46.6902 49.5298 47.0135 49.7225C47.3368 49.9152 47.709 50.023 48.0911 50.023C48.4732 50.023 48.8455 49.9152 49.1688 49.7225C49.4921 49.52 49.7566 49.2327 49.946 48.8604C50.1256 48.4881 50.2334 48.0473 50.2334 47.5411C50.2334 47.0349 50.1256 46.5843 49.946 46.212C49.7533 45.8397 49.4921 45.5523 49.1688 45.3629V45.3596ZM48.0911 49.8042C47.745 49.8042 47.4217 49.7095 47.1212 49.5396C46.8339 49.36 46.5955 49.0955 46.4256 48.7624C46.246 48.4163 46.1611 48.0081 46.1611 47.5411C46.1611 47.0741 46.246 46.6659 46.4256 46.3197C46.5922 45.9834 46.8339 45.7221 47.1212 45.5393C47.4217 45.3727 47.745 45.2747 48.0911 45.2747C48.4373 45.2747 48.7736 45.3596 49.061 45.5393C49.3484 45.7189 49.577 45.9703 49.7566 46.3067C49.9231 46.6528 50.0211 47.061 50.0211 47.5411C50.0211 48.0211 49.9264 48.4163 49.7566 48.7526C49.577 49.0988 49.3484 49.3502 49.061 49.5298C48.7736 49.7095 48.4503 49.8042 48.0911 49.8042Z" fill="#5F6368"/>
<path d="M52.644 41.9047V50.65H53.676V41.9047H52.644Z" fill="#5F6368"/>
<path d="M52.533 41.7969V50.7577H53.7804V41.7969H52.533ZM53.5649 50.5422H52.7518V42.0124H53.5649V50.5422Z" fill="#5F6368"/>
<path d="M60.8856 47.417C60.8856 46.7933 60.7648 46.2414 60.5264 45.7646C60.288 45.2846 59.9386 44.9025 59.4944 44.638C59.0503 44.3637 58.5115 44.22 57.9008 44.22C57.2902 44.22 56.7742 44.3767 56.3203 44.6739C55.8663 44.9743 55.5071 45.3825 55.2524 45.8854C55.014 46.3883 54.8801 46.9533 54.8801 47.5509C54.8801 48.1485 55.0108 48.7363 55.2883 49.2392C55.5528 49.7421 55.9121 50.1373 56.3921 50.4246C56.8591 50.699 57.3979 50.8426 57.9857 50.8426C58.6454 50.8426 59.1973 50.699 59.6643 50.4116C60.1182 50.1111 60.4905 49.716 60.755 49.2131L59.8798 48.782C59.4487 49.5233 58.825 49.9087 58.0347 49.9087C57.6886 49.9087 57.3653 49.8238 57.0387 49.6572C56.7285 49.5005 56.477 49.249 56.2713 48.9257C56.0688 48.6024 55.948 48.2073 55.9251 47.7272H60.8497C60.8725 47.6423 60.8856 47.5346 60.8856 47.417ZM57.891 45.1637C58.3221 45.1637 58.6682 45.2486 58.9589 45.4283C59.2332 45.6079 59.4389 45.8365 59.5696 46.0879C59.7002 46.3524 59.772 46.6137 59.7851 46.8782H55.9872C56.0949 46.3622 56.3235 45.9442 56.6566 45.6307C56.993 45.3205 57.411 45.1637 57.891 45.1637Z" fill="#5F6368"/>
<path d="M59.8899 46.8651C59.8769 46.5908 59.7952 46.3132 59.6613 46.0487C59.5176 45.7613 59.3021 45.5327 59.0017 45.3433C58.7143 45.1506 58.3322 45.0559 57.8881 45.0559C57.3721 45.0559 56.9411 45.2225 56.5819 45.5588C56.2226 45.8821 55.994 46.3262 55.8765 46.852L55.8536 46.9826H59.903L59.8899 46.8618V46.8651ZM56.1149 46.7704C56.2357 46.3393 56.4382 45.9801 56.7255 45.7156C57.0358 45.4151 57.4309 45.2714 57.8881 45.2714C58.2963 45.2714 58.6294 45.3563 58.8939 45.5229C59.1584 45.6894 59.3478 45.8952 59.4687 46.1336C59.5764 46.3491 59.6352 46.5516 59.6711 46.7671H56.1116L56.1149 46.7704ZM59.8899 46.8651C59.8769 46.5908 59.7952 46.3132 59.6613 46.0487C59.5176 45.7613 59.3021 45.5327 59.0017 45.3433C58.7143 45.1506 58.3322 45.0559 57.8881 45.0559C57.3721 45.0559 56.9411 45.2225 56.5819 45.5588C56.2226 45.8821 55.994 46.3262 55.8765 46.852L55.8536 46.9826H59.903L59.8899 46.8618V46.8651ZM56.1149 46.7704C56.2357 46.3393 56.4382 45.9801 56.7255 45.7156C57.0358 45.4151 57.4309 45.2714 57.8881 45.2714C58.2963 45.2714 58.6294 45.3563 58.8939 45.5229C59.1584 45.6894 59.3478 45.8952 59.4687 46.1336C59.5764 46.3491 59.6352 46.5516 59.6711 46.7671H56.1116L56.1149 46.7704ZM60.6214 45.7156C60.37 45.2257 60.0108 44.8273 59.5536 44.5399C59.0866 44.2526 58.5347 44.1219 57.9012 44.1219C57.2676 44.1219 56.7255 44.2787 56.2586 44.5889C55.7916 44.8992 55.4193 45.3204 55.1548 45.8364C54.9033 46.3524 54.7727 46.9271 54.7727 47.5508C54.7727 48.1746 54.9164 48.7722 55.1907 49.2882C55.4552 49.8041 55.8504 50.2221 56.3304 50.5095C56.8202 50.8099 57.3721 50.9536 57.9828 50.9536C58.6523 50.9536 59.2401 50.7969 59.7071 50.4997C60.1871 50.1993 60.5692 49.7813 60.8468 49.2653L60.8957 49.1706L59.8279 48.6448L59.7789 48.7297C59.3609 49.4612 58.7829 49.8074 58.0285 49.8074C57.7052 49.8074 57.3819 49.7225 57.0946 49.569C56.7941 49.4253 56.5427 49.1869 56.3533 48.8734C56.1737 48.5991 56.079 48.2497 56.043 47.8415H60.9317L60.9545 47.7696C60.9774 47.6619 60.9904 47.5541 60.9904 47.4235C60.9904 46.79 60.8696 46.2119 60.6182 45.7221L60.6214 45.7156ZM60.7651 47.6194H55.8177V47.7403C55.8406 48.2203 55.9614 48.6514 56.1769 48.9877C56.3925 49.3241 56.6668 49.5853 56.9901 49.7551C57.3264 49.9347 57.6726 50.0197 58.0318 50.0197C58.8351 50.0197 59.4687 49.6474 59.9128 48.9159L60.6084 49.2522C60.3569 49.6964 60.0108 50.0556 59.6026 50.3201C59.1584 50.5944 58.6196 50.7381 57.9861 50.7381C57.4244 50.7381 56.8954 50.6075 56.4414 50.3299C55.9973 50.0556 55.6381 49.6702 55.3736 49.1902C55.1221 48.7101 54.9915 48.1582 54.9915 47.5476C54.9915 46.9369 55.1123 46.4209 55.3638 45.9311C55.5924 45.4511 55.9385 45.0559 56.3827 44.7685C56.8137 44.4812 57.3297 44.3244 57.9044 44.3244C58.4792 44.3244 59.0082 44.455 59.4393 44.7196C59.8703 44.9841 60.2067 45.3531 60.4353 45.8103C60.6639 46.2773 60.7814 46.8161 60.7814 47.417C60.7814 47.4888 60.7814 47.5606 60.7684 47.6194H60.7651ZM59.6613 46.0487C59.5176 45.7613 59.3021 45.5327 59.0017 45.3433C58.7143 45.1506 58.3322 45.0559 57.8881 45.0559C57.3721 45.0559 56.9411 45.2225 56.5819 45.5588C56.2226 45.8821 55.994 46.3262 55.8765 46.852L55.8536 46.9826H59.903L59.8899 46.8618C59.8769 46.5875 59.7952 46.3099 59.6613 46.0454V46.0487ZM56.1149 46.7671C56.2357 46.336 56.4382 45.9768 56.7255 45.7123C57.0358 45.4119 57.4309 45.2682 57.8881 45.2682C58.2963 45.2682 58.6294 45.3531 58.8939 45.5196C59.1584 45.6862 59.3478 45.8919 59.4687 46.1303C59.5764 46.3458 59.6352 46.5483 59.6711 46.7638H56.1116L56.1149 46.7671Z" fill="#5F6368"/>
<path d="M80.7355 44.3538C80.4481 44.3407 80.1607 44.3212 79.8766 44.3407C79.3313 44.3473 78.9133 44.7391 78.4626 44.9906C78.43 44.8796 78.3647 44.651 78.332 44.5399C77.9891 44.4812 77.6429 44.4877 77.3001 44.5106C77.2739 46.6006 77.2707 48.6905 77.3001 50.7773C77.6952 50.8001 78.0936 50.7969 78.4887 50.7642C78.5443 49.4939 78.4691 48.2236 78.5181 46.9565C78.5247 46.5222 78.8088 46.1564 79.1027 45.8691C79.5501 45.4641 80.1967 45.5947 80.7453 45.5098C80.7551 45.1245 80.7551 44.7424 80.7322 44.3571L80.7355 44.3538ZM103.229 44.2493C102.778 44.1677 102.295 44.0926 101.854 44.2395C101.505 44.3963 101.195 44.6216 100.868 44.8143C100.757 44.6608 100.646 44.5073 100.541 44.3473C100.215 44.3375 99.8916 44.3473 99.565 44.3734C99.5389 46.4536 99.5389 48.5371 99.565 50.6173C99.9765 50.6597 100.395 50.6597 100.806 50.6042C100.826 49.4318 100.786 48.2628 100.813 47.0937C100.806 46.4079 101.224 45.7123 101.887 45.487C102.338 45.3694 102.808 45.4935 103.272 45.5164C103.278 45.0918 103.272 44.6673 103.232 44.246L103.229 44.2493ZM98.5821 47.7827C98.7225 46.8324 98.4319 45.8495 97.8277 45.1114C96.8285 43.9848 94.9605 43.8182 93.7718 44.7392C91.8974 46.1368 92.0672 49.5821 94.2649 50.5781C95.7475 51.3553 97.8441 50.712 98.4809 49.1216C98.151 48.9747 97.8375 48.6873 97.4555 48.733C97.0146 49.1314 96.626 49.7029 95.9696 49.716C94.8658 49.9152 93.6641 48.9649 93.8045 47.8023C95.3948 47.7729 96.9852 47.8317 98.5756 47.7794L98.5821 47.7827ZM95.5189 45.3335C96.3517 45.2323 97.1909 45.9082 97.2562 46.7442C96.1035 46.7867 94.9507 46.7867 93.798 46.7442C94.0559 46.0127 94.6731 45.2878 95.5189 45.3368V45.3335ZM91.5708 46.3099C91.561 45.1212 90.467 44.0436 89.2588 44.1579C88.5501 44.0795 87.9721 44.5171 87.3973 44.86C87.3582 44.7424 87.2831 44.5106 87.2439 44.3963C86.8651 44.3342 86.483 44.3407 86.1009 44.3767C86.0748 46.4569 86.0748 48.5436 86.1009 50.6238C86.5156 50.663 86.9336 50.663 87.3516 50.6205C87.3712 49.4449 87.332 48.2693 87.3582 47.0969C87.3582 46.4144 87.7272 45.7123 88.3705 45.4315C89.102 45.1506 90.2286 45.4315 90.3005 46.3491C90.4409 47.7696 90.3135 49.2032 90.3658 50.6303C90.7675 50.6662 91.1724 50.663 91.5741 50.6205C91.5741 49.1837 91.5839 47.7468 91.5675 46.3099H91.5708ZM75.9905 45.4968C75.0109 43.6778 71.9314 43.6909 70.955 45.4968C71.2129 45.7417 71.4905 45.9768 71.8106 46.1401C72.2841 45.6535 72.8882 45.2159 73.6132 45.3368C74.4361 45.2878 75.0043 46.0193 75.0696 46.7802C74.4198 46.741 73.7895 46.5156 73.1331 46.5646C72.209 46.6332 71.177 47.0447 70.8341 47.9819C70.279 49.1967 71.2489 50.6434 72.5127 50.8328C73.3846 51.13 74.2271 50.6434 74.9455 50.1927C75.0468 50.3364 75.1448 50.4801 75.2493 50.6303C75.5628 50.6565 75.8795 50.6597 76.1963 50.6401C76.2453 49.5657 76.1963 48.4913 76.2159 47.417C76.2093 46.7736 76.2681 46.0944 75.9905 45.4935V45.4968ZM73.2931 49.778C72.7119 49.8139 72.0196 49.4678 71.9706 48.831C71.8922 48.1681 72.542 47.6619 73.1527 47.6292C73.783 47.577 74.5079 47.5998 75.0076 48.0472C74.9619 48.9453 74.1977 49.7355 73.2931 49.778ZM85.2094 49.6441C84.86 49.6572 84.5105 49.7225 84.1579 49.6898C83.8444 49.618 83.7072 49.2718 83.7203 48.9779C83.7039 47.848 83.7105 46.7181 83.7203 45.5915C84.1873 45.5262 84.664 45.5164 85.1375 45.4968C85.1539 45.1212 85.1539 44.7457 85.131 44.3767C84.6706 44.3081 84.1383 44.4746 83.7301 44.2558C83.6941 43.7268 83.7301 43.1978 83.6941 42.6655C83.3023 42.6394 82.9104 42.6361 82.5185 42.6492C82.3944 43.1782 82.463 43.7301 82.4467 44.2689C82.0972 44.393 81.7184 44.3571 81.3592 44.3963C81.3396 44.7457 81.3298 45.0918 81.3331 45.4445C81.6923 45.4968 82.0515 45.549 82.4107 45.6078C82.5283 46.9108 82.3683 48.2203 82.4924 49.5233C82.5152 50.0784 82.9724 50.467 83.41 50.7381C83.9619 50.8981 84.5497 50.8197 85.1147 50.7871C85.2094 50.4148 85.2551 50.0295 85.2126 49.6474L85.2094 49.6441ZM69.5965 43.1455C69.1262 42.4597 68.3588 41.934 67.5097 41.9275C66.4223 41.8915 65.3316 41.8915 64.2441 41.9275C64.2213 44.8273 64.2376 47.7305 64.2376 50.6303C64.6393 50.6662 65.0409 50.6662 65.4459 50.6303C65.4785 49.4808 65.3871 48.3281 65.4883 47.1818C66.579 47.1133 67.7645 47.3941 68.7474 46.7834C69.2928 46.3981 69.8185 45.8625 69.9034 45.1669C70.0047 44.4877 69.9851 43.7366 69.5965 43.1455ZM67.7514 45.9344C66.997 46.0291 66.2329 45.9736 65.4785 45.967C65.4295 45.0265 65.4034 44.0762 65.4981 43.139C66.3929 43.2043 67.4085 42.9104 68.2086 43.4264C69.0348 44.1089 68.7768 45.5849 67.7514 45.9344Z" fill="#606469"/>
<path d="M80.7351 44.3538C80.4478 44.3407 80.1604 44.3212 79.8763 44.3407C79.3309 44.3473 78.9129 44.7391 78.4623 44.9906C78.4296 44.8796 78.3643 44.651 78.3317 44.5399C77.9888 44.4812 77.6426 44.4877 77.2997 44.5106C77.2736 46.6006 77.2703 48.6905 77.2997 50.7773C77.6949 50.8001 78.0933 50.7969 78.4884 50.7642C78.5439 49.4939 78.4688 48.2236 78.5178 46.9565C78.5243 46.5222 78.8084 46.1564 79.1023 45.8691C79.5497 45.4641 80.1963 45.5947 80.7449 45.5098C80.7547 45.1245 80.7547 44.7424 80.7319 44.3571L80.7351 44.3538ZM100.868 44.8175C100.757 44.664 100.646 44.5106 100.541 44.3505C100.215 44.3407 99.8913 44.3505 99.5647 44.3767C99.5386 46.4569 99.5386 48.5403 99.5647 50.6205C99.9762 50.663 100.394 50.663 100.806 50.6075C100.825 49.4351 100.786 48.266 100.812 47.0969C100.806 46.4111 101.224 45.7156 101.887 45.4902C102.337 45.3727 102.807 45.4968 103.271 45.5196C103.278 45.0951 103.271 44.6706 103.232 44.2493C102.781 44.1677 102.298 44.0926 101.857 44.2395C101.508 44.3963 101.198 44.6216 100.871 44.8143L100.868 44.8175ZM95.5219 45.3335C96.3546 45.2323 97.1939 45.9082 97.2592 46.7442C96.1064 46.7867 94.9537 46.7867 93.8009 46.7442C94.0589 46.0127 94.6761 45.2878 95.5219 45.3368V45.3335ZM94.2679 50.5781C95.7505 51.3553 97.847 50.712 98.4838 49.1216C98.154 48.9747 97.8405 48.6873 97.4584 48.733C97.0175 49.1314 96.6289 49.7029 95.9725 49.716C94.8687 49.9152 93.667 48.9649 93.8074 47.8023C95.3978 47.7729 96.9881 47.8317 98.5785 47.7794C98.7189 46.8291 98.4283 45.8462 97.8241 45.1082C96.8248 43.9815 94.9569 43.815 93.7682 44.7359C91.8938 46.1336 92.0636 49.5788 94.2613 50.5748L94.2679 50.5781ZM87.2501 44.3963C86.8712 44.3342 86.4892 44.3407 86.1071 44.3767C86.081 46.4569 86.081 48.5436 86.1071 50.6238C86.5218 50.663 86.9398 50.663 87.3578 50.6205C87.3774 49.4449 87.3382 48.2693 87.3643 47.0969C87.3643 46.4144 87.7334 45.7123 88.3767 45.4315C89.1082 45.1506 90.2348 45.4315 90.3067 46.3491C90.4471 47.7696 90.3197 49.2032 90.372 50.6303C90.7737 50.6662 91.1786 50.663 91.5803 50.6205C91.5803 49.1837 91.5901 47.7468 91.5737 46.3099C91.5639 45.1212 90.47 44.0436 89.2617 44.1579C88.553 44.0795 87.975 44.5171 87.4003 44.86C87.3611 44.7424 87.286 44.5106 87.2468 44.3963H87.2501ZM73.1557 47.626C73.7859 47.5737 74.5109 47.5966 75.0105 48.044C74.9648 48.942 74.2006 49.7323 73.2961 49.7747C72.7148 49.8107 72.0225 49.4645 71.9735 48.8277C71.8951 48.1648 72.545 47.6586 73.1557 47.626ZM71.8135 46.1401C72.287 45.6535 72.8911 45.2159 73.6161 45.3368C74.439 45.2878 75.0073 46.0193 75.0726 46.7802C74.4227 46.741 73.7924 46.5156 73.1361 46.5646C72.2119 46.6332 71.18 47.0447 70.8371 47.9819C70.2819 49.1967 71.2518 50.6434 72.5156 50.8328C73.3875 51.13 74.23 50.6434 74.9485 50.1927C75.0497 50.3364 75.1477 50.4801 75.2522 50.6303C75.5657 50.6565 75.8824 50.6597 76.1992 50.6401C76.2482 49.5657 76.1992 48.4913 76.2188 47.417C76.2123 46.7736 76.2711 46.0944 75.9935 45.4935C75.0138 43.6746 71.9343 43.6876 70.9579 45.4935C71.2159 45.7384 71.4934 45.9736 71.8135 46.1368V46.1401ZM81.3622 44.393C81.3426 44.7424 81.3328 45.0886 81.336 45.4413C81.6952 45.4935 82.0545 45.5458 82.4137 45.6045C82.5312 46.9075 82.3712 48.217 82.4953 49.52C82.5182 50.0752 82.9754 50.4638 83.413 50.7348C83.9648 50.8948 84.5527 50.8165 85.1176 50.7838C85.2123 50.4115 85.258 50.0262 85.2156 49.6441C84.8662 49.6572 84.5167 49.7225 84.164 49.6898C83.8505 49.618 83.7134 49.2718 83.7265 48.9779C83.7101 47.848 83.7167 46.7181 83.7265 45.5915C84.1934 45.5262 84.6702 45.5164 85.1437 45.4968C85.1601 45.1212 85.1601 44.7457 85.1372 44.3767C84.6768 44.3081 84.1445 44.4746 83.7363 44.2558C83.7003 43.7268 83.7362 43.1978 83.7003 42.6655C83.3085 42.6394 82.9166 42.6361 82.5247 42.6492C82.4006 43.1782 82.4692 43.7301 82.4529 44.2689C82.1034 44.393 81.7246 44.3571 81.3654 44.3963L81.3622 44.393ZM68.2115 43.4231C69.0377 44.1056 68.7797 45.5817 67.7543 45.9311C67 46.0258 66.2358 45.9703 65.4814 45.9638C65.4325 45.0233 65.4063 44.073 65.501 43.1357C66.3958 43.201 67.4114 42.9071 68.2115 43.4231ZM64.2405 50.6303C64.6422 50.6662 65.0439 50.6662 65.4488 50.6303C65.4814 49.4808 65.39 48.3281 65.4912 47.1818C66.582 47.1133 67.7674 47.3941 68.7503 46.7834C69.2957 46.3981 69.8215 45.8625 69.9064 45.1669C70.0076 44.4877 69.988 43.7366 69.5994 43.1455C69.1291 42.4597 68.3617 41.934 67.5127 41.9275C66.4252 41.8915 65.3345 41.8915 64.247 41.9275C64.2242 44.8273 64.2405 47.7305 64.2405 50.6303Z" stroke="#5F6368" stroke-width="0.13" stroke-miterlimit="10"/>
</svg>
