<svg width="125" height="56" viewBox="0 0 125 56" fill="none" xmlns="http://www.w3.org/2000/svg">
<path d="M11.7598 6H22.0936C22.0936 9.44569 22.0936 12.8882 22.0936 16.3339H11.7598V6Z" fill="#F25022"/>
<path d="M23.1494 6H33.4833C33.4833 9.44569 33.4833 12.8882 33.4833 16.3339C30.0408 16.3339 26.5951 16.3339 23.1494 16.3339C23.1494 12.8882 23.1494 9.44569 23.1494 6Z" fill="#80BA01"/>
<path d="M104.949 9.93656C105.902 9.31499 107.133 9.25762 108.207 9.55406C108.216 10.1916 108.207 10.8322 108.21 11.4697C107.7 11.2466 107.101 11.1 106.562 11.3199C106.135 11.4889 105.883 11.9256 105.816 12.3622C105.736 12.9169 105.787 13.4779 105.775 14.0357C106.865 14.0357 107.955 14.0357 109.045 14.0357C109.055 13.3281 109.035 12.6204 109.055 11.9128C109.794 11.7024 110.527 11.4666 111.267 11.2434C111.273 12.1742 111.257 13.1081 111.276 14.0421C112.013 14.0325 112.749 14.0421 113.488 14.0357V15.8494C112.749 15.8175 112.009 15.8398 111.27 15.8398C111.27 16.8821 111.27 17.9276 111.27 18.9699C111.283 19.5469 111.238 20.1302 111.305 20.7039C111.346 21.045 111.471 21.4211 111.786 21.5964C112.319 21.8961 112.998 21.7654 113.485 21.4371V23.2699C112.848 23.5472 112.134 23.6332 111.442 23.5822C110.785 23.5344 110.106 23.2954 109.679 22.7726C109.185 22.1829 109.058 21.3861 109.048 20.6402C109.042 19.0401 109.048 17.4367 109.048 15.8366C107.958 15.8366 106.868 15.8366 105.778 15.8366C105.778 18.3484 105.778 20.8633 105.778 23.3751H103.543C103.543 20.8633 103.543 18.3516 103.543 15.8398C103.024 15.8302 102.507 15.8398 101.988 15.8302C101.988 15.2342 101.991 14.6381 101.988 14.0389C102.504 14.0261 103.021 14.0325 103.537 14.0389C103.575 13.2452 103.454 12.4292 103.69 11.6578C103.891 10.9597 104.337 10.3318 104.949 9.93656ZM57.0984 10.0672C56.4768 10.1374 55.9477 10.7016 55.9636 11.3359C55.9381 11.9383 56.4226 12.477 57.0028 12.5822C57.5606 12.7033 58.2044 12.4674 58.4913 11.9606C58.7495 11.508 58.6857 10.896 58.3351 10.5103C58.0355 10.1565 57.5478 10.0035 57.0984 10.0736V10.0672ZM39.9688 10.3446C39.9688 14.6891 39.9688 19.0337 39.9688 23.3782C40.6764 23.3782 41.3872 23.3782 42.0948 23.3782C42.0948 21.4339 42.0948 19.4895 42.0948 17.5419C42.1012 16.1362 42.0789 14.7306 42.1076 13.3281C42.149 13.3918 42.1841 13.4587 42.2191 13.5257C43.5451 16.8088 44.8616 20.0983 46.1939 23.3782C46.7294 23.3687 47.2649 23.3878 47.8004 23.3687C49.085 20.0856 50.4014 16.812 51.6924 13.5321C51.7274 13.4587 51.7657 13.3918 51.8103 13.3249C51.8199 13.4683 51.8263 13.6117 51.8231 13.7584C51.8199 16.965 51.8263 20.1716 51.8199 23.3751C52.5721 23.3846 53.3244 23.3751 54.0766 23.3782C54.0766 19.0337 54.0766 14.6891 54.0766 10.3477C53.0343 10.3477 51.992 10.3382 50.9497 10.3541C49.6587 13.5671 48.3391 16.7706 47.0354 19.9804C46.7645 19.3429 46.5222 18.6926 46.2641 18.0519C45.2504 15.4828 44.2336 12.9169 43.22 10.3477H39.9688V10.3446ZM63.2471 14.0293C62.2557 14.3162 61.3473 14.9218 60.7672 15.7792C60.0755 16.7865 59.8301 18.0424 59.8842 19.2472C59.9384 20.4075 60.3943 21.5614 61.2358 22.3742C62.0103 23.1264 63.0781 23.5312 64.1459 23.5886C65.1914 23.6396 66.2879 23.4994 67.1996 22.9575C67.19 22.2817 67.1996 21.6092 67.1932 20.9334C66.6035 21.3637 65.915 21.6729 65.1883 21.7558C64.4519 21.8132 63.6614 21.6347 63.0972 21.1342C62.5554 20.6721 62.2653 19.974 62.1952 19.2759C62.0996 18.3834 62.2271 17.4176 62.7881 16.6877C63.2216 16.1012 63.9164 15.7219 64.6432 15.6581C65.558 15.5434 66.4728 15.8908 67.1932 16.4422C67.1996 15.7282 67.1868 15.0174 67.1996 14.3066C66.9988 14.1887 66.7852 14.1026 66.5621 14.0421C65.4847 13.7361 64.3212 13.7265 63.2407 14.0325L63.2471 14.0293ZM83.9849 19.1644C83.9148 20.1366 83.6088 21.1119 83 21.8833C82.3784 22.7025 81.4381 23.2603 80.4341 23.4675C79.5766 23.646 78.6746 23.646 77.8171 23.4675C76.7908 23.2476 75.8377 22.6515 75.2352 21.7845C74.5276 20.7804 74.3268 19.4991 74.4161 18.2942C74.4766 17.271 74.7954 16.2414 75.4488 15.4382C76.166 14.5425 77.2593 14.0102 78.3877 13.8667C79.4619 13.7297 80.5902 13.7902 81.5879 14.2461C82.4517 14.6349 83.153 15.3553 83.5419 16.2191C83.9562 17.1371 84.0551 18.1699 83.9881 19.1676L83.9849 19.1644ZM81.6963 18.2241C81.6421 17.5228 81.4413 16.7865 80.9249 16.2765C80.4404 15.7888 79.7264 15.5976 79.0539 15.6422C78.5184 15.6709 77.9797 15.8526 77.5844 16.2223C77.0394 16.7164 76.7876 17.4527 76.7206 18.1699C76.6473 18.9572 76.7015 19.7891 77.0617 20.5095C77.3422 21.0673 77.8554 21.5072 78.461 21.6666C79.0571 21.8196 79.7041 21.8068 80.2811 21.5869C80.7751 21.3956 81.1672 20.9876 81.3807 20.5063C81.7027 19.7955 81.7346 18.9922 81.6963 18.2241ZM87.6601 13.8891C86.7868 14.0452 85.9293 14.4979 85.4352 15.2565C85.0017 15.9067 84.9476 16.7419 85.1261 17.4846C85.2472 17.9882 85.5532 18.4344 85.9612 18.7532C86.5381 19.1962 87.233 19.4449 87.8896 19.7413C88.2403 19.9071 88.6132 20.076 88.865 20.3788C89.1359 20.7741 89.0531 21.4211 88.5973 21.6474C88.1223 21.8769 87.5645 21.8706 87.0545 21.7877C86.3214 21.6602 85.6265 21.3478 85.0272 20.9111C85.0177 21.6315 85.0272 22.3519 85.0241 23.0722C85.7381 23.391 86.519 23.544 87.2967 23.595C88.3901 23.6364 89.5822 23.4229 90.4077 22.6515C91.2716 21.8865 91.4819 20.5318 90.9879 19.5054C90.7265 18.9572 90.2261 18.5779 89.7065 18.2878C89.0499 17.9085 88.2944 17.7268 87.6601 17.3029C87.2904 17.067 87.1852 16.5538 87.335 16.1586C87.5262 15.7601 87.9852 15.5848 88.4028 15.5689C89.2316 15.5402 90.0667 15.792 90.7488 16.2606C90.7488 15.5752 90.7488 14.8899 90.7488 14.2046C89.7703 13.8349 88.6897 13.701 87.6569 13.8827L87.6601 13.8891ZM101.787 18.7213C101.787 19.8497 101.484 21.0067 100.777 21.9024C100.114 22.7694 99.1001 23.3304 98.0291 23.5089C96.9836 23.6779 95.8775 23.6332 94.8798 23.2412C93.8726 22.8459 93.0343 22.0363 92.6103 21.0386C92.1673 20.0218 92.1226 18.8807 92.2597 17.7937C92.4031 16.7068 92.8972 15.6454 93.7323 14.925C94.4176 14.3226 95.3037 13.9815 96.2026 13.8636C97.3182 13.7265 98.504 13.7998 99.5208 14.3162C100.41 14.7592 101.099 15.5625 101.44 16.4901C101.707 17.1977 101.803 17.9659 101.787 18.7213ZM99.4061 17.6599C99.2913 17.0989 99.0459 16.5442 98.5964 16.1713C98.1119 15.7442 97.4362 15.5976 96.8051 15.6422C96.1867 15.6772 95.5747 15.945 95.1762 16.4263C94.7396 16.9427 94.5483 17.6216 94.4973 18.2846C94.4463 18.9699 94.4973 19.6807 94.7619 20.3214C94.9818 20.8601 95.4026 21.3255 95.9412 21.555C96.4417 21.7717 97.0059 21.81 97.5414 21.7303C98.0386 21.657 98.5231 21.4179 98.8483 21.0291C99.1702 20.6402 99.3423 20.1493 99.4252 19.6584C99.5336 18.9986 99.5336 18.3197 99.4061 17.6631V17.6599ZM72.2039 14.1823C71.6429 14.4979 71.2891 15.0652 71.0501 15.6454C71.0501 15.1099 71.0501 14.5776 71.0501 14.0421C70.3137 14.0389 69.5806 14.0357 68.8443 14.0421C68.8475 17.1531 68.8443 20.2672 68.8443 23.3782H71.0469C71.0469 21.8897 71.0469 20.4011 71.0469 18.9126C71.0278 18.2655 71.0819 17.5961 71.3656 17.0064C71.627 16.4486 72.1274 15.9609 72.7617 15.8876C73.2813 15.8334 73.8328 15.9577 74.2726 16.2414C74.2726 15.4956 74.2726 14.7497 74.2726 14.0038C73.6001 13.7775 72.8159 13.8094 72.1976 14.1791L72.2039 14.1823ZM56.1676 14.0421C56.1676 17.1562 56.1676 20.2672 56.1676 23.3814H58.3861C58.3861 20.2704 58.3798 17.1594 58.3893 14.0452C57.6498 14.0325 56.9071 14.0389 56.1644 14.0421H56.1676Z" fill="#808080"/>
<path d="M11.7598 17.389C15.2055 17.389 18.648 17.389 22.0936 17.389C22.0936 20.8347 22.0936 24.2772 22.0936 27.7229H11.7598V17.389Z" fill="#02A4EF"/>
<path d="M23.1523 17.389C26.5948 17.389 30.0405 17.389 33.4862 17.389V27.7229H23.1523C23.1523 24.2772 23.1523 20.8347 23.1523 17.389Z" fill="#FFB902"/>
<path d="M18.8004 45.5381C18.8343 45.6313 18.8513 45.7076 18.8513 45.767C18.8555 45.8221 18.8407 45.8644 18.8068 45.8941C18.7729 45.9238 18.7157 45.9429 18.6351 45.9513C18.5588 45.9598 18.455 45.9641 18.3236 45.9641C18.1922 45.9641 18.0862 45.9598 18.0057 45.9513C17.9294 45.9471 17.87 45.9386 17.8276 45.9259C17.7895 45.9089 17.7598 45.8878 17.7386 45.8623C17.7217 45.8369 17.7047 45.8051 17.6878 45.767L16.982 43.7642H13.5614L12.8874 45.7415C12.8747 45.7797 12.8578 45.8136 12.8366 45.8432C12.8154 45.8687 12.7836 45.892 12.7412 45.9132C12.7031 45.9301 12.6458 45.9429 12.5695 45.9513C12.4975 45.9598 12.4021 45.9641 12.2834 45.9641C12.1605 45.9641 12.0588 45.9577 11.9782 45.945C11.9019 45.9365 11.8468 45.9174 11.8129 45.8878C11.7833 45.8581 11.7684 45.8157 11.7684 45.7606C11.7727 45.7013 11.7917 45.625 11.8257 45.5317L14.585 37.8893C14.602 37.8427 14.6232 37.8046 14.6486 37.7749C14.6783 37.7452 14.7186 37.7219 14.7694 37.705C14.8245 37.688 14.8923 37.6774 14.9729 37.6732C15.0577 37.6647 15.1636 37.6604 15.2908 37.6604C15.4264 37.6604 15.5388 37.6647 15.6278 37.6732C15.7168 37.6774 15.7888 37.688 15.8439 37.705C15.899 37.7219 15.9414 37.7473 15.9711 37.7812C16.0008 37.8109 16.0241 37.8491 16.041 37.8957L18.8004 45.5381ZM15.259 38.7922H15.2526L13.8348 42.8931H16.6959L15.259 38.7922ZM24.9614 45.767C24.9614 45.8009 24.9529 45.8305 24.9359 45.856C24.9232 45.8814 24.8978 45.9026 24.8596 45.9195C24.8257 45.9323 24.7791 45.9429 24.7198 45.9513C24.6604 45.9598 24.5884 45.9641 24.5036 45.9641C24.4146 45.9641 24.3404 45.9598 24.2811 45.9513C24.2217 45.9429 24.173 45.9323 24.1348 45.9195C24.0967 45.9026 24.0691 45.8814 24.0522 45.856C24.0352 45.8305 24.0267 45.8009 24.0267 45.767V45.0103C23.7258 45.3367 23.4121 45.591 23.0858 45.7733C22.7636 45.9556 22.4097 46.0467 22.024 46.0467C21.6043 46.0467 21.2462 45.9662 20.9494 45.8051C20.6527 45.6398 20.4111 45.4194 20.2246 45.1439C20.0424 44.8641 19.9088 44.5377 19.8241 44.1647C19.7393 43.7875 19.6969 43.3912 19.6969 42.9758C19.6969 42.4841 19.7499 42.0411 19.8559 41.6469C19.9618 41.2485 20.1187 40.9094 20.3264 40.6297C20.5341 40.3499 20.7905 40.1358 21.0957 39.9875C21.4051 39.8349 21.7612 39.7586 22.1638 39.7586C22.4987 39.7586 22.8039 39.8328 23.0794 39.9811C23.3591 40.1252 23.6347 40.3393 23.9059 40.6233V37.298C23.9059 37.2684 23.9123 37.2408 23.925 37.2154C23.942 37.1857 23.9716 37.1645 24.014 37.1518C24.0564 37.1348 24.1094 37.1221 24.173 37.1137C24.2408 37.1009 24.3256 37.0946 24.4273 37.0946C24.5333 37.0946 24.6202 37.1009 24.688 37.1137C24.7558 37.1221 24.8088 37.1348 24.8469 37.1518C24.8851 37.1645 24.9126 37.1857 24.9296 37.2154C24.9508 37.2408 24.9614 37.2684 24.9614 37.298V45.767ZM23.9059 41.7423C23.6219 41.3905 23.3464 41.1235 23.0794 40.9412C22.8166 40.7547 22.5411 40.6614 22.2528 40.6614C21.9858 40.6614 21.759 40.725 21.5725 40.8522C21.386 40.9793 21.2334 41.1468 21.1148 41.3545C21.0003 41.5622 20.9155 41.7974 20.8604 42.0602C20.8096 42.323 20.7841 42.59 20.7841 42.8613C20.7841 43.1496 20.8053 43.4314 20.8477 43.7069C20.8943 43.9825 20.9728 44.2283 21.083 44.4445C21.1932 44.6564 21.3394 44.8281 21.5217 44.9595C21.7039 45.0866 21.9328 45.1502 22.2083 45.1502C22.3482 45.1502 22.4817 45.1311 22.6089 45.093C22.7403 45.0549 22.8738 44.9913 23.0095 44.9023C23.1451 44.8132 23.2871 44.6988 23.4354 44.5589C23.5838 44.4148 23.7406 44.2389 23.9059 44.0312V41.7423ZM31.5928 40.032C31.5928 40.0489 31.5907 40.068 31.5865 40.0892C31.5865 40.1062 31.5843 40.1252 31.5801 40.1464C31.5759 40.1676 31.5695 40.1909 31.561 40.2164C31.5568 40.2418 31.5504 40.2694 31.542 40.299L29.59 45.7352C29.5731 45.7818 29.5498 45.8199 29.5201 45.8496C29.4947 45.8793 29.4544 45.9026 29.3993 45.9195C29.3442 45.9365 29.2742 45.9471 29.1895 45.9513C29.1047 45.9598 28.9987 45.9641 28.8716 45.9641C28.7444 45.9641 28.6384 45.9598 28.5537 45.9513C28.4689 45.9429 28.399 45.9301 28.3439 45.9132C28.293 45.8962 28.2527 45.8729 28.2231 45.8432C28.1934 45.8136 28.1701 45.7775 28.1531 45.7352L26.2076 40.299C26.1906 40.2482 26.1758 40.2037 26.163 40.1655C26.1546 40.1274 26.1482 40.0998 26.144 40.0829C26.144 40.0617 26.144 40.0447 26.144 40.032C26.144 39.9981 26.1524 39.9684 26.1694 39.943C26.1864 39.9176 26.2139 39.8985 26.2521 39.8858C26.2944 39.8688 26.3474 39.8582 26.411 39.854C26.4788 39.8497 26.5615 39.8476 26.659 39.8476C26.7819 39.8476 26.8794 39.8519 26.9514 39.8603C27.0277 39.8646 27.085 39.8752 27.1231 39.8921C27.1655 39.9091 27.1952 39.9303 27.2121 39.9557C27.2333 39.9811 27.2524 40.0129 27.2693 40.0511L28.8843 44.7687L28.9097 44.845L28.9288 44.7687L30.5247 40.0511C30.5331 40.0129 30.548 39.9811 30.5692 39.9557C30.5904 39.9303 30.62 39.9091 30.6582 39.8921C30.7006 39.8752 30.7557 39.8646 30.8235 39.8603C30.8956 39.8519 30.9888 39.8476 31.1032 39.8476C31.2007 39.8476 31.2813 39.8497 31.3449 39.854C31.4084 39.8582 31.4572 39.8688 31.4911 39.8858C31.5292 39.9027 31.5547 39.9239 31.5674 39.9493C31.5843 39.9705 31.5928 39.9981 31.5928 40.032ZM37.5439 42.6579C37.5439 42.8232 37.5016 42.9419 37.4168 43.0139C37.3363 43.0817 37.243 43.1156 37.137 43.1156H33.3858C33.3858 43.4335 33.4176 43.7197 33.4812 43.974C33.5447 44.2283 33.6507 44.4466 33.7991 44.6289C33.9474 44.8111 34.1403 44.951 34.3776 45.0485C34.615 45.146 34.9054 45.1947 35.2487 45.1947C35.52 45.1947 35.7616 45.1735 35.9735 45.1311C36.1854 45.0845 36.3677 45.0337 36.5203 44.9786C36.6771 44.9235 36.8043 44.8747 36.9018 44.8323C37.0035 44.7857 37.0798 44.7624 37.1307 44.7624C37.1603 44.7624 37.1858 44.7709 37.207 44.7878C37.2324 44.8005 37.2515 44.8217 37.2642 44.8514C37.2769 44.8811 37.2854 44.9235 37.2896 44.9786C37.2981 45.0294 37.3023 45.093 37.3023 45.1693C37.3023 45.2244 37.3002 45.2731 37.296 45.3155C37.2917 45.3537 37.2854 45.3897 37.2769 45.4236C37.2727 45.4533 37.2621 45.4808 37.2451 45.5063C37.2324 45.5317 37.2133 45.5571 37.1879 45.5826C37.1667 45.6038 37.0989 45.6419 36.9844 45.697C36.87 45.7479 36.7216 45.7987 36.5394 45.8496C36.3571 45.9005 36.1452 45.945 35.9036 45.9831C35.6662 46.0255 35.4119 46.0467 35.1406 46.0467C34.6701 46.0467 34.2568 45.981 33.9008 45.8496C33.549 45.7182 33.2523 45.5232 33.0107 45.2647C32.7691 45.0061 32.5868 44.6818 32.4639 44.2919C32.3409 43.9019 32.2795 43.4484 32.2795 42.9313C32.2795 42.4396 32.3431 41.9988 32.4702 41.6088C32.5974 41.2146 32.7797 40.8819 33.017 40.6106C33.2586 40.3351 33.549 40.1252 33.8881 39.9811C34.2272 39.8328 34.6065 39.7586 35.0262 39.7586C35.4755 39.7586 35.8569 39.8307 36.1706 39.9748C36.4885 40.1189 36.7492 40.3139 36.9526 40.5597C37.1561 40.8013 37.3045 41.0874 37.3977 41.418C37.4952 41.7444 37.5439 42.0941 37.5439 42.4671V42.6579ZM36.4885 42.3463C36.5012 41.7953 36.3783 41.3629 36.1197 41.0493C35.8654 40.7356 35.4861 40.5788 34.9817 40.5788C34.7231 40.5788 34.4963 40.6275 34.3013 40.725C34.1064 40.8225 33.9432 40.9518 33.8118 41.1129C33.6804 41.2739 33.5786 41.4626 33.5066 41.6787C33.4345 41.8907 33.3943 42.1132 33.3858 42.3463H36.4885ZM42.4905 40.4198C42.4905 40.5131 42.4884 40.5915 42.4841 40.6551C42.4799 40.7187 42.4714 40.7695 42.4587 40.8077C42.446 40.8416 42.429 40.8691 42.4079 40.8903C42.3909 40.9073 42.3655 40.9158 42.3316 40.9158C42.2976 40.9158 42.2553 40.9073 42.2044 40.8903C42.1578 40.8691 42.1027 40.8501 42.0391 40.8331C41.9797 40.8119 41.9119 40.7928 41.8356 40.7759C41.7593 40.7589 41.6767 40.7505 41.5877 40.7505C41.4817 40.7505 41.3778 40.7716 41.2761 40.814C41.1744 40.8564 41.0663 40.9264 40.9519 41.0239C40.8417 41.1213 40.7251 41.2506 40.6022 41.4117C40.4792 41.5728 40.3436 41.7699 40.1953 42.003V45.767C40.1953 45.8009 40.1868 45.8305 40.1698 45.856C40.1529 45.8772 40.1253 45.8962 40.0872 45.9132C40.049 45.9301 39.996 45.9429 39.9282 45.9513C39.8604 45.9598 39.7735 45.9641 39.6675 45.9641C39.5658 45.9641 39.481 45.9598 39.4132 45.9513C39.3454 45.9429 39.2903 45.9301 39.2479 45.9132C39.2098 45.8962 39.1822 45.8772 39.1652 45.856C39.1525 45.8305 39.1462 45.8009 39.1462 45.767V40.0447C39.1462 40.0108 39.1525 39.9833 39.1652 39.9621C39.178 39.9366 39.2034 39.9154 39.2415 39.8985C39.2797 39.8773 39.3284 39.8646 39.3878 39.8603C39.4471 39.8519 39.5255 39.8476 39.623 39.8476C39.7163 39.8476 39.7926 39.8519 39.8519 39.8603C39.9155 39.8646 39.9642 39.8773 39.9982 39.8985C40.0321 39.9154 40.0554 39.9366 40.0681 39.9621C40.085 39.9833 40.0935 40.0108 40.0935 40.0447V40.8776C40.2504 40.6487 40.3966 40.4622 40.5322 40.3181C40.6721 40.174 40.8035 40.0617 40.9264 39.9811C41.0493 39.8964 41.1702 39.8391 41.2888 39.8095C41.4118 39.7756 41.5347 39.7586 41.6576 39.7586C41.7127 39.7586 41.7742 39.7628 41.842 39.7713C41.914 39.7756 41.9882 39.7862 42.0645 39.8031C42.1408 39.8201 42.2086 39.8391 42.268 39.8603C42.3316 39.8815 42.3761 39.9027 42.4015 39.9239C42.4269 39.9451 42.4439 39.9663 42.4524 39.9875C42.4608 40.0044 42.4672 40.0278 42.4714 40.0574C42.4799 40.0871 42.4841 40.1316 42.4841 40.1909C42.4884 40.246 42.4905 40.3223 42.4905 40.4198ZM48.6642 39.8794C48.7913 39.8794 48.8782 39.9091 48.9248 39.9684C48.9715 40.0235 48.9948 40.1062 48.9948 40.2164V45.767C48.9948 45.8009 48.9863 45.8305 48.9694 45.856C48.9524 45.8772 48.9227 45.8962 48.8803 45.9132C48.8422 45.9301 48.7892 45.9429 48.7214 45.9513C48.6536 45.9598 48.5709 45.9641 48.4734 45.9641C48.3675 45.9641 48.2806 45.9598 48.2127 45.9513C48.1449 45.9429 48.0898 45.9301 48.0474 45.9132C48.0093 45.8962 47.9817 45.8772 47.9648 45.856C47.9478 45.8305 47.9394 45.8009 47.9394 45.767V40.7505H44.9829V43.9422C44.9829 44.3364 45.0401 44.6352 45.1545 44.8387C45.2732 45.0379 45.483 45.1375 45.784 45.1375C45.8815 45.1375 45.9684 45.129 46.0447 45.1121C46.121 45.0909 46.1888 45.0697 46.2481 45.0485C46.3075 45.0273 46.3583 45.0082 46.4007 44.9913C46.4431 44.9701 46.4812 44.9595 46.5152 44.9595C46.5363 44.9595 46.5554 44.9658 46.5724 44.9786C46.5936 44.987 46.6084 45.0061 46.6169 45.0358C46.6296 45.0654 46.6402 45.1057 46.6487 45.1566C46.6571 45.2074 46.6614 45.271 46.6614 45.3473C46.6614 45.4702 46.6529 45.5677 46.636 45.6398C46.619 45.7076 46.5936 45.7606 46.5597 45.7987C46.5257 45.8327 46.4749 45.8644 46.4071 45.8941C46.3392 45.9238 46.2608 45.9471 46.1718 45.9641C46.087 45.9852 45.9959 46.0022 45.8984 46.0149C45.8009 46.0276 45.7034 46.034 45.606 46.034C45.3092 46.034 45.0549 45.9958 44.843 45.9195C44.631 45.839 44.4573 45.7203 44.3216 45.5635C44.186 45.4024 44.0864 45.2011 44.0228 44.9595C43.9635 44.7136 43.9338 44.4254 43.9338 44.0948V40.7505H43.1327C43.0691 40.7505 43.0182 40.7165 42.9801 40.6487C42.9419 40.5809 42.9229 40.4707 42.9229 40.3181C42.9229 40.2376 42.9271 40.1698 42.9356 40.1146C42.9483 40.0595 42.9631 40.015 42.9801 39.9811C42.997 39.943 43.0182 39.9176 43.0437 39.9048C43.0733 39.8879 43.1051 39.8794 43.139 39.8794H43.9338V38.5188C43.9338 38.4891 43.9401 38.4616 43.9529 38.4361C43.9698 38.4107 43.9974 38.3895 44.0355 38.3725C44.0779 38.3514 44.133 38.3365 44.2008 38.328C44.2686 38.3196 44.3534 38.3153 44.4551 38.3153C44.5611 38.3153 44.648 38.3196 44.7158 38.328C44.7836 38.3365 44.8366 38.3514 44.8748 38.3725C44.9129 38.3895 44.9405 38.4107 44.9574 38.4361C44.9744 38.4616 44.9829 38.4891 44.9829 38.5188V39.8794H48.6642ZM49.1156 38.1119C49.1156 38.3577 49.069 38.5251 48.9757 38.6142C48.8825 38.7032 48.7108 38.7477 48.4607 38.7477C48.2149 38.7477 48.0453 38.7053 47.9521 38.6205C47.8631 38.5315 47.8186 38.3662 47.8186 38.1246C47.8186 37.8787 47.8652 37.7113 47.9584 37.6223C48.0517 37.5333 48.2233 37.4888 48.4734 37.4888C48.7193 37.4888 48.8867 37.5333 48.9757 37.6223C49.069 37.7071 49.1156 37.8703 49.1156 38.1119ZM54.539 44.2092C54.539 44.5017 54.4839 44.7624 54.3737 44.9913C54.2677 45.2202 54.1151 45.413 53.9159 45.5699C53.7167 45.7267 53.4793 45.8454 53.2038 45.9259C52.9283 46.0064 52.6252 46.0467 52.2946 46.0467C52.0912 46.0467 51.8962 46.0298 51.7097 45.9958C51.5274 45.9662 51.3621 45.928 51.2137 45.8814C51.0696 45.8305 50.9467 45.7797 50.845 45.7288C50.7433 45.6737 50.6691 45.625 50.6224 45.5826C50.5758 45.5402 50.5419 45.4808 50.5207 45.4045C50.4995 45.3282 50.4889 45.2244 50.4889 45.093C50.4889 45.0125 50.4932 44.9446 50.5016 44.8895C50.5101 44.8344 50.5207 44.7899 50.5334 44.756C50.5462 44.7221 50.5631 44.6988 50.5843 44.6861C50.6097 44.6691 50.6373 44.6607 50.667 44.6607C50.7136 44.6607 50.7814 44.6903 50.8704 44.7497C50.9637 44.8048 51.076 44.8662 51.2074 44.934C51.343 45.0019 51.502 45.0654 51.6842 45.1248C51.8665 45.1799 52.0763 45.2074 52.3137 45.2074C52.4917 45.2074 52.6528 45.1884 52.7969 45.1502C52.941 45.1121 53.0661 45.057 53.172 44.9849C53.278 44.9086 53.3585 44.8132 53.4136 44.6988C53.473 44.5844 53.5026 44.4487 53.5026 44.2919C53.5026 44.1308 53.4603 43.9952 53.3755 43.885C53.2949 43.7748 53.1869 43.6773 53.0512 43.5925C52.9156 43.5077 52.763 43.4335 52.5934 43.37C52.4239 43.3021 52.248 43.2322 52.0657 43.1602C51.8877 43.0881 51.7118 43.0076 51.538 42.9185C51.3685 42.8253 51.2159 42.713 51.0802 42.5816C50.9446 42.4502 50.8344 42.2933 50.7496 42.1111C50.6691 41.9288 50.6288 41.7105 50.6288 41.4562C50.6288 41.2315 50.6712 41.0175 50.756 40.814C50.845 40.6063 50.9764 40.4262 51.1502 40.2736C51.324 40.1168 51.5401 39.9917 51.7987 39.8985C52.0615 39.8052 52.3667 39.7586 52.7142 39.7586C52.8668 39.7586 53.0194 39.7713 53.172 39.7967C53.3246 39.8222 53.4624 39.854 53.5853 39.8921C53.7082 39.9303 53.8121 39.9727 53.8968 40.0193C53.9859 40.0617 54.0516 40.0998 54.0939 40.1337C54.1406 40.1676 54.1702 40.1973 54.183 40.2227C54.1999 40.2482 54.2105 40.2778 54.2147 40.3117C54.2232 40.3414 54.2296 40.3796 54.2338 40.4262C54.2423 40.4728 54.2465 40.53 54.2465 40.5979C54.2465 40.6699 54.2423 40.7335 54.2338 40.7886C54.2296 40.8395 54.219 40.8819 54.202 40.9158C54.1893 40.9497 54.1724 40.9751 54.1512 40.9921C54.13 41.0048 54.1067 41.0111 54.0812 41.0111C54.0431 41.0111 53.988 40.9878 53.9159 40.9412C53.8439 40.8946 53.7506 40.8458 53.6362 40.795C53.5217 40.7399 53.3861 40.689 53.2292 40.6424C53.0767 40.5957 52.9007 40.5724 52.7015 40.5724C52.5235 40.5724 52.3667 40.5936 52.231 40.636C52.0954 40.6742 51.9831 40.7314 51.8941 40.8077C51.8093 40.8797 51.7436 40.9666 51.697 41.0684C51.6546 41.1701 51.6334 41.2803 51.6334 41.399C51.6334 41.5643 51.6758 41.7042 51.7605 41.8186C51.8453 41.9288 51.9555 42.0263 52.0912 42.1111C52.2268 42.1958 52.3815 42.2721 52.5553 42.34C52.7291 42.4078 52.905 42.4777 53.083 42.5498C53.2653 42.6218 53.4433 42.7024 53.6171 42.7914C53.7951 42.8804 53.9519 42.9885 54.0876 43.1156C54.2232 43.2428 54.3313 43.3954 54.4118 43.5734C54.4966 43.7515 54.539 43.9634 54.539 44.2092ZM57.0949 45.767C57.0949 45.8009 57.0865 45.8305 57.0695 45.856C57.0525 45.8772 57.025 45.8962 56.9868 45.9132C56.9487 45.9301 56.8957 45.9429 56.8279 45.9513C56.7601 45.9598 56.6732 45.9641 56.5672 45.9641C56.4655 45.9641 56.3807 45.9598 56.3129 45.9513C56.2451 45.9429 56.19 45.9301 56.1476 45.9132C56.1094 45.8962 56.0819 45.8772 56.0649 45.856C56.0522 45.8305 56.0459 45.8009 56.0459 45.767V40.0447C56.0459 40.015 56.0522 39.9875 56.0649 39.9621C56.0819 39.9366 56.1094 39.9154 56.1476 39.8985C56.19 39.8815 56.2451 39.8688 56.3129 39.8603C56.3807 39.8519 56.4655 39.8476 56.5672 39.8476C56.6732 39.8476 56.7601 39.8519 56.8279 39.8603C56.8957 39.8688 56.9487 39.8815 56.9868 39.8985C57.025 39.9154 57.0525 39.9366 57.0695 39.9621C57.0865 39.9875 57.0949 40.015 57.0949 40.0447V45.767ZM57.2157 38.1119C57.2157 38.3577 57.1691 38.5251 57.0759 38.6142C56.9826 38.7032 56.8109 38.7477 56.5609 38.7477C56.315 38.7477 56.1455 38.7053 56.0522 38.6205C55.9632 38.5315 55.9187 38.3662 55.9187 38.1246C55.9187 37.8787 55.9653 37.7113 56.0586 37.6223C56.1518 37.5333 56.3235 37.4888 56.5736 37.4888C56.8194 37.4888 56.9868 37.5333 57.0759 37.6223C57.1691 37.7071 57.2157 37.8703 57.2157 38.1119ZM63.9616 45.767C63.9616 45.8009 63.9531 45.8305 63.9362 45.856C63.9192 45.8772 63.8917 45.8962 63.8535 45.9132C63.8154 45.9301 63.7624 45.9429 63.6946 45.9513C63.6268 45.9598 63.542 45.9641 63.4403 45.9641C63.3343 45.9641 63.2474 45.9598 63.1796 45.9513C63.1118 45.9429 63.0588 45.9301 63.0206 45.9132C62.9825 45.8962 62.9549 45.8772 62.938 45.856C62.921 45.8305 62.9125 45.8009 62.9125 45.767V42.4163C62.9125 42.0899 62.8871 41.8271 62.8363 41.6279C62.7854 41.4286 62.7112 41.257 62.6137 41.1129C62.5162 40.9687 62.3891 40.8585 62.2322 40.7822C62.0796 40.7059 61.9016 40.6678 61.6982 40.6678C61.4354 40.6678 61.1726 40.7611 60.9098 40.9476C60.647 41.1341 60.3714 41.4075 60.0832 41.7677V45.767C60.0832 45.8009 60.0747 45.8305 60.0578 45.856C60.0408 45.8772 60.0133 45.8962 59.9751 45.9132C59.937 45.9301 59.884 45.9429 59.8162 45.9513C59.7484 45.9598 59.6615 45.9641 59.5555 45.9641C59.4538 45.9641 59.369 45.9598 59.3012 45.9513C59.2334 45.9429 59.1783 45.9301 59.1359 45.9132C59.0977 45.8962 59.0702 45.8772 59.0532 45.856C59.0405 45.8305 59.0341 45.8009 59.0341 45.767V40.0447C59.0341 40.0108 59.0405 39.9833 59.0532 39.9621C59.0659 39.9366 59.0914 39.9154 59.1295 39.8985C59.1677 39.8773 59.2164 39.8646 59.2757 39.8603C59.3351 39.8519 59.4135 39.8476 59.511 39.8476C59.6042 39.8476 59.6805 39.8519 59.7399 39.8603C59.8035 39.8646 59.8522 39.8773 59.8861 39.8985C59.92 39.9154 59.9433 39.9366 59.9561 39.9621C59.973 39.9833 59.9815 40.0108 59.9815 40.0447V40.8013C60.3036 40.441 60.6237 40.1782 60.9416 40.0129C61.2637 39.8434 61.588 39.7586 61.9143 39.7586C62.2958 39.7586 62.6158 39.8243 62.8744 39.9557C63.1372 40.0829 63.3491 40.2545 63.5102 40.4707C63.6713 40.6869 63.7857 40.9412 63.8535 41.2337C63.9256 41.5219 63.9616 41.8695 63.9616 42.2764V45.767ZM70.6566 40.3054C70.6566 40.4537 70.6355 40.5618 70.5931 40.6297C70.5549 40.6932 70.5041 40.725 70.4405 40.725H69.6203C69.7686 40.8776 69.8725 41.0472 69.9318 41.2337C69.9912 41.4159 70.0208 41.6067 70.0208 41.8059C70.0208 42.1365 69.9679 42.429 69.8619 42.6833C69.7559 42.9376 69.6033 43.1538 69.4041 43.3318C69.2091 43.5056 68.976 43.6391 68.7047 43.7324C68.4335 43.8256 68.1325 43.8723 67.8019 43.8723C67.5688 43.8723 67.3462 43.8426 67.1343 43.7832C66.9266 43.7197 66.7655 43.6412 66.6511 43.548C66.5748 43.6243 66.5112 43.7112 66.4603 43.8087C66.4137 43.9062 66.3904 44.0185 66.3904 44.1457C66.3904 44.294 66.4582 44.4169 66.5939 44.5144C66.7337 44.6119 66.9181 44.6649 67.147 44.6734L68.6411 44.7369C68.9251 44.7454 69.1858 44.7857 69.4232 44.8578C69.6606 44.9256 69.8661 45.0252 70.0399 45.1566C70.2137 45.2837 70.3493 45.4427 70.4468 45.6334C70.5443 45.8199 70.5931 46.0382 70.5931 46.2883C70.5931 46.5511 70.538 46.8012 70.4278 47.0386C70.3176 47.2759 70.148 47.4836 69.9191 47.6616C69.6945 47.8439 69.4062 47.9859 69.0544 48.0876C68.7026 48.1936 68.2872 48.2466 67.8082 48.2466C67.3462 48.2466 66.952 48.2063 66.6256 48.1258C66.3035 48.0495 66.0386 47.9435 65.8309 47.8079C65.6232 47.6722 65.4727 47.5091 65.3795 47.3183C65.2862 47.1318 65.2396 46.9284 65.2396 46.7079C65.2396 46.5681 65.2565 46.4324 65.2905 46.301C65.3244 46.1696 65.3752 46.0446 65.4431 45.9259C65.5151 45.8072 65.602 45.6949 65.7037 45.5889C65.8097 45.4787 65.9305 45.3706 66.0661 45.2647C65.8584 45.1587 65.7037 45.0252 65.602 44.8641C65.5045 44.703 65.4558 44.5293 65.4558 44.3427C65.4558 44.0842 65.5088 43.8532 65.6147 43.6497C65.7207 43.4463 65.8521 43.264 66.0089 43.1029C65.8775 42.9461 65.7737 42.7702 65.6974 42.5752C65.6211 42.376 65.5829 42.1365 65.5829 41.8568C65.5829 41.5304 65.638 41.2379 65.7482 40.9793C65.8584 40.7208 66.011 40.5025 66.206 40.3245C66.401 40.1464 66.6341 40.0108 66.9054 39.9176C67.1809 39.8201 67.4797 39.7713 67.8019 39.7713C67.9757 39.7713 68.1367 39.7819 68.2851 39.8031C68.4377 39.8201 68.5797 39.8455 68.7111 39.8794H70.4405C70.5125 39.8794 70.5655 39.9154 70.5994 39.9875C70.6376 40.0553 70.6566 40.1613 70.6566 40.3054ZM69.0163 41.8122C69.0163 41.4223 68.9082 41.1192 68.692 40.903C68.4801 40.6826 68.177 40.5724 67.7828 40.5724C67.5794 40.5724 67.4013 40.6063 67.2487 40.6742C67.1004 40.742 66.9753 40.8352 66.8736 40.9539C66.7761 41.0726 66.7019 41.2104 66.6511 41.3672C66.6045 41.5198 66.5811 41.6808 66.5811 41.8504C66.5811 42.2276 66.6871 42.5243 66.899 42.7405C67.1152 42.9567 67.4162 43.0648 67.8019 43.0648C68.0096 43.0648 68.1897 43.033 68.3423 42.9694C68.4949 42.9016 68.62 42.8105 68.7174 42.696C68.8192 42.5773 68.8934 42.4417 68.94 42.2891C68.9908 42.1365 69.0163 41.9776 69.0163 41.8122ZM69.544 46.3455C69.544 46.0997 69.4423 45.9111 69.2388 45.7797C69.0396 45.644 68.7683 45.572 68.425 45.5635L66.9436 45.5126C66.8079 45.6186 66.6956 45.7203 66.6066 45.8178C66.5218 45.9111 66.454 46.0001 66.4031 46.0849C66.3523 46.1739 66.3162 46.2608 66.295 46.3455C66.2781 46.4303 66.2696 46.5172 66.2696 46.6062C66.2696 46.8817 66.4095 47.0894 66.6892 47.2293C66.969 47.3734 67.3589 47.4455 67.8591 47.4455C68.177 47.4455 68.4419 47.4137 68.6539 47.3501C68.87 47.2908 69.0438 47.2102 69.1752 47.1085C69.3066 47.0068 69.3999 46.8902 69.455 46.7588C69.5143 46.6274 69.544 46.4897 69.544 46.3455ZM80.1301 40.1083C80.1301 40.5194 80.0623 40.8903 79.9267 41.2209C79.791 41.5516 79.5961 41.8334 79.3417 42.0666C79.0917 42.2997 78.7822 42.4798 78.4135 42.607C78.0489 42.7342 77.6124 42.7977 77.1037 42.7977H76.1691V45.7606C76.1691 45.7945 76.1585 45.8242 76.1373 45.8496C76.1203 45.875 76.0907 45.8962 76.0483 45.9132C76.0101 45.9259 75.955 45.9365 75.883 45.945C75.8151 45.9577 75.7283 45.9641 75.6223 45.9641C75.5163 45.9641 75.4273 45.9577 75.3552 45.945C75.2874 45.9365 75.2323 45.9259 75.1899 45.9132C75.1475 45.8962 75.1179 45.875 75.1009 45.8496C75.084 45.8242 75.0755 45.7945 75.0755 45.7606V38.1691C75.0755 37.9995 75.12 37.8787 75.209 37.8067C75.298 37.7346 75.3976 37.6986 75.5078 37.6986H77.269C77.447 37.6986 77.6166 37.7071 77.7777 37.724C77.943 37.7367 78.1358 37.7685 78.3562 37.8194C78.5809 37.866 78.8077 37.9572 79.0366 38.0928C79.2697 38.2242 79.4668 38.3874 79.6279 38.5824C79.7889 38.7773 79.9118 39.0041 79.9966 39.2627C80.0856 39.517 80.1301 39.7989 80.1301 40.1083ZM78.9793 40.1973C78.9793 39.8624 78.9158 39.5827 78.7886 39.358C78.6657 39.1334 78.511 38.966 78.3245 38.8558C78.1422 38.7456 77.9514 38.6756 77.7522 38.6459C77.5572 38.6163 77.3665 38.6014 77.18 38.6014H76.1691V41.9013H77.1546C77.4852 41.9013 77.7586 41.8589 77.9748 41.7741C78.1952 41.6893 78.3796 41.5728 78.5279 41.4244C78.6763 41.2718 78.7886 41.0917 78.8649 40.884C78.9412 40.672 78.9793 40.4431 78.9793 40.1973ZM85.7125 45.7733C85.7125 45.8242 85.6955 45.8623 85.6616 45.8878C85.6277 45.9132 85.5811 45.9323 85.5218 45.945C85.4624 45.9577 85.3755 45.9641 85.2611 45.9641C85.1509 45.9641 85.0619 45.9577 84.994 45.945C84.9305 45.9323 84.8838 45.9132 84.8542 45.8878C84.8245 45.8623 84.8097 45.8242 84.8097 45.7733V45.2011C84.5596 45.4681 84.2798 45.6758 83.9704 45.8242C83.6652 45.9725 83.3409 46.0467 82.9976 46.0467C82.6967 46.0467 82.4233 46.0064 82.1774 45.9259C81.9358 45.8496 81.7281 45.7373 81.5543 45.5889C81.3848 45.4406 81.2513 45.2583 81.1538 45.0421C81.0605 44.826 81.0139 44.5801 81.0139 44.3046C81.0139 43.9825 81.0796 43.7027 81.211 43.4653C81.3424 43.228 81.531 43.0309 81.7769 42.874C82.0227 42.7172 82.3237 42.6006 82.6797 42.5243C83.0358 42.4438 83.4363 42.4035 83.8814 42.4035H84.6698V41.9585C84.6698 41.7381 84.6465 41.5431 84.5998 41.3735C84.5532 41.204 84.4769 41.0641 84.371 40.9539C84.2692 40.8395 84.1357 40.7547 83.9704 40.6996C83.8051 40.6402 83.6016 40.6106 83.36 40.6106C83.1015 40.6106 82.8683 40.6424 82.6606 40.7059C82.4572 40.7653 82.277 40.8331 82.1202 40.9094C81.9676 40.9815 81.8383 41.0493 81.7324 41.1129C81.6306 41.1722 81.5543 41.2019 81.5035 41.2019C81.4696 41.2019 81.4399 41.1934 81.4145 41.1764C81.389 41.1595 81.3657 41.1341 81.3445 41.1001C81.3276 41.0662 81.3149 41.0239 81.3064 40.973C81.2979 40.9179 81.2937 40.8585 81.2937 40.795C81.2937 40.689 81.3 40.6063 81.3127 40.547C81.3297 40.4834 81.3657 40.4241 81.4208 40.369C81.4802 40.3139 81.5798 40.2503 81.7196 40.1782C81.8595 40.1019 82.0206 40.0341 82.2029 39.9748C82.3851 39.9112 82.5843 39.8603 82.8005 39.8222C83.0167 39.7798 83.235 39.7586 83.4554 39.7586C83.8665 39.7586 84.2162 39.8052 84.5045 39.8985C84.7927 39.9917 85.0258 40.1295 85.2039 40.3117C85.3819 40.4898 85.5112 40.7123 85.5917 40.9793C85.6722 41.2464 85.7125 41.5579 85.7125 41.914V45.7733ZM84.6698 43.1602H83.7733C83.4851 43.1602 83.235 43.1856 83.023 43.2365C82.8111 43.2831 82.6352 43.3551 82.4953 43.4526C82.3555 43.5459 82.2516 43.6603 82.1838 43.796C82.1202 43.9274 82.0884 44.08 82.0884 44.2537C82.0884 44.5504 82.1817 44.7878 82.3682 44.9658C82.5589 45.1396 82.8238 45.2265 83.1629 45.2265C83.4384 45.2265 83.6928 45.1566 83.9259 45.0167C84.1633 44.8768 84.4112 44.6628 84.6698 44.3745V43.1602ZM90.9897 40.4198C90.9897 40.5131 90.9876 40.5915 90.9833 40.6551C90.9791 40.7187 90.9706 40.7695 90.9579 40.8077C90.9452 40.8416 90.9282 40.8691 90.907 40.8903C90.8901 40.9073 90.8646 40.9158 90.8307 40.9158C90.7968 40.9158 90.7544 40.9073 90.7036 40.8903C90.6569 40.8691 90.6018 40.8501 90.5383 40.8331C90.4789 40.8119 90.4111 40.7928 90.3348 40.7759C90.2585 40.7589 90.1759 40.7505 90.0868 40.7505C89.9809 40.7505 89.877 40.7716 89.7753 40.814C89.6736 40.8564 89.5655 40.9264 89.451 41.0239C89.3408 41.1213 89.2243 41.2506 89.1013 41.4117C88.9784 41.5728 88.8428 41.7699 88.6944 42.003V45.767C88.6944 45.8009 88.686 45.8305 88.669 45.856C88.652 45.8772 88.6245 45.8962 88.5863 45.9132C88.5482 45.9301 88.4952 45.9429 88.4274 45.9513C88.3596 45.9598 88.2727 45.9641 88.1667 45.9641C88.065 45.9641 87.9802 45.9598 87.9124 45.9513C87.8446 45.9429 87.7895 45.9301 87.7471 45.9132C87.7089 45.8962 87.6814 45.8772 87.6644 45.856C87.6517 45.8305 87.6454 45.8009 87.6454 45.767V40.0447C87.6454 40.0108 87.6517 39.9833 87.6644 39.9621C87.6771 39.9366 87.7026 39.9154 87.7407 39.8985C87.7789 39.8773 87.8276 39.8646 87.887 39.8603C87.9463 39.8519 88.0247 39.8476 88.1222 39.8476C88.2155 39.8476 88.2918 39.8519 88.3511 39.8603C88.4147 39.8646 88.4634 39.8773 88.4973 39.8985C88.5312 39.9154 88.5546 39.9366 88.5673 39.9621C88.5842 39.9833 88.5927 40.0108 88.5927 40.0447V40.8776C88.7495 40.6487 88.8958 40.4622 89.0314 40.3181C89.1713 40.174 89.3027 40.0617 89.4256 39.9811C89.5485 39.8964 89.6693 39.8391 89.788 39.8095C89.9109 39.7756 90.0339 39.7586 90.1568 39.7586C90.2119 39.7586 90.2733 39.7628 90.3412 39.7713C90.4132 39.7756 90.4874 39.7862 90.5637 39.8031C90.64 39.8201 90.7078 39.8391 90.7672 39.8603C90.8307 39.8815 90.8752 39.9027 90.9007 39.9239C90.9261 39.9451 90.9431 39.9663 90.9515 39.9875C90.96 40.0044 90.9664 40.0278 90.9706 40.0574C90.9791 40.0871 90.9833 40.1316 90.9833 40.1909C90.9876 40.246 90.9897 40.3223 90.9897 40.4198ZM95.1606 45.3473C95.1606 45.4702 95.1521 45.5677 95.1351 45.6398C95.1182 45.7118 95.0927 45.7648 95.0588 45.7987C95.0249 45.8327 94.9741 45.8644 94.9062 45.8941C94.8384 45.9238 94.76 45.9471 94.671 45.9641C94.5862 45.9852 94.4951 46.0022 94.3976 46.0149C94.3001 46.0276 94.2026 46.034 94.1051 46.034C93.8084 46.034 93.5541 45.9958 93.3422 45.9195C93.1302 45.839 92.9564 45.7203 92.8208 45.5635C92.6852 45.4024 92.5855 45.2011 92.522 44.9595C92.4626 44.7136 92.433 44.4254 92.433 44.0948V40.7505H91.6318C91.5683 40.7505 91.5174 40.7165 91.4792 40.6487C91.4411 40.5809 91.422 40.4707 91.422 40.3181C91.422 40.2376 91.4263 40.1698 91.4347 40.1146C91.4475 40.0595 91.4623 40.015 91.4792 39.9811C91.4962 39.943 91.5174 39.9176 91.5428 39.9048C91.5725 39.8879 91.6043 39.8794 91.6382 39.8794H92.433V38.5188C92.433 38.4891 92.4393 38.4616 92.452 38.4361C92.469 38.4107 92.4965 38.3895 92.5347 38.3725C92.5771 38.3514 92.6322 38.3365 92.7 38.328C92.7678 38.3196 92.8526 38.3153 92.9543 38.3153C93.0603 38.3153 93.1472 38.3196 93.215 38.328C93.2828 38.3365 93.3358 38.3514 93.3739 38.3725C93.4121 38.3895 93.4396 38.4107 93.4566 38.4361C93.4736 38.4616 93.482 38.4891 93.482 38.5188V39.8794H94.9507C94.9847 39.8794 95.0143 39.8879 95.0398 39.9048C95.0652 39.9176 95.0864 39.943 95.1033 39.9811C95.1245 40.015 95.1394 40.0595 95.1478 40.1146C95.1563 40.1698 95.1606 40.2376 95.1606 40.3181C95.1606 40.4707 95.1415 40.5809 95.1033 40.6487C95.0652 40.7165 95.0143 40.7505 94.9507 40.7505H93.482V43.9422C93.482 44.3364 93.5393 44.6352 93.6537 44.8387C93.7724 45.0379 93.9822 45.1375 94.2831 45.1375C94.3806 45.1375 94.4675 45.129 94.5438 45.1121C94.6201 45.0909 94.6879 45.0697 94.7473 45.0485C94.8066 45.0273 94.8575 45.0082 94.8999 44.9913C94.9423 44.9701 94.9804 44.9595 95.0143 44.9595C95.0355 44.9595 95.0546 44.9658 95.0715 44.9786C95.0927 44.987 95.1076 45.0061 95.1161 45.0358C95.1288 45.0654 95.1394 45.1057 95.1478 45.1566C95.1563 45.2074 95.1606 45.271 95.1606 45.3473ZM101.474 45.767C101.474 45.8009 101.466 45.8305 101.449 45.856C101.432 45.8772 101.404 45.8962 101.366 45.9132C101.328 45.9301 101.275 45.9429 101.207 45.9513C101.139 45.9598 101.054 45.9641 100.953 45.9641C100.847 45.9641 100.76 45.9598 100.692 45.9513C100.624 45.9429 100.571 45.9301 100.533 45.9132C100.495 45.8962 100.467 45.8772 100.45 45.856C100.433 45.8305 100.425 45.8009 100.425 45.767V42.4163C100.425 42.0899 100.4 41.8271 100.349 41.6279C100.298 41.4286 100.224 41.257 100.126 41.1129C100.029 40.9687 99.9015 40.8585 99.7447 40.7822C99.5921 40.7059 99.4141 40.6678 99.2106 40.6678C98.9478 40.6678 98.685 40.7611 98.4222 40.9476C98.1594 41.1341 97.8839 41.4075 97.5957 41.7677V45.767C97.5957 45.8009 97.5872 45.8305 97.5703 45.856C97.5533 45.8772 97.5257 45.8962 97.4876 45.9132C97.4495 45.9301 97.3965 45.9429 97.3287 45.9513C97.2608 45.9598 97.1739 45.9641 97.068 45.9641C96.9662 45.9641 96.8815 45.9598 96.8136 45.9513C96.7458 45.9429 96.6907 45.9301 96.6483 45.9132C96.6102 45.8962 96.5826 45.8772 96.5657 45.856C96.553 45.8305 96.5466 45.8009 96.5466 45.767V40.0447C96.5466 40.0108 96.553 39.9833 96.5657 39.9621C96.5784 39.9366 96.6038 39.9154 96.642 39.8985C96.6801 39.8773 96.7289 39.8646 96.7882 39.8603C96.8476 39.8519 96.926 39.8476 97.0235 39.8476C97.1167 39.8476 97.193 39.8519 97.2524 39.8603C97.3159 39.8646 97.3647 39.8773 97.3986 39.8985C97.4325 39.9154 97.4558 39.9366 97.4685 39.9621C97.4855 39.9833 97.494 40.0108 97.494 40.0447V40.8013C97.8161 40.441 98.1361 40.1782 98.454 40.0129C98.7762 39.8434 99.1004 39.7586 99.4268 39.7586C99.8083 39.7586 100.128 39.8243 100.387 39.9557C100.65 40.0829 100.862 40.2545 101.023 40.4707C101.184 40.6869 101.298 40.9412 101.366 41.2337C101.438 41.5219 101.474 41.8695 101.474 42.2764V45.767ZM108.271 42.6579C108.271 42.8232 108.228 42.9419 108.144 43.0139C108.063 43.0817 107.97 43.1156 107.864 43.1156H104.113C104.113 43.4335 104.144 43.7197 104.208 43.974C104.272 44.2283 104.378 44.4466 104.526 44.6289C104.674 44.8111 104.867 44.951 105.105 45.0485C105.342 45.146 105.632 45.1947 105.976 45.1947C106.247 45.1947 106.488 45.1735 106.7 45.1311C106.912 45.0845 107.095 45.0337 107.247 44.9786C107.404 44.9235 107.531 44.8747 107.629 44.8323C107.73 44.7857 107.807 44.7624 107.858 44.7624C107.887 44.7624 107.913 44.7709 107.934 44.7878C107.959 44.8005 107.978 44.8217 107.991 44.8514C108.004 44.8811 108.012 44.9235 108.017 44.9786C108.025 45.0294 108.029 45.093 108.029 45.1693C108.029 45.2244 108.027 45.2731 108.023 45.3155C108.019 45.3537 108.012 45.3897 108.004 45.4236C108 45.4533 107.989 45.4808 107.972 45.5063C107.959 45.5317 107.94 45.5571 107.915 45.5826C107.894 45.6038 107.826 45.6419 107.711 45.697C107.597 45.7479 107.449 45.7987 107.266 45.8496C107.084 45.9005 106.872 45.945 106.63 45.9831C106.393 46.0255 106.139 46.0467 105.868 46.0467C105.397 46.0467 104.984 45.981 104.628 45.8496C104.276 45.7182 103.979 45.5232 103.738 45.2647C103.496 45.0061 103.314 44.6818 103.191 44.2919C103.068 43.9019 103.006 43.4484 103.006 42.9313C103.006 42.4396 103.07 41.9988 103.197 41.6088C103.324 41.2146 103.507 40.8819 103.744 40.6106C103.986 40.3351 104.276 40.1252 104.615 39.9811C104.954 39.8328 105.333 39.7586 105.753 39.7586C106.202 39.7586 106.584 39.8307 106.898 39.9748C107.215 40.1189 107.476 40.3139 107.68 40.5597C107.883 40.8013 108.031 41.0874 108.125 41.418C108.222 41.7444 108.271 42.0941 108.271 42.4671V42.6579ZM107.215 42.3463C107.228 41.7953 107.105 41.3629 106.847 41.0493C106.592 40.7356 106.213 40.5788 105.709 40.5788C105.45 40.5788 105.223 40.6275 105.028 40.725C104.833 40.8225 104.67 40.9518 104.539 41.1129C104.407 41.2739 104.306 41.4626 104.233 41.6787C104.161 41.8907 104.121 42.1132 104.113 42.3463H107.215ZM113.217 40.4198C113.217 40.5131 113.215 40.5915 113.211 40.6551C113.207 40.7187 113.198 40.7695 113.186 40.8077C113.173 40.8416 113.156 40.8691 113.135 40.8903C113.118 40.9073 113.092 40.9158 113.058 40.9158C113.025 40.9158 112.982 40.9073 112.931 40.8903C112.885 40.8691 112.83 40.8501 112.766 40.8331C112.707 40.8119 112.639 40.7928 112.563 40.7759C112.486 40.7589 112.404 40.7505 112.315 40.7505C112.209 40.7505 112.105 40.7716 112.003 40.814C111.901 40.8564 111.793 40.9264 111.679 41.0239C111.569 41.1213 111.452 41.2506 111.329 41.4117C111.206 41.5728 111.071 41.7699 110.922 42.003V45.767C110.922 45.8009 110.914 45.8305 110.897 45.856C110.88 45.8772 110.852 45.8962 110.814 45.9132C110.776 45.9301 110.723 45.9429 110.655 45.9513C110.587 45.9598 110.5 45.9641 110.394 45.9641C110.293 45.9641 110.208 45.9598 110.14 45.9513C110.072 45.9429 110.017 45.9301 109.975 45.9132C109.937 45.8962 109.909 45.8772 109.892 45.856C109.879 45.8305 109.873 45.8009 109.873 45.767V40.0447C109.873 40.0108 109.879 39.9833 109.892 39.9621C109.905 39.9366 109.93 39.9154 109.968 39.8985C110.007 39.8773 110.055 39.8646 110.115 39.8603C110.174 39.8519 110.252 39.8476 110.35 39.8476C110.443 39.8476 110.519 39.8519 110.579 39.8603C110.642 39.8646 110.691 39.8773 110.725 39.8985C110.759 39.9154 110.782 39.9366 110.795 39.9621C110.812 39.9833 110.82 40.0108 110.82 40.0447V40.8776C110.977 40.6487 111.123 40.4622 111.259 40.3181C111.399 40.174 111.53 40.0617 111.653 39.9811C111.776 39.8964 111.897 39.8391 112.016 39.8095C112.139 39.7756 112.262 39.7586 112.385 39.7586C112.44 39.7586 112.501 39.7628 112.569 39.7713C112.641 39.7756 112.715 39.7862 112.791 39.8031C112.868 39.8201 112.936 39.8391 112.995 39.8603C113.058 39.8815 113.103 39.9027 113.128 39.9239C113.154 39.9451 113.171 39.9663 113.179 39.9875C113.188 40.0044 113.194 40.0278 113.198 40.0574C113.207 40.0871 113.211 40.1316 113.211 40.1909C113.215 40.246 113.217 40.3223 113.217 40.4198Z" fill="#808080"/>
</svg>
