<svg width="125" height="56" viewBox="0 0 125 56" fill="none" xmlns="http://www.w3.org/2000/svg">
<path d="M47.0098 5.966H51.3353L58.6941 19.2743L66.0529 5.966H70.288V27.8388H66.7575V11.0753L60.3068 22.6843H56.9948L50.5441 11.0753V27.8388H47.0135V5.966H47.0098Z" fill="#1C2B33"/>
<path d="M81.6745 28.227C80.0392 28.227 78.6037 27.8653 77.364 27.1418C76.1244 26.4184 75.1598 25.4161 74.4665 24.135C73.7732 22.8539 73.4265 21.3844 73.4265 19.7303C73.4265 18.0762 73.7656 16.569 74.4401 15.2766C75.1183 13.9842 76.0565 12.9744 77.2585 12.2472C78.4605 11.52 79.8433 11.1545 81.407 11.1545C82.9707 11.1545 84.2932 11.52 85.4161 12.2547C86.5351 12.9895 87.398 14.0181 88.0009 15.3407C88.6037 16.6632 88.9052 18.2156 88.9052 19.994V20.9624H76.9232C77.1417 22.2962 77.6805 23.3437 78.5396 24.1086C79.3987 24.8735 80.4839 25.2578 81.7951 25.2578C82.8463 25.2578 83.7544 25.0996 84.5118 24.7906C85.2729 24.4779 85.985 24.0031 86.652 23.3701L88.5284 25.6648C86.6633 27.3754 84.3761 28.227 81.6707 28.227H81.6745ZM84.2518 15.254C83.5133 14.5004 82.5449 14.1198 81.3467 14.1198C80.1485 14.1198 79.2028 14.5042 78.419 15.2766C77.6315 16.049 77.1342 17.0852 76.9269 18.3851H85.5178C85.4123 17.0513 84.9903 16.0076 84.2518 15.254Z" fill="#1C2B33"/>
<path d="M93.1894 14.4326H89.9414V11.5426H93.1894V6.76105H96.5956V11.5426H101.532V14.4326H96.5956V21.7574C96.5956 22.9782 96.8028 23.8448 97.221 24.3648C97.6393 24.8848 98.3514 25.1448 99.3612 25.1448C99.8096 25.1448 100.19 25.1259 100.503 25.0883C100.816 25.0506 101.159 25.0016 101.535 24.9413V27.8012C101.151 27.9142 100.714 28.0084 100.232 28.0838C99.7456 28.1554 99.2407 28.193 98.7094 28.193C95.0319 28.193 93.1931 26.1847 93.1931 22.1643V14.4326H93.1894Z" fill="#1C2B33"/>
<path d="M119.278 27.8389H115.936V25.5593C115.341 26.4146 114.587 27.074 113.672 27.5337C112.756 27.9934 111.712 28.227 110.548 28.227C109.113 28.227 107.839 27.8615 106.727 27.1268C105.62 26.392 104.745 25.3822 104.112 24.0973C103.476 22.8125 103.159 21.3392 103.159 19.6851C103.159 18.031 103.483 16.5464 104.128 15.2653C104.772 13.9842 105.665 12.9782 106.807 12.251C107.948 11.5238 109.256 11.1583 110.736 11.1583C111.852 11.1583 112.85 11.373 113.736 11.8063C114.621 12.2397 115.356 12.8501 115.94 13.6413V11.5464H119.282V27.8427L119.278 27.8389ZM115.872 17.2472C115.507 16.3203 114.934 15.5894 114.146 15.0543C113.359 14.5193 112.451 14.248 111.418 14.248C109.96 14.248 108.8 14.7378 107.933 15.7175C107.07 16.6971 106.637 18.0197 106.637 19.6851C106.637 21.3505 107.055 22.6881 107.888 23.6678C108.721 24.6475 109.851 25.1373 111.279 25.1373C112.33 25.1373 113.269 24.866 114.09 24.3234C114.911 23.7808 115.507 23.0536 115.872 22.138V17.2472Z" fill="#1C2B33"/>
<path d="M5.09082 39.885H9.37496C10.5656 39.885 11.4662 40.1262 12.0766 40.6047C12.687 41.087 12.9922 41.7464 12.9922 42.5904C12.9922 43.7471 12.4345 44.5233 11.3192 44.9227C12.7736 45.292 13.5008 46.1435 13.5008 47.4812C13.5008 48.3817 13.1768 49.0863 12.5249 49.595C11.8731 50.0999 10.9424 50.3523 9.72538 50.3523H5.09082V39.885ZM9.17149 44.3651C10.5619 44.3651 11.2589 43.8602 11.2589 42.8466C11.2589 42.3417 11.0969 41.9762 10.7691 41.7388C10.4413 41.5015 9.93638 41.3884 9.25438 41.3884H6.77885V44.3651H9.17149ZM9.67263 48.8489C11.0668 48.8489 11.7676 48.3252 11.7676 47.2777C11.7676 46.7954 11.6018 46.4299 11.274 46.1812C10.9462 45.9325 10.3772 45.812 9.57089 45.812H6.78262V48.8489H9.67639H9.67263Z" fill="#1C2B33"/>
<path d="M21.5831 50.3486H19.9742V49.2257C19.3751 50.0961 18.5499 50.5332 17.4911 50.5332C16.5755 50.5332 15.8709 50.2431 15.3773 49.6666C14.8875 49.0901 14.6426 48.2611 14.6426 47.1835V42.549H16.2741V46.9913C16.2741 47.7148 16.4022 48.2498 16.6547 48.5965C16.9071 48.9431 17.3065 49.1164 17.8491 49.1164C18.3163 49.1164 18.7346 48.9921 19.0963 48.7472C19.4618 48.5023 19.7444 48.1556 19.9478 47.711V42.5527H21.5793V50.3486H21.5831Z" fill="#1C2B33"/>
<path d="M28.7086 49.8738C28.1321 50.3146 27.3559 50.5369 26.3838 50.5369C25.5624 50.5369 24.8465 50.3937 24.2361 50.1036C23.6257 49.8135 23.1697 49.4254 22.8721 48.9393L23.9723 47.9823C24.2021 48.3327 24.5187 48.6077 24.9218 48.8112C25.325 49.0147 25.8073 49.1164 26.3649 49.1164C27.4049 49.1164 27.9286 48.8112 27.9286 48.2046C27.9286 47.9446 27.842 47.7373 27.6724 47.5791C27.4991 47.4208 27.2165 47.3116 26.8246 47.2475L25.3212 46.9875C24.6129 46.8632 24.074 46.6107 23.6972 46.2339C23.3242 45.8534 23.1358 45.3673 23.1358 44.7682C23.1358 44.0448 23.4222 43.4645 23.9987 43.0274C24.5752 42.5903 25.3514 42.368 26.3348 42.368C27.0469 42.368 27.6875 42.515 28.2527 42.8051C28.8179 43.0952 29.2399 43.4758 29.5112 43.9393L28.3808 44.7908C28.1924 44.4818 27.9098 44.2369 27.5368 44.0598C27.1637 43.879 26.7304 43.7923 26.2368 43.7923C25.7734 43.7923 25.4154 43.8714 25.163 44.0297C24.9105 44.1879 24.7862 44.4103 24.7862 44.6966C24.7862 44.9415 24.8615 45.1299 25.0198 45.2656C25.1743 45.4012 25.4343 45.4992 25.796 45.5632L27.484 45.8609C28.1622 45.9815 28.6784 46.2377 29.0402 46.6258C29.3981 47.0177 29.579 47.5075 29.579 48.1028C29.579 48.8451 29.2889 49.4367 28.7124 49.8775L28.7086 49.8738Z" fill="#1C2B33"/>
<path d="M31.0555 41.234C30.8558 41.038 30.7578 40.7856 30.7578 40.4841C30.7578 40.1827 30.8558 39.9227 31.0555 39.7306C31.2552 39.5384 31.5114 39.4404 31.8241 39.4404C32.1369 39.4404 32.3931 39.5384 32.5928 39.7306C32.7925 39.9227 32.8905 40.1752 32.8905 40.4841C32.8905 40.7931 32.7925 41.038 32.5928 41.234C32.3931 41.4299 32.1369 41.5279 31.8241 41.5279C31.5114 41.5279 31.2552 41.4299 31.0555 41.234ZM31.0103 42.5527H32.6418V50.3486H31.0103V42.5527Z" fill="#1C2B33"/>
<path d="M34.4316 42.5527H36.0405V43.6906C36.6434 42.8089 37.4837 42.368 38.5613 42.368C39.4882 42.368 40.2003 42.6582 40.6977 43.2347C41.1951 43.8112 41.4438 44.6401 41.4438 45.7177V50.3523H39.8122V45.9099C39.8122 45.1827 39.6841 44.6476 39.4241 44.301C39.1642 43.9581 38.7572 43.7848 38.2071 43.7848C37.7248 43.7848 37.299 43.9091 36.9298 44.1578C36.5605 44.4065 36.2704 44.7569 36.0632 45.2053V50.3485H34.4316V42.5489V42.5527Z" fill="#1C2B33"/>
<path d="M46.648 50.537C45.8643 50.537 45.1785 50.3637 44.5832 50.017C43.9916 49.6704 43.5282 49.1919 43.1966 48.5777C42.865 47.9635 42.6992 47.2627 42.6992 46.4676C42.6992 45.6726 42.8612 44.9567 43.1853 44.335C43.5093 43.717 43.9577 43.2348 44.5342 42.8843C45.1107 42.5339 45.7701 42.3606 46.5199 42.3606C47.2697 42.3606 47.9027 42.5377 48.4378 42.8881C48.9728 43.2385 49.3873 43.7321 49.6737 44.3651C49.9638 44.9981 50.107 45.7404 50.107 46.592V47.0554H44.3722C44.4777 47.6922 44.7339 48.1971 45.1446 48.5626C45.5553 48.9281 46.0753 49.1127 46.7045 49.1127C47.2094 49.1127 47.6427 49.0374 48.0045 48.8866C48.37 48.7359 48.7091 48.5099 49.0293 48.2047L49.9261 49.3049C49.0331 50.1225 47.9404 50.5295 46.6442 50.5295L46.648 50.537ZM47.8801 44.3275C47.5259 43.9657 47.0625 43.7849 46.4898 43.7849C45.917 43.7849 45.4649 43.9695 45.0881 44.3388C44.7113 44.708 44.4739 45.2016 44.3722 45.8271H48.483C48.434 45.1903 48.2305 44.6892 47.8764 44.3275H47.8801Z" fill="#1C2B33"/>
<path d="M56.7945 49.8738C56.218 50.3146 55.4418 50.5369 54.4697 50.5369C53.6483 50.5369 52.9324 50.3937 52.322 50.1036C51.7116 49.8135 51.2557 49.4254 50.958 48.9393L52.0582 47.9823C52.2881 48.3327 52.6046 48.6077 53.0078 48.8112C53.4109 49.0147 53.8932 49.1164 54.4509 49.1164C55.4908 49.1164 56.0146 48.8112 56.0146 48.2046C56.0146 47.9446 55.9279 47.7373 55.7584 47.5791C55.585 47.4208 55.3024 47.3116 54.9106 47.2475L53.4072 46.9875C52.6988 46.8632 52.16 46.6107 51.7832 46.2339C51.4064 45.8571 51.2218 45.3673 51.2218 44.7682C51.2218 44.0448 51.5081 43.4645 52.0846 43.0274C52.6611 42.5903 53.4373 42.368 54.4207 42.368C55.1329 42.368 55.7734 42.515 56.3386 42.8051C56.9038 43.0952 57.3258 43.4758 57.5971 43.9393L56.4667 44.7908C56.2783 44.4818 55.9957 44.2369 55.6227 44.0598C55.2497 43.879 54.8164 43.7923 54.3228 43.7923C53.8593 43.7923 53.5014 43.8714 53.2489 44.0297C52.9965 44.1879 52.8721 44.4103 52.8721 44.6966C52.8721 44.9415 52.9475 45.1299 53.1057 45.2656C53.2602 45.4012 53.5202 45.4992 53.8819 45.5632L55.57 45.8609C56.2482 45.9815 56.7644 46.2377 57.1261 46.6258C57.4878 47.0139 57.6649 47.5075 57.6649 48.1028C57.6649 48.8451 57.3748 49.4367 56.7983 49.8775L56.7945 49.8738Z" fill="#1C2B33"/>
<path d="M64.4283 49.8738C63.8518 50.3146 63.0756 50.5369 62.1035 50.5369C61.2821 50.5369 60.5662 50.3937 59.9558 50.1036C59.3454 49.8135 58.8895 49.4254 58.5918 48.9393L59.692 47.9823C59.9219 48.3327 60.2384 48.6077 60.6415 48.8112C61.0447 49.0147 61.527 49.1164 62.0847 49.1164C63.1246 49.1164 63.6484 48.8112 63.6484 48.2046C63.6484 47.9446 63.5617 47.7373 63.3921 47.5791C63.2188 47.4208 62.9362 47.3116 62.5444 47.2475L61.041 46.9875C60.3326 46.8632 59.7938 46.6107 59.417 46.2339C59.0402 45.8571 58.8556 45.3673 58.8556 44.7682C58.8556 44.0448 59.1419 43.4645 59.7184 43.0274C60.2949 42.5903 61.0711 42.368 62.0545 42.368C62.7667 42.368 63.4072 42.515 63.9724 42.8051C64.5376 43.0952 64.9596 43.4758 65.2309 43.9393L64.1005 44.7908C63.9121 44.4818 63.6295 44.2369 63.2565 44.0598C62.8835 43.879 62.4502 43.7923 61.9566 43.7923C61.4931 43.7923 61.1352 43.8714 60.8827 44.0297C60.6302 44.1879 60.5059 44.4103 60.5059 44.6966C60.5059 44.9415 60.5813 45.1299 60.7395 45.2656C60.894 45.4012 61.154 45.4992 61.5157 45.5632L63.2037 45.8609C63.882 45.9815 64.3982 46.2377 64.7599 46.6258C65.1178 47.0177 65.2987 47.5075 65.2987 48.1028C65.2987 48.8451 65.0086 49.4367 64.4321 49.8775L64.4283 49.8738Z" fill="#1C2B33"/>
<path d="M68.7581 39.885H72.7295C74.0671 39.885 75.0957 40.1864 75.8192 40.7931C76.5426 41.3997 76.9081 42.2663 76.9081 43.3967C76.9081 44.5271 76.5464 45.39 75.8229 46.0004C75.0995 46.6108 74.0671 46.9122 72.7295 46.9122H70.4725V50.3523H68.7618V39.885H68.7581ZM72.5863 45.3711C73.4642 45.3711 74.1123 45.2091 74.5305 44.8851C74.9488 44.561 75.1598 44.0674 75.1598 43.4043C75.1598 42.7411 74.9488 42.2211 74.5268 41.9009C74.1047 41.5806 73.4604 41.4223 72.5863 41.4223H70.4725V45.3711H72.5863Z" fill="#1C2B33"/>
<path d="M85.2079 50.3486H83.6066V49.2559C83.324 49.6628 82.9622 49.9793 82.5214 50.2017C82.0843 50.424 81.5832 50.5332 81.0255 50.5332C80.336 50.5332 79.7294 50.3561 79.1981 50.0057C78.6668 49.6553 78.2486 49.1692 77.9471 48.5551C77.6419 47.9409 77.4912 47.2363 77.4912 46.4413C77.4912 45.6462 77.6457 44.9379 77.9547 44.3275C78.2636 43.7133 78.6894 43.2348 79.2358 42.8843C79.7821 42.5339 80.4076 42.3606 81.116 42.3606C81.651 42.3606 82.1295 42.4623 82.5515 42.6696C82.9735 42.8768 83.3277 43.1707 83.6066 43.5475V42.5452H85.2079V50.3448V50.3486ZM83.5764 45.2807C83.4031 44.8361 83.128 44.4857 82.7512 44.2295C82.3744 43.9733 81.9411 43.8452 81.4475 43.8452C80.7505 43.8452 80.1928 44.0788 79.7821 44.5498C79.3676 45.017 79.1604 45.65 79.1604 46.4488C79.1604 47.2476 79.3601 47.8882 79.7595 48.3554C80.1589 48.8226 80.6977 49.06 81.3835 49.06C81.8884 49.06 82.3368 48.9319 82.7286 48.6719C83.1205 48.4119 83.4069 48.0652 83.5802 47.6244V45.2845L83.5764 45.2807Z" fill="#1C2B33"/>
<path d="M86.8555 42.5527H88.4644V43.717C88.9278 42.8655 89.5759 42.4397 90.4086 42.4397C90.5744 42.4397 90.7327 42.451 90.8872 42.4774V43.9883C90.7214 43.9732 90.5556 43.9657 90.386 43.9657C89.4403 43.9657 88.8073 44.4254 88.487 45.341V50.3486H86.8555V42.5527Z" fill="#1C2B33"/>
<path d="M92.91 43.9356H91.7947V42.5528H92.91V40.2656H94.5415V42.5528H96.904V43.9356H94.5415V47.4435C94.5415 48.0276 94.6395 48.442 94.8392 48.6907C95.0389 48.9394 95.378 49.0637 95.864 49.0637C96.0788 49.0637 96.2597 49.0562 96.4104 49.0374C96.5611 49.0185 96.7231 48.9959 96.904 48.9658V50.3335C96.7194 50.3901 96.5121 50.4315 96.2785 50.4692C96.0449 50.5031 95.8038 50.5219 95.5513 50.5219C93.7917 50.5219 92.9138 49.5611 92.9138 47.6357V43.9356H92.91Z" fill="#1C2B33"/>
<path d="M98.2188 42.5527H99.8277V43.6906C100.431 42.8089 101.271 42.368 102.348 42.368C103.275 42.368 103.987 42.6582 104.485 43.2347C104.982 43.8112 105.231 44.6401 105.231 45.7177V50.3523H103.599V45.9099C103.599 45.1827 103.471 44.6476 103.211 44.301C102.951 43.9581 102.544 43.7848 101.994 43.7848C101.512 43.7848 101.086 43.9091 100.717 44.1578C100.348 44.4065 100.057 44.7569 99.8503 45.2053V50.3485H98.2188V42.5489V42.5527Z" fill="#1C2B33"/>
<path d="M110.435 50.537C109.651 50.537 108.966 50.3637 108.37 50.017C107.779 49.6704 107.315 49.1919 106.984 48.5777C106.652 47.9635 106.486 47.2627 106.486 46.4676C106.486 45.6726 106.648 44.9567 106.972 44.335C107.296 43.717 107.745 43.2348 108.321 42.8843C108.898 42.5339 109.557 42.3606 110.307 42.3606C111.057 42.3606 111.69 42.5377 112.225 42.8881C112.76 43.2385 113.174 43.7321 113.461 44.3651C113.751 44.9981 113.894 45.7404 113.894 46.592V47.0554H108.159C108.265 47.6922 108.521 48.1971 108.932 48.5626C109.342 48.9281 109.862 49.1127 110.492 49.1127C110.997 49.1127 111.43 49.0374 111.792 48.8866C112.157 48.7359 112.496 48.5099 112.816 48.2047L113.713 49.3049C112.82 50.1225 111.728 50.5295 110.431 50.5295L110.435 50.537ZM111.667 44.3275C111.313 43.9657 110.85 43.7849 110.277 43.7849C109.704 43.7849 109.252 43.9695 108.875 44.3388C108.498 44.708 108.261 45.2016 108.159 45.8271H112.27C112.221 45.1903 112.018 44.6892 111.663 44.3275H111.667Z" fill="#1C2B33"/>
<path d="M115.269 42.5527H116.878V43.7472C117.383 42.8768 118.069 42.4397 118.943 42.4397C119.226 42.4397 119.459 42.4661 119.636 42.5151V44.0185C119.388 43.9845 119.139 43.9657 118.898 43.9657C117.922 43.9657 117.255 44.4028 116.901 45.2807V50.3486H115.269V42.5527Z" fill="#1C2B33"/>
<path d="M29.9441 5.22382C27.1031 5.22382 24.8838 7.36023 22.8754 10.0807C20.1136 6.5652 17.8038 5.22382 15.0419 5.22382C9.40887 5.22382 5.09082 12.5562 5.09082 20.3144C5.09082 25.1712 7.44201 28.2346 11.3757 28.2346C14.2092 28.2346 16.2439 26.9007 19.8649 20.5706C19.8649 20.5706 21.3758 17.9067 22.412 16.0679C22.7775 16.6557 23.158 17.2887 23.5612 17.967L25.2605 20.823C28.5688 26.3581 30.4113 28.2346 33.7497 28.2346C37.5817 28.2346 39.7181 25.1298 39.7181 20.1712C39.7181 12.0475 35.3021 5.22382 29.9403 5.22382H29.9441ZM17.1067 18.8562C14.1715 23.4568 13.1542 24.4892 11.5227 24.4892C9.89116 24.4892 8.83991 23.0122 8.83991 20.3784C8.83991 14.7454 11.6508 8.98421 14.9967 8.98421C16.8091 8.98421 18.3238 10.0317 20.6448 13.355C18.4406 16.7348 17.1067 18.8562 17.1067 18.8562ZM28.1882 18.2759L26.1573 14.8886C25.6072 13.9956 25.0797 13.1742 24.5748 12.4206C26.406 9.59839 27.9132 8.18918 29.7105 8.18918C33.4407 8.18918 36.4249 13.6791 36.4249 20.4236C36.4249 22.9934 35.5809 24.4855 33.8364 24.4855C32.0918 24.4855 31.3646 23.3815 28.192 18.2722L28.1882 18.2759Z" fill="url(#paint0_linear_2166_1630)"/>
<defs>
<linearGradient id="paint0_linear_2166_1630" x1="5.09082" y1="16.7273" x2="39.7181" y2="16.7273" gradientUnits="userSpaceOnUse">
<stop offset="0.13" stop-color="#0869E1"/>
<stop offset="0.87" stop-color="#0064E0"/>
</linearGradient>
</defs>
</svg>
