<svg width="130" height="130" viewBox="0 0 130 130" fill="none" xmlns="http://www.w3.org/2000/svg">
<path d="M0 65C0 29.1015 29.1015 0 65 0C100.899 0 130 29.1015 130 65C130 100.899 100.899 130 65 130C29.1015 130 0 100.899 0 65Z" fill="#076AAB"/>
<g clip-path="url(#clip0_3849_13232)">
<path d="M79.5748 74.0447C77.7453 72.2384 75.4612 72.2384 73.6434 74.0447C72.2567 75.4197 70.8699 76.7948 69.5065 78.1931C69.1336 78.5777 68.819 78.6593 68.3645 78.4029C67.4672 77.9135 66.5117 77.5173 65.6494 76.9812C61.6291 74.4525 58.2613 71.2013 55.2781 67.5422C53.7982 65.7244 52.4814 63.7783 51.5608 61.5875C51.3743 61.1447 51.4093 60.8534 51.7706 60.4921C53.1573 59.152 54.509 57.777 55.8724 56.4019C57.7719 54.4908 57.7719 52.2534 55.8608 50.3307C54.777 49.2353 53.6933 48.1632 52.6096 47.0678C51.4909 45.9491 50.3838 44.8188 49.2535 43.7117C47.424 41.9288 45.14 41.9288 43.3221 43.7234C41.9237 45.0984 40.5836 46.5084 39.1619 47.8602C37.8451 49.1071 37.1809 50.6336 37.0411 52.4166C36.8197 55.3182 37.5305 58.0566 38.5327 60.7252C40.5836 66.2488 43.7066 71.1547 47.4939 75.6528C52.6096 81.7357 58.7158 86.5484 65.8591 90.021C69.0754 91.5825 72.4081 92.7828 76.0323 92.9809C78.526 93.1207 80.6935 92.4915 82.4298 90.5454C83.6184 89.217 84.9585 88.005 86.217 86.7348C88.0815 84.8471 88.0932 82.5631 86.2403 80.6986C84.0263 78.4728 81.8005 76.2587 79.5748 74.0447Z" fill="white"/>
<path d="M77.3492 64.7572L81.6492 64.023C80.9733 60.0727 79.1088 56.4952 76.2771 53.6518C73.2823 50.657 69.495 48.7692 65.3232 48.1865L64.7173 52.5098C67.9452 52.9643 70.8818 54.4209 73.2007 56.7399C75.3915 58.9307 76.8248 61.7041 77.3492 64.7572Z" fill="white"/>
<path d="M84.0728 46.0661C79.1086 41.1019 72.8276 37.9672 65.894 37L65.2881 41.3233C71.2778 42.1623 76.7081 44.8775 80.9964 49.1542C85.0633 53.2211 87.7319 58.3601 88.6991 64.0118L92.9991 63.2777C91.8687 56.7287 88.7807 50.7856 84.0728 46.0661Z" fill="white"/>
</g>
<defs>
<clipPath id="clip0_3849_13232">
<rect width="56" height="56" fill="white" transform="translate(37 37)"/>
</clipPath>
</defs>
</svg>
