<svg width="44" height="44" viewBox="0 0 44 44" fill="none" xmlns="http://www.w3.org/2000/svg">
<rect x="0.5" y="0.5" width="43" height="43" rx="21.5" stroke="#9CA3AF"/>
<g clip-path="url(#clip0_2715_13968)">
<path d="M22.8967 14.5098C24.0884 14.5098 25.0579 13.5403 25.0579 12.3487C25.0579 11.1571 24.0884 10.1875 22.8967 10.1875C21.7051 10.1875 20.7356 11.157 20.7356 12.3487C20.7356 13.5403 21.7051 14.5098 22.8967 14.5098ZM22.8967 10.8438C23.7266 10.8438 24.4017 11.5188 24.4017 12.3487C24.4017 13.1785 23.7266 13.8535 22.8967 13.8535C22.0669 13.8535 21.3919 13.1785 21.3919 12.3487C21.3919 11.5189 22.067 10.8438 22.8967 10.8438ZM15.7905 26.6145C16.0987 26.6145 16.3989 26.4547 16.5637 26.1692L17.9029 23.8497C17.9704 23.8023 18.0327 23.7459 18.0877 23.6802L18.6527 23.0054C18.7883 22.8434 18.8427 22.6396 18.8059 22.4314C18.7691 22.2234 18.648 22.0506 18.4651 21.945L17.1781 21.202L17.2633 21.0545C17.3534 20.8984 17.3773 20.7161 17.3304 20.5411C17.3054 20.4477 17.2615 20.3631 17.2027 20.2903C17.2713 20.2084 17.333 20.1171 17.3869 20.0162L18.9087 17.1705L19.6665 17.1632L18.9233 20.8437C18.7971 21.469 18.9821 22.2325 19.5395 22.6236L19.7757 24.9924C19.8101 25.3369 19.7392 25.6174 19.5527 25.8753L17.6693 28.4792C17.1429 29.2067 17.3839 29.9264 17.8305 30.2871C18.0479 30.4626 18.3303 30.568 18.6281 30.568C18.9763 30.568 19.3454 30.4239 19.6556 30.0791L21.8354 27.656C22.3897 27.0398 22.6705 26.29 22.6702 25.4275L22.6695 23.7213L24.9244 24.4685L25.1195 27.2733C25.1691 27.9858 25.7494 28.356 26.3007 28.3559H26.311C26.8698 28.3512 27.4554 27.9684 27.4935 27.2457L27.6562 24.161C27.7363 22.6425 26.8591 22.2607 25.9305 21.8566C25.8255 21.8109 25.7176 21.764 25.6076 21.714C25.5997 21.7105 25.5918 21.7072 25.5837 21.7043L23.392 20.9098L23.8163 18.8775L24.3652 19.5285C24.8503 20.1037 25.5038 20.4075 26.2557 20.4075H26.2629L28.3936 20.4018C28.9342 20.4004 29.3886 19.9769 29.4279 19.4377L29.436 19.3268C29.4764 18.7742 29.0715 18.287 28.5142 18.2177L26.5553 17.974C26.3032 17.9426 26.1093 17.8243 25.9793 17.6223L25.0548 16.1866C24.5162 15.3501 23.7493 14.8229 22.7755 14.6196L21.4813 14.3493C21.0745 14.2644 20.7092 14.2499 20.2971 14.3024L18.3721 14.5473C17.5148 14.6564 16.8406 15.1602 16.5224 15.9296L15.2546 18.9956C15.2389 19.0336 15.2246 19.0716 15.2117 19.1095C14.9177 19.0203 14.5896 19.1409 14.4294 19.4182L14.3443 19.5657L13.0574 18.8227C12.8744 18.7171 12.6641 18.6986 12.4657 18.7707C12.267 18.8429 12.1176 18.992 12.0452 19.1905L11.7432 20.0171C11.7139 20.0975 11.6963 20.1797 11.6889 20.2617L10.3497 22.5814C10.231 22.787 10.1997 23.027 10.2614 23.2574C10.323 23.4877 10.4703 23.6799 10.6759 23.7986L15.3467 26.4953C15.4867 26.5761 15.6397 26.6145 15.7908 26.6145H15.7905ZM22.0138 25.4277C22.0141 26.1329 21.7961 26.7182 21.3473 27.217L19.1676 29.6401C18.8497 29.9935 18.474 29.9633 18.2428 29.7765C18.0383 29.6114 17.9046 29.2732 18.2009 28.8637L20.0842 26.2599C20.3625 25.8751 20.4784 25.4267 20.4286 24.9272L20.2277 22.9121L22.013 23.5037L22.0138 25.4277ZM25.4274 17.9776C25.6644 18.3455 26.0264 18.5695 26.4742 18.6251L28.4331 18.8688C28.6433 18.895 28.7963 19.0751 28.7814 19.2789L28.7733 19.3898C28.7586 19.592 28.5946 19.7449 28.3918 19.7455L26.2611 19.7511H26.2554C25.6954 19.7511 25.2282 19.5339 24.8668 19.1053L23.9865 18.0614L24.3492 16.3242C24.4026 16.3938 24.4541 16.466 24.5029 16.5418L25.4274 17.9776ZM17.1288 16.1803C17.3544 15.6347 17.8378 15.2767 18.4548 15.1982L20.3798 14.9533C20.721 14.91 21.0103 14.9214 21.3471 14.9916L22.6413 15.2619C23.0774 15.353 23.4623 15.5241 23.7939 15.7723L23.3114 18.0836C23.3114 18.0836 23.3114 18.0836 23.3114 18.0836L22.6913 21.0542C22.658 21.214 22.7472 21.3741 22.9007 21.4297L25.3478 22.3167C25.457 22.3662 25.5642 22.4128 25.6685 22.4583C26.5638 22.8478 27.0569 23.0624 27.0008 24.1263L26.838 27.211C26.8192 27.5685 26.5394 27.6976 26.3054 27.6996C26.3037 27.6996 26.3019 27.6996 26.3001 27.6996C26.0713 27.6996 25.7984 27.5763 25.7741 27.2277L25.5637 24.2034C25.5545 24.0706 25.4659 23.9566 25.3396 23.9147L20.1022 22.1791C19.6451 22.0277 19.4709 21.4472 19.5665 20.9735L20.3899 16.8961C20.4095 16.7991 20.3842 16.6984 20.3212 16.6222C20.2588 16.5467 20.166 16.503 20.0683 16.503C20.0672 16.503 20.0661 16.503 20.0652 16.503L18.7079 16.516C18.588 16.5171 18.4783 16.5835 18.4217 16.6893L16.8082 19.7067C16.7633 19.7907 16.7111 19.8619 16.6526 19.9202L15.8029 19.4296C15.816 19.3703 15.835 19.3091 15.8609 19.2464L17.1288 16.1803H17.1288ZM14.9976 19.7463C15.0027 19.7374 15.0169 19.7336 15.0257 19.7387L16.6874 20.6981C16.6919 20.7006 16.6948 20.7049 16.6964 20.7107C16.6979 20.7166 16.6974 20.7218 16.6949 20.7262L16.6097 20.8737L14.9125 19.8938L14.9977 19.7463H14.9976ZM12.3595 20.2422L12.6615 19.4155C12.6675 19.3988 12.6728 19.3936 12.6895 19.3875C12.7063 19.3814 12.7137 19.3821 12.7291 19.391L18.137 22.5132C18.1523 22.522 18.1566 22.5281 18.1596 22.5456C18.1627 22.5632 18.1608 22.5704 18.1494 22.5841L17.5845 23.2589C17.4848 23.3779 17.3002 23.4044 17.1549 23.3206L15.7472 22.5078C15.7757 22.4204 15.7786 22.3264 15.7542 22.2354C15.721 22.1113 15.6416 22.0077 15.5306 21.9437L14.5254 21.3633C14.4144 21.2992 14.285 21.2823 14.161 21.3155C14.0699 21.3399 13.99 21.3894 13.9286 21.4578L12.5208 20.6451C12.3756 20.5612 12.3062 20.3881 12.3595 20.2422ZM15.0501 22.424L14.9979 22.5144L14.2976 22.11L14.3497 22.0197L15.0501 22.424ZM10.895 23.0875C10.8787 23.0265 10.8868 22.9633 10.9178 22.9095L11.9872 21.0573C12.0477 21.1165 12.1162 21.1692 12.1927 21.2133L13.6004 22.0261C13.5719 22.1135 13.5689 22.2075 13.5934 22.2986C13.6266 22.4226 13.706 22.5262 13.817 22.5903L14.8222 23.1707C14.896 23.2133 14.9781 23.2351 15.0613 23.2351C15.1031 23.2351 15.1451 23.2296 15.1866 23.2185C15.2777 23.1941 15.3576 23.1446 15.4191 23.0762L16.8269 23.8889C16.9033 23.9331 16.9833 23.9661 17.0647 23.9889L15.9954 25.841C15.9307 25.9531 15.7869 25.9917 15.6747 25.9269L11.0038 23.2302C10.95 23.1991 10.9114 23.1484 10.8951 23.0875L10.895 23.0875ZM33.7694 26.7526C33.7694 26.9338 33.6225 27.0807 33.4413 27.0807H28.8112V28.9965C28.8112 29.1777 28.6643 29.3246 28.4831 29.3246H23.853V31.2404C23.853 31.4216 23.7061 31.5685 23.5249 31.5685H18.8948V33.4843C18.8948 33.6655 18.7479 33.8125 18.5667 33.8125H13.6085C13.4272 33.8125 13.2803 33.6655 13.2803 33.4843C13.2803 33.3031 13.4272 33.1562 13.6085 33.1562H18.2385V31.2404C18.2385 31.0592 18.3854 30.9123 18.5667 30.9123H23.1967V28.9965C23.1967 28.8153 23.3436 28.6684 23.5249 28.6684H28.1549V26.7526C28.1549 26.5713 28.3019 26.4244 28.4831 26.4244H33.4413C33.6225 26.4244 33.7694 26.5713 33.7694 26.7526H33.7694Z" fill="#1F2937"/>
</g>
<defs>
<clipPath id="clip0_2715_13968">
<rect width="24" height="24" fill="white" transform="translate(10 10)"/>
</clipPath>
</defs>
</svg>
