<svg width="44" height="44" viewBox="0 0 44 44" fill="none" xmlns="http://www.w3.org/2000/svg">
<rect x="0.5" y="0.5" width="43" height="43" rx="21.5" stroke="#9CA3AF"/>
<path d="M24.2855 32.223H11.855C10.8322 32.223 10 31.3815 10 30.347V13.0371C10 12.0028 10.8322 11.1611 11.855 11.1611H21.4051C21.5027 11.1611 21.5968 11.198 21.6684 11.2645L26.0167 15.2932C26.0957 15.3663 26.1405 15.4691 26.1405 15.5769V20.5926C26.1405 20.8065 25.9672 20.9797 25.7534 20.9797C25.5398 20.9797 25.3663 20.8065 25.3663 20.5926V15.7461L21.2533 11.9353H11.855C11.2592 11.9353 10.7742 12.4294 10.7742 13.0371V30.347C10.7742 30.9545 11.2592 31.4492 11.855 31.4492H24.2851C24.8813 31.4492 25.3659 30.9549 25.3659 30.347V28.0809C25.3659 27.867 25.5394 27.6938 25.753 27.6938C25.9668 27.6938 26.1401 27.867 26.1401 28.0809V30.347C26.1405 31.3815 25.3083 32.223 24.2855 32.223Z" fill="#1F2937"/>
<path d="M25.7484 15.964H22.3093C21.5975 15.964 21.0183 15.3786 21.0183 14.6598V11.5482C21.0183 11.3343 21.1918 11.1611 21.4054 11.1611C21.6192 11.1611 21.7925 11.3343 21.7925 11.5482V14.6598C21.7925 14.952 22.0244 15.1898 22.3093 15.1898H25.7484C25.962 15.1898 26.1355 15.3627 26.1355 15.5769C26.1355 15.7908 25.962 15.964 25.7484 15.964Z" fill="#1F2937"/>
<path d="M19.4326 23.9155H21.8996V24.6897H19.4326V23.9155Z" fill="#1F2937"/>
<path d="M19.4326 26.5327H23.1012V27.3069H19.4326V26.5327Z" fill="#1F2937"/>
<path d="M12.6392 28.9644H23.5012V29.7386H12.6392V28.9644Z" fill="#1F2937"/>
<path d="M19.4302 21.4844H22.7005V22.2586H19.4302V21.4844Z" fill="#1F2937"/>
<path d="M17.6399 27.3067H12.6393C12.4257 27.3067 12.2522 27.1338 12.2522 26.9196V21.5238C12.2522 21.3099 12.4257 21.1367 12.6393 21.1367H17.6399C17.8536 21.1367 18.027 21.3099 18.027 21.5238V26.9196C18.027 27.1338 17.854 27.3067 17.6399 27.3067ZM13.0264 26.5325H17.2528V21.9109H13.0264V26.5325Z" fill="#1F2937"/>
<path d="M25.5815 28.4762C23.3275 28.4762 21.4937 26.619 21.4937 24.3363C21.4937 22.0535 23.3275 20.1963 25.5815 20.1963C27.8356 20.1963 29.6693 22.0535 29.6693 24.3363C29.6693 26.619 27.8356 28.4762 25.5815 28.4762ZM25.5815 20.9705C23.7545 20.9705 22.2679 22.4801 22.2679 24.3363C22.2679 26.1924 23.7545 27.702 25.5815 27.702C27.4087 27.702 28.8951 26.1924 28.8951 24.3363C28.8951 22.4801 27.4087 20.9705 25.5815 20.9705Z" fill="#1F2937"/>
<path d="M29.864 29.0214C29.7642 29.0214 29.6643 28.9826 29.5885 28.9061L27.9471 27.2414C27.797 27.0889 27.7989 26.8443 27.951 26.694C28.1032 26.5436 28.3481 26.5458 28.4984 26.698L30.1396 28.3625C30.2899 28.515 30.288 28.7598 30.1358 28.9098C30.0602 28.9841 29.9619 29.0214 29.864 29.0214Z" fill="#1F2937"/>
<path d="M32.9059 32.8386C32.6129 32.8386 32.3362 32.7214 32.125 32.5081L29.5769 29.9235C29.3736 29.7256 29.259 29.4566 29.2552 29.1648C29.2509 28.8648 29.367 28.5724 29.5734 28.3626C29.7805 28.1528 30.0553 28.0371 30.3472 28.0371C30.6371 28.0371 30.9205 28.156 31.1244 28.3626L33.6759 30.9504C33.8783 31.1447 33.9959 31.4165 33.9999 31.7087C34.004 32.0079 33.8887 32.2922 33.6763 32.5081C33.4831 32.7148 33.2121 32.8349 32.9206 32.8386C32.9157 32.8386 32.911 32.8386 32.9059 32.8386ZM30.3472 28.8113C30.2884 28.8113 30.202 28.8279 30.1249 28.9062C30.0627 28.9688 30.0281 29.0595 30.0294 29.1538C30.0298 29.2035 30.0425 29.2971 30.1173 29.3691C30.12 29.3717 30.1223 29.3742 30.1249 29.3768L32.6768 31.965C32.7418 32.0308 32.8227 32.0607 32.9106 32.0652C32.9896 32.0641 33.0635 32.0312 33.1181 31.9728C33.1917 31.8981 33.2276 31.8106 33.2264 31.7201C33.2253 31.6363 33.192 31.559 33.1327 31.5021L30.5736 28.9073C30.5129 28.845 30.4328 28.8113 30.3472 28.8113Z" fill="#1F2937"/>
<path d="M17.3516 16.0402C17.4769 15.9423 17.5408 15.803 17.5408 15.6257C17.5408 15.5367 17.5276 15.4585 17.5017 15.3938C17.4758 15.328 17.437 15.27 17.3871 15.2209H17.3868C17.3384 15.1736 17.2792 15.133 17.2113 15.1001C17.149 15.0695 17.0779 15.0392 16.993 15.0071C16.9505 14.9924 16.9114 14.9757 16.8762 14.9595C16.8437 14.944 16.815 14.927 16.7902 14.9084C16.7709 14.8937 16.7558 14.8774 16.746 14.8597C16.7375 14.8445 16.7333 14.826 16.7333 14.8016C16.7333 14.764 16.7449 14.7389 16.7713 14.7196C16.8339 14.672 16.9834 14.6761 17.0998 14.7052C17.1584 14.72 17.2125 14.7412 17.2601 14.7687L17.3361 14.8117L17.4835 14.4202L17.4285 14.3881C17.3771 14.3573 17.307 14.3289 17.2202 14.3038C17.1331 14.2783 17.0329 14.265 16.9218 14.265C16.7256 14.265 16.5661 14.3149 16.4489 14.413C16.3269 14.5147 16.2653 14.6557 16.2653 14.8313C16.2653 14.9154 16.2805 14.9901 16.3101 15.0525C16.3392 15.1124 16.378 15.1655 16.426 15.2095C16.4715 15.2513 16.5254 15.287 16.5867 15.3161C16.6462 15.3439 16.7046 15.3683 16.7607 15.388C16.8146 15.4067 16.8641 15.4256 16.908 15.4454C16.9486 15.4636 16.9819 15.4832 17.0082 15.5031C17.0306 15.5197 17.048 15.539 17.0596 15.5588C17.0698 15.5762 17.0747 15.5987 17.0747 15.6254C17.0747 15.6694 17.0613 15.6993 17.0303 15.7225C17.0059 15.741 16.9524 15.7635 16.8375 15.7635C16.7422 15.7635 16.6602 15.7524 16.594 15.7306C16.5224 15.7066 16.4693 15.6849 16.4313 15.6634L16.3544 15.6203L16.2332 15.9618C16.1808 15.8123 16.1302 15.6702 16.0826 15.5426C16.0245 15.3868 15.9684 15.2405 15.9162 15.1075C15.8612 14.9672 15.807 14.8353 15.7556 14.7153C15.7032 14.5933 15.6482 14.4699 15.5909 14.3467L15.5705 14.3038H15.1872L15.1672 14.3471C15.1095 14.4707 15.0545 14.5941 15.0025 14.7153C14.9496 14.8391 14.8957 14.9712 14.8422 15.1075C14.7882 15.2449 14.7328 15.3912 14.677 15.5426C14.6279 15.6764 14.5755 15.8244 14.5219 15.9792L14.4077 15.6288L14.3294 15.6694L14.3291 15.6698C14.2958 15.6874 14.247 15.7066 14.1843 15.7267C14.1259 15.7461 14.0454 15.7558 13.9457 15.7558C13.8667 15.7558 13.7998 15.7429 13.7469 15.7178C13.6938 15.6927 13.6498 15.6579 13.6163 15.6136C13.5808 15.5673 13.5541 15.5112 13.5371 15.4469C13.5188 15.3787 13.5095 15.3029 13.5095 15.2209C13.5095 15.129 13.5212 15.0477 13.5439 14.9793C13.566 14.9135 13.5966 14.8585 13.635 14.8164C13.6724 14.7748 13.7178 14.7436 13.7696 14.7226C13.8858 14.6739 14.0363 14.6835 14.1533 14.7196C14.2187 14.7396 14.2682 14.7606 14.3 14.7807L14.3793 14.8306L14.5211 14.4297L14.4653 14.3983C14.454 14.392 14.434 14.3813 14.406 14.3661C14.3759 14.3499 14.338 14.3348 14.2903 14.3197C14.247 14.3057 14.1962 14.2934 14.1351 14.2817C14.075 14.2705 14.0074 14.2646 13.9342 14.2646C13.8112 14.2646 13.6945 14.2864 13.5874 14.3289C13.4785 14.3711 13.3821 14.435 13.3012 14.5179C13.2203 14.6011 13.156 14.7028 13.1105 14.8202C13.0648 14.9379 13.0415 15.0733 13.0415 15.2235C13.0415 15.3727 13.0617 15.5072 13.1007 15.6238C13.1405 15.7418 13.1995 15.8437 13.2753 15.9272C13.3513 16.0106 13.4456 16.0752 13.5556 16.1181C13.6628 16.1603 13.7855 16.182 13.9191 16.182C13.9845 16.182 14.0484 16.178 14.1092 16.1703C14.1684 16.1622 14.2227 16.1521 14.2701 16.1395C14.3198 16.1259 14.3608 16.1126 14.3945 16.0988C14.4332 16.0837 14.4636 16.0682 14.4873 16.052L14.499 16.0438L14.4633 16.1452H14.9379L14.9562 16.0941C14.9781 16.0295 15.001 15.9645 15.0246 15.8987C15.042 15.8488 15.0594 15.7991 15.0764 15.748H15.6718C15.6892 15.7991 15.7072 15.8492 15.7253 15.8987C15.7489 15.9629 15.7722 16.028 15.7941 16.0934L15.8117 16.1452H16.2994L16.2638 16.0442V16.0438L16.2704 16.0476C16.2927 16.0609 16.3215 16.0748 16.3555 16.0894C16.3895 16.1041 16.4294 16.1181 16.4782 16.1325C16.5273 16.1469 16.5816 16.1588 16.6392 16.168C16.7008 16.1773 16.7681 16.182 16.839 16.182C17.0592 16.1824 17.2323 16.1344 17.3516 16.0402ZM15.5403 15.3473H15.2074C15.2452 15.2424 15.2825 15.1426 15.318 15.0489C15.3378 14.9971 15.356 14.9498 15.3738 14.9058C15.3911 14.9494 15.4095 14.9967 15.4288 15.0466C15.4649 15.1415 15.5023 15.242 15.5403 15.3473Z" fill="#1F2937"/>
<path d="M18.934 15.7322H18.1099V15.3905H18.7923V14.982H18.1099V14.7176H18.8764V14.3042H17.6565V16.1456H18.934V15.7322Z" fill="#1F2937"/>
<path d="M13.4301 18.5544C13.3817 18.5071 13.3226 18.4661 13.2539 18.4332C13.187 18.4007 13.1158 18.3701 13.0366 18.3408C12.9939 18.3257 12.9547 18.3098 12.9192 18.2928C12.8856 18.2769 12.8568 18.2599 12.8336 18.2416C12.8143 18.2272 12.7992 18.211 12.7895 18.1939C12.7807 18.1781 12.7767 18.1592 12.7767 18.1352C12.7767 18.0976 12.7884 18.0724 12.8147 18.0531C12.8778 18.0063 13.0234 18.0097 13.1438 18.0388C13.201 18.0531 13.2553 18.0749 13.304 18.1023L13.3798 18.1452L13.5273 17.7539L13.4724 17.7218C13.4208 17.6908 13.3503 17.6624 13.2642 17.6373C13.1778 17.6118 13.0776 17.5991 12.9657 17.5991C12.7693 17.5991 12.61 17.6486 12.4922 17.7466C12.3703 17.8488 12.3087 17.9896 12.3087 18.165C12.3087 18.2497 12.3238 18.324 12.3537 18.386C12.3822 18.4457 12.4213 18.4986 12.4694 18.5432C12.5158 18.5858 12.5701 18.6217 12.6296 18.6497C12.6843 18.6756 12.7427 18.6999 12.8047 18.7221C12.8583 18.7402 12.9077 18.7595 12.9513 18.7789C12.9908 18.7967 13.0245 18.8166 13.0515 18.8366C13.074 18.8532 13.0914 18.8725 13.1031 18.8924C13.1131 18.9101 13.1182 18.9322 13.1182 18.9593C13.1182 19.0035 13.1046 19.0332 13.074 19.056C13.05 19.0748 12.9967 19.0967 12.882 19.0967C12.7869 19.0967 12.7047 19.0855 12.6385 19.0638C12.5701 19.0413 12.5155 19.019 12.4767 18.9973L12.3994 18.9527L12.2588 19.3488L12.3134 19.381C12.3359 19.394 12.3644 19.408 12.3985 19.4227C12.4327 19.4369 12.4726 19.4513 12.5213 19.466C12.5684 19.48 12.6226 19.4915 12.682 19.5008C12.7412 19.5106 12.8084 19.5152 12.882 19.5152C13.1039 19.5152 13.2764 19.4679 13.3957 19.374C13.5212 19.2755 13.5845 19.1362 13.5845 18.9593C13.5845 18.8695 13.5715 18.7916 13.5456 18.727C13.5191 18.6616 13.4806 18.6032 13.4301 18.5544Z" fill="#1F2937"/>
<path d="M13.5322 18.0556H14.0439V19.4787H14.4996V18.0556H15.0113V17.6367H13.5322V18.0556Z" fill="#1F2937"/>
<path d="M16.0886 18.7392C16.0886 18.8069 16.0813 18.8651 16.0669 18.9126C16.0535 18.9557 16.0348 18.9908 16.0111 19.0167C15.9888 19.0415 15.9609 19.0602 15.9283 19.0721C15.8595 19.0976 15.7611 19.0976 15.6934 19.0721C15.6624 19.0606 15.635 19.042 15.6121 19.0167C15.5885 18.9908 15.57 18.956 15.5564 18.9126C15.5416 18.8655 15.5346 18.8069 15.5346 18.7392V17.6367H15.0791V18.7683C15.0791 18.8733 15.0935 18.9712 15.1213 19.0598C15.1504 19.1515 15.1959 19.2316 15.256 19.2993C15.3171 19.3683 15.3949 19.4221 15.487 19.4592C15.5773 19.4961 15.6856 19.5146 15.8079 19.5146C15.9302 19.5146 16.0391 19.4961 16.1308 19.4592C16.2245 19.4221 16.3035 19.3683 16.365 19.2993C16.4255 19.2312 16.471 19.1507 16.5009 19.0602C16.53 18.9719 16.5442 18.8733 16.5442 18.7683V17.6367H16.0886V18.7392Z" fill="#1F2937"/>
<path d="M18.059 17.8438C17.9692 17.7663 17.8598 17.7087 17.7343 17.6727C17.6131 17.6374 17.4772 17.6196 17.3317 17.6196C17.2652 17.6196 17.188 17.6219 17.0967 17.6274C17.0054 17.6329 16.9187 17.6448 16.8397 17.6635L16.7805 17.6765V19.4383L16.8393 19.4525C16.9183 19.4708 17.0037 19.4831 17.0937 19.4897C17.1788 19.4952 17.2574 19.4982 17.3271 19.4982C17.4746 19.4982 17.612 19.4797 17.7343 19.4429C17.8602 19.4051 17.9696 19.3457 18.0598 19.2667C18.1509 19.1871 18.2221 19.0868 18.2713 18.9679C18.3197 18.8511 18.3444 18.7121 18.3444 18.5568C18.3444 18.3978 18.3197 18.2576 18.2713 18.1407C18.2208 18.0211 18.1497 17.9217 18.059 17.8438ZM17.8764 18.5564C17.8764 18.7233 17.8329 18.8537 17.7475 18.9431C17.6626 19.0318 17.5275 19.0771 17.3464 19.0771C17.2999 19.0771 17.2625 19.0767 17.2342 19.076V18.0404C17.2659 18.0392 17.305 18.0385 17.3512 18.0385C17.5341 18.0385 17.6685 18.0823 17.7509 18.1685C17.8341 18.2553 17.8764 18.3861 17.8764 18.5564Z" fill="#1F2937"/>
<path d="M19.4238 17.6367L19.4036 17.6821C19.349 17.8051 19.2871 17.9306 19.2193 18.0537C19.172 18.1393 19.1229 18.2255 19.073 18.3126C19.0238 18.2283 18.9751 18.142 18.9282 18.0544C18.8628 17.9325 18.8012 17.807 18.7458 17.6821L18.7258 17.6367H18.1965L18.2551 17.749C18.3425 17.917 18.4377 18.0909 18.5377 18.2658C18.6301 18.4279 18.732 18.5963 18.8396 18.7666V19.4787H19.2928V18.7621C19.3992 18.5952 19.5004 18.4279 19.5941 18.2646C19.6913 18.0947 19.7856 17.921 19.8755 17.7494L19.9336 17.6371H19.4238V17.6367Z" fill="#1F2937"/>
</svg>
