<svg width="44" height="44" viewBox="0 0 44 44" fill="none" xmlns="http://www.w3.org/2000/svg">
<rect x="0.5" y="0.5" width="43" height="43" rx="21.5" stroke="#374151"/>
<path d="M18.7975 16.6133H31.3063L24.4732 21.9791C24.3284 22.0927 24.1562 22.1482 23.9999 22.1634C23.8426 22.1479 23.6698 22.0925 23.5234 21.9791L18.6402 18.1431C18.5884 18.1015 18.53 18.0698 18.4658 18.0501C18.6956 17.7258 18.8268 17.3335 18.8199 16.9109C18.8186 16.8141 18.81 16.7143 18.7975 16.6133ZM15.6164 13.1623C15.6322 13.165 15.658 13.1749 15.7143 13.201C15.8255 13.2538 16.0023 13.3898 16.1754 13.5794C16.5239 13.9591 16.8722 14.5343 17.053 14.9141C17.0586 14.9253 17.0644 14.9375 17.0698 14.9501C17.5828 15.8303 17.8042 16.5037 17.8108 16.9261C17.818 17.3503 17.7042 17.533 17.3444 17.7397L16.4164 18.2746C15.8119 18.6226 15.5263 19.2463 15.4554 19.8282C15.3842 20.4103 15.489 20.9759 15.7479 21.4231L18.0386 25.3711C18.298 25.8181 18.741 26.1919 19.2826 26.4215C19.8247 26.6517 20.5103 26.7167 21.1148 26.3695L22.0428 25.8357C22.4023 25.6295 22.6196 25.6253 22.9847 25.8423C23.3508 26.0599 23.8263 26.5855 24.3372 27.4663C24.3444 27.4794 24.3514 27.4903 24.3596 27.5029C24.5991 27.8482 24.9252 28.4341 25.0826 28.9247C25.1607 29.1685 25.1914 29.3887 25.1815 29.5106C25.1706 29.633 25.1679 29.6205 25.1356 29.6397L24.4295 30.0445C22.6556 30.8138 21.0298 30.6402 19.5767 29.8866C18.121 29.1298 16.8556 27.7631 15.9735 26.1586C15.9706 26.1554 15.9692 26.1514 15.9668 26.1493L14.0346 22.8191C14.0314 22.8159 14.03 22.813 14.0274 22.8087C13.0714 21.2461 12.5143 19.4719 12.5842 17.8397C12.654 16.2098 13.3154 14.7239 14.8732 13.5807L15.5796 13.1773C15.5959 13.1679 15.6012 13.1607 15.6164 13.1623ZM15.6236 12.1701C15.4367 12.1671 15.246 12.2063 15.0746 12.3058L14.3276 12.7354C14.3108 12.745 14.2954 12.7549 14.2802 12.7645C12.4831 14.0797 11.6556 15.9106 11.5748 17.7978C11.494 19.6842 12.1239 21.6311 13.1644 23.3333L15.0903 26.6519L15.0858 26.6421C16.0471 28.389 17.4247 29.9045 19.1082 30.7775C20.7924 31.6519 22.7988 31.8546 24.8426 30.9634C24.8594 30.9562 24.8764 30.9482 24.8916 30.9389L25.6396 30.5093C25.9855 30.3125 26.1594 29.9295 26.1876 29.5951C26.2167 29.2618 26.1487 28.9373 26.0455 28.6175C25.8434 27.9853 25.4908 27.3711 25.1996 26.9498C24.6495 26.0034 24.1183 25.3466 23.5044 24.9794C22.8858 24.6106 22.1431 24.6159 21.5372 24.9642L20.6092 25.4991C20.3351 25.657 20.0146 25.6386 19.6772 25.4959C19.3415 25.3533 19.0306 25.0679 18.9151 24.8679L16.6244 20.9202C16.5087 20.7191 16.414 20.309 16.4588 19.9474C16.502 19.5869 16.6484 19.3045 16.9228 19.1463L17.8244 18.6279C17.8479 18.7487 17.9162 18.8583 18.0151 18.9319L22.8986 22.7687C23.2162 23.0183 23.5924 23.1573 23.9714 23.1791C23.9906 23.1802 24.0103 23.1802 24.0298 23.1791C24.409 23.1573 24.7834 23.0181 25.1012 22.7687L31.8271 17.485V26.2141C31.8271 26.3469 31.6756 26.5218 31.3786 26.5218H26.7223C26.442 26.5202 26.2151 26.7463 26.2151 27.025C26.2151 27.3031 26.4423 27.5293 26.7223 27.5277H31.3786C32.1396 27.5277 32.8391 26.9775 32.8391 26.2141V16.921C32.8391 16.157 32.1396 15.6071 31.3786 15.6071H18.5204C18.378 15.2511 18.19 14.8738 17.9532 14.4637C17.7316 14.0023 17.3722 13.3925 16.9223 12.9021C16.6951 12.6535 16.45 12.4333 16.1436 12.2909V12.2922C15.9914 12.2202 15.8103 12.1741 15.6236 12.1701Z" fill="#F9FAFB"/>
</svg>
