<svg width="116" height="73" viewBox="0 0 116 73" fill="none" xmlns="http://www.w3.org/2000/svg">
<path d="M97.5944 6.54911C97.5944 6.48844 97.5944 6.48844 97.5944 6.54911V6.54911ZM115.184 45.2374C115.48 45.0555 115.703 44.8735 116 44.6917C115.852 44.631 115.629 44.5097 115.629 44.4492C115.703 44.2065 115.852 43.964 116 43.7215C115.48 43.4789 115.035 43.0544 114.293 43.0544C114.145 43.0544 113.848 42.9331 113.774 42.8119C113.551 42.3267 112.957 42.1448 112.809 41.6597C113.848 40.8714 114.516 40.0224 113.996 38.8096C113.922 38.6883 114.07 38.4458 114.07 38.3244C114.07 37.9001 113.699 37.4149 113.254 37.2935C112.809 37.1723 112.363 37.1723 112.067 37.5362C111.77 37.4149 111.547 37.233 111.25 37.1117C110.582 36.6872 110.211 36.7478 109.469 37.1723C109.469 37.2935 109.543 37.4149 109.543 37.5362C109.246 37.5362 108.95 37.4149 108.95 37.3542C109.172 36.9297 108.578 36.566 108.875 36.1414C108.95 35.9594 108.875 35.7169 108.875 35.5351C108.282 36.4446 107.614 37.233 106.204 37.4149C106.055 37.1117 105.981 36.8692 106.204 36.6265C106.649 36.1414 106.871 35.5957 106.946 35.0499C107.02 34.686 107.168 34.4435 107.688 34.3222C107.91 34.2616 108.133 34.201 108.356 34.0796C108.578 33.9585 108.801 33.7765 108.43 33.4733C108.133 33.5339 107.836 33.6551 107.539 33.7158C107.465 33.5946 107.391 33.5339 107.317 33.4126C107.094 33.5946 106.871 33.6551 106.723 33.7765C106.204 33.2914 105.387 33.0487 105.61 32.2605C105.313 32.2605 104.942 32.8062 104.793 32.0785C105.461 31.8967 106.129 31.836 106.649 31.5328C107.242 31.2296 107.688 31.2296 108.282 31.3509C108.282 31.2903 108.356 31.2296 108.356 31.2296C107.985 31.1083 107.688 30.9264 107.317 30.8051C107.317 30.7444 107.391 30.6232 107.391 30.5626C106.426 30.9871 105.461 31.3508 104.422 31.7753C104.2 31.4721 103.977 31.2296 103.829 30.9871C103.68 31.4721 103.383 31.7147 102.789 31.7753C102.418 31.2903 103.086 31.1689 103.235 30.9264C103.012 30.6839 102.864 30.3806 102.641 30.138C103.161 30.138 103.235 29.4103 103.903 29.7135C104.125 30.6232 104.125 30.6232 104.719 30.8051C105.387 30.0774 104.645 29.471 104.422 28.8646C104.2 28.4401 104.125 28.3189 104.571 28.0157C105.016 27.7731 105.239 27.3487 105.239 26.8635C104.868 27.0455 104.571 27.288 104.2 27.4699C104.051 27.0455 104.2 26.8028 104.422 26.5603C105.61 25.5294 106.723 24.438 107.985 23.4677C108.727 22.8612 108.95 22.0123 109.84 21.5878C109.914 20.9814 110.582 20.5569 110.805 20.0719C110.953 19.8293 111.102 19.5867 111.324 19.5261C112.289 19.1623 112.215 18.4346 112.512 17.7069C112.289 17.8282 112.067 17.9494 111.918 18.0101C111.844 17.4643 111.77 16.858 112.215 16.3728C112.067 16.1909 111.918 16.0089 111.77 16.0089C111.547 15.9483 111.176 16.0696 111.176 16.1303C111.176 16.3728 110.953 16.676 111.399 16.858C111.844 17.1005 111.844 17.343 111.473 17.5855C111.25 17.7069 111.028 17.7675 110.879 17.8889C110.285 18.3132 109.617 18.7984 109.024 19.2228C108.801 19.3441 108.578 19.3441 108.133 19.4655C108.207 19.1016 108.356 18.9196 108.356 18.6771C108.356 18.4346 108.282 18.2526 108.207 18.0101H108.282C108.43 17.5855 108.504 17.1005 108.727 16.4941C108.95 16.3121 109.692 16.2514 109.692 15.6451C109.469 16.3121 108.875 15.9483 108.282 16.0696C108.801 15.4025 109.246 14.8568 109.692 14.2505C109.914 14.0078 110.137 13.7046 110.137 13.4621C110.137 12.9164 110.063 12.3705 109.988 11.8855C110.211 11.7641 110.36 11.7035 110.508 11.5823C110.731 11.4609 111.25 11.4003 110.731 11.0364C110.731 11.0364 110.805 10.9152 110.879 10.8546C110.953 10.612 111.028 10.3089 111.028 10.0662C111.028 9.58115 110.508 8.9141 109.617 8.12572C109.692 8.36839 109.692 8.48958 109.766 8.67158C108.875 8.48958 108.578 7.94387 108.282 7.39801C107.91 7.27682 107.539 7.21616 107.168 7.15549C107.02 7.09482 106.871 7.0343 106.797 7.0343C105.313 6.8523 103.903 7.09482 102.493 7.58001C101.676 7.82253 100.786 8.00453 99.9692 8.30772C99.5239 8.48958 98.9303 8.36839 98.6334 8.85343C98.6334 8.85343 98.2623 8.85343 98.1881 8.79277C98.0397 8.67158 97.9655 8.42891 97.817 8.24705C97.3717 8.48958 97.3717 8.48958 97.5944 9.03529C97.3717 9.09595 97.0749 9.15662 96.8522 9.21729C96.7779 9.09596 96.7038 8.97476 96.6296 8.85343C96.3326 8.85343 96.1101 8.9141 95.8874 8.9141C96.1101 7.82253 96.8522 7.0343 97.6687 6.30659C97.3717 6.36726 97.1491 6.36726 96.8522 6.42778C96.5554 5.94273 96.9264 5.57888 97.1491 5.21502C97.4459 4.7905 97.817 4.36612 97.817 3.9416C97.8912 3.45641 97.6685 2.97137 97.5202 2.48618C97.2975 1.94047 97.0007 1.45542 96.1843 1.39476C95.2195 1.33409 95.071 1.15209 94.8484 0.242522C94.4031 0.181856 93.8836 0.0606667 93.3641 0C92.6219 0 91.8055 0.0606661 91.0633 0.121333C89.6532 0.242522 88.3173 0.485188 87.0557 0.970233C86.9072 1.0309 86.6846 1.0309 86.5361 1.09157C85.3487 1.33409 84.1612 1.63728 82.9738 1.8798C82.6027 1.94047 82.1574 1.94047 81.9347 2.12247C81.5637 2.42566 81.1926 2.36499 80.8215 2.30432C80.6731 2.30432 80.5246 2.36499 80.302 2.36499C80.3763 2.54684 80.4504 2.66818 80.5988 2.85003C80.0051 3.03203 79.4857 3.21389 78.8919 3.39589C78.8919 3.27456 78.8919 3.15322 78.8919 3.03203C78.1498 3.15322 77.7045 3.57774 77.2592 3.9416C76.8138 4.24479 76.5169 4.36612 76.0716 4.06293C75.9974 4.00227 75.8491 4.00227 75.7006 4.00227C75.5521 4.18412 75.4038 4.36612 75.2553 4.54798C75.5521 4.54798 75.7006 4.54798 75.9232 4.48731C75.4038 5.15436 73.9194 5.8214 72.8803 5.88207C72.8803 5.70021 72.8061 5.51821 72.8061 5.27569C72.1382 5.70021 71.4702 6.06407 70.8023 6.54911C71.0249 6.60978 71.0992 6.67045 71.2476 6.73097C70.6539 7.39801 69.8375 6.8523 69.2437 7.15549C69.0954 6.79163 69.6148 6.42778 69.1695 6.06407C68.65 6.48844 68.1306 6.79163 67.4626 6.97363C67.24 6.18526 67.9821 5.76073 68.2048 5.27569C68.0563 4.9725 67.8336 4.66931 67.9079 4.48731C67.9079 4.60864 68.2789 4.54798 68.5016 4.42679C68.6501 3.82027 68.2789 3.39589 67.9079 2.97137C67.4626 2.9107 67.0173 2.72884 66.4977 2.9107C66.3494 2.97137 65.9782 2.85003 65.7556 2.72884C65.3103 2.48618 64.9393 2.42565 64.494 2.60751C64.1229 2.78951 63.6776 2.78951 63.3807 2.54684C63.0838 2.36499 62.7128 2.30432 62.4158 2.42566C62.1933 2.54684 61.9705 2.78951 61.8963 2.85003C61.5252 2.85003 61.2284 2.78951 61.0057 2.9107C60.6347 3.0927 60.4121 3.33522 60.041 3.51708C59.6698 3.69908 59.2988 3.82027 58.9277 4.00227C58.4082 4.18412 58.0371 4.48731 57.9629 4.9725C57.9629 5.09369 57.8144 5.15435 57.6661 5.27569C57.2208 5.03317 56.8497 5.03317 56.4785 5.33636C56.0332 5.70021 55.5138 6.0034 54.9943 6.36726C54.4748 6.67044 53.9552 6.97363 53.4357 7.27682C53.1389 7.45868 52.8419 7.45868 52.6193 7.15549C52.0998 8.12572 52.0998 8.12572 51.7288 8.12572C51.6545 7.82253 52.3225 7.64068 52.0256 7.33749C51.5803 7.82253 51.135 8.30772 50.6897 8.7321C50.3186 8.55024 50.0218 8.42891 49.7248 8.30772C49.5023 8.48958 49.3538 8.67158 49.1312 8.85343C49.3538 9.15662 49.2053 9.45981 48.9827 9.763C48.4632 9.45981 48.4632 10.0057 48.1664 10.0662C47.9437 10.1269 47.7211 10.3089 47.2758 10.5514C47.4241 10.1269 47.4984 9.82367 47.6469 9.52048C47.7211 9.45981 48.0179 9.45981 48.0922 9.39914C48.2406 9.21729 48.3147 8.97477 48.4632 8.7321C47.35 8.79277 47.2758 8.7321 47.2758 7.94387C47.2758 7.8832 47.2758 7.76187 47.2016 7.76187C46.7563 7.39801 47.0531 7.15549 47.35 6.79163C47.6469 6.97363 48.1664 6.91297 47.8694 7.39801C47.8694 7.45868 47.8694 7.58001 47.9437 7.64068C48.0179 7.64068 48.1664 7.64068 48.2406 7.58001C48.5374 7.33749 48.76 7.09482 49.057 6.79163C49.057 6.54911 48.9827 6.12459 48.8343 5.63955C48.6117 5.88207 48.4632 6.06407 48.2406 6.24592C47.6469 5.76073 47.6469 5.76073 48.0179 5.21502C48.1664 4.9725 48.2406 4.72998 48.3147 4.60864C47.7953 3.82027 47.0531 4.18412 46.2367 4.24479C46.5335 3.9416 46.7563 3.75974 46.9788 3.57774C46.682 3.33522 46.7563 3.03203 46.9046 2.72884C46.9788 2.48618 47.35 2.24366 46.9788 2.00113C46.7563 1.8798 46.3852 1.81913 46.014 1.81913C45.8657 1.81913 45.7172 1.8798 45.5687 1.94047C44.9751 2.0618 44.3813 2.0618 43.936 1.63728C43.4165 1.69794 43.2681 2.48618 42.6001 2.00113C42.5259 2.30432 42.4517 2.54684 42.0064 2.48618C41.2642 2.30432 40.6705 2.60751 40.1509 2.9107C38.2955 4.00227 36.4402 5.03317 34.5848 6.12459C34.2879 6.30659 34.0653 6.42778 33.7683 6.60978C33.991 6.67044 34.0653 6.73097 34.2879 6.8523C34.0653 6.91297 33.991 7.0343 33.9168 7.0343C33.323 6.8523 32.952 7.0343 32.6552 7.39801C32.5809 7.45868 32.5067 7.51934 32.3583 7.58001C30.2802 8.36839 28.5733 9.64181 26.7921 10.8546C26.4953 11.0971 26.3468 11.4609 25.8273 11.6429C26.1983 11.7035 26.5694 11.7641 27.0889 11.8855C26.5694 12.0673 26.2726 12.1887 25.9015 12.3705C25.4562 12.0067 25.0109 12.128 24.5656 12.4312C23.8976 12.9164 23.0812 13.3407 22.3391 13.8259C21.8938 14.1291 21.8196 14.0685 21.5228 13.6439C21.1516 13.7653 20.7063 13.8259 20.3352 13.9473C20.4095 14.0078 20.4095 14.0685 20.4837 14.1291C20.1868 14.978 19.3704 15.4632 18.4056 15.8271V16.4941C17.5892 16.7973 17.6635 16.7973 17.2924 17.5855C17.2182 17.7675 16.8471 17.9494 16.6244 18.0101C16.3276 18.0707 16.0308 18.0707 15.6596 18.0707C15.2885 18.6164 14.8432 19.1623 14.3979 19.708C14.2495 19.8899 14.0269 20.0719 13.8042 20.193C13.4331 20.4357 13.0621 20.6782 12.691 20.9208C12.5425 20.4357 12.3941 19.9505 11.8004 19.708C12.3199 19.1016 12.3199 19.1016 13.2105 19.2835C13.9527 18.8591 14.1753 18.0707 14.9917 17.6462C15.1402 17.5855 15.2885 17.4037 15.3628 17.2823C15.5112 16.7973 15.9565 16.5548 16.4761 16.3728C16.5502 16.3121 16.6244 16.3121 16.7729 16.2514C16.4761 16.0696 16.0308 16.1303 16.1049 15.9483C16.5502 15.6451 16.7729 15.4632 17.0697 15.2207C17.515 14.8568 17.8119 14.4323 18.3315 14.1898C18.7768 14.0078 19.2221 13.5834 19.3704 13.1589C19.5189 12.795 19.7415 12.4918 20.0384 12.2493C19.5931 11.7641 19.7415 11.2791 19.8157 10.7939C20.4837 10.7332 20.7805 11.0971 21.0033 11.4609C21.4485 11.0364 21.8196 10.612 22.1164 10.3089C21.9681 10.0662 21.8196 9.88433 21.8196 9.70233C21.8196 9.58114 21.9681 9.45981 22.0422 9.39914C22.4875 9.15662 22.5617 9.03529 22.1907 8.85343C21.8196 8.61091 21.3743 8.42891 20.929 8.24705C20.7805 8.42891 20.7063 8.61091 20.6321 8.7321C19.6674 8.55024 19.5931 8.55024 19.0736 9.15662C18.9993 9.27795 18.8509 9.39915 18.7025 9.52048C17.515 10.43 16.4018 11.4003 15.2885 12.2493C15.2885 12.6737 15.9565 12.8557 15.5855 13.1589C15.2885 13.4621 14.9917 13.2196 14.6949 13.1589C14.6206 13.1589 14.5464 13.1589 14.3979 13.1589C13.4331 14.0078 12.3199 14.8568 11.5035 15.7664C10.984 16.3121 9.94498 16.6153 10.0192 17.525C10.0192 17.7069 9.64811 17.8889 9.49967 18.1314C9.35125 18.3132 9.20282 18.4952 9.20282 18.6771C8.90594 19.6473 8.08958 20.193 7.49585 20.7996C6.97633 21.3453 6.23416 21.7698 6.3826 22.558C6.3826 22.6187 6.23416 22.74 6.15995 22.8007C6.08574 22.8612 5.9373 22.9826 5.9373 22.9826C6.23416 23.4071 5.78886 23.5283 5.56622 23.7709C5.41778 23.9528 5.19513 24.0741 5.19513 24.1346C5.26936 24.6198 4.89827 24.8017 4.6014 25.0444C4.23033 25.3475 3.78502 25.5901 3.78502 26.0753C3.78502 26.1358 3.71081 26.2571 3.6366 26.2571C2.89443 26.439 2.96864 26.8635 3.11708 27.3487C3.1913 27.4699 3.11708 27.6519 3.11708 27.7731C3.04287 28.0762 3.11708 28.2582 3.33973 28.5008C3.78502 28.9253 3.56237 29.2891 2.89443 29.4103C2.52335 29.471 2.22649 29.4103 1.85541 29.4103C1.85541 29.653 1.85541 29.9562 1.70697 30.138C1.63276 30.32 1.33589 30.5019 1.11324 30.6839C1.18746 30.8051 1.26168 30.9264 1.33589 31.0476C1.18746 31.2296 0.964811 31.4115 0.816379 31.4721C1.03903 32.4424 0.445298 32.9276 0 33.4733C0.445298 33.7765 0.890596 34.019 0.890596 34.5648C0.890596 34.9892 1.11324 35.3531 1.85541 35.4744C1.78119 35.2319 1.70697 35.0499 1.63276 34.9287C1.92962 34.686 2.22649 34.5042 2.44914 34.3222C2.3007 34.0796 1.78119 33.8371 2.15228 33.5339C2.59757 33.6551 3.04287 33.7158 3.41395 33.7765C3.33973 33.9585 3.26552 34.019 3.19131 34.201C3.78502 34.0796 4.0819 34.201 4.30454 34.5042C4.23033 34.8074 4.15611 35.0499 4.00768 35.3531H4.15611C4.45298 35.7169 4.67563 36.0201 4.97249 36.384C5.26936 36.384 5.56622 36.3233 5.9373 36.3233C6.08574 36.1414 6.15995 36.0201 6.3826 35.7776C6.60524 36.1414 6.75368 36.384 6.90212 36.6265C6.97633 36.6265 7.05054 36.6265 7.12476 36.6265C6.45682 35.8989 7.42162 35.3531 7.34741 34.8074C7.7185 34.6255 8.08956 34.5042 8.16379 34.2616C8.38644 33.8371 8.75752 33.7765 9.20282 33.6551C9.64811 33.5339 10.0934 33.4126 10.3903 32.9276C10.6129 32.5637 11.0582 32.0785 11.8004 32.1998C12.023 32.7456 11.2809 32.8062 11.1324 33.3519C11.4293 33.2914 11.7262 33.3519 11.8746 33.2307C12.3941 32.8669 13.0621 32.6244 13.2105 32.0178C13.2105 31.8967 13.4331 31.7753 13.5074 31.6541C14.1753 31.2296 14.8432 30.8658 15.437 30.3806C15.7338 30.138 16.2533 29.8955 16.2533 29.471C16.4761 29.3498 16.8471 29.3498 16.9214 29.1678C17.1439 28.804 17.515 28.6828 17.8862 28.6221C17.8119 28.986 17.7377 29.3498 17.6635 29.653C18.0345 30.0169 18.4056 29.9562 18.7768 29.653C18.9251 29.5317 19.1478 29.3498 19.2962 29.2285C19.8157 28.5008 20.7063 28.0157 21.4485 27.4093C21.4485 27.4093 21.5228 27.4699 21.6711 27.4699C21.3001 28.0157 21.0033 28.6221 20.558 29.1678C20.0384 29.8349 19.2962 30.3806 18.7025 31.0476C18.3315 31.4721 17.9603 31.836 17.4409 32.0785C17.4409 32.0785 17.4409 32.1392 17.4409 32.2605C17.6635 32.1998 17.8862 32.1998 18.1088 32.1392C18.1088 32.8669 17.2924 33.3519 17.2924 34.019C17.2924 34.0796 17.1439 34.2616 17.0697 34.2616C16.6986 34.2616 16.6986 34.5648 16.6244 34.7467C16.4761 34.9892 16.2533 35.1712 16.1049 35.4137C16.0308 35.4744 15.9565 35.5957 15.9565 35.6563C16.1049 36.2628 15.3628 36.4446 15.2143 36.9297C14.5464 36.9903 14.769 37.6574 14.2495 37.8394C13.8784 38.749 13.73 39.7192 12.8394 40.3862C12.7652 40.4469 12.7652 40.5681 12.691 40.6288C12.4683 40.8713 12.3199 41.0533 12.1715 41.2351C12.023 41.6597 11.9488 42.0842 11.7262 42.3267C11.2809 42.8724 11.2067 43.4183 11.0582 44.0246C10.984 44.2672 10.9098 44.5097 10.7614 44.7524C10.3903 45.2981 9.94499 45.8438 9.64811 46.3896C9.35125 46.9353 9.12861 47.6024 8.98017 48.2088C8.98017 48.3301 9.05438 48.4513 9.20282 48.6333C9.42546 48.1481 9.72232 47.7842 10.2418 47.6024C10.3161 47.9662 10.1676 48.2694 10.5387 48.6333C10.9098 48.9365 11.8004 48.8151 11.652 49.5429C11.652 49.5429 11.7262 49.5429 11.7262 49.6035H12.4683V50.1492C12.691 50.028 12.9136 49.9067 13.1363 49.846C13.2847 50.028 13.4331 50.2099 13.5816 50.3919C13.6558 50.4524 13.6558 50.5131 13.73 50.5738C13.0621 51.1801 13.0621 51.1801 13.4331 51.544C13.3589 52.211 12.691 52.1504 12.0972 52.3324C12.6168 52.6961 13.5074 52.0292 13.73 52.8781H15.2143C15.2885 52.9994 15.437 53.1206 15.5112 53.2419C16.0308 53.1206 16.5502 52.9994 16.9214 52.9387C17.1439 53.1813 17.2182 53.4845 17.4409 53.5451C17.5892 53.6058 17.8862 53.3631 18.1088 53.2419C18.2572 53.1206 18.4056 53.0599 18.5541 52.9387C18.8509 53.2419 18.9251 53.4238 18.6283 53.727C18.3315 54.0302 18.2572 54.394 18.4056 54.9399C19.2221 54.0908 19.5189 53.2419 19.9642 52.3929C20.0384 52.3929 20.261 52.3929 20.7063 52.4536C20.1127 52.8174 20.6321 53.6058 19.7415 53.6665C19.7415 54.3334 19.7415 54.3334 19.1478 55.1824C18.9994 55.4249 18.8509 55.6674 18.8509 55.9101C18.9993 56.5165 18.6283 57.1229 17.8862 57.3654C17.8119 57.3654 17.8119 57.4261 17.7377 57.5474C17.7377 57.7292 17.8119 57.9112 17.8119 58.1538C18.4056 57.6686 18.7768 57.1229 19.5189 56.6983C19.5931 57.1229 19.6674 57.4867 19.6674 57.7292C19.5189 58.0324 19.3704 58.275 19.2221 58.457C19.5931 58.275 19.7415 58.5783 19.9642 58.6388C20.4837 58.275 21.0033 57.9718 21.6711 57.5474C21.4485 58.275 20.4837 58.457 20.558 59.124C20.8548 59.124 21.0773 59.1847 21.3743 59.1847C21.3001 59.4879 21.2258 59.7304 21.2258 60.0336C21.8196 59.7304 21.8196 59.124 22.5617 59.0633C22.4875 59.3665 22.4134 59.6697 22.4134 59.9122C22.4134 60.1549 22.636 60.4581 22.4875 60.6399C22.2649 61.0038 22.636 61.1251 22.7844 61.3677C22.4875 61.489 22.2649 61.5497 22.0422 61.6102C22.2649 61.7922 22.4134 61.974 22.636 62.2166C22.8587 62.156 23.007 62.0954 23.2297 62.0347C23.8234 61.9134 24.1946 62.156 24.2687 62.7017C24.4914 62.5804 24.7882 62.4592 25.0109 62.2772C25.382 61.974 25.753 62.0347 26.05 62.2166C26.2726 62.3379 26.421 62.4592 26.6436 62.6411C27.3859 62.3379 28.3505 62.8836 28.9443 62.156C29.0928 62.3986 29.2411 62.5804 29.3896 62.6411C29.7607 62.8231 29.7607 63.1869 29.7607 63.4295C29.7607 63.9752 29.5381 64.4604 29.4639 65.0061C29.3896 65.1879 29.3896 65.3699 29.3896 65.5518C29.6864 65.6124 29.9092 65.6731 30.1319 65.7338C29.9834 66.2188 29.2411 66.4615 29.6864 67.0072C29.9092 67.0072 30.0576 66.9465 30.2802 66.9465C30.3544 67.2497 30.3544 67.4317 30.3544 67.7349C30.5772 67.6136 30.7997 67.5529 30.9482 67.4317C30.7997 67.4317 30.6513 67.4317 30.5029 67.4922C30.5029 66.522 31.0225 65.6124 31.9131 65.1274C31.8388 65.4306 31.7646 65.6731 31.6903 65.9156C31.5419 66.3402 31.3193 66.7647 31.1708 67.1285C31.245 67.0679 31.3935 67.0072 31.4678 66.8859C31.5419 66.9465 31.5418 67.0072 31.6161 67.0679C31.6161 67.3104 31.5419 67.5529 31.5419 67.8561C31.6161 67.8561 31.6903 67.8561 31.7646 67.8561C31.7646 67.6136 31.6903 67.3711 31.6903 67.0679C31.9131 67.0679 32.1356 67.0679 32.3583 67.0679C32.8036 67.7349 31.9871 68.2806 32.0614 69.069C32.3583 68.5838 32.7294 68.402 33.1747 68.402C33.3973 68.402 33.6942 68.1593 33.9168 68.0381C34.1395 67.8561 34.2138 67.6136 34.4363 67.4317C34.6591 67.189 34.9559 66.8252 35.5497 66.8252C35.5497 67.2497 35.3269 67.6136 35.1785 67.9774C35.0301 68.3413 34.5848 68.6445 34.9559 69.1902C35.1785 68.887 35.2527 68.6445 35.4012 68.4625C35.698 68.22 35.8465 67.9774 35.9207 67.6136C35.9949 67.2497 36.2175 66.9465 36.7371 66.9465C36.8113 67.1891 36.9596 67.4317 36.9596 67.5529C36.5143 68.402 36.069 69.1902 35.698 69.9786C35.5497 70.3424 35.2527 70.5243 34.8816 70.5849C34.3621 70.7063 34.4363 70.2818 34.2136 69.9786C34.0653 70.4031 34.0653 70.6456 34.3621 70.8275C34.8074 71.0701 35.1785 71.3733 35.6237 71.6765C36.2175 71.5552 36.7371 71.4338 37.3308 71.3127C37.5534 71.252 37.8502 71.1307 37.9987 71.1913C38.2955 71.252 38.444 71.4945 38.741 71.6765H40.2994C40.2252 71.8584 40.1509 72.0404 40.1509 72.2222C40.4479 72.1009 40.6705 71.9797 40.819 71.9797C41.6353 72.1009 42.1548 71.6765 42.6744 71.3127C43.565 70.7668 44.6781 70.4636 45.5687 69.9786C45.7172 69.9179 45.9399 69.9179 46.0883 70.0392C46.3852 70.2211 46.5335 70.4636 46.7563 70.5849C47.2016 70.2818 47.6469 69.8572 48.1664 69.554C48.76 69.1902 49.057 68.6445 49.5765 68.1593C50.3929 67.4317 50.9865 66.5827 52.0256 66.037L52.0998 65.9763C52.6193 64.9454 53.9552 64.3997 54.252 63.2475C54.252 63.1869 54.3263 63.1263 54.4005 63.1263C54.6231 63.0656 54.9201 63.0049 54.9201 63.0656C55.0684 63.4295 55.5137 63.3081 55.8106 63.4901C55.7364 63.1869 55.4396 62.9443 55.7364 62.6411C56.1075 62.2772 56.4785 61.9134 56.9238 61.489C56.9238 62.156 57.295 62.5804 57.7403 62.7624C58.0371 62.8836 58.3339 63.0656 58.6309 63.2475C58.8535 63.1263 59.002 63.0656 59.1503 63.0049C59.2245 63.2475 59.7441 63.3688 59.373 63.672C58.9277 64.0358 58.705 63.6113 58.3339 63.4295C58.1114 63.5506 57.8886 63.672 57.7403 63.854C57.5918 64.0358 57.5176 64.2784 57.8144 64.3997C58.2597 64.5815 58.1114 64.7635 57.9629 65.0061C57.8144 65.1879 57.7403 65.4306 57.5918 65.6124C57.3691 65.5518 57.1465 65.5518 56.7012 65.4911C57.1465 65.9763 57.3691 66.4615 58.1114 66.522C58.705 66.5827 59.373 66.7647 60.041 66.9465C60.2636 66.8859 60.5604 66.7647 60.9316 66.5827C61.0057 66.8252 61.0799 67.0072 61.1542 67.1285C61.5995 67.2497 61.8222 67.0679 62.119 66.8252C62.2675 66.704 62.6386 66.4615 62.7869 66.522C63.826 66.7647 64.4197 66.2795 64.9393 65.6731C65.0876 65.4911 65.2361 65.3093 65.3846 65.1274C65.6814 65.1274 65.9782 65.0667 66.2752 65.0667C66.4977 65.2486 66.7204 65.4306 66.7947 65.5518C66.943 65.9763 66.2009 66.037 66.4977 66.4615C67.0915 66.0976 67.6853 65.7944 67.5368 65.1274C68.1306 64.8242 68.8727 64.7635 69.318 64.2784C69.7633 63.7933 70.357 63.3688 70.8766 62.8836C71.396 62.4592 71.8413 62.0347 72.2866 61.6102C72.1382 61.2463 71.9897 61.0038 71.9155 60.7006C72.1382 60.5793 72.3608 60.4581 72.5093 60.3974C72.5093 60.5793 72.435 60.7006 72.435 60.8826C72.5835 60.8826 72.732 60.9431 72.8061 60.9431C73.9194 60.3368 74.7358 59.4272 75.5521 58.5783C75.4038 58.3356 74.8842 58.3356 75.1811 57.9718C75.4038 57.6686 75.5521 57.4261 76.0716 57.4261C75.9974 57.7292 75.9232 57.9112 75.8491 58.275C76.2944 58.0931 76.6654 57.8506 76.9622 57.9112C78.0013 58.0931 78.5951 57.6081 79.2629 57.1229C78.9661 57.0015 78.8177 56.941 78.5208 56.8197C78.7434 56.4558 78.9661 56.1526 79.1887 55.7888C79.4114 55.8494 79.7082 55.8494 79.931 55.9101C79.5598 56.092 79.4857 56.3952 79.4857 56.6983C80.2278 56.4558 80.4504 57.0622 80.8956 57.3654C80.5246 57.4867 80.3763 57.6686 80.4504 57.9718C80.5246 58.2144 80.302 58.5176 80.2278 58.8815C79.4857 59.0633 79.4857 59.6697 79.2629 60.2761C79.5598 60.2761 79.7825 60.2761 80.0051 60.2761C80.3763 60.2761 80.7473 60.3368 81.0441 60.3368C81.4152 60.3368 81.8605 60.4581 82.2317 60.3974C82.6027 60.3368 82.8995 60.1549 83.3448 59.9122C83.2706 60.2156 83.2706 60.3974 83.2706 60.5188C83.5676 60.5793 83.8644 60.5793 84.1612 60.6399C84.3839 59.9729 85.126 59.9729 85.7198 59.7304C85.8683 59.9729 85.9424 60.1549 86.0909 60.4581C86.9814 59.9729 87.7978 59.5485 88.6141 59.0633C88.7626 59.1847 88.9111 59.2453 88.9111 59.2453C89.4306 59.0633 89.8017 58.8815 90.1727 58.6995C90.618 58.5176 91.1376 58.3963 91.6571 58.2144C91.7314 58.1538 91.8055 57.9718 91.8797 57.8506C91.5086 57.7899 91.2118 57.7899 90.7665 57.7292C91.0633 57.4867 91.1376 57.3047 91.3602 57.1229C92.696 56.2133 94.1062 55.3037 95.442 54.394C96.2585 53.8483 97.0749 53.4238 97.8912 52.8781C98.1881 52.6961 98.3365 52.3324 98.6334 52.1504C98.9303 51.9685 99.3014 51.9685 99.7467 51.8472C99.4499 51.544 99.3014 51.3621 99.0787 51.1195C99.6724 50.9983 99.8209 51.4227 100.118 51.6047C100.563 51.3015 100.934 50.9983 101.454 50.6951C101.528 50.9983 101.528 51.2408 101.602 51.544C100.86 51.6653 100.489 52.211 99.7467 52.2717C99.4499 52.2717 99.3014 52.5749 99.3756 52.8174C100.192 52.8174 100.563 52.029 101.379 52.0897C101.305 52.211 101.231 52.3324 101.231 52.4536C101.454 52.3929 101.602 52.3929 101.751 52.3324V52.9387C101.454 52.9387 101.231 52.9994 100.934 52.9994C101.602 53.727 100.786 54.3334 100.934 55.0611C101.231 54.9399 101.676 54.8185 101.676 54.6972C101.676 54.1515 102.196 54.2122 102.493 53.9696C102.715 54.3334 102.344 54.9399 103.161 54.9399C103.754 54.6367 103.977 54.2728 103.606 53.727C103.532 53.6058 103.606 53.4238 103.606 53.2419C103.68 53.2419 103.68 53.2419 103.754 53.2419C103.829 53.3631 103.903 53.4845 104.051 53.6665H104.125C104.125 53.4845 104.051 53.3631 104.051 53.1813C104.348 53.1206 104.571 53.1813 104.719 53.0599C104.942 52.9387 104.868 52.6356 105.239 52.6356C105.387 53.2419 105.313 53.1813 105.016 53.6058C104.645 54.0908 104.348 54.6367 104.051 55.1824C104.645 55.4249 105.387 55.4856 105.684 56.0313C104.942 56.5772 104.793 56.8197 104.868 57.8506C105.313 57.1835 105.684 56.6983 106.055 56.1526C106.055 56.1526 106.055 56.1526 106.129 56.1526C106.5 55.7888 107.02 55.5463 107.02 55.0004C107.02 54.9399 107.168 54.8185 107.242 54.7579C107.391 54.5154 107.465 54.1515 107.688 53.9696C107.91 53.7876 108.282 53.6665 108.504 53.4845C108.356 53.3026 108.207 53.1206 108.059 52.9387C108.43 52.8781 108.653 52.8781 108.875 52.8781C109.024 52.3324 109.172 52.2717 109.766 52.2717C109.692 52.3929 109.617 52.5749 109.617 52.6961C109.988 52.4536 110.582 52.2717 110.434 51.7865C110.211 51.2408 110.731 50.8769 110.656 50.3919C110.656 50.2706 110.953 50.1492 111.324 49.9674C111.25 50.3919 111.324 50.6344 111.77 50.6344C111.696 50.8769 111.695 51.0588 111.621 51.4227C112.363 50.9983 113.254 50.9376 113.551 50.3312C113.477 50.0886 113.402 49.9067 113.254 49.7249C113.774 49.4822 113.996 49.2397 114.07 48.7545C114.219 48.2694 114.145 47.9662 113.699 47.7237C113.774 47.4205 113.774 47.2385 113.848 46.996C113.774 46.996 113.774 46.996 113.699 46.9353C113.625 47.0567 113.551 47.2385 113.402 47.4205C112.809 46.5715 113.18 45.4799 113.996 45.1767C114.219 45.4194 114.441 45.6619 114.738 45.8438C115.035 46.0258 115.406 46.147 115.777 46.3896C115.852 46.2076 115.926 45.9651 116 45.7833C115.852 45.4799 115.406 45.6013 115.184 45.2374ZM111.992 18.1314C111.992 18.4952 111.621 18.6771 111.25 18.8591C111.102 18.3132 111.102 18.3132 111.992 18.1314ZM19.8157 8.97477C19.8899 8.97477 19.9642 8.97477 20.1127 8.97477C20.0384 9.15662 20.0384 9.27796 19.9642 9.45981C19.8899 9.45981 19.8157 9.45981 19.7415 9.39914C19.7415 9.27795 19.8157 9.15662 19.8157 8.97477ZM18.7025 9.763C18.7025 9.82367 18.7768 9.82367 18.7768 9.88433C18.7025 9.945 18.7025 10.0057 18.6283 10.0057C18.5541 9.945 18.4798 9.88433 18.4798 9.88433C18.5541 9.88433 18.6283 9.82367 18.7025 9.763ZM12.8394 17.4037C12.9136 17.525 12.9878 17.5855 13.0621 17.7069C12.9878 17.7069 12.9878 17.7675 12.9136 17.7675C12.8394 17.7069 12.7652 17.5855 12.6168 17.525C12.7652 17.4643 12.7652 17.4037 12.8394 17.4037ZM3.71081 33.7158C3.6366 33.5946 3.56237 33.4733 3.56237 33.4126C3.56237 33.3519 3.71081 33.2307 3.78502 33.2307C3.85925 33.2307 3.93346 33.3519 4.08189 33.4126C3.93346 33.4733 3.85925 33.5946 3.71081 33.7158ZM12.0972 21.3453C12.0972 21.5878 12.023 21.7698 11.7262 21.7091C11.5777 21.7091 11.5035 21.5271 11.3551 21.4059C11.5777 21.2239 11.8746 21.2239 12.0972 21.3453ZM11.2067 27.5305C10.984 28.3796 10.984 28.3796 10.1676 28.0157C10.2418 27.5305 10.8356 27.7125 11.2067 27.5305ZM10.3161 17.7675C10.5387 17.7069 10.7614 17.525 10.9098 17.8282C10.6871 18.0101 10.3903 18.1921 10.0934 18.4346C10.0934 18.1921 9.87076 17.9494 10.3161 17.7675ZM9.87076 28.1976C9.87076 28.2582 9.79655 28.3189 9.72232 28.3796C9.64811 28.3189 9.49967 28.2582 9.49967 28.1976C9.49967 28.1369 9.5739 28.0157 9.64811 27.8944C9.72232 28.0762 9.87076 28.1369 9.87076 28.1976ZM8.16379 22.2548H8.90594C8.6833 22.558 8.53487 22.8612 8.31223 23.1644C7.79271 22.9219 8.16379 22.6187 8.16379 22.2548ZM8.16379 23.7709C8.6833 23.5889 9.05438 23.4071 9.49967 23.2251C9.5739 23.7103 9.35125 24.1346 8.60909 24.3166C8.75752 24.8624 8.6833 24.9837 7.94114 25.0444C8.01535 24.6198 8.08956 24.1953 8.16379 23.7709ZM6.67947 25.2262C6.60524 24.8017 6.67947 24.6805 7.42162 24.0135C7.49585 24.3166 7.64427 24.5592 7.7185 24.8017C7.2732 24.923 6.97633 25.105 6.67947 25.2262ZM7.57006 30.8051C7.49585 30.9264 7.42162 31.0476 7.34741 31.1689C7.2732 31.1083 7.19897 31.1083 7.19897 31.0476C7.2732 30.9264 7.42162 30.8658 7.49585 30.7444L7.57006 30.8051ZM7.12476 25.7719C6.97633 25.8326 6.75368 25.8326 6.60524 25.8933C6.60524 25.8326 6.53103 25.8326 6.53103 25.7719C6.60524 25.7114 6.67947 25.6507 6.75368 25.6507C6.82789 25.6507 6.97633 25.6507 7.05054 25.6507C7.05054 25.6507 7.12476 25.7114 7.12476 25.7719ZM6.53103 23.1039C6.90212 23.1644 7.19897 23.2857 7.49585 23.3464C7.19897 23.6496 6.90212 23.8921 6.30838 23.7709C6.45682 23.5283 6.45682 23.3464 6.53103 23.1039ZM4.30454 27.4699C4.52719 27.4093 4.6014 27.3487 4.74984 27.288C4.6014 27.106 4.45298 26.9242 4.15611 26.6816C4.52719 26.5603 4.82406 26.439 5.26936 26.2571C4.89827 26.8635 5.71465 27.288 4.97249 27.7731C4.74984 27.7125 4.52719 27.5912 4.30454 27.4699ZM7.2732 34.3222C7.05054 34.686 6.30838 34.9892 5.86309 34.9892C5.04671 34.9892 4.74984 34.6255 5.04671 33.9585C5.12092 33.8371 5.19513 33.6551 5.26936 33.5339C5.78886 33.5339 5.49201 33.7765 5.56622 33.9585C5.64044 33.7158 5.71465 33.5339 5.78886 33.3519C6.53103 33.1701 7.19897 33.0487 8.08956 32.8669C7.79271 33.4733 7.57006 33.9585 7.2732 34.3222ZM8.46065 33.1094C8.53487 32.7456 8.90596 32.6849 9.12861 32.4424C9.12861 32.8062 9.12861 32.8062 8.46065 33.1094ZM9.64811 30.3806C9.27703 30.5019 9.05438 30.9871 8.83173 31.3509C8.98017 31.2903 9.12861 31.2903 9.20282 31.1689C9.27703 31.0476 9.35125 30.9264 9.49967 30.8658C9.72232 31.2296 9.49968 31.4721 9.27703 31.7147C9.12861 31.8967 8.75752 32.1392 9.12861 32.4424C8.83173 32.4424 8.60909 32.503 8.31223 32.503C8.08957 32.1998 7.86692 31.8967 7.64427 31.5328C7.86692 31.3508 8.31223 31.2903 8.16379 30.8658C8.16379 30.7444 8.31223 30.5019 8.46065 30.3806C8.90594 30.0169 9.35125 29.5923 9.64811 29.1071C9.87076 28.7433 10.3161 28.9253 10.7614 28.9253C10.9098 29.2891 10.984 29.471 10.5387 29.7135C10.3161 29.9562 10.1676 30.2594 9.64811 30.3806ZM11.3551 31.1689C11.0582 30.8658 10.8356 30.6839 10.6129 30.4412C10.7614 30.138 11.1324 30.138 11.4293 30.2594C11.7262 30.32 11.652 30.6839 11.3551 31.1689ZM11.3551 28.804C11.2067 28.3796 11.5777 28.0762 11.8746 27.7731C12.0972 27.7731 12.3199 27.8337 12.6168 27.8337C12.0972 28.1369 11.7262 28.4401 11.3551 28.804ZM12.0972 21.2846C12.023 21.2239 11.9488 21.1028 11.8746 21.0421C11.5777 20.8601 11.5777 20.6782 11.8746 20.4964C12.1715 20.6176 12.4683 20.7996 12.7652 20.9208C12.5425 21.0421 12.3199 21.1634 12.0972 21.2846ZM14.1753 51.544C13.9527 51.544 13.6558 51.544 13.4331 51.544C13.4331 51.4833 13.4331 51.4227 13.4331 51.3621C13.4331 51.0588 13.4331 50.8163 13.8784 50.8163C14.1753 50.8163 14.2495 51.1195 14.1753 51.544ZM18.5541 52.6961C18.4798 52.6961 18.4056 52.6356 18.3315 52.6356V51.3621C18.7025 51.4227 18.9994 51.4833 19.4446 51.6047C19.1478 52.0292 18.8509 52.3324 18.5541 52.6961ZM19.5931 51.4227C19.1478 51.1195 19.2962 50.8769 19.5931 50.6344C19.8157 50.9376 19.7415 51.1195 19.5931 51.4227ZM21.0773 45.1162C20.929 45.0555 20.7805 45.0555 20.6321 45.0555C20.6321 44.9949 20.7063 44.8735 20.7063 44.8735C20.8548 44.8735 21.0033 44.9342 21.1516 44.9342C21.0773 44.9949 21.0773 45.0555 21.0773 45.1162ZM36.069 9.09595C35.698 9.27795 35.4754 9.27795 35.4012 8.85343C35.698 8.97476 35.8465 9.03529 36.069 9.09595ZM33.62 7.51934C34.1395 7.70134 33.9168 8.00453 33.62 8.30772C33.323 8.24705 33.0262 8.12572 32.7294 8.00453C32.952 7.64068 33.1747 7.33749 33.62 7.51934ZM32.4324 11.9461H32.5809V12.31C32.5067 12.31 32.5067 12.31 32.4324 12.31V11.9461ZM27.6084 14.0078C27.5342 14.2505 27.46 14.493 27.0147 14.2505C27.2374 14.1291 27.46 14.0685 27.6084 14.0078ZM24.7139 16.9792C24.7882 16.9792 24.8624 16.9792 24.8624 16.9792C25.0109 17.1005 25.0851 17.2823 25.2335 17.4037C25.0109 17.525 24.8624 17.8282 24.5656 17.525C24.5656 17.4037 24.7139 17.1612 24.7139 16.9792ZM21.5228 20.0112C21.5969 20.0112 21.6711 20.0719 21.7454 20.1325C21.6711 20.193 21.5969 20.2537 21.5228 20.2537C21.4485 20.2537 21.3743 20.193 21.3743 20.1325C21.3743 20.0719 21.4485 20.0112 21.5228 20.0112ZM13.9527 30.5626C13.73 30.1987 14.1753 30.138 14.4722 29.8955C14.4722 30.32 14.398 30.5019 13.9527 30.5626ZM20.3352 27.106C20.1127 27.288 19.8157 27.4699 19.5931 27.6519C19.2221 28.1369 18.6283 28.3796 18.0345 28.5614C19.2962 27.106 20.4095 26.1964 21.3743 25.8326C21.3001 26.1358 20.7805 26.8028 20.3352 27.106ZM22.7102 58.942C22.636 58.7601 22.5617 58.6995 22.5617 58.6388C22.636 58.5176 22.7102 58.457 22.7844 58.3963L23.007 58.457C22.9328 58.6388 22.8587 58.6995 22.7102 58.942ZM23.007 25.5294C22.7102 25.4082 23.0812 24.9837 22.5617 25.0444C22.5617 24.923 22.4875 24.7412 22.5617 24.6198C22.7102 24.4985 22.9328 24.438 23.304 24.3166C23.4523 24.6198 23.5265 24.8017 23.675 25.105C23.4523 25.2262 23.2297 25.4082 23.007 25.5294ZM25.4562 21.4059C24.7882 22.0123 24.1203 22.6794 23.3781 23.2857C22.5617 23.9528 21.5228 24.438 20.8548 25.2869C20.7063 25.4687 20.4095 25.5901 20.1868 25.7719C20.0384 25.8933 19.8157 25.9539 19.6674 26.0753C18.8509 26.7423 18.1088 27.4093 17.2924 28.0762C17.2182 28.1369 17.1439 28.3189 16.9955 28.3189C16.4018 28.5008 16.2533 28.8646 16.3276 29.3498C15.8823 28.986 15.5855 29.4103 15.1402 29.653C15.2885 29.1071 15.5855 28.6221 15.9565 28.4401C16.9214 27.9551 17.1439 27.288 17.1439 26.439C17.2924 26.439 17.4409 26.3784 17.515 26.439C17.7377 26.4996 18.1088 26.621 18.2572 26.5603C18.5541 26.439 18.8509 26.1964 19.0736 25.9539C19.4446 25.5294 19.5189 24.923 20.1868 24.8017C20.3352 24.1953 20.8548 24.1346 21.4485 24.1346C21.5969 24.1346 21.8938 24.0135 21.9681 23.8315C22.4875 23.2251 23.2297 22.74 23.9718 22.3155C24.3429 22.073 24.5656 21.7698 24.9367 21.5271C25.0851 21.4059 25.3077 21.4059 25.4562 21.4059C25.382 21.2239 25.3077 21.0421 25.2335 20.8601C25.6788 20.8601 25.9015 20.9814 25.9015 21.2239C25.9015 21.4059 25.753 21.5878 25.4562 21.4059ZM26.3468 30.3806C26.1241 30.0169 26.3468 29.8955 26.7921 29.9562C26.6436 30.0774 26.4953 30.1987 26.3468 30.3806ZM28.128 60.5188C27.9053 59.9122 28.4248 59.9729 28.7958 59.6697C28.8701 60.3368 28.3505 60.2156 28.128 60.5188ZM29.7607 62.156C29.5381 61.8528 29.3896 61.7315 29.2411 61.5497C29.2411 61.307 29.9834 61.0645 30.7255 61.1251C30.3544 61.4283 30.1319 61.7315 29.7607 62.156ZM30.0576 62.6411C30.206 62.156 30.5029 62.0347 31.0225 62.0347C30.9482 62.2166 30.874 62.3986 30.7997 62.5804C30.5772 62.6411 30.3544 62.6411 30.0576 62.6411ZM31.0225 63.7933C31.0966 63.854 31.245 63.9145 31.3935 63.9752C31.1708 64.2784 30.9482 64.5815 30.7255 64.9454C30.3544 64.7635 30.206 64.5209 30.2802 64.2784C30.5029 63.5506 30.7255 62.8231 31.6903 62.3379C32.0614 63.0656 31.1708 63.3081 31.0225 63.7933ZM35.1785 20.6176C35.1044 20.4964 34.9559 20.4357 34.9559 20.375C34.9559 20.3144 35.0301 20.2537 35.1044 20.2537C35.1785 20.2537 35.2527 20.3144 35.4012 20.375C35.4012 20.4357 35.3269 20.4964 35.1785 20.6176ZM36.069 19.708C35.9949 19.6473 35.9207 19.5867 35.9207 19.5261C35.9949 19.4655 36.069 19.4048 36.1433 19.3441C36.2175 19.4048 36.2918 19.4655 36.2918 19.5261C36.2175 19.5867 36.1433 19.6473 36.069 19.708ZM35.698 12.128C35.6237 12.1887 35.698 12.4312 35.6237 12.6737C35.4754 12.7344 35.3269 12.8557 35.1044 13.0376C35.0301 13.0982 34.9559 13.2196 34.9559 13.2196C34.1395 13.0376 34.2136 13.7046 33.7683 13.9473C33.3973 14.1898 33.0262 14.493 32.6552 14.7355C32.5809 14.7962 32.2841 14.7355 31.9871 14.7355C32.0614 14.6748 31.9131 14.7355 31.9131 14.7962C31.4678 15.4025 30.9482 15.8877 30.2802 16.3121C30.0576 16.4334 30.0576 16.7366 29.9092 16.9792C29.6864 17.2823 29.9834 17.343 30.206 17.525C30.2802 17.5855 30.206 17.7675 30.206 17.9494C29.7607 17.8282 29.3896 17.7069 28.9443 17.525C28.8701 17.5855 28.7958 17.7069 28.7217 17.7069C27.7569 17.8282 27.2374 18.4952 26.5694 18.9196C26.05 19.2228 25.5304 19.708 24.9367 20.0719C24.4914 20.375 24.0461 20.6782 23.675 21.1028C23.5265 21.2846 23.2297 21.4059 22.9328 21.6485V22.2548C22.7102 22.073 22.5617 21.9517 22.3391 21.8303C22.1907 21.9517 22.1164 22.0123 21.9681 22.1337C21.8938 22.1942 21.8938 22.3155 21.8938 22.3155C20.929 22.2548 20.8548 23.1039 20.261 23.4071C20.1127 23.4677 20.0384 23.7103 19.8899 23.8921C20.1868 23.9528 20.3352 24.0135 20.4837 24.0741C20.4837 24.1346 20.4837 24.1953 20.4095 24.1953C19.7415 24.438 19.1478 24.7412 18.3315 24.8017C18.183 24.8017 18.0345 24.923 17.9603 24.9837C17.6635 25.3475 17.2924 25.2869 16.8471 25.2262C16.4018 26.0753 16.1049 26.9242 14.9917 27.4093C14.769 27.4699 14.6949 27.7125 14.5464 27.8944C14.2495 28.4401 13.73 28.5008 12.9136 28.4401C13.1363 28.1369 13.2847 27.9551 13.5074 27.7731C13.8784 27.4699 14.3237 27.2273 14.1011 26.621C14.0269 26.4996 14.2495 26.0753 14.769 26.1964C14.8432 26.1964 15.2143 25.9539 15.2143 25.8933C15.0659 25.5901 15.5112 25.4082 15.5112 25.1655C15.5112 24.7412 15.808 24.6805 16.2533 24.6805C15.9565 24.3773 15.808 24.1346 15.5855 23.8315C15.8823 23.7709 16.0308 23.7103 16.1791 23.6496C16.4761 23.5283 16.8471 23.4677 16.9214 23.3464C17.3666 22.6187 18.183 22.2548 18.9251 21.8303C19.1478 21.7091 19.3704 21.5271 19.7415 21.4666C19.5189 21.7698 19.2962 22.073 19.0736 22.3762C19.5931 22.1337 20.1127 21.9517 20.1868 21.4059C20.261 21.1028 20.4095 20.9814 20.7805 21.0421C21.0033 20.9814 21.3001 20.9208 21.5969 20.8601C21.6711 20.4964 21.7454 20.0719 22.2649 19.9505C22.3391 19.9505 22.3391 19.8293 22.4134 19.7687C22.4875 19.2835 22.7844 18.4346 23.0812 18.1314C23.0812 18.0707 23.1555 18.0707 23.304 18.0707C23.304 18.2526 23.2297 18.3739 23.2297 18.4952C23.2297 18.6164 23.1555 18.7378 23.1555 18.8591C23.4523 18.7984 23.7493 18.7378 24.1203 18.6771C24.2687 18.4952 24.4171 18.2526 24.7882 18.0707C25.4562 17.7675 26.3468 17.4643 26.421 16.676C26.2726 16.5548 26.1241 16.4941 25.9015 16.3728C26.05 16.3121 26.1241 16.1909 26.1241 16.1909C26.3468 16.1909 26.4953 16.2514 26.7178 16.3121C26.9406 15.2812 27.9795 14.6142 28.9443 14.8568C28.7958 15.0994 28.128 14.9175 28.3505 15.4632C29.4639 15.3419 29.9092 14.3716 31.0225 14.2505C30.874 13.9473 30.7997 13.7653 30.6513 13.4014C31.5419 13.7653 32.0614 13.6439 32.2099 12.9769C32.6552 12.7344 33.1747 13.1589 33.3973 12.8557C33.1747 12.1887 32.952 11.6429 32.7294 10.9759C33.62 11.1578 33.323 10.3694 33.8426 10.0662C33.7683 10.612 33.9168 10.9759 34.5106 11.0971C34.3621 11.3396 34.2138 11.5823 34.0653 11.8248C34.8074 11.7641 34.9559 11.7035 34.8816 11.3396C34.8074 10.9759 34.6591 10.612 34.9559 10.2482C35.0301 10.1269 34.9559 9.88433 34.8816 9.52048C35.1785 9.763 35.3269 9.945 35.4754 9.945C35.6237 10.0057 35.8465 9.88433 36.069 9.88433C36.366 10.1875 36.366 10.43 35.9207 10.5514C36.1433 10.6726 36.366 10.7332 36.6628 10.8546C36.2918 11.1578 36.2918 11.8248 35.698 12.128ZM39.7799 15.2207C39.7799 14.6748 40.2994 14.6748 40.5962 14.4323C40.6705 14.6142 40.7447 14.7355 40.8932 14.9175C40.4479 15.0387 40.1509 15.0994 39.7799 15.2207ZM46.1625 9.21729C46.6078 9.15662 46.8305 9.15662 47.0531 9.09595C47.0531 9.15662 47.0531 9.21729 47.0531 9.33862C46.9046 9.52048 46.6078 9.52048 46.1625 9.21729ZM51.6545 63.6113C51.135 64.0358 50.9124 64.5815 50.5412 65.0061C50.3186 65.3093 50.0218 65.4911 49.6506 65.6731C49.5765 65.6124 49.5023 65.6124 49.428 65.5518C49.5765 65.3093 49.6506 65.0667 49.8733 64.8847C50.7639 64.1572 51.3577 63.3081 51.9513 62.4592C52.0998 62.2166 52.3225 61.9134 52.5451 61.7315C52.6936 61.6102 53.0646 61.6102 53.2872 61.5497C53.3615 61.6102 53.3615 61.6708 53.4357 61.7315C52.8419 62.3986 52.3225 63.0656 51.6545 63.6113ZM57.1465 28.6828C57.0723 28.6221 56.9981 28.6221 56.9238 28.5614C57.0723 28.4401 57.1465 28.3189 57.3691 28.1369C57.5918 28.5008 57.3691 28.6221 57.1465 28.6828ZM61.0799 3.69908C61.0057 3.69908 61.0057 3.69908 60.9316 3.63841C61.0057 3.51708 61.0057 3.39589 61.0799 3.21389C61.1542 3.21389 61.2284 3.27456 61.3769 3.27456C61.2284 3.39589 61.1542 3.51708 61.0799 3.69908ZM67.8336 64.0965C67.7594 64.0358 67.6853 64.0358 67.6853 63.9752C67.9079 63.7933 68.0563 63.6113 68.2789 63.4295C68.3531 63.4901 68.4274 63.4901 68.4274 63.5506C68.2047 63.7326 67.9821 63.9145 67.8336 64.0965ZM72.1382 57.4867C72.5093 57.2442 72.6578 57.1229 72.9546 56.8803V57.7292C72.732 57.6686 72.5093 57.6081 72.1382 57.4867ZM74.142 58.7601C73.7709 59.124 73.3999 59.4879 73.1031 59.8517C73.0288 59.9729 73.1031 60.1549 73.1031 60.2761C73.1031 60.3368 72.8803 60.3368 72.8061 60.3974C72.435 59.8517 72.435 59.6697 72.9546 59.2453C73.1031 59.124 73.2514 59.0633 73.3256 58.942C73.5484 58.3356 74.142 58.0931 74.7358 57.7899C74.8842 58.2144 74.3647 58.6995 74.9585 58.942C74.5132 59.1847 74.3647 58.8815 74.142 58.7601ZM76.8138 56.941C76.7397 56.8197 76.6654 56.6983 76.6654 56.6983C76.8139 56.5772 76.9622 56.4558 77.0365 56.3952C77.1107 56.4558 77.185 56.4558 77.2592 56.5165C77.1107 56.6377 76.9622 56.759 76.8138 56.941ZM77.4075 55.5463C77.7786 55.6069 78.0013 55.6069 78.2981 55.6674C77.8528 56.092 77.8528 56.092 77.4075 55.5463ZM87.4267 40.3256C87.3525 40.2649 87.2783 40.2044 87.2042 40.2044C87.5752 39.9617 87.5752 39.4767 88.3916 39.4767C88.0205 39.7799 87.7236 40.083 87.4267 40.3256ZM88.7626 38.6883C88.6884 38.6276 88.6884 38.5671 88.6141 38.5064C88.6884 38.4458 88.7626 38.3851 88.8369 38.4458C88.9111 38.4458 88.9853 38.5671 88.9111 38.6276L88.7626 38.6883ZM90.4696 58.3963C90.4696 58.3963 90.3955 58.3963 90.3212 58.457L90.247 58.3963C90.3212 58.3356 90.3955 58.275 90.5438 58.275C90.5438 58.275 90.5438 58.3356 90.4696 58.3963ZM94.6257 4.66931C94.4774 5.27569 94.4774 5.27569 93.8093 5.39702C94.1062 5.09369 94.3289 4.91183 94.6257 4.66931ZM94.1062 41.9628C94.2546 41.7203 94.3289 41.5383 94.4031 41.3565C94.4774 41.3565 94.5515 41.3565 94.5515 41.4171C94.6999 41.6597 94.5515 41.8417 94.1062 41.9628ZM93.7351 51.2408C93.7351 50.7556 94.1804 50.7556 94.5515 50.6344C94.4774 50.9983 94.1062 51.1195 93.7351 51.2408ZM95.2937 50.5131C94.9968 50.7556 94.7742 50.6951 94.4774 50.6344C94.6257 50.3919 94.5515 50.0886 94.9227 49.9674C94.9967 49.9674 94.9227 49.7249 94.9967 49.6642C95.2937 49.2397 95.6648 48.7546 96.0358 48.3908C96.1101 48.2694 96.5554 48.4513 96.9264 48.512C97.0007 48.8151 97.0007 49.0578 97.0007 49.2397C96.4811 49.6642 95.8873 50.028 95.2937 50.5131ZM95.9616 52.8781C95.8873 52.8174 95.8873 52.6356 95.9616 52.5142C96.1101 52.2717 96.3326 52.3324 96.5554 52.4536C96.5554 52.5749 96.6296 52.6961 96.6296 52.8174C96.4069 52.9994 96.1843 53.1206 95.9616 52.8781ZM96.6296 52.4536C96.8522 52.2717 97.1491 52.029 97.3717 51.8472C97.4459 52.4536 96.9264 52.3324 96.6296 52.4536ZM98.8561 47.4811C98.7076 47.5417 98.7076 47.7237 98.6334 47.9056C98.4108 47.9056 98.0397 47.9662 97.7428 47.9662C97.5944 47.2992 97.5944 47.2992 98.1881 46.9353C98.1138 46.8747 97.8912 46.7535 97.8912 46.6928C97.8912 46.6322 98.1138 46.4503 98.1881 46.4503C98.485 46.5108 98.9303 46.5715 99.0787 46.7535C99.3014 46.996 99.1529 47.2992 98.8561 47.4811ZM106.278 37.9606C106.204 38.0212 106.129 38.0819 106.129 38.1426C105.907 38.0212 105.758 37.8394 105.387 37.5967C105.907 37.5967 106.204 37.6574 106.278 37.9606ZM104.051 43.7821C104.422 43.7821 104.719 43.4789 105.09 43.6001C105.09 43.6608 105.164 43.7215 105.164 43.7821C104.868 43.9033 104.571 44.0853 104.274 44.2065C104.125 44.2672 103.903 44.2065 103.829 44.146C103.68 43.964 103.754 43.7821 104.051 43.7821ZM102.864 38.5671C102.715 38.749 102.567 38.8703 102.418 39.0521L102.27 38.9308L102.641 38.3851C102.715 38.5064 102.789 38.5671 102.864 38.5671ZM108.653 13.9473C108.653 14.1898 108.727 14.311 108.727 14.493C108.282 14.3716 108.356 14.1898 108.653 13.9473ZM109.395 9.70233C109.469 9.945 109.617 10.1269 109.617 10.3089C109.692 10.612 109.692 10.9759 109.246 11.2184C108.504 11.7035 108.282 12.128 108.43 12.8557H107.168V11.6429C108.653 11.5216 108.727 10.43 109.395 9.70233ZM107.168 7.33749C107.317 7.51934 107.539 7.76187 107.614 7.94387C107.688 8.00453 107.539 8.18639 107.465 8.36839C106.946 8.06506 107.168 7.70134 107.168 7.33749ZM106.575 21.8303C106.649 21.891 106.649 21.891 106.723 21.9517L106.352 22.2548C106.278 22.1942 106.278 22.1942 106.204 22.1337C106.352 22.0123 106.426 21.891 106.575 21.8303ZM104.2 23.5283C104.571 23.9528 104.348 24.3166 104.348 24.7412C105.016 24.438 105.387 24.0135 105.832 23.5889C106.797 22.6794 107.614 21.6485 108.727 20.8601C109.172 20.5569 109.617 20.2537 110.137 19.8899C110.434 20.193 110.063 20.4357 109.84 20.6782C108.727 21.7091 107.539 22.8007 106.426 23.8315C105.461 24.7412 104.422 25.5901 103.458 26.439C103.086 26.3178 103.012 26.1964 103.161 25.9539C103.235 25.7719 103.309 25.5901 103.383 25.4687C103.532 25.2869 103.754 25.1655 103.977 24.9837C103.606 24.8624 103.458 24.8017 103.086 24.7412C103.458 24.256 103.829 23.8921 104.2 23.5283ZM103.458 24.9837C103.458 25.1655 103.383 25.2869 103.383 25.4687C102.938 25.5901 102.418 25.7114 101.899 25.8326C102.344 25.4082 102.641 24.923 103.458 24.9837ZM100.192 39.4767C100.415 39.6585 100.637 39.8405 100.786 40.0224C100.711 40.083 100.637 40.1437 100.563 40.2044C100.34 40.083 100.118 39.9617 99.8209 39.8405C100.043 39.6585 100.118 39.5979 100.192 39.4767ZM100.563 45.0555C100.415 45.1162 100.34 45.1162 100.34 45.1162C100.266 45.1162 100.266 45.0555 100.192 44.9949C100.266 44.9342 100.34 44.8735 100.415 44.8735C100.489 44.8735 100.489 44.9949 100.563 45.0555ZM99.8209 51.0588C99.7467 50.9376 99.6724 50.8163 99.5982 50.6344C99.9692 50.6951 99.9692 50.6951 99.8209 51.0588ZM100.192 50.5131C100.118 50.5131 100.043 50.5131 99.9692 50.5131C99.8951 50.3919 99.8209 50.2706 99.7467 50.0886C99.9692 50.0886 100.118 50.028 100.34 50.028C100.34 50.2099 100.266 50.3312 100.192 50.5131ZM101.008 49.6035C100.86 49.4822 100.786 49.361 100.786 49.3003C100.786 49.2397 100.934 49.179 101.008 49.1183C101.083 49.1183 101.157 49.179 101.157 49.2397C101.157 49.4215 101.083 49.4822 101.008 49.6035ZM102.567 46.0258C101.973 46.4503 101.305 46.8747 100.711 47.3599C100.266 47.3599 99.8209 47.4205 99.2271 47.4205C100.192 46.814 101.379 46.5715 101.528 45.4799C102.122 45.6013 102.493 45.4194 102.567 45.0555C102.938 44.9949 103.235 44.9949 103.458 44.9342C103.68 44.8735 103.903 44.7524 104.2 44.6917C103.977 45.4194 103.161 45.6013 102.567 46.0258ZM106.055 53.3026C106.278 53.1813 106.5 53.0599 106.797 52.9387C106.871 53.4845 106.871 53.4845 106.055 53.3026ZM106.204 52.5749C105.832 52.3324 105.61 51.6653 104.719 52.0897C105.016 51.4227 105.016 51.4227 105.461 51.7258C105.61 51.8472 105.832 52.0292 106.055 51.7258C106.129 51.6653 106.5 51.7258 106.649 51.7865C106.946 51.9078 107.242 52.0897 107.688 52.2717C107.242 52.3929 106.723 52.5142 106.204 52.5749ZM106.871 43.2363C106.946 43.2363 107.02 43.2969 107.242 43.4183C107.094 43.5395 107.02 43.6001 106.871 43.6608C106.797 43.6608 106.649 43.5395 106.649 43.4789C106.649 43.4183 106.723 43.2969 106.871 43.2363ZM106.797 42.5692C106.946 42.3267 107.168 42.266 107.539 42.3267C107.391 42.6906 107.094 42.6299 106.797 42.5692ZM107.317 51.1801C107.094 51.3015 106.871 51.3621 106.575 51.4833C106.5 51.4227 106.5 51.4227 106.426 51.3621C106.575 51.1801 106.723 51.0588 106.946 50.8769C107.094 50.9983 107.242 51.0588 107.317 51.1801ZM106.204 42.7512C106.426 42.6906 106.575 42.6906 106.797 42.6299C106.797 42.9937 106.575 42.9331 106.204 42.7512ZM106.649 42.0235C106.575 41.9628 106.352 41.9022 106.129 41.781C106.723 41.3565 107.168 40.9926 108.133 40.9926C107.539 41.3565 107.168 41.6597 106.649 42.0235ZM107.91 49.1183C108.356 48.7545 108.727 48.8151 108.95 49.1183C109.024 49.2397 109.024 49.4215 109.024 49.4822C108.875 49.6035 108.578 49.6642 108.504 49.6035C108.282 49.4822 108.133 49.3003 107.91 49.1183ZM108.95 51.4833C108.653 51.1195 108.282 50.8163 108.653 50.4524C108.95 50.0886 109.321 50.6344 109.84 50.3919C109.469 50.8769 109.172 51.1801 108.95 51.4833ZM112.215 38.0819C112.289 38.0212 112.141 37.7787 112.067 37.5967C112.363 37.8394 112.734 38.0212 113.18 38.3244C113.031 38.8096 112.809 39.416 112.66 39.9617C112.66 40.083 112.734 40.2649 112.809 40.4469C112.141 40.5076 112.067 39.9617 111.547 39.7799C112.067 39.2341 111.695 38.5671 112.215 38.0819ZM111.844 50.5131C111.77 50.2706 111.844 50.0886 112.141 49.9674C112.363 50.3312 112.067 50.3919 111.844 50.5131ZM111.695 49.5429C111.621 49.1183 111.844 48.9971 112.289 49.179C112.141 49.3003 111.918 49.4215 111.695 49.5429ZM111.918 48.0876C112.289 48.0876 112.512 48.0269 112.66 48.0269C112.66 48.1481 112.734 48.2088 112.66 48.2088C112.438 48.4513 112.289 48.4513 111.918 48.0876ZM112.067 41.9022C112.141 41.5383 112.289 41.4171 112.586 41.4171C112.66 41.4171 112.66 41.599 112.66 41.6597C112.512 41.7203 112.363 41.781 112.067 41.9022ZM113.402 48.1481C113.699 48.6333 113.699 48.6333 113.031 48.9365C112.734 48.512 113.402 48.4513 113.402 48.1481ZM113.996 43.8426C114.367 43.5395 114.367 43.5395 114.813 43.7821C114.516 43.7821 114.293 43.8426 113.996 43.8426ZM22.7844 6.91297C23.304 7.0343 23.7493 7.15549 24.1946 7.27682V8.18639C24.6399 8.00453 25.0109 7.8832 25.3077 7.70134C25.4562 7.58001 25.382 7.27682 25.4562 6.97363C26.1241 7.33749 26.3468 6.8523 26.7921 6.60978C27.3116 6.30659 27.2374 5.88207 26.9406 5.45754C27.8312 4.54798 28.7217 3.63841 29.7607 2.60751C29.6864 2.36499 29.4639 2.0618 29.7607 1.63728C29.9834 1.8798 30.206 2.12247 30.3544 2.24366C30.3544 1.63728 30.2802 1.0309 30.2802 0.424522C29.0928 0.848899 28.5733 1.8798 27.2374 1.94047C26.7921 2.30432 26.4953 2.78951 26.2726 3.21389C26.1983 3.45641 26.3468 3.75974 26.421 4.12346C26.3468 4.12346 26.1983 4.18412 26.05 4.24479C25.9757 4.60864 26.3468 5.09369 25.753 5.39702C24.9367 5.15436 25.6045 4.48731 25.0851 4.12346C24.7139 4.42679 24.4914 4.72998 24.1203 4.91183C23.5265 5.27569 23.3781 5.70021 23.675 6.24592C23.675 6.30659 23.675 6.36726 23.6008 6.48845C23.3781 6.48845 23.1555 6.42778 23.007 6.42778V5.94273C22.2649 6.12459 22.2649 6.18526 22.636 6.60978C22.7102 6.67044 22.7844 6.8523 22.7844 6.91297ZM106.575 57.3047C106.797 57.4261 107.02 57.4867 107.317 57.6081C107.02 57.8506 106.797 58.0324 106.575 58.2144C106.871 58.457 107.168 58.3356 107.242 58.0324C107.614 57.1835 108.282 56.5165 108.95 55.7888C109.395 55.3037 109.84 54.7579 109.617 54.0908C110.063 53.8483 110.508 53.6665 110.879 53.4238C111.25 53.1813 111.473 52.8174 111.695 52.4536C111.918 52.1504 112.067 51.7865 112.215 51.4833C111.473 51.3621 111.028 51.544 110.731 51.9685C110.063 52.8781 109.395 53.7876 108.653 54.6367C108.207 55.1824 107.985 55.8494 107.317 56.274C107.317 56.4558 107.317 56.6983 107.168 56.8197C107.168 57.1229 106.871 57.1835 106.575 57.3047ZM23.6008 7.51934C23.3781 7.58001 23.0812 7.64068 23.007 7.58001C22.7102 7.27682 22.3391 7.39801 22.0422 7.45868C21.8938 7.27682 21.7454 7.15549 21.6711 6.97363C21.5228 7.09482 21.3743 7.21616 21.2258 7.39801C21.8938 7.8832 22.5617 8.24705 23.1555 8.61091C23.8234 8.42891 23.4523 7.94387 23.6008 7.51934ZM107.539 24.7412C107.242 25.0444 107.02 25.2869 106.723 25.5901C106.649 25.6507 106.649 25.7719 106.649 25.8933C106.723 25.8933 106.797 25.9539 106.797 25.9539C107.762 25.0444 108.801 24.1346 109.766 23.2251C109.692 23.1644 109.617 23.1039 109.543 23.0432C109.172 23.3464 108.801 23.6496 108.43 23.9528C108.133 24.1953 107.836 24.4985 107.539 24.7412ZM15.808 9.09595C15.7338 9.15662 15.7338 9.15662 15.808 9.09595C15.808 9.15662 15.808 9.15662 15.808 9.09595ZM15.5855 9.45981C15.6596 9.39915 15.7338 9.27795 15.808 9.15662C15.3628 9.21729 14.9175 9.21729 14.4722 9.27796C14.769 9.88433 14.0269 10.0057 13.8042 10.3089C13.5074 10.2482 13.2847 10.1875 12.9878 10.1269C12.9136 10.43 12.8394 10.6726 12.7652 11.0364C13.0621 10.9152 13.2847 10.9152 13.4331 10.8546C14.1011 10.3694 14.8432 9.88433 15.5855 9.45981ZM93.1415 57.1229C93.5125 57.1229 93.6609 57.1229 93.7351 57.0622C94.5515 56.8197 94.9227 56.1526 95.5905 55.7888C95.739 55.7281 95.8132 55.5463 96.0358 55.3037C94.7742 55.6069 94.1062 56.3952 93.1415 57.1229ZM96.5554 55.0004C97.5944 54.6367 98.8561 53.8483 99.1529 53.3026C98.485 53.3026 97.4459 53.9696 96.5554 55.0004ZM15.1402 34.019C16.2533 33.7765 17.2182 32.8062 16.6986 32.2605C16.4018 32.503 16.1049 32.7456 15.8823 33.0487C15.5855 33.3519 15.3628 33.6551 15.1402 34.019ZM48.389 2.12247C48.3147 2.60751 48.1664 2.97137 48.0922 3.33522C48.2406 3.57774 48.4632 3.88093 48.6117 4.18412C49.057 3.21389 49.1312 2.9107 48.389 2.12247ZM11.3551 33.5946C10.6129 33.4733 10.2418 33.6551 9.94499 34.0796C9.79655 34.3222 9.49967 34.5648 9.20282 34.868C10.2418 34.6255 10.6871 34.0796 11.3551 33.5946ZM13.2847 33.8371C13.73 33.4126 13.73 33.3519 12.9878 32.9881C12.3199 33.6551 12.3199 33.7158 12.7652 34.2616C12.9136 34.0796 13.1363 33.9585 13.2847 33.8371ZM16.1049 30.7444C16.2533 30.9264 16.4018 31.0476 16.6244 31.2296C16.9214 30.9264 17.1439 30.6839 17.4409 30.3806C16.4761 30.1987 16.4761 30.1987 16.1049 30.7444ZM114.441 47.6024C114.813 47.7237 115.035 47.8449 115.48 47.9662C115.332 47.4811 115.332 46.996 114.961 46.5715C114.738 46.996 114.59 47.2992 114.441 47.6024ZM3.48816 37.6574C3.93346 37.2935 4.00768 36.7478 3.56237 36.3233C3.33973 36.8085 2.746 37.233 3.48816 37.6574ZM32.5067 69.3722C32.2099 69.554 32.1356 69.9179 31.9131 70.2818C32.2841 70.2211 32.5809 70.2211 32.8777 70.1604C32.7294 70.0392 32.5809 69.9786 32.4324 69.9179C32.7294 69.554 32.952 69.1902 33.2489 68.7051C32.7294 68.7658 32.7294 69.1902 32.5067 69.3722ZM16.8471 8.48958C16.7729 8.30772 16.6244 8.12572 16.5502 7.8832C15.9565 8.18639 16.0308 8.67158 15.808 9.09595C16.3276 9.09595 16.6244 8.85343 16.8471 8.48958ZM15.7338 31.4115C15.437 31.4115 15.1402 31.4721 14.8432 31.4721C14.8432 31.836 14.5464 32.0785 14.8432 32.3817C15.1402 32.0785 15.5112 31.836 15.808 31.5328C15.808 31.4721 15.808 31.4115 15.7338 31.4115ZM9.27703 49.5429C10.2418 49.2397 10.2418 49.179 9.72232 48.4513C9.49968 48.8151 9.42546 49.1183 9.27703 49.5429ZM26.5694 9.945C26.421 9.52048 26.3468 9.21729 26.1983 8.7321C26.05 8.97477 25.9015 9.15662 25.8273 9.33862C26.05 9.52048 26.1241 9.82367 26.5694 9.945ZM26.8663 8.67158C26.9406 8.7321 27.2374 8.7321 27.3116 8.67158C27.6084 8.42891 27.3859 8.24706 27.0889 8.06505C26.8663 8.24706 26.7178 8.42891 26.8663 8.67158ZM43.8618 71.9797C44.2328 71.7977 44.5298 71.6765 44.9008 71.4338C44.0845 71.1307 44.0845 71.1307 43.8618 71.9797ZM109.914 17.2823C109.988 16.858 111.102 17.2823 110.805 16.4941C110.36 16.7366 109.914 16.858 109.914 17.2823ZM111.992 20.4357C111.695 20.7389 111.547 20.9814 111.25 21.2846C111.844 21.2846 111.844 21.2846 111.992 20.4357ZM113.699 41.9022C113.996 41.9628 114.145 42.0235 114.367 42.0842C114.516 41.8417 114.664 41.6597 114.738 41.4778C114.293 41.3565 114.07 41.6597 113.699 41.9022ZM74.2905 5.09369C74.142 5.09369 73.9936 5.09369 73.8452 5.15435C73.4741 5.27569 73.1773 5.45755 72.8061 5.57888C73.3999 5.63955 73.8452 5.45754 74.2905 5.09369ZM98.0397 4.91183C97.817 5.33635 97.6685 5.70021 97.5202 6.06407C97.446 6.18526 97.5202 6.30659 97.5944 6.42778C97.6687 5.94273 98.4108 5.57888 98.0397 4.91183ZM14.8432 32.4424C14.4722 32.6244 14.1011 32.8062 13.6558 32.9881C14.1753 33.1701 14.4722 33.0487 14.8432 32.4424ZM14.9175 32.3817C14.8432 32.3817 14.8432 32.3817 14.9175 32.3817V32.3817ZM103.383 56.759C103.457 56.759 103.532 56.759 103.606 56.759C103.68 56.5772 103.754 56.3952 103.829 56.1526C103.68 56.1526 103.309 56.1526 103.309 56.274C103.235 56.4558 103.309 56.6378 103.383 56.759ZM23.0812 12.0673C23.4523 12.0673 23.7493 11.8248 23.9718 11.5216C23.675 11.6429 23.3781 11.7641 23.0812 11.9461C23.007 11.9461 23.0812 12.0067 23.0812 12.0673ZM55.8849 65.2486C55.9591 65.2486 56.0332 65.3093 56.1075 65.3093C56.1817 65.1274 56.2559 64.8847 56.2559 64.7029C56.0332 64.8242 55.7364 64.9454 55.8849 65.2486ZM45.4204 71.4945C45.8657 71.4338 46.2367 71.4945 46.3852 71.0701C45.9399 70.9488 45.7172 71.1307 45.4204 71.4945ZM49.5765 7.15549L49.2796 7.82253C49.7249 7.70134 49.8733 7.51934 49.5765 7.15549ZM19.2221 58.457C18.9994 58.3963 18.7768 58.3963 18.5541 58.3356C18.7768 58.7601 18.7768 58.7601 19.2221 58.457ZM19.2221 58.457C19.2221 58.3963 19.2221 58.3963 19.2221 58.457V58.457ZM104.2 56.6377C104.571 56.3345 104.571 56.3345 104.348 55.9708C104.274 56.274 104.2 56.4558 104.2 56.6377ZM107.391 56.3952C107.094 56.1526 106.649 56.1526 106.278 56.2133C106.575 56.3345 106.946 56.6377 107.391 56.3952ZM111.473 15.5239C111.176 15.5845 110.953 15.7057 110.582 15.8271C111.25 15.8877 111.25 15.8877 111.473 15.5239ZM24.3429 63.0049V62.6411C24.1203 62.7624 23.9718 62.8836 23.6008 63.0656H24.3429V63.0049ZM18.183 56.4558C18.1088 56.4558 18.0345 56.3952 18.0345 56.4558C17.8862 56.5772 17.8119 56.6983 17.6635 56.8197L17.8862 56.8803C18.0345 56.759 18.1088 56.5772 18.183 56.4558ZM56.627 66.0976C56.5528 66.1581 56.7012 66.3401 56.7012 66.4615C56.7755 66.4615 56.8497 66.4008 56.9238 66.4008C56.9238 66.3402 56.9238 66.2795 56.8497 66.2188C56.9238 65.9763 56.7755 65.9156 56.627 66.0976ZM107.762 55.4249C107.91 55.3037 107.985 55.1824 108.133 55.0611C108.059 55.0004 108.059 55.0004 107.985 54.9399C107.836 55.0611 107.688 55.1824 107.539 55.3037C107.613 55.3037 107.688 55.3643 107.762 55.4249ZM114.738 41.4778C114.59 41.2958 114.738 40.8714 114.219 40.9926C114.441 41.1139 114.59 41.2958 114.738 41.4778ZM3.26552 17.6462C3.19131 17.6462 3.11708 17.5855 3.11708 17.5855C3.04287 17.6462 2.96864 17.6462 2.96864 17.7069C3.04287 17.7675 3.11708 17.7675 3.11708 17.7675C3.1913 17.7675 3.26552 17.7069 3.26552 17.6462ZM92.6219 57.5474C92.5477 57.6081 92.4735 57.6686 92.3992 57.7292C92.4735 57.7899 92.5477 57.7899 92.6219 57.8506C92.696 57.7292 92.7703 57.6686 92.7703 57.6081C92.7703 57.6081 92.6219 57.4867 92.6219 57.5474ZM23.304 4.66931C23.304 4.60864 23.2297 4.54798 23.2297 4.48731C23.1555 4.48731 23.0812 4.54798 23.0812 4.54798C23.0812 4.60864 23.1555 4.66931 23.1555 4.72998C23.2297 4.72998 23.304 4.66931 23.304 4.66931ZM21.5969 13.5834H21.5228C21.5228 13.5834 21.5228 13.5834 21.5969 13.5834C21.5228 13.5834 21.5228 13.5834 21.5969 13.5834ZM21.8938 13.4621C21.8196 13.5227 21.7454 13.5227 21.5969 13.5834C21.6711 13.5834 21.8196 13.5834 21.8938 13.5834C21.8938 13.5227 21.8938 13.4621 21.8938 13.4621ZM110.508 16.0089C110.137 15.9483 109.914 15.8877 109.692 15.8877C109.84 16.0089 110.063 16.1909 110.508 16.0089ZM1.78119 19.1623C1.70697 19.1623 1.63276 19.1016 1.55855 19.1016C1.55855 19.1623 1.48432 19.2228 1.48432 19.2228C1.55855 19.2835 1.63276 19.2835 1.70697 19.3441C1.70697 19.2835 1.70697 19.2228 1.78119 19.1623ZM9.64811 35.5957C9.72232 35.5957 9.72232 35.6563 9.79655 35.6563C9.87076 35.5957 9.87076 35.5351 9.94499 35.5351C9.87076 35.5351 9.79655 35.4744 9.79655 35.4744C9.79655 35.4744 9.72232 35.5351 9.64811 35.5957ZM85.2745 60.7006C85.3487 60.7613 85.3487 60.8219 85.4228 60.8219C85.4971 60.8219 85.5713 60.7613 85.6456 60.7613C85.4971 60.6399 85.4228 60.6399 85.4228 60.6399C85.4228 60.5793 85.3487 60.6399 85.2745 60.7006ZM103.383 55.7888C103.532 55.9708 103.68 56.092 103.829 56.1526C103.754 55.9101 103.754 55.8494 103.383 55.7888ZM16.9214 25.105C16.9955 25.105 16.9955 25.105 16.9214 25.105V25.105ZM16.4761 25.1655C16.6986 25.105 16.8471 25.105 16.9214 25.0444C16.8471 24.923 16.8471 24.8017 16.7729 24.5592C16.6244 24.8624 16.5502 24.9837 16.4761 25.1655ZM21.0033 21.7091C21.0033 21.5271 21.0033 21.2846 20.929 21.1028C20.8548 21.2846 20.8548 21.5271 20.7805 21.7091C20.8548 21.6485 20.929 21.7091 21.0033 21.7091Z" fill="#D3EC78"/>
</svg>
