<svg width="71" height="72" viewBox="0 0 71 72" fill="none" xmlns="http://www.w3.org/2000/svg">
<path d="M61.3034 60.753C61.8201 59.962 62.1248 59.017 62.1248 58C62.1248 55.243 59.913 53 57.1943 53C54.4756 53 52.2637 55.243 52.2637 58C52.2637 60.757 54.4756 63 57.1943 63C58.1972 63 59.129 62.691 59.909 62.167L62.4138 64.707C62.6061 64.902 62.8585 65 63.1109 65C63.3634 65 63.6158 64.902 63.8081 64.707C64.1937 64.316 64.1937 63.684 63.8081 63.293L61.3034 60.753ZM54.2359 58C54.2359 56.346 55.5633 55 57.1943 55C58.8253 55 60.1526 56.346 60.1526 58C60.1526 59.654 58.8253 61 57.1943 61C55.5633 61 54.2359 59.654 54.2359 58Z" fill="black"/>
<path d="M66.0693 32V26C66.0693 25.447 65.6285 25 65.0832 25C60.5145 25 56.507 27.445 54.2359 31.104V15.92C57.5749 15.432 60.1526 12.519 60.1526 9V7C60.1526 6.447 59.7118 6 59.1665 6C55.3611 6 52.2637 9.141 52.2637 13V19.355C50.6357 17.312 48.1477 16 45.3609 16C44.8156 16 44.3748 16.447 44.3748 17V21C44.3748 25.625 47.8331 29.442 52.2637 29.941V50H36.4859V31.92C39.8249 31.432 42.4026 28.519 42.4026 25V23C42.4026 22.447 41.9618 22 41.4165 22C37.6111 22 34.5137 25.141 34.5137 29V36.355C32.8857 34.312 30.3977 33 27.6109 33C27.0656 33 26.6248 33.447 26.6248 34V38C26.6248 42.625 30.0831 46.442 34.5137 46.941V50H17.7498V47.92C21.0888 47.432 23.6665 44.519 23.6665 41V39C23.6665 38.447 23.2257 38 22.6804 38C20.7496 38 19.0042 38.81 17.7498 40.111V36C17.7498 33.243 15.538 31 12.8193 31C12.274 31 11.8332 31.447 11.8332 32V34C11.8332 36.414 13.5303 38.434 15.7776 38.899V50H13.8054C9.45566 50 5.9165 53.589 5.9165 58C5.9165 62.411 9.45566 66 13.8054 66H57.1943C57.7396 66 58.1804 65.553 58.1804 65C58.1804 64.447 57.7396 64 57.1943 64H13.8054C10.5424 64 7.88873 61.309 7.88873 58C7.88873 54.691 10.5424 52 13.8054 52H57.1943C60.4573 52 63.1109 54.691 63.1109 58C63.1109 58.553 63.5517 59 64.0971 59C64.6424 59 65.0832 58.553 65.0832 58C65.0832 53.589 61.544 50 57.1943 50H54.2359V44.949C60.8439 44.435 66.0693 38.83 66.0693 32ZM54.2359 13C54.2359 10.585 55.933 8.565 58.1804 8.101V9C58.1804 11.415 56.4833 13.435 54.2359 13.899V13ZM46.3471 21V18.071C49.688 18.557 52.2637 21.479 52.2637 25V27.929C48.9228 27.442 46.3471 24.521 46.3471 21ZM40.4304 24.101V25C40.4304 27.415 38.7333 29.435 36.4859 29.899V29C36.4859 26.585 38.183 24.565 40.4304 24.101ZM28.5971 38V35.071C31.938 35.557 34.5137 38.479 34.5137 42V44.929C31.1728 44.442 28.5971 41.521 28.5971 38ZM13.8054 34V33.171C14.9532 33.584 15.7776 34.696 15.7776 36V36.829C14.6298 36.416 13.8054 35.304 13.8054 34ZM21.6943 40.101V41C21.6943 43.415 19.9972 45.435 17.7498 45.899V45C17.7498 42.585 19.4469 40.565 21.6943 40.101ZM64.0971 27.045V32C64.0971 37.729 59.7572 42.448 54.2359 42.955V38C54.2359 32.271 58.5758 27.552 64.0971 27.045Z" fill="black"/>
</svg>
