<svg width="71" height="72" viewBox="0 0 71 72" fill="none" xmlns="http://www.w3.org/2000/svg">
<g clip-path="url(#clip0_3750_1670)">
<path d="M35.7436 38.4487C46.1968 38.4487 54.701 29.8247 54.701 19.2243C54.701 8.62397 46.1968 0 35.7436 0C25.2904 0 16.7862 8.62397 16.7862 19.2243C16.7862 29.8247 25.2905 38.4487 35.7436 38.4487ZM35.7436 2.11345C45.0475 2.11345 52.6168 9.78933 52.6168 19.2243C52.6168 28.6592 45.0475 36.3352 35.7436 36.3352C26.4397 36.3352 18.8703 28.6594 18.8703 19.2243C18.8703 9.78947 26.4397 2.11345 35.7436 2.11345Z" fill="#1F2937"/>
<path d="M35.7435 33.1276C43.3033 33.1276 49.4537 26.8906 49.4537 19.2244C49.4537 11.5583 43.3033 5.32125 35.7435 5.32125C32.3309 5.32125 29.0605 6.6008 26.5347 8.9242C26.1084 9.31641 26.0764 9.98466 26.463 10.4169C26.8497 10.8492 27.5089 10.882 27.935 10.4896C30.0765 8.51963 32.8497 7.4347 35.7435 7.4347C42.1541 7.4347 47.3696 12.7236 47.3696 19.2244C47.3696 25.7252 42.1541 31.0141 35.7435 31.0141C29.3329 31.0141 24.1176 25.7254 24.1176 19.2244C24.1176 17.2613 24.6026 15.3183 25.5202 13.6055C25.7949 13.0926 25.6077 12.4511 25.1019 12.1725C24.5963 11.8938 23.9637 12.0839 23.6889 12.5966C22.606 14.6181 22.0335 16.91 22.0335 19.2244C22.0335 26.8906 28.1838 33.1276 35.7435 33.1276Z" fill="#1F2937"/>
<path d="M35.3473 24.2031C33.7107 24.102 33.2611 23.1031 33.1778 22.8684C33.0585 22.4167 32.6533 22.0837 32.1703 22.0837C31.5937 22.0837 31.1262 22.5578 31.1262 23.1427C31.1262 23.2276 31.1372 23.3097 31.1558 23.3889C31.1568 23.3927 31.1583 23.4001 31.1609 23.4093C31.1737 23.4592 31.1888 23.5081 31.2083 23.555C31.4011 24.0941 32.1734 25.7669 34.4492 26.2138V27.6199C34.4492 28.2035 34.9159 28.6767 35.4914 28.6767C36.067 28.6767 36.5335 28.2036 36.5335 27.6199V26.2455C37.5309 26.0695 38.201 25.6274 38.6199 25.2276C39.3994 24.4837 39.8648 23.3592 39.8648 22.2196C39.8648 21.1487 39.4507 18.6119 35.6146 18.1827C34.8547 18.0976 34.3126 17.8523 34.0033 17.4538C33.7302 17.1018 33.7007 16.713 33.7007 16.5621C33.7007 16.3762 33.751 14.7462 35.4914 14.7462C36.6332 14.7462 37.0943 15.4827 37.1809 15.6428C37.3354 16.0318 37.7104 16.3066 38.1491 16.3066C38.7257 16.3066 39.1932 15.8325 39.1932 15.2478C39.1932 15.074 39.151 14.9103 39.0778 14.7656C38.7841 14.1182 37.9553 13.105 36.5333 12.7562V11.3377C36.5333 10.7542 36.0668 10.281 35.4912 10.281C34.9157 10.281 34.4491 10.7542 34.4491 11.3377V12.7517C32.3923 13.247 31.6163 15.1931 31.6163 16.562C31.6163 18.084 32.6035 19.9718 35.3858 20.2832C37.7804 20.5512 37.7804 21.8069 37.7804 22.2195C37.7804 22.6578 37.6258 23.2739 37.1915 23.6883C36.7809 24.0802 36.1607 24.2535 35.3473 24.2031Z" fill="#1F2937"/>
<path d="M18.0604 48.9367C17.8635 48.7243 17.5888 48.6039 17.3014 48.6039C17.0139 48.6039 16.7393 48.7243 16.5423 48.9367L9.46348 56.5681C9.17865 56.8752 9.10113 57.3245 9.26601 57.7114C9.43089 58.0984 9.80683 58.3488 10.2226 58.3488H12.2685V62.1863C12.2685 62.7699 12.7352 63.2431 13.3107 63.2431C13.8861 63.2431 14.3528 62.7699 14.3528 62.1863V57.292C14.3528 56.7084 13.8861 56.2352 13.3107 56.2352H12.6334L17.3012 51.2028L21.9691 56.2352H21.2918C20.7163 56.2352 20.2497 56.7084 20.2497 57.292V69.8864H14.3525V66.4134C14.3525 65.8298 13.8859 65.3566 13.3104 65.3566C12.7349 65.3566 12.2683 65.8298 12.2683 66.4134V70.9432C12.2683 71.5268 12.7349 72 13.3104 72H21.2916C21.8671 72 22.3338 71.5268 22.3338 70.9432V58.3488H24.3797C24.7953 58.3488 25.1713 58.0984 25.3363 57.7114C25.5012 57.3245 25.4236 56.8751 25.1388 56.5681L18.0604 48.9367Z" fill="#1F2937"/>
<path d="M36.5026 41.6663C36.3056 41.454 36.0309 41.3336 35.7435 41.3336C35.456 41.3336 35.1814 41.454 34.9844 41.6663L27.9057 49.2979C27.6209 49.605 27.5432 50.0543 27.7083 50.4412C27.8731 50.8282 28.2491 51.0787 28.6648 51.0787H30.7108V70.9432C30.7108 71.5268 31.1774 72 31.7529 72H39.7342C40.3098 72 40.7763 71.5268 40.7763 70.9432V51.0787H42.8223C43.238 51.0787 43.6138 50.8282 43.7788 50.4412C43.9437 50.0543 43.866 49.6049 43.5812 49.2979L36.5026 41.6663ZM39.7342 48.9652C39.1585 48.9652 38.692 49.4384 38.692 50.022V69.8865H32.7949V50.0219C32.7949 49.4383 32.3283 48.9651 31.7528 48.9651H31.0755L35.7433 43.9327L40.4112 48.9651L39.7342 48.9652Z" fill="#1F2937"/>
<path d="M54.9448 34.9397C54.7479 34.7273 54.4732 34.607 54.1857 34.607C53.8984 34.607 53.6235 34.7273 53.4266 34.9397L46.3478 42.5711C46.063 42.8781 45.9854 43.3275 46.1502 43.7144C46.3153 44.1014 46.6911 44.3519 47.1068 44.3519H49.1528V50.8008C49.1528 51.3844 49.6192 51.8576 50.1949 51.8576C50.7705 51.8576 51.237 51.3844 51.237 50.8008V43.2952C51.237 42.7116 50.7705 42.2384 50.1949 42.2384H49.5177L54.1856 37.206L58.8533 42.2384H58.1761C57.6005 42.2384 57.134 42.7116 57.134 43.2952V69.8866H51.2369V55.0278C51.2369 54.4442 50.7704 53.971 50.1947 53.971C49.6191 53.971 49.1526 54.4441 49.1526 55.0278V70.9433C49.1526 71.5269 49.6191 72.0001 50.1947 72.0001H58.1761C58.7518 72.0001 59.2183 71.5269 59.2183 70.9433V44.3519H61.2642C61.68 44.3519 62.0558 44.1014 62.2208 43.7144C62.3857 43.3275 62.308 42.8781 62.0232 42.5711L54.9448 34.9397Z" fill="#1F2937"/>
<path d="M12.8695 19.6026C12.8695 19.019 12.4029 18.5458 11.8274 18.5458H5.71546C5.13997 18.5458 4.67334 19.019 4.67334 19.6026C4.67334 20.1862 5.13983 20.6594 5.71546 20.6594H11.8274C12.403 20.6592 12.8695 20.1862 12.8695 19.6026Z" fill="#1F2937"/>
<path d="M13.1756 27.8958L11.0018 28.7594C10.4658 28.9723 10.2016 29.5854 10.4116 30.1288C10.5726 30.5456 10.9659 30.8002 11.3821 30.8002C11.5086 30.8002 11.6372 30.7768 11.762 30.7271L13.9358 29.8635C14.4718 29.6506 14.7359 29.0375 14.526 28.4941C14.3159 27.9509 13.7113 27.6829 13.1756 27.8958Z" fill="#1F2937"/>
<path d="M11.0018 10.4455L13.1756 11.3091C13.3005 11.3587 13.4289 11.3822 13.5554 11.3822C13.9717 11.3822 14.365 11.1274 14.526 10.7107C14.7359 10.1673 14.4718 9.5542 13.9358 9.3413L11.762 8.47772C11.2259 8.26481 10.6215 8.53284 10.4116 9.07622C10.2016 9.61945 10.4659 10.2326 11.0018 10.4455Z" fill="#1F2937"/>
<path d="M65.2847 18.5458H59.1728C58.5971 18.5458 58.1307 19.019 58.1307 19.6026C58.1307 20.1862 58.5971 20.6594 59.1728 20.6594H65.2847C65.8604 20.6594 66.3269 20.1862 66.3269 19.6026C66.3267 19.019 65.8602 18.5458 65.2847 18.5458Z" fill="#1F2937"/>
<path d="M57.0644 29.8638L59.2381 30.7274C59.363 30.777 59.4916 30.8005 59.618 30.8005C60.0343 30.8005 60.4276 30.5457 60.5886 30.129C60.7986 29.5857 60.5344 28.9725 59.9986 28.7596L57.8249 27.8961C57.2885 27.6832 56.6844 27.9512 56.4744 28.4946C56.2644 29.0377 56.5286 29.6508 57.0644 29.8638Z" fill="#1F2937"/>
<path d="M57.4449 11.3822C57.5714 11.3822 57.7001 11.3587 57.8249 11.3091L59.9986 10.4455C60.5344 10.2326 60.7986 9.61945 60.5886 9.07608C60.3785 8.53256 59.7738 8.26495 59.2381 8.47758L57.0644 9.34116C56.5286 9.55406 56.2644 10.1672 56.4744 10.7106C56.6354 11.1275 57.0286 11.3822 57.4449 11.3822Z" fill="#1F2937"/>
</g>
<defs>
<clipPath id="clip0_3750_1670">
<rect width="71" height="72" fill="white"/>
</clipPath>
</defs>
</svg>
