<svg width="71" height="72" viewBox="0 0 71 72" fill="none" xmlns="http://www.w3.org/2000/svg">
<path fill-rule="evenodd" clip-rule="evenodd" d="M11.0938 23.625H12.2031V29.25C12.2031 29.8718 12.6993 30.375 13.3125 30.375H15.0719L29.9531 45.4658V54C29.9531 54.6218 30.4493 55.125 31.0625 55.125C31.6757 55.125 32.1719 54.6218 32.1719 54V45C32.1719 44.7012 32.0549 44.4155 31.8469 44.2046L18.2094 30.375H52.8456C52.5465 30.8135 52.5692 31.4095 52.9542 31.7999C53.1709 32.0197 53.4548 32.1295 53.7386 32.1295C54.0224 32.1295 54.3063 32.0197 54.523 31.7999L55.9281 30.375H57.6875C58.3007 30.375 58.7969 29.8718 58.7969 29.25V23.625H59.9062C60.5194 23.625 61.0156 23.1218 61.0156 22.5C61.0156 21.8782 60.5194 21.375 59.9062 21.375H11.0938C10.4806 21.375 9.98438 21.8782 9.98438 22.5C9.98438 23.1218 10.4806 23.625 11.0938 23.625ZM56.5781 23.625V28.125H14.4219V23.625H56.5781Z" fill="#1F2937"/>
<path fill-rule="evenodd" clip-rule="evenodd" d="M29.9531 67.5C29.9531 67.89 30.1525 68.2515 30.4796 68.4569C30.6573 68.569 30.8599 68.625 31.0625 68.625C31.2326 68.625 31.4016 68.5854 31.5587 68.5063L40.4337 64.0063C40.8096 63.8152 41.0469 63.4263 41.0469 63V59.2196C41.0469 58.5978 40.5507 58.0946 39.9375 58.0946C39.3243 58.0946 38.8281 58.5978 38.8281 59.2196V62.3046L32.1719 65.6796V63C32.1719 62.3782 31.6757 61.875 31.0625 61.875C30.4493 61.875 29.9531 62.3782 29.9531 63V67.5Z" fill="#1F2937"/>
<path fill-rule="evenodd" clip-rule="evenodd" d="M58.7969 45C58.7969 38.1764 53.3226 32.625 46.5938 32.625C39.8649 32.625 34.3906 38.1764 34.3906 45C34.3906 51.8236 39.8649 57.375 46.5938 57.375C53.3226 57.375 58.7969 51.8236 58.7969 45ZM36.6094 45C36.6094 39.4167 41.088 34.875 46.5938 34.875C52.0995 34.875 56.5781 39.4167 56.5781 45C56.5781 50.5833 52.0995 55.125 46.5938 55.125C41.088 55.125 36.6094 50.5833 36.6094 45Z" fill="#1F2937"/>
<path fill-rule="evenodd" clip-rule="evenodd" d="M47.7031 51.75V50.625H48.8125C50.6477 50.625 52.1406 49.1111 52.1406 47.25C52.1406 45.3889 50.6477 43.875 48.8125 43.875H47.7031V41.625H51.0312C51.6444 41.625 52.1406 41.1218 52.1406 40.5C52.1406 39.8782 51.6444 39.375 51.0312 39.375H47.7031V38.25C47.7031 37.6282 47.2069 37.125 46.5938 37.125C45.9806 37.125 45.4844 37.6282 45.4844 38.25V39.375H44.375C42.5398 39.375 41.0469 40.8889 41.0469 42.75C41.0469 44.6111 42.5398 46.125 44.375 46.125H45.4844V48.375H42.1562C41.5431 48.375 41.0469 48.8782 41.0469 49.5C41.0469 50.1218 41.5431 50.625 42.1562 50.625H45.4844V51.75C45.4844 52.3718 45.9806 52.875 46.5938 52.875C47.2069 52.875 47.7031 52.3718 47.7031 51.75ZM44.375 43.875C43.7629 43.875 43.2656 43.3707 43.2656 42.75C43.2656 42.1293 43.7629 41.625 44.375 41.625H45.4844V43.875H44.375ZM47.7031 46.125H48.8125C49.4246 46.125 49.9219 46.6293 49.9219 47.25C49.9219 47.8707 49.4246 48.375 48.8125 48.375H47.7031V46.125Z" fill="#1F2937"/>
<path fill-rule="evenodd" clip-rule="evenodd" d="M15.5312 19.125H55.4688C56.0819 19.125 56.5781 18.6218 56.5781 18C56.5781 14.8487 54.731 12.1433 52.0874 10.8857C52.8023 10.0865 53.25 9.03667 53.25 7.875C53.25 5.39319 51.2598 3.375 48.8125 3.375C46.3652 3.375 44.375 5.39319 44.375 7.875C44.375 9.03667 44.8227 10.0865 45.5376 10.8857C44.1208 11.5597 42.9508 12.6519 42.1562 14.0085C41.3617 12.6519 40.1917 11.5597 38.7749 10.8857C39.4898 10.0865 39.9375 9.03667 39.9375 7.875C39.9375 5.39319 37.9473 3.375 35.5 3.375C33.0527 3.375 31.0625 5.39319 31.0625 7.875C31.0625 9.03667 31.5102 10.0865 32.2251 10.8857C30.8083 11.5597 29.6383 12.6519 28.8438 14.0085C28.0492 12.6519 26.8792 11.5597 25.4624 10.8857C26.1773 10.0865 26.625 9.03667 26.625 7.875C26.625 5.39319 24.6348 3.375 22.1875 3.375C19.7402 3.375 17.75 5.39319 17.75 7.875C17.75 9.03667 18.1977 10.0865 18.9126 10.8857C16.269 12.1433 14.4219 14.8487 14.4219 18C14.4219 18.6218 14.9181 19.125 15.5312 19.125ZM46.5938 7.875C46.5938 6.63464 47.5894 5.625 48.8125 5.625C50.0356 5.625 51.0312 6.63464 51.0312 7.875C51.0312 9.11536 50.0356 10.125 48.8125 10.125C47.5894 10.125 46.5938 9.11536 46.5938 7.875ZM48.8125 12.375C51.4917 12.375 53.7321 14.3108 54.2478 16.875H43.3772C43.8929 14.3108 46.1333 12.375 48.8125 12.375ZM33.2812 7.875C33.2812 6.63464 34.2769 5.625 35.5 5.625C36.7231 5.625 37.7188 6.63464 37.7188 7.875C37.7188 9.11536 36.7231 10.125 35.5 10.125C34.2769 10.125 33.2812 9.11536 33.2812 7.875ZM35.5 12.375C38.1792 12.375 40.4196 14.3108 40.9353 16.875H30.0647C30.5804 14.3108 32.8208 12.375 35.5 12.375ZM19.9688 7.875C19.9688 6.63464 20.9644 5.625 22.1875 5.625C23.4106 5.625 24.4062 6.63464 24.4062 7.875C24.4062 9.11536 23.4106 10.125 22.1875 10.125C20.9644 10.125 19.9688 9.11536 19.9688 7.875ZM22.1875 12.375C24.8667 12.375 27.1071 14.3108 27.6228 16.875H16.7522C17.2679 14.3108 19.5083 12.375 22.1875 12.375Z" fill="#1F2937"/>
<path d="M31.0625 59.625C31.6752 59.625 32.1719 59.1213 32.1719 58.5C32.1719 57.8787 31.6752 57.375 31.0625 57.375C30.4498 57.375 29.9531 57.8787 29.9531 58.5C29.9531 59.1213 30.4498 59.625 31.0625 59.625Z" fill="#1F2937"/>
</svg>
