<svg width="71" height="72" viewBox="0 0 71 72" fill="none" xmlns="http://www.w3.org/2000/svg">
<path fill-rule="evenodd" clip-rule="evenodd" d="M61.5627 34.8904C60.9592 34.9937 60.5519 35.5737 60.6537 36.1868C60.8942 37.6282 61.0156 39.0784 61.0156 40.5C61.0156 48.4295 57.5304 55.587 51.915 60.3527C50.9342 53.8954 46.4133 48.7163 40.4099 46.8629C42.7967 45.2483 44.375 42.4973 44.375 39.375C44.375 34.4114 40.3936 30.375 35.5 30.375C30.6064 30.375 26.625 34.4114 26.625 39.375C26.625 42.4973 28.2032 45.2483 30.59 46.8629C24.5866 48.7163 20.0657 53.8954 19.0849 60.3527C13.4695 55.587 9.98433 48.4295 9.98433 40.5C9.98433 39.0784 10.1057 37.6282 10.3462 36.1868C10.448 35.5737 10.0407 34.9937 9.43722 34.8904C8.8197 34.7849 8.26068 35.2002 8.15776 35.8132C7.89775 37.3755 7.76558 38.9531 7.76558 40.5C7.76558 54.3164 17.4964 65.9773 30.9032 68.2273C30.9639 68.2383 31.0256 68.2427 31.0852 68.2427C31.6182 68.2427 32.0884 67.8516 32.1783 67.3022C32.2791 66.6892 31.8696 66.1091 31.265 66.0081C27.5267 65.3806 24.1068 63.9473 21.1451 61.9141C21.6803 54.2795 27.8677 48.375 35.5 48.375C43.1322 48.375 49.3196 54.2795 49.8548 61.9141C46.8931 63.9473 43.4732 65.3806 39.7349 66.0081C39.1303 66.1091 38.7208 66.6892 38.8216 67.3022C38.9115 67.8516 39.3817 68.2427 39.9147 68.2427C39.9743 68.2427 40.036 68.2383 40.0967 68.2273C53.5035 65.9773 63.2343 54.3164 63.2343 40.5C63.2343 38.9531 63.1021 37.3755 62.8421 35.8132C62.7392 35.2002 62.1737 34.7827 61.5627 34.8904ZM28.8437 39.375C28.8437 35.6528 31.8295 32.625 35.5 32.625C39.1704 32.625 42.1562 35.6528 42.1562 39.375C42.1562 43.0972 39.1704 46.125 35.5 46.125C31.8295 46.125 28.8437 43.0972 28.8437 39.375Z" fill="black"/>
<path fill-rule="evenodd" clip-rule="evenodd" d="M47.6489 12.3267C47.5178 11.918 47.1711 11.6213 46.753 11.5598L39.6644 10.5161L36.4945 4.00122C36.1218 3.23657 34.8781 3.23657 34.5054 4.00122L31.3355 10.5161L24.2469 11.5598C23.8288 11.6213 23.4821 11.918 23.351 12.3267C23.221 12.7332 23.3293 13.1814 23.6316 13.4802L28.7614 18.5493L27.5502 25.708C27.4787 26.1321 27.6498 26.5583 27.9911 26.8088C28.3345 27.0615 28.7863 27.0989 29.16 26.8945L35.5 23.5129L41.8399 26.8945C42.0024 26.9824 42.18 27.0242 42.3566 27.0242C42.5863 27.0242 42.8149 26.9517 43.0088 26.8088C43.3501 26.5583 43.5213 26.1321 43.4497 25.708L42.2385 18.5493L47.3683 13.4802C47.6706 13.1814 47.7789 12.7332 47.6489 12.3267ZM40.2722 17.3496C40.0111 17.6089 39.8919 17.9802 39.9537 18.3472L40.8832 23.8425L36.0167 21.2476C35.8542 21.1619 35.6776 21.1179 35.5 21.1179C35.3223 21.1179 35.1457 21.1619 34.9832 21.2476L30.1167 23.8425L31.0462 18.3472C31.108 17.9802 30.9888 17.6089 30.7277 17.3496L26.7907 13.4604L32.2314 12.6584C32.5933 12.6035 32.9053 12.375 33.0667 12.0432L35.5 7.04224L37.9332 12.0432C38.0946 12.375 38.4066 12.6035 38.7685 12.6584L44.2092 13.4604L40.2722 17.3496Z" fill="black"/>
<path fill-rule="evenodd" clip-rule="evenodd" d="M8.95296 30.4277C8.88145 30.8518 9.05263 31.2781 9.39389 31.5286C9.7384 31.7812 10.1913 31.8164 10.5628 31.6143L15.5312 28.9644L20.4996 31.6143C20.6621 31.7021 20.8397 31.7439 21.0163 31.7439C21.246 31.7439 21.4746 31.6714 21.6685 31.5286C22.0098 31.2781 22.181 30.8518 22.1094 30.4277L21.1604 24.8181L25.1808 20.8455C25.4831 20.5466 25.5914 20.0984 25.4614 19.6919C25.3303 19.2832 24.9836 18.9866 24.5655 18.925L19.0099 18.1077L16.5257 13.0012C16.1531 12.2366 14.9093 12.2366 14.5367 13.0012L12.0525 18.1077L6.49695 18.925C6.07876 18.9866 5.73208 19.2832 5.601 19.6919C5.47099 20.0984 5.57933 20.5466 5.88159 20.8455L9.90199 24.8181L8.95296 30.4277ZM9.04071 20.8257L12.9484 20.25C13.3103 20.1951 13.6223 19.9666 13.7837 19.6348L15.5312 16.0422L17.2787 19.6348C17.4401 19.9666 17.7521 20.1951 18.114 20.25L22.0217 20.8257L19.1941 23.6184C18.933 23.8777 18.8138 24.249 18.8756 24.616L19.5429 28.5623L16.048 26.699C15.8855 26.6133 15.7089 26.5693 15.5312 26.5693C15.3535 26.5693 15.1769 26.6133 15.0144 26.699L11.5195 28.5623L12.1868 24.616C12.2486 24.249 12.1294 23.8777 11.8683 23.6184L9.04071 20.8257Z" fill="black"/>
<path fill-rule="evenodd" clip-rule="evenodd" d="M64.503 18.925L58.9474 18.1077L56.4632 13.0012C56.0906 12.2366 54.8468 12.2366 54.4742 13.0012L51.99 18.1077L46.4344 18.925C46.0163 18.9866 45.6696 19.2832 45.5385 19.6919C45.4085 20.0984 45.5168 20.5466 45.8191 20.8455L49.8395 24.8181L48.8905 30.4277C48.819 30.8518 48.9901 31.2781 49.3314 31.5286C49.6748 31.7812 50.1266 31.8164 50.5003 31.6143L55.4687 28.9644L60.437 31.6143C60.5996 31.7021 60.7772 31.7439 60.9538 31.7439C61.1835 31.7439 61.4121 31.6714 61.606 31.5286C61.9473 31.2781 62.1184 30.8518 62.0469 30.4277L61.0979 24.8181L65.1183 20.8455C65.4206 20.5466 65.5289 20.0984 65.3989 19.6919C65.2678 19.2832 64.9211 18.9866 64.503 18.925ZM59.1316 23.6184C58.8705 23.8777 58.7513 24.249 58.8131 24.616L59.4804 28.5623L55.9855 26.699C55.823 26.6133 55.6464 26.5693 55.4687 26.5693C55.291 26.5693 55.1144 26.6133 54.9519 26.699L51.457 28.5623L52.1243 24.616C52.1861 24.249 52.0669 23.8777 51.8058 23.6184L48.9782 20.8257L52.8859 20.25C53.2478 20.1951 53.5598 19.9666 53.7212 19.6348L55.4687 16.0422L57.2162 19.6348C57.3776 19.9666 57.6896 20.1951 58.0515 20.25L61.9592 20.8257L59.1316 23.6184Z" fill="black"/>
<path d="M35.5 68.625C36.1126 68.625 36.6093 68.1213 36.6093 67.5C36.6093 66.8787 36.1126 66.375 35.5 66.375C34.8873 66.375 34.3906 66.8787 34.3906 67.5C34.3906 68.1213 34.8873 68.625 35.5 68.625Z" fill="black"/>
</svg>
