<svg width="44" height="44" viewBox="0 0 44 44" fill="none" xmlns="http://www.w3.org/2000/svg">
<rect x="0.5" y="0.5" width="43" height="43" rx="21.5" stroke="#9CA3AF"/>
<g clip-path="url(#clip0_2306_1874)">
<path d="M11.4179 29.1124C11.2554 29.0059 11.0375 29.0512 10.931 29.2136C10.3219 30.1426 10 31.2198 10 32.329V33.5926C10 33.7868 10.1575 33.9443 10.3517 33.9443C10.5459 33.9443 10.7033 33.7868 10.7033 33.5926V32.329C10.7033 31.3572 10.9855 30.4133 11.5192 29.5993C11.6256 29.4369 11.5803 29.2188 11.4179 29.1124Z" fill="#1F2937"/>
<path d="M15.6377 30.8943H12.7411C12.4122 30.8943 12.1445 31.1619 12.1445 31.4908V32.5711C12.1445 32.9 12.4122 33.1676 12.7411 33.1676H15.6377C15.9667 33.1676 16.2343 32.9 16.2343 32.5711V31.4908C16.2343 31.1619 15.9667 30.8943 15.6377 30.8943ZM15.531 32.4643H12.8479V31.5977H15.531V32.4643Z" fill="#1F2937"/>
<path d="M20.6432 14.1396C19.862 14.1396 19.2266 14.7751 19.2266 15.5562C19.2266 16.3374 19.862 16.9728 20.6432 16.9728C21.4243 16.9728 22.0598 16.3374 22.0598 15.5562C22.0598 14.7751 21.4243 14.1396 20.6432 14.1396ZM20.6432 16.2695C20.2499 16.2695 19.9299 15.9495 19.9299 15.5562C19.9299 15.1629 20.2499 14.843 20.6432 14.843C21.0365 14.843 21.3565 15.1629 21.3565 15.5562C21.3565 15.9495 21.0365 16.2695 20.6432 16.2695Z" fill="#1F2937"/>
<path d="M31.1443 22.852C30.9789 22.7502 30.7623 22.8017 30.6605 22.9671C30.5586 23.1325 30.6102 23.3491 30.7755 23.4509C32.3542 24.4229 33.2966 26.1083 33.2966 27.9593C33.2966 30.8765 30.9233 33.2499 28.006 33.2499C25.0887 33.2499 22.7154 30.8765 22.7154 27.9593C22.7154 25.042 25.0887 22.6687 28.006 22.6687C28.5082 22.6687 29.0055 22.7391 29.4841 22.8782C29.6705 22.9322 29.8657 22.825 29.9199 22.6385C29.9741 22.452 29.8668 22.2569 29.6803 22.2027C29.1379 22.0452 28.5745 21.9653 28.006 21.9653C25.2805 21.9653 22.9743 23.794 22.2492 26.2888L21.4636 25.9682V24.5007C22.6212 23.5841 23.3348 22.1715 23.3348 20.6416V20.4633C24.179 20.4108 24.8498 19.7077 24.8498 18.8506C24.8498 18.6107 24.7968 18.383 24.7026 18.178L24.7029 16.5763C25.0672 16.4844 25.3381 16.1548 25.3381 15.7622V15.3503C25.3381 14.9042 24.9885 14.5392 24.549 14.5123L24.5503 14.4337L24.5049 13.6003C24.4471 12.5409 23.7881 11.5959 22.8187 11.1732L22.768 11.1236C22.1735 10.5426 21.358 10.255 20.5307 10.3347L20.1564 10.3708L19.9281 10.273C19.2238 9.97135 18.416 9.97135 17.7118 10.273L17.4834 10.3708L17.1091 10.3347C16.2818 10.255 15.4664 10.5426 14.872 11.1236L14.8212 11.1732C13.8519 11.5959 13.1928 12.5408 13.1351 13.6003L13.0885 14.4529L13.084 14.5435C12.7341 14.6451 12.4773 14.968 12.4773 15.3503V15.7622C12.4773 16.0926 12.6694 16.3783 12.9474 16.5156V18.1556C12.8466 18.3663 12.7901 18.6019 12.7901 18.8506C12.7901 19.7078 13.4609 20.4108 14.305 20.4633V20.6556C14.305 22.2075 15.0408 23.6419 16.2301 24.5575V25.9682L13.5359 27.0675C12.9722 27.2975 12.4511 27.6156 11.9872 28.013C11.8397 28.1393 11.8225 28.3613 11.9489 28.5088C12.0184 28.59 12.117 28.6317 12.2161 28.6317C12.2971 28.6317 12.3784 28.6039 12.4447 28.5471C12.8513 28.1989 13.3078 27.9202 13.8016 27.7187L15.7919 26.9067L18.5204 33.7321C18.5738 33.8657 18.7031 33.9532 18.8469 33.9532C18.9907 33.9532 19.1201 33.8656 19.1734 33.7321L21.9019 26.9067L22.0918 26.9841C22.0396 27.3016 22.012 27.6272 22.012 27.9593C22.012 31.2644 24.7009 33.9532 28.0059 33.9532C31.311 33.9532 33.9999 31.2643 33.9999 27.9593C34 25.8622 32.9324 23.953 31.1443 22.852ZM23.3348 17.2379V16.6027H23.9995L23.9993 17.4277C23.7993 17.3196 23.574 17.2527 23.3348 17.2379ZM20.6435 17.6762C19.4746 17.6762 18.5236 16.7252 18.5236 15.5562C18.5236 14.3873 19.4746 13.4363 20.6435 13.4363C21.8125 13.4363 22.7635 14.3873 22.7635 15.5562C22.7635 16.7252 21.8125 17.6762 20.6435 17.6762ZM23.3348 19.7575V17.9437C23.7906 17.9943 24.1464 18.3815 24.1464 18.8506C24.1464 19.3197 23.7906 19.7069 23.3348 19.7575ZM24.6347 15.3503V15.7622C24.6347 15.8378 24.5731 15.8994 24.4975 15.8994H23.4452C23.4589 15.7868 23.4668 15.6724 23.4668 15.5562C23.4668 15.4399 23.4589 15.3256 23.4452 15.213H24.4975C24.5732 15.2131 24.6347 15.2746 24.6347 15.3503ZM13.8373 13.6386C13.8816 12.826 14.3974 12.1032 15.1515 11.7972C15.1938 11.78 15.2324 11.7548 15.2651 11.7228L15.3635 11.6266C15.8094 11.1908 16.4208 10.9751 17.0417 11.0348L17.5055 11.0795C17.5641 11.0852 17.6234 11.076 17.6776 11.0527L17.9887 10.9195C18.517 10.6933 19.1229 10.6933 19.6511 10.9195L19.9622 11.0527C20.0164 11.076 20.0756 11.0852 20.1343 11.0795L20.5981 11.0348C21.2188 10.9751 21.8304 11.1908 22.2763 11.6265L22.3747 11.7228C22.4074 11.7547 22.446 11.78 22.4883 11.7972C23.2424 12.1032 23.7582 12.826 23.8025 13.6386L23.8489 14.4895C23.849 14.4909 23.8486 14.4982 23.8478 14.5098H23.2649C22.8482 13.4698 21.8306 12.733 20.6435 12.733C19.4564 12.733 18.4388 13.4698 18.0221 14.5098H16.0917C15.8975 14.5098 15.74 14.6672 15.74 14.8614C15.74 15.0556 15.8975 15.2131 16.0917 15.2131H17.8418C17.8281 15.3257 17.8202 15.44 17.8202 15.5563C17.8202 15.6725 17.8281 15.7869 17.8418 15.8995H13.3179C13.2422 15.8995 13.1807 15.8379 13.1807 15.7623V15.3503C13.1807 15.2747 13.2422 15.2131 13.3179 15.2131H14.593C14.7872 15.2131 14.9447 15.0557 14.9447 14.8615C14.9447 14.6673 14.7872 14.5098 14.593 14.5098H13.7899L13.7909 14.4895L13.8373 13.6386ZM14.3051 17.2379C14.0699 17.2525 13.8483 17.3175 13.6508 17.4224V16.6027H14.3051V17.2379ZM13.4935 18.8505C13.4935 18.3815 13.8493 17.9942 14.3051 17.9436V19.7575C13.8493 19.7069 13.4935 19.3197 13.4935 18.8505ZM15.0084 20.6556V16.6027H18.0221C18.4388 17.6427 19.4564 18.3795 20.6435 18.3795C21.4182 18.3795 22.1208 18.0657 22.6314 17.5588V20.6416C22.6314 22.4229 21.5035 24.0198 19.8247 24.6154L19.7901 24.6277C19.1476 24.8556 18.4404 24.8542 17.7988 24.6236C16.1297 24.0237 15.0084 22.4292 15.0084 20.6556ZM17.5609 25.2855C17.9604 25.4291 18.3802 25.5008 18.8002 25.5008C19.2151 25.5008 19.6301 25.4307 20.0253 25.2905L20.0599 25.2782C20.3037 25.1917 20.5376 25.087 20.7603 24.9661V26.1213L19.3401 27.3418C19.0495 27.5915 18.6128 27.5898 18.3241 27.3379L16.9335 26.1238V25.008C17.1342 25.1138 17.3433 25.2073 17.5609 25.2855ZM18.8469 32.6542L16.4432 26.6409L16.4523 26.6372L17.8617 27.8677C18.1384 28.1093 18.4864 28.2301 18.8346 28.2301C19.1788 28.2301 19.5232 28.1118 19.7986 27.8752L21.2398 26.6365L21.2507 26.6409L18.8469 32.6542Z" fill="#1F2937"/>
<path d="M28.2913 24.922C28.1409 25.0312 27.9389 25.0312 27.7885 24.922C26.9024 24.2784 25.6842 24.3042 24.8262 24.9848C23.7938 25.8036 23.5923 27.2798 24.3674 28.3455L25.414 29.7843L25.5757 31.3159C25.6267 31.799 26.0315 32.1634 26.5172 32.1634C26.9725 32.1634 27.3639 31.8386 27.4478 31.3911L27.7341 29.8641C27.7618 29.7172 27.8903 29.6105 28.0398 29.6105C28.1894 29.6105 28.318 29.7171 28.3456 29.8641L28.632 31.3911C28.7159 31.8386 29.1072 32.1634 29.5625 32.1634C30.0482 32.1634 30.453 31.799 30.504 31.3159L30.6657 29.7843L31.7123 28.3455C32.4874 27.2798 32.2859 25.8036 31.2535 24.9848C30.3956 24.3043 29.1774 24.2784 28.2913 24.922ZM30.8164 25.5358C31.5525 26.1196 31.6961 27.1721 31.1435 27.9318L30.0415 29.4468C30.0052 29.4968 29.9826 29.5554 29.9761 29.6168L29.8046 31.2421C29.7915 31.3664 29.6874 31.46 29.5625 31.46C29.4454 31.46 29.3448 31.3765 29.3232 31.2615L29.0368 29.7345C28.947 29.2551 28.5277 28.9071 28.0398 28.9071C27.5521 28.9071 27.1328 29.255 27.0429 29.7345L26.7566 31.2615C26.7349 31.3765 26.6344 31.46 26.5172 31.46C26.3923 31.46 26.2882 31.3664 26.2751 31.2421L26.1036 29.6168C26.0971 29.5554 26.0746 29.4968 26.0383 29.4468L24.9362 27.9318C24.3836 27.1721 24.5272 26.1196 25.2633 25.5358C25.8749 25.0506 26.7435 25.0322 27.3752 25.491C27.7727 25.7797 28.3069 25.7797 28.7045 25.491C29.3364 25.0322 30.2047 25.0507 30.8164 25.5358Z" fill="#1F2937"/>
<path d="M27.3408 26.4397L27.3398 26.4391C27.1753 26.3362 26.9582 26.3862 26.8552 26.551C26.7523 26.7157 26.8024 26.9326 26.9671 27.0356C26.9683 27.0364 26.9705 27.0377 26.9717 27.0384C27.2911 27.2325 27.6652 27.3296 28.0393 27.3296C28.4139 27.3296 28.7885 27.2323 29.108 27.0377C29.2739 26.9367 29.3265 26.7203 29.2255 26.5545C29.1245 26.3885 28.908 26.336 28.7422 26.437C28.3221 26.6928 27.7574 26.6929 27.3408 26.4397Z" fill="#1F2937"/>
</g>
<defs>
<clipPath id="clip0_2306_1874">
<rect width="24" height="24" fill="white" transform="translate(10 10)"/>
</clipPath>
</defs>
</svg>
