<svg width="44" height="44" viewBox="0 0 44 44" fill="none" xmlns="http://www.w3.org/2000/svg">
<rect x="0.5" y="0.5" width="43" height="43" rx="21.5" stroke="#9CA3AF"/>
<path d="M32.7247 12.8828H13.7467C13.0443 12.8828 12.4727 13.4549 12.4727 14.158V15.342H11.2753C10.5721 15.342 10 15.9135 10 16.6159V26.1539C10 26.857 10.5721 27.4291 11.2753 27.4291H12.1113V30.6484C12.1113 30.8263 12.212 30.9888 12.3712 31.0681C12.4374 31.101 12.5089 31.1172 12.58 31.1172C12.6802 31.1172 12.7797 31.0851 12.8627 31.0225L17.6189 27.4291H29.6357L31.1374 28.5633C31.2204 28.626 31.3198 28.658 31.42 28.658C31.4912 28.658 31.5627 28.6418 31.6288 28.6089C31.788 28.5296 31.8887 28.3671 31.8887 28.1893V24.9699H32.7247C33.4279 24.9699 34 24.3978 34 23.6946V14.158C34 13.4549 33.4279 12.8828 32.7247 12.8828ZM33.0625 23.6946C33.0625 23.8776 32.9078 24.0323 32.7247 24.0323H31.4199C31.1611 24.0323 30.9512 24.2422 30.9512 24.5011V27.2477L26.8194 24.127C26.738 24.0655 26.6388 24.0323 26.5369 24.0323H21.1928C20.934 24.0323 20.7241 24.2422 20.7241 24.5011C20.7241 24.7599 20.934 24.9698 21.1928 24.9698H26.3797L28.3944 26.4915H17.4618C17.3598 26.4915 17.2606 26.5248 17.1792 26.5863L13.0488 29.7068V26.9602C13.0488 26.7014 12.8389 26.4915 12.5801 26.4915H11.2753C11.089 26.4915 10.9375 26.34 10.9375 26.1538V16.6159C10.9375 16.4335 11.0922 16.2795 11.2753 16.2795H12.4727V23.6946C12.4727 24.3977 13.0442 24.9698 13.7467 24.9698H16.9835C17.2423 24.9698 17.4522 24.7599 17.4522 24.5011C17.4522 24.2422 17.2423 24.0323 16.9835 24.0323H13.7467C13.5643 24.0323 13.4102 23.8776 13.4102 23.6946V14.158C13.4102 13.975 13.5643 13.8203 13.7467 13.8203H32.7247C32.911 13.8203 33.0625 13.9718 33.0625 14.158V23.6946Z" fill="#1F2937"/>
<path d="M23.9526 19.4621C23.9482 19.4504 23.9434 19.4389 23.9381 19.4276L22.4898 15.9928C22.4866 15.9851 22.4834 15.9784 22.4801 15.9725C22.4324 15.8729 22.3499 15.7894 22.2401 15.743C22.0018 15.6424 21.7267 15.7541 21.626 15.9927L20.171 19.4414C20.1702 19.4433 20.1694 19.4452 20.1686 19.4471L19.3631 21.3562C19.2625 21.5947 19.3743 21.8696 19.6128 21.9703C19.6723 21.9954 19.7341 22.0073 19.7949 22.0073C19.9776 22.0073 20.1514 21.8996 20.227 21.7206L20.9126 20.0954H23.2022L23.8874 21.7205C23.9629 21.8996 24.1367 22.0073 24.3195 22.0073C24.3803 22.0073 24.442 21.9954 24.5014 21.9704C24.74 21.8698 24.8519 21.5949 24.7513 21.3563L23.9526 19.4621ZM21.3082 19.1579L22.0578 17.3812L22.8069 19.1579H21.3082Z" fill="#1F2937"/>
<path d="M30.4151 20.4522C30.7823 19.9162 31.0012 19.2463 31.0012 18.5198C31.0012 16.7674 29.729 15.3418 28.1653 15.3418C26.6009 15.3418 25.3281 16.7674 25.3281 18.5198C25.3281 20.273 26.6009 21.6993 28.1653 21.6993C28.7622 21.6993 29.3163 21.491 29.7737 21.1364L30.6542 22.0103C30.7456 22.101 30.865 22.1463 30.9844 22.1463C31.1049 22.1463 31.2255 22.1001 31.3171 22.0078C31.4995 21.824 31.4983 21.5272 31.3146 21.3448L30.4151 20.4522ZM29.7357 19.778L28.9206 18.9689C28.7368 18.7866 28.4401 18.7877 28.2577 18.9715C28.0753 19.1552 28.0765 19.452 28.2602 19.6344L29.1013 20.4692C28.8248 20.655 28.5055 20.7618 28.1653 20.7618C27.1178 20.7618 26.2656 19.7561 26.2656 18.5198C26.2656 17.2844 27.1178 16.2793 28.1653 16.2793C29.212 16.2793 30.0637 17.2844 30.0637 18.5198C30.0637 18.9858 29.9426 19.419 29.7357 19.778Z" fill="#1F2937"/>
<path d="M19.1329 18.6313C19.1329 18.3725 18.923 18.1626 18.6642 18.1626H16.126V16.6436H18.6641C18.923 16.6436 19.1329 16.4336 19.1329 16.1748C19.1329 15.916 18.923 15.7061 18.6641 15.7061H15.6572C15.3984 15.7061 15.1885 15.916 15.1885 16.1748V21.6778C15.1885 21.9366 15.3984 22.1465 15.6572 22.1465C15.9161 22.1465 16.126 21.9366 16.126 21.6778V19.1001H18.6641C18.923 19.1001 19.1329 18.8902 19.1329 18.6313Z" fill="#1F2937"/>
<path d="M19.0879 24.0322C18.829 24.0322 18.6191 24.2421 18.6191 24.501C18.6191 24.7598 18.829 24.9697 19.0879 24.9697H19.0892C19.348 24.9697 19.5573 24.7598 19.5573 24.501C19.5573 24.2421 19.3467 24.0322 19.0879 24.0322Z" fill="#1F2937"/>
</svg>
