<svg width="179" height="40" viewBox="0 0 179 40" fill="none" xmlns="http://www.w3.org/2000/svg">
<path fill-rule="evenodd" clip-rule="evenodd" d="M28.8742 19.1543C28.8742 21.7833 28.2146 24.2217 26.8955 26.4495C25.6186 28.6328 23.8652 30.3844 21.651 31.6966L21.6461 31.6995C19.4529 32.9823 17.033 33.6203 14.4082 33.6203C11.8188 33.6202 9.4026 32.9807 7.1776 31.7034L7.1678 31.698C7.1678 35.6421 3.94028 39.6532 0 40.0005L0 19.1543C2.61781e-05 16.5649 0.639525 14.1487 1.91684 11.9237L1.92027 11.9178L1.9237 11.9114C3.23582 9.6973 4.98716 7.94379 7.17025 6.66686L7.17417 6.66489L7.1776 6.66293C9.4026 5.38562 11.8188 4.74612 14.4082 4.74609C17.0303 4.74609 19.4479 5.38284 21.6392 6.66293L21.8466 6.78402C23.9699 8.04827 25.6557 9.76148 26.8926 11.9114C28.212 14.138 28.8741 16.5587 28.8742 19.1543ZM19.7964 13.766C21.2963 15.266 22.0338 17.0438 22.0338 19.1543C22.0338 21.2648 21.2964 23.0425 19.7964 24.5425L19.7925 24.5464L19.7885 24.5508C18.3333 26.0399 16.5614 26.78 14.4082 26.78C12.2977 26.7799 10.5199 26.0425 9.01993 24.5425C7.52003 23.0425 6.78296 21.2647 6.78296 19.1543C6.783 17.0438 7.51996 15.266 9.01993 13.766C10.5199 12.2661 12.2977 11.5291 14.4082 11.5291C16.494 11.5291 18.2219 12.2234 19.6508 13.6204L19.7964 13.766Z" fill="white"/>
<path d="M6.10167 4.74609H0V11.5257C1.94499 7.08815 5.08865 5.15698 6.10167 4.74609Z" fill="white"/>
<path d="M8.9073 19.5783C9.42564 19.5783 9.84585 19.1581 9.84585 18.6397C9.84585 18.1214 9.42564 17.7012 8.9073 17.7012C8.38895 17.7012 7.96875 18.1214 7.96875 18.6397C7.96875 19.1581 8.38895 19.5783 8.9073 19.5783Z" fill="white"/>
<path d="M13.4203 24.4818C13.3123 24.9847 12.8137 25.311 12.3308 25.1339C11.4449 24.809 10.6348 24.298 9.95694 23.6315C9.27911 22.9649 8.75463 22.1635 8.4149 21.2832C8.2297 20.8033 8.54756 20.2993 9.04859 20.1829V20.1829C9.54963 20.0665 10.0422 20.3841 10.2532 20.8532C10.4959 21.3926 10.8375 21.8849 11.263 22.3033C11.6885 22.7218 12.1865 23.055 12.7299 23.2886C13.2024 23.4917 13.5283 23.9789 13.4203 24.4818V24.4818Z" fill="white"/>
<path d="M127.33 20.9819C127.33 12.3071 133.186 6.50586 142.457 6.50586C150.264 6.50586 156.77 11.3312 156.77 19.1385C156.77 20.2771 156.608 21.4157 156.228 22.6627H134.595C135.3 26.7832 139.095 29.6567 143.433 29.6567C146.794 29.6567 149.939 28.2471 151.945 26.1868L155.957 30.7953C153.246 33.7773 148.366 35.5122 143.378 35.5122C134.921 35.5122 127.33 30.3616 127.33 20.9819ZM149.397 18.3253C149.397 14.2048 145.981 11.9276 142.023 11.9276C138.282 11.9276 134.975 14.6385 134.704 18.3253H149.397Z" fill="white"/>
<path d="M97.1133 6.83116H104.433V11.9818C106.222 8.51191 110.18 6.50586 114.192 6.50586C120.21 6.50586 124.005 11.0601 124.005 18.2711V35.1869H116.632V18.7048C116.632 15.3975 114.68 12.9035 111.264 12.8493C107.523 12.7951 104.433 15.9939 104.433 19.8434V35.1869H97.1133V6.83116Z" fill="white"/>
<path fill-rule="evenodd" clip-rule="evenodd" d="M82.1544 35.7752L61.9521 7.16504H71.0023L80.9752 21.0995L91.1462 35.7752H82.1544Z" fill="white"/>
<path fill-rule="evenodd" clip-rule="evenodd" d="M91.8177 16.284L91.9769 7.16504H84.9149L84.759 16.0964C84.7119 18.801 81.8279 20.4445 79.4995 19.0998L77.8455 18.1447C71.0637 14.2282 62.6102 18.7658 62.0891 26.6274L62.0664 35.7752H69.1462L69.1331 27.1664C69.307 24.5431 72.1163 23.0286 74.3852 24.339L76.0392 25.2941C83.0218 29.327 91.6762 24.3971 91.8177 16.284Z" fill="white"/>
<path d="M84.759 16.0964C84.7119 18.801 81.8279 20.4445 79.4995 19.0998L77.8455 18.1447C71.0637 14.2282 62.6102 18.7658 62.0891 26.6274L62.0664 35.7752H69.1462L69.1331 27.1664C69.307 24.5431 72.1163 23.0286 74.3852 24.339L76.0392 25.2941C83.0218 29.327 91.6762 24.3971 91.8177 16.284L91.9769 7.16504H84.9149L84.759 16.0964Z" fill="white"/>
<path d="M31.1758 20.9819C31.1758 12.3071 37.0313 6.50586 46.3025 6.50586C54.1098 6.50586 60.6159 11.3312 60.6159 19.1385C60.6159 20.2771 60.4532 21.4157 60.0737 22.6627H38.4409C39.1458 26.7832 42.941 29.6567 47.2784 29.6567C50.6399 29.6567 53.7845 28.2471 55.7905 26.1868L59.8026 30.7953C57.0917 33.7773 52.2122 35.5122 47.2242 35.5122C38.7662 35.5122 31.1758 30.3616 31.1758 20.9819ZM53.2423 18.3253C53.2423 14.2048 49.8266 11.9276 45.8687 11.9276C42.1277 11.9276 38.8204 14.6385 38.5494 18.3253H53.2423Z" fill="white"/>
<path d="M169.98 7.04785H177.679V12.9576H169.98V25.7529C169.98 27.7047 170.901 29.3313 172.799 29.3855C174.209 29.6023 175.889 29.006 177.028 28.4096L178.492 34.1566C176.432 35.0783 173.883 35.7831 171.389 35.7831C165.642 35.7831 162.552 31.9879 162.552 26.4035V12.9576H159.299V7.04785H162.551H166.347H169.98Z" fill="white"/>
<path d="M171.014 5.42175H161.255L165.987 0L171.014 5.42175Z" fill="white"/>
</svg>
