<svg width="44" height="44" viewBox="0 0 44 44" fill="none" xmlns="http://www.w3.org/2000/svg">
<rect x="0.5" y="0.5" width="43" height="43" rx="21.5" stroke="#374151"/>
<g clip-path="url(#clip0_3750_6748)">
<path d="M24.3443 25.1241C24.6414 25.1241 24.9192 25.0071 25.1266 24.7944L26.9693 22.9052C27.3899 22.4739 27.3812 21.7809 26.9499 21.3603C26.5186 20.9398 25.8254 20.9485 25.4049 21.3797L24.3239 22.4879L24.1345 22.3038C23.7026 21.884 23.0095 21.8936 22.5894 22.3255C22.1695 22.7573 22.1792 23.4503 22.6112 23.8703L23.5827 24.8149C23.7878 25.0143 24.0583 25.1241 24.3443 25.1241ZM23.0947 22.8166C23.2439 22.6632 23.4902 22.66 23.6434 22.809L24.0849 23.2383C24.2242 23.3738 24.447 23.3708 24.5827 23.2317L25.9093 21.8717C26.0587 21.7184 26.3049 21.7155 26.4579 21.8647C26.6111 22.0141 26.6142 22.2602 26.4649 22.4134L24.6222 24.3026C24.4798 24.4549 24.2204 24.4581 24.0739 24.3099L23.1024 23.3653C22.949 23.2161 22.9455 22.97 23.0947 22.8166Z" fill="#F9FAFB"/>
<path d="M21.6211 25.3638C21.5039 25.2085 21.2831 25.1776 21.1277 25.2948C20.9723 25.412 20.9415 25.6328 21.0586 25.7881C21.1869 25.9581 21.3289 26.1212 21.4804 26.2727C22.3466 27.1388 23.4982 27.6157 24.7232 27.6157C25.9482 27.6157 27.0998 27.1388 27.966 26.2727C28.8323 25.4066 29.3093 24.2551 29.3093 23.0303C29.3093 21.8054 28.8322 20.654 27.966 19.7879C26.1779 18 23.2685 18.0001 21.4804 19.7879C20.2613 21.0068 19.8299 22.7849 20.3546 24.4283C20.4137 24.6137 20.6121 24.7159 20.7973 24.6568C20.9826 24.5976 21.085 24.3994 21.0258 24.2141C20.5816 22.823 20.9467 21.3178 21.9786 20.2861C23.492 18.7729 25.9545 18.7729 27.4678 20.2861C28.2009 21.0191 28.6047 21.9937 28.6047 23.0303C28.6047 24.067 28.2009 25.0416 27.4678 25.7746C26.7347 26.5076 25.76 26.9113 24.7232 26.9113C23.6865 26.9113 22.7117 26.5076 21.9786 25.7746C21.8501 25.646 21.7298 25.5078 21.6211 25.3638Z" fill="white"/>
<path d="M33.5154 29.4658L31.2928 27.2435C31.1552 27.106 30.9321 27.106 30.7945 27.2435L30.7809 27.2571L29.9256 26.4019C30.5005 25.5155 30.8431 24.4914 30.9105 23.4225C30.9228 23.2283 30.7752 23.061 30.5811 23.0487C30.3871 23.0369 30.2196 23.184 30.2073 23.3781C30.1232 24.7126 29.5555 25.9689 28.6088 26.9154C27.5389 27.9852 26.1339 28.5207 24.7285 28.522C24.7267 28.522 24.725 28.5218 24.7232 28.5218H24.6952C23.2974 28.5147 21.9017 27.9794 20.8375 26.9154C19.7996 25.8777 19.228 24.4979 19.228 23.0303C19.228 21.5627 19.7996 20.1829 20.8375 19.1452C22.9801 17.0029 26.4662 17.0029 28.6088 19.1452C29.4068 19.9431 29.9334 20.9496 30.1317 22.0559C30.166 22.2474 30.3492 22.3746 30.5406 22.3405C30.7322 22.3061 30.8596 22.1231 30.8253 21.9316C30.6014 20.683 30.0072 19.5472 29.107 18.647C28.6609 18.201 28.1631 17.8376 27.6328 17.5562V14.7172C27.6325 14.6245 27.5951 14.5337 27.5297 14.4681L23.1642 10.1032C23.0985 10.0378 23.0078 10.0002 22.915 10H11.0569C10.4742 10 10 10.474 10 11.0568V14.0175C10 14.212 10.1577 14.3698 10.3524 14.3698C10.5469 14.3698 10.7047 14.2121 10.7047 14.0175V11.0568C10.7047 10.8625 10.8627 10.7045 11.057 10.7045H22.5628V14.0127C22.5628 14.5954 23.037 15.0694 23.6197 15.0694H26.9283V17.2372C26.241 16.9767 25.5163 16.843 24.7904 16.8351C24.787 16.8347 24.7836 16.834 24.78 16.834H16.9143C16.7198 16.834 16.562 16.9917 16.562 17.1862C16.562 17.3808 16.7198 17.5385 16.9143 17.5385H21.8468C21.3443 17.8013 20.8705 18.1376 20.4415 18.5475H16.9143C16.7198 18.5475 16.562 18.7052 16.562 18.8997C16.562 19.0943 16.7198 19.252 16.9143 19.252H19.8075C19.2324 19.9969 18.8394 20.8548 18.6513 21.7706H16.9144C16.7198 21.7706 16.5621 21.9283 16.5621 22.1229C16.5621 22.3174 16.7198 22.4751 16.9144 22.4751H18.5484C18.5322 22.6587 18.5236 22.8439 18.5236 23.0304C18.5236 23.1834 18.5292 23.3356 18.5401 23.4866H16.9144C16.7199 23.4866 16.5621 23.6444 16.5621 23.8389C16.5621 24.0334 16.7199 24.1912 16.9144 24.1912H18.6319C18.8116 25.1447 19.2122 26.0381 19.8085 26.8101H16.9144C16.7199 26.8101 16.5621 26.9678 16.5621 27.1623C16.5621 27.3569 16.7199 27.5146 16.9144 27.5146H20.443C20.8713 27.9237 21.3443 28.2595 21.846 28.522H16.9143C16.7197 28.522 16.5619 28.6797 16.5619 28.8742C16.5619 29.0688 16.7197 29.2265 16.9143 29.2265H24.7232C25.4714 29.2264 26.2196 29.092 26.9283 28.8235V32.9434C26.9283 33.1376 26.7702 33.2957 26.5759 33.2957H11.0569C10.8627 33.2957 10.7046 33.1377 10.7046 32.9434V15.4267C10.7046 15.2322 10.5469 15.0745 10.3523 15.0745C10.1577 15.0745 10 15.2321 10 15.4267V32.9434C10 33.526 10.4742 34 11.0569 34H26.576C27.1587 34 27.6329 33.526 27.6329 32.9432V28.5043C27.7901 28.4209 27.9444 28.3301 28.0954 28.2323L28.9505 29.0873C28.8025 29.2165 28.7946 29.4626 28.9369 29.599L31.1595 31.8214C31.7795 32.4676 32.8953 32.4675 33.5153 31.8214C34.1616 31.2014 34.1616 30.0858 33.5154 29.4658ZM23.6197 14.365C23.4254 14.365 23.2674 14.2069 23.2674 14.0127V11.2027L26.4301 14.365H23.6197ZM28.6701 27.8105C28.8204 27.6863 28.9664 27.5542 29.107 27.4136C29.2468 27.2738 29.3791 27.1279 29.5039 26.9767L30.2826 27.7553L29.4487 28.589L28.6701 27.8105ZM33.0171 31.3232C32.6594 31.6961 32.0155 31.696 31.6578 31.3232L29.6842 29.35L31.0436 27.9907L33.0172 29.964C33.39 30.3218 33.3901 30.9655 33.0171 31.3232Z" fill="white"/>
<path d="M13.1972 19.6003H14.7384C15.173 19.6003 15.5265 19.2468 15.5265 18.8124V17.2713C15.5265 16.8368 15.173 16.4834 14.7384 16.4834H13.1972C12.7627 16.4834 12.4092 16.8368 12.4092 17.2713V18.8124C12.4092 19.2468 12.7627 19.6003 13.1972 19.6003ZM13.1138 17.2713C13.1138 17.2253 13.1513 17.1879 13.1972 17.1879H14.7384C14.7845 17.1879 14.8219 17.2253 14.8219 17.2713V18.8124C14.8219 18.8584 14.7844 18.8958 14.7384 18.8958H13.1972C13.1512 18.8958 13.1138 18.8584 13.1138 18.8124V17.2713Z" fill="white"/>
<path d="M12.4092 23.7513C12.4092 24.1857 12.7627 24.5392 13.1972 24.5392H14.7384C15.173 24.5392 15.5265 24.1857 15.5265 23.7513V22.2102C15.5265 21.7758 15.173 21.4224 14.7384 21.4224H13.1972C12.7627 21.4224 12.4092 21.7758 12.4092 22.2102V23.7513ZM13.1138 22.2102C13.1138 22.1643 13.1513 22.1268 13.1972 22.1268H14.7384C14.7845 22.1268 14.8219 22.1643 14.8219 22.2102V23.7513C14.8219 23.7973 14.7844 23.8347 14.7384 23.8347H13.1972C13.1512 23.8347 13.1138 23.7973 13.1138 23.7513V22.2102Z" fill="white"/>
<path d="M12.4092 28.7909C12.4092 29.2253 12.7627 29.5788 13.1972 29.5788H14.7384C15.173 29.5788 15.5265 29.2253 15.5265 28.7909V27.2498C15.5265 26.8154 15.173 26.4619 14.7384 26.4619H13.1972C12.7627 26.4619 12.4092 26.8154 12.4092 27.2498V28.7909ZM13.1138 27.2498C13.1138 27.2039 13.1513 27.1664 13.1972 27.1664H14.7384C14.7845 27.1664 14.8219 27.2039 14.8219 27.2498V28.7909C14.8219 28.8369 14.7844 28.8743 14.7384 28.8743H13.1972C13.1512 28.8743 13.1138 28.8369 13.1138 28.7909V27.2498Z" fill="white"/>
</g>
<defs>
<clipPath id="clip0_3750_6748">
<rect width="24" height="24" fill="white" transform="translate(10 10)"/>
</clipPath>
</defs>
</svg>
