<svg width="44" height="44" viewBox="0 0 44 44" fill="none" xmlns="http://www.w3.org/2000/svg">
<rect x="0.5" y="0.5" width="43" height="43" rx="21.5" stroke="#9CA3AF"/>
<g clip-path="url(#clip0_2715_15051)">
<path d="M32.6598 14.5375L33.8891 13.308C33.9246 13.2733 33.9528 13.2319 33.9722 13.1863C33.9915 13.1406 34.0016 13.0915 34.0019 13.0419C34.0022 12.9923 33.9926 12.9432 33.9738 12.8973C33.9549 12.8514 33.9271 12.8098 33.8921 12.7747C33.857 12.7396 33.8153 12.7119 33.7694 12.693C33.7236 12.6742 33.6744 12.6646 33.6248 12.6649C33.5752 12.6652 33.5261 12.6753 33.4805 12.6947C33.4348 12.714 33.3935 12.7423 33.3588 12.7777L32.0255 14.1112C31.9906 14.1461 31.9629 14.1877 31.944 14.2334C31.9252 14.2791 31.9156 14.3281 31.9157 14.3775C31.9157 14.3893 31.9009 15.5775 31.2367 16.2419L30.8002 16.6784L30.2171 16.0953C30.1468 16.0249 30.0514 15.9854 29.9519 15.9854C29.8525 15.9854 29.7571 16.0249 29.6867 16.0953C29.6164 16.1656 29.5769 16.261 29.5769 16.3604C29.5769 16.4599 29.6164 16.5553 29.6867 16.6256L32.3786 19.3174L30.6361 21.0599C30.5865 21.1094 30.5519 21.1718 30.536 21.2401C30.5201 21.3083 30.5237 21.3796 30.5463 21.4459C30.5688 21.5122 30.6095 21.5709 30.6638 21.6152C30.718 21.6596 30.7835 21.6879 30.853 21.6969C31.0299 21.7193 31.1969 21.7908 31.3351 21.9035C31.4733 22.0161 31.5771 22.1652 31.6346 22.334C31.6922 22.5027 31.7013 22.6842 31.6608 22.8578C31.6203 23.0314 31.5319 23.1901 31.4056 23.316C31.2261 23.495 30.983 23.5956 30.7295 23.5956C30.4759 23.5956 30.2328 23.495 30.0533 23.316C29.9053 23.1666 29.8115 22.9721 29.7866 22.7634C29.7776 22.6939 29.7493 22.6283 29.7049 22.5741C29.6606 22.5199 29.6019 22.4792 29.5356 22.4566C29.4693 22.434 29.3979 22.4304 29.3297 22.4463C29.2615 22.4622 29.199 22.4969 29.1495 22.5464L27.1995 24.4964L25.4344 22.7312C25.3848 22.6817 25.3224 22.647 25.2542 22.6312C25.1859 22.6153 25.1146 22.6188 25.0483 22.6414C24.982 22.664 24.9233 22.7047 24.8789 22.759C24.8346 22.8132 24.8063 22.8788 24.7973 22.9482C24.7746 23.1279 24.7019 23.2975 24.5875 23.4379C24.4731 23.5782 24.3215 23.6836 24.1502 23.7421C23.9788 23.8006 23.7945 23.8098 23.6181 23.7686C23.4418 23.7275 23.2805 23.6377 23.1527 23.5094C22.9709 23.3271 22.8688 23.0801 22.8688 22.8227C22.8688 22.5652 22.9709 22.3182 23.1527 22.1359C23.3045 21.9856 23.502 21.8903 23.7141 21.865C23.7835 21.856 23.8491 21.8277 23.9033 21.7833C23.9575 21.739 23.9982 21.6803 24.0208 21.614C24.0434 21.5477 24.0469 21.4764 24.0311 21.4082C24.0152 21.3399 23.9805 21.2775 23.931 21.228L21.9561 19.2531L26.3165 14.8928L25.3449 17.9732C25.3175 18.0601 25.3227 18.1539 25.3594 18.2373C25.3962 18.3206 25.462 18.3877 25.5446 18.4261C25.5905 18.4474 26.6776 18.9404 27.3907 18.218C27.8649 17.7377 28.5059 16.4192 28.7558 15.8832C29.2741 15.8457 30.4534 15.6548 31.0859 14.7071C31.1411 14.6244 31.1611 14.5231 31.1417 14.4256C31.1222 14.328 31.0648 14.2422 30.9821 14.187C30.8994 14.1318 30.7981 14.1117 30.7006 14.1312C30.603 14.1507 30.5172 14.2081 30.462 14.2908C29.884 15.1568 28.5331 15.1423 28.5199 15.142C28.4463 15.1406 28.3738 15.1608 28.3115 15.2001C28.2491 15.2394 28.1997 15.2961 28.1692 15.3632C27.9399 15.8732 27.2572 17.2857 26.857 17.6912C26.6695 17.881 26.3893 17.8796 26.1736 17.8393L27.4927 13.6562C27.518 13.5762 27.5156 13.4899 27.4861 13.4114C27.4565 13.3328 27.4014 13.2664 27.3296 13.2228C27.2579 13.1793 27.1735 13.1611 27.0902 13.1711C27.0068 13.1812 26.9292 13.2189 26.8699 13.2783L25.2486 14.8996L25.4949 14.0969L26.917 12.6745L29.7896 11.9926C29.8572 11.9765 29.919 11.942 29.9682 11.8928L31.2206 10.6401C31.2564 10.6055 31.285 10.5642 31.3047 10.5184C31.3243 10.4727 31.3347 10.4234 31.3351 10.3737C31.3355 10.3239 31.326 10.2745 31.3072 10.2284C31.2883 10.1823 31.2605 10.1404 31.2253 10.1052C31.1901 10.07 31.1482 10.0422 31.1021 10.0233C31.056 10.0045 31.0066 9.99497 30.9569 9.99541C30.9071 9.99584 30.8579 10.0062 30.8121 10.0258C30.7664 10.0455 30.725 10.0741 30.6904 10.1099L29.513 11.2874L26.6404 11.9695C26.5728 11.9855 26.5109 12.0201 26.4618 12.0692L24.8985 13.6328C24.8552 13.6761 24.8231 13.7294 24.8052 13.788L24.1173 16.0312L21.1606 18.9878C21.0903 19.0581 21.0508 19.1535 21.0508 19.253C21.0508 19.3524 21.0903 19.4478 21.1606 19.5181L22.9769 21.3344C22.8472 21.4086 22.728 21.4998 22.6224 21.6055C22.4626 21.7653 22.3358 21.9551 22.2493 22.1639C22.1628 22.3728 22.1183 22.5966 22.1183 22.8226C22.1182 23.0487 22.1628 23.2725 22.2493 23.4813C22.3358 23.6902 22.4625 23.8799 22.6224 24.0398C22.9452 24.3626 23.383 24.544 23.8395 24.544C24.0655 24.544 24.2894 24.4995 24.4982 24.413C24.7071 24.3265 24.8968 24.1997 25.0567 24.0399C25.1624 23.9343 25.2536 23.8151 25.3279 23.6854L26.9344 25.2919C26.9692 25.3268 27.0105 25.3544 27.0561 25.3732C27.1016 25.3921 27.1503 25.4018 27.1996 25.4018C27.2488 25.4018 27.2976 25.3921 27.3431 25.3732C27.3886 25.3544 27.4299 25.3268 27.4648 25.2919L29.2569 23.4998C29.33 23.6264 29.4195 23.743 29.523 23.8463C29.8434 24.1643 30.2767 24.3423 30.7281 24.3415C31.1795 24.3406 31.6122 24.1609 31.9314 23.8417C32.2505 23.5225 32.4302 23.0899 32.4311 22.6385C32.432 22.1871 32.2539 21.7537 31.9359 21.4333C31.8326 21.3298 31.7161 21.2404 31.5894 21.1673L33.174 19.5825C33.2443 19.5122 33.2838 19.4168 33.2838 19.3174C33.2838 19.2179 33.2443 19.1225 33.174 19.0522L31.3305 17.2088L31.7671 16.7722C32.4956 16.0436 32.6337 14.9494 32.6598 14.5375Z" fill="#1F2937"/>
<path d="M23.1259 24.8188C23.0759 24.7689 23.0129 24.734 22.9441 24.7183C22.8753 24.7026 22.8034 24.7067 22.7368 24.73C22.6701 24.7534 22.6114 24.795 22.5674 24.8502C22.5234 24.9055 22.4959 24.972 22.488 25.0421C22.4691 25.2217 22.3997 25.3923 22.2879 25.5341C22.176 25.6758 22.0263 25.7831 21.8561 25.8433C21.6859 25.9036 21.5021 25.9144 21.3259 25.8745C21.1498 25.8346 20.9886 25.7457 20.8609 25.618C20.7332 25.4903 20.6443 25.3291 20.6044 25.153C20.5645 24.9769 20.5753 24.793 20.6356 24.6228C20.6958 24.4526 20.8031 24.3029 20.9448 24.1911C21.0866 24.0792 21.2572 24.0098 21.4368 23.9909C21.5069 23.983 21.5735 23.9555 21.6287 23.9115C21.6839 23.8675 21.7256 23.8088 21.7489 23.7422C21.7723 23.6755 21.7763 23.6037 21.7606 23.5348C21.7449 23.466 21.7101 23.403 21.6602 23.3531L19.6145 21.3075C19.5797 21.2726 19.5384 21.245 19.4929 21.2262C19.4474 21.2073 19.3986 21.1976 19.3494 21.1976C19.3001 21.1976 19.2514 21.2073 19.2059 21.2262C19.1604 21.245 19.119 21.2726 19.0842 21.3075L17.4995 22.8921C17.4265 22.7654 17.337 22.6489 17.2335 22.5456C16.9427 22.2552 16.5569 22.0795 16.147 22.0508C15.7371 22.0221 15.3305 22.1423 15.0022 22.3893C14.6738 22.6364 14.4455 22.9936 14.3594 23.3954C14.2733 23.7972 14.3351 24.2166 14.5335 24.5765L13.7887 24.8065C13.7304 24.8245 13.6773 24.8564 13.634 24.8996L12.0706 26.4629C12.0214 26.512 11.9869 26.5738 11.9709 26.6414L11.289 29.5141L10.1115 30.6914C10.0763 30.7262 10.0484 30.7675 10.0292 30.8131C10.0101 30.8587 10.0002 30.9076 10 30.957C9.99985 31.0065 10.0095 31.0555 10.0283 31.1012C10.0472 31.1469 10.0748 31.1884 10.1098 31.2234C10.1448 31.2583 10.1863 31.286 10.232 31.3049C10.2777 31.3237 10.3267 31.3334 10.3761 31.3332C10.4255 31.3331 10.4744 31.3232 10.52 31.304C10.5656 31.2849 10.607 31.257 10.6417 31.2218L11.8944 29.9693C11.9436 29.9202 11.9781 29.8584 11.9941 29.7908L12.6763 26.9181L14.0989 25.4957L15.1038 25.1853C15.1247 25.1987 15.1455 25.2122 15.167 25.2246L13.3749 27.0168C13.3146 27.077 13.2766 27.1558 13.2671 27.2405C13.2576 27.3251 13.2772 27.4104 13.3226 27.4824C13.3681 27.5545 13.4367 27.6088 13.5172 27.6367C13.5977 27.6645 13.6853 27.6641 13.7655 27.6356L17.8432 26.1885C17.881 26.4024 17.8783 26.6748 17.6925 26.8582C17.2871 27.2584 15.8746 27.941 15.3645 28.1704C15.2975 28.2008 15.2409 28.2501 15.2016 28.3123C15.1622 28.3744 15.142 28.4468 15.1434 28.5203C15.1434 28.5339 15.1582 29.8853 14.2922 30.4632C14.2094 30.5184 14.152 30.6042 14.1326 30.7017C14.1131 30.7993 14.1332 30.9005 14.1884 30.9833C14.2436 31.066 14.3294 31.1234 14.4269 31.1429C14.5245 31.1623 14.6257 31.1423 14.7085 31.0871C15.6562 30.4547 15.8472 29.2754 15.8847 28.757C16.4206 28.5072 17.7391 27.8661 18.2194 27.3919C18.9419 26.6789 18.4491 25.5919 18.4275 25.5458C18.3882 25.4611 18.3187 25.3942 18.2326 25.3581C18.1465 25.3219 18.05 25.3192 17.962 25.3504L15.0789 26.3734L16.1203 25.3321C16.1699 25.2825 16.2045 25.2201 16.2204 25.1519C16.2363 25.0837 16.2327 25.0124 16.2102 24.9461C16.1876 24.8797 16.1469 24.8211 16.0927 24.7767C16.0385 24.7324 15.9729 24.7041 15.9035 24.695C15.6947 24.6701 15.5002 24.5762 15.3508 24.4283C15.262 24.3395 15.1916 24.2341 15.1436 24.118C15.0955 24.002 15.0708 23.8777 15.0708 23.7521C15.0708 23.6265 15.0955 23.5022 15.1436 23.3862C15.1916 23.2701 15.262 23.1647 15.3508 23.0759C15.4396 22.9871 15.5451 22.9167 15.6611 22.8686C15.7771 22.8206 15.9014 22.7958 16.027 22.7958C16.1526 22.7958 16.2769 22.8206 16.393 22.8686C16.509 22.9167 16.6144 22.9871 16.7032 23.0759C16.8511 23.2253 16.945 23.4198 16.9699 23.6285C16.9789 23.698 17.0072 23.7636 17.0515 23.8178C17.0959 23.872 17.1546 23.9127 17.2209 23.9353C17.2872 23.9579 17.3585 23.9615 17.4267 23.9456C17.495 23.9297 17.5574 23.895 17.6069 23.8455L19.3494 22.1031L20.6999 23.4536C20.567 23.5283 20.4449 23.621 20.3372 23.7289C20.1778 23.8871 20.0512 24.0753 19.9646 24.2825C19.8781 24.4898 19.8333 24.7121 19.8329 24.9367C19.8324 25.1613 19.8764 25.3838 19.9621 25.5914C20.0479 25.799 20.1738 25.9877 20.3326 26.1465C20.4914 26.3053 20.6801 26.4312 20.8877 26.517C21.0953 26.6027 21.3177 26.6467 21.5424 26.6462C21.767 26.6458 21.9893 26.601 22.1966 26.5145C22.4038 26.4279 22.592 26.3013 22.7502 26.1419C22.8581 26.0342 22.9507 25.9121 23.0255 25.7792L24.5928 27.3466L23.2733 28.6661C23.2002 28.5394 23.1108 28.4229 23.0073 28.3195C22.8488 28.1611 22.6607 28.0354 22.4537 27.9496C22.2467 27.8639 22.0248 27.8198 21.8008 27.8198C21.5767 27.8198 21.3548 27.8639 21.1478 27.9497C20.9408 28.0354 20.7527 28.1611 20.5943 28.3195C20.4358 28.478 20.3101 28.6661 20.2244 28.8731C20.1386 29.0801 20.0945 29.302 20.0945 29.526C20.0945 29.7501 20.1387 29.972 20.2244 30.179C20.3102 30.386 20.4358 30.5741 20.5943 30.7325C20.6976 30.836 20.8141 30.9255 20.9408 30.9986L19.4138 32.5256L16.6117 29.7235C16.5771 29.6878 16.5357 29.6594 16.49 29.6398C16.4443 29.6203 16.3952 29.61 16.3455 29.6096C16.2958 29.6093 16.2465 29.6188 16.2005 29.6376C16.1545 29.6565 16.1127 29.6843 16.0776 29.7194C16.0424 29.7545 16.0146 29.7963 15.9957 29.8423C15.9768 29.8883 15.9673 29.9376 15.9677 29.9873C15.968 30.037 15.9782 30.0861 15.9977 30.1318C16.0172 30.1775 16.0456 30.2189 16.0813 30.2536L16.6545 30.8268L16.2434 31.2378C15.5734 31.9078 14.3901 31.9169 14.3791 31.9169H14.3779C14.2784 31.9169 14.1831 31.9564 14.1127 32.0267L12.7794 33.3598C12.744 33.3945 12.7157 33.4359 12.6964 33.4815C12.677 33.5272 12.6669 33.5762 12.6666 33.6258C12.6663 33.6754 12.6759 33.7246 12.6947 33.7705C12.7136 33.8164 12.7413 33.858 12.7764 33.8931C12.8115 33.9282 12.8531 33.956 12.899 33.9748C12.9449 33.9937 12.994 34.0032 13.0436 34.003C13.0932 34.0027 13.1423 33.9926 13.188 33.9732C13.2336 33.9539 13.275 33.9256 13.3097 33.8902L14.5391 32.6609C14.951 32.6348 16.0451 32.4968 16.7736 31.7682L17.1848 31.3571L19.1485 33.3209C19.1833 33.3557 19.2247 33.3833 19.2702 33.4022C19.3157 33.421 19.3644 33.4307 19.4137 33.4307C19.4629 33.4307 19.5117 33.421 19.5572 33.4022C19.6027 33.3833 19.644 33.3557 19.6789 33.3209L21.894 31.1057C21.9435 31.0562 21.9782 30.9937 21.994 30.9255C22.0099 30.8573 22.0064 30.786 21.9838 30.7197C21.9612 30.6533 21.9205 30.5947 21.8663 30.5503C21.812 30.506 21.7465 30.4777 21.677 30.4687C21.4992 30.4467 21.3312 30.3752 21.1921 30.2624C21.053 30.1495 20.9484 29.9999 20.8902 29.8305C20.8319 29.6611 20.8225 29.4788 20.8628 29.3043C20.9031 29.1298 20.9917 28.9701 21.1183 28.8435C21.245 28.7168 21.4047 28.6283 21.5792 28.588C21.7537 28.5476 21.936 28.5571 22.1054 28.6154C22.2748 28.6736 22.4244 28.7783 22.5372 28.9174C22.65 29.0565 22.7215 29.2245 22.7435 29.4023C22.7525 29.4717 22.7808 29.5373 22.8252 29.5915C22.8695 29.6457 22.9282 29.6864 22.9945 29.709C23.0608 29.7316 23.1322 29.7351 23.2004 29.7193C23.2686 29.7034 23.331 29.6687 23.3806 29.6192L25.3882 27.6116C25.423 27.5767 25.4506 27.5354 25.4695 27.4899C25.4883 27.4444 25.498 27.3956 25.498 27.3464C25.498 27.2971 25.4883 27.2484 25.4695 27.2029C25.4506 27.1574 25.423 27.116 25.3882 27.0812L23.1259 24.8188Z" fill="#1F2937"/>
</g>
<defs>
<clipPath id="clip0_2715_15051">
<rect width="24" height="24" fill="white" transform="translate(10 10)"/>
</clipPath>
</defs>
</svg>
