<svg width="72" height="72" viewBox="0 0 72 72" fill="none" xmlns="http://www.w3.org/2000/svg">
<g clip-path="url(#clip0_3750_7384)">
<path d="M70.9453 49.7208H59.4853C58.2899 48.5577 56.7455 47.6699 54.8643 47.0734C52.2823 46.2549 49.8703 46.2656 49.1906 46.2888C48.5491 46.307 47.9383 46.0263 47.5611 45.5269L42.143 38.3595C41.2553 37.1843 39.8953 36.4937 38.4651 36.4299V9.28125H52.7791L45.4635 31.5946H45.0592C44.6543 31.5946 44.2656 31.77 43.9931 32.0759C43.7088 32.3948 43.5742 32.8245 43.6236 33.255C44.0716 37.1499 48.7088 40.0871 54.4106 40.0871C60.1124 40.0871 64.7496 37.1499 65.1977 33.2551C65.2472 32.8245 65.1126 32.3948 64.8281 32.0759C64.5556 31.77 64.1669 31.5946 63.762 31.5946H63.3687L56.3819 9.28125H58.507C60.4053 9.28125 61.9495 7.73705 61.9495 5.83298C61.9495 3.93483 60.4053 2.39062 58.507 2.39062H37.8977C36.8347 0.942469 35.1214 0 33.1913 0C31.2612 0 29.5478 0.942469 28.4848 2.39062H18.1839C17.6015 2.39062 17.1292 2.8627 17.1292 3.44531C17.1292 4.02792 17.6015 4.5 18.1839 4.5H27.5114C27.4105 4.92933 27.3553 5.37623 27.3553 5.83594C27.3553 6.29564 27.4105 6.74255 27.5114 7.17188H11.3363C11.3331 7.17188 11.3299 7.17188 11.3266 7.17188H7.87639C7.14135 7.17188 6.54327 6.5738 6.54327 5.83298C6.54327 5.09794 7.14135 4.5 7.87639 4.5H13.4243C14.0068 4.5 14.479 4.02792 14.479 3.44531C14.479 2.8627 14.0068 2.39062 13.4243 2.39062H7.87639C5.9781 2.39062 4.43389 3.93483 4.43389 5.83875C4.43389 7.73705 5.9781 9.28125 7.87639 9.28125H9.16564L1.84864 31.5946H1.44561C1.04075 31.5946 0.652064 31.77 0.379533 32.0759C0.0951892 32.3948 -0.0395295 32.8245 0.0101111 33.255C0.458002 37.1499 5.09539 40.0871 10.7972 40.0871C16.499 40.0871 21.1363 37.1499 21.5844 33.2549C21.6337 32.8243 21.499 32.3945 21.2147 32.0756C20.9421 31.77 20.5536 31.5946 20.1487 31.5946H19.7554L12.7683 9.28125H27.9183V49.4381H26.1197C24.8292 49.4381 23.5794 49.8227 22.5207 50.5342L16.818 46.0598C15.1543 44.7542 12.9421 44.6124 11.1695 45.5133L9.21613 44.4937C6.64297 43.1516 3.45556 44.1536 2.11133 46.726C1.45869 47.9734 1.33128 49.3995 1.75245 50.7416C2.1732 52.0824 3.0912 53.1787 4.33686 53.8284L19.5242 61.7527C19.7027 61.8452 19.8868 61.9239 20.072 61.9954L24.607 65.5536C24.8002 65.7051 25.0295 65.7786 25.2574 65.7786C25.5703 65.7786 25.8798 65.6402 26.0879 65.375C26.4475 64.9167 26.3675 64.2537 25.9092 63.8942L11.6129 52.677C10.9498 52.1567 10.5293 51.4095 10.4289 50.5734C10.3285 49.7378 10.5601 48.9129 11.0807 48.251C12.1566 46.8831 14.1463 46.6448 15.516 47.7193L21.8839 52.7155C21.8856 52.7168 21.8871 52.7182 21.8888 52.7195L32.0643 60.7032C32.4253 60.9865 32.9282 61.0038 33.308 60.7459C33.3869 60.6923 39.5186 56.5575 45.4404 54.4662C45.4459 54.4642 45.4513 54.4624 45.4567 54.4603C47.1551 53.8615 48.8357 53.4309 50.3508 53.3137C53.8256 53.0454 56.8635 53.9405 58.9086 55.834C60.7006 57.493 61.6479 59.8334 61.6479 62.6027C61.6479 63.1853 62.12 63.6574 62.7026 63.6574C63.2852 63.6574 63.7573 63.1853 63.7573 62.6027C63.7573 59.2305 62.5763 56.3546 60.3418 54.286C57.8603 51.9889 54.2559 50.8957 50.1883 51.2107C48.7268 51.3236 47.1508 51.6876 45.56 52.1999C44.5051 50.681 42.8602 49.6948 41.0175 49.482L38.4654 46.1187V38.5404C39.2428 38.6011 39.9756 38.9893 40.4606 39.6309L45.8785 46.7982C46.6689 47.8447 47.9343 48.4414 49.2629 48.3967C50.0112 48.3702 56.6567 48.2798 59.2349 52.8036C59.4294 53.1449 59.7856 53.3361 60.152 53.3361C60.3291 53.3361 60.5085 53.2915 60.6733 53.1976C61.1561 52.9224 61.3379 52.3239 61.1031 51.8299H69.8906V58.4961C69.8906 59.0787 70.3627 59.5507 70.9453 59.5507C71.5279 59.5507 72 59.0787 72 58.4961V50.7755C72 50.193 71.5279 49.7208 70.9453 49.7208ZM11.1845 55.0218L5.31252 51.958C4.56664 51.569 4.01708 50.9126 3.76522 50.1099C3.51294 49.3058 3.58944 48.4512 3.9808 47.7031C4.78686 46.16 6.6981 45.5593 8.24061 46.3638L9.40442 46.9713C8.54844 48.0724 8.16819 49.4394 8.33455 50.825C8.50217 52.221 9.20403 53.468 10.3109 54.3365L11.1845 55.0218ZM54.4106 37.9776C50.3158 37.9776 46.7049 36.1156 45.8766 33.7039H62.9444C62.1163 36.1156 58.5055 37.9776 54.4106 37.9776ZM47.6834 31.5946L54.5757 10.5722L61.1582 31.5946H47.6834ZM58.507 4.5C59.2422 4.5 59.8401 5.09808 59.8401 5.83875C59.8401 6.57394 59.2421 7.17188 58.507 7.17188H54.9501C54.9468 7.17188 54.9436 7.17188 54.9403 7.17188H54.2533C54.2506 7.17188 54.2479 7.17188 54.2452 7.17188H38.871C38.972 6.74255 39.0271 6.29564 39.0271 5.83594C39.0271 5.37623 38.972 4.92933 38.871 4.5H58.507ZM33.1913 2.10938C35.2461 2.10938 36.9177 3.78112 36.9177 5.83594C36.9177 7.89075 35.2461 9.5625 33.1913 9.5625C31.1365 9.5625 29.4647 7.89075 29.4647 5.83594C29.4647 3.78112 31.1365 2.10938 33.1913 2.10938ZM10.797 37.9776C6.70217 37.9776 3.09149 36.1156 2.26306 33.7039H19.331C18.5027 36.1156 14.8919 37.9776 10.797 37.9776ZM4.06841 31.5946L10.9621 10.572L17.5448 31.5946H4.06841ZM30.0276 10.7362C30.9399 11.3271 32.0258 11.6719 33.1913 11.6719C34.3572 11.6719 35.4434 11.3268 36.3558 10.7355V37.5896V37.5922V49.438H30.0276V10.7362ZM43.4655 52.9515C38.8057 54.7848 34.3955 57.5201 32.7684 58.5747L24.3138 51.9411C24.8758 51.6842 25.4904 51.5475 26.1197 51.5475H40.2637C41.5063 51.5475 42.6556 52.0663 43.4655 52.9515Z" fill="#076AAB"/>
<path d="M70.9455 61.9418C70.3629 61.9418 69.8908 62.4139 69.8908 62.9965V65.9717L59.1153 66.3253C59.0765 66.3266 59.0383 66.3303 59.0006 66.3356C58.9992 66.3357 58.9976 66.3357 58.9961 66.336L35.1058 69.8569C34.954 69.8792 34.7987 69.8906 34.6446 69.8906C33.9402 69.8906 33.2471 69.6513 32.6933 69.2167L29.4489 66.671C28.9906 66.3113 28.3277 66.3914 27.9681 66.8497C27.6086 67.308 27.6886 67.9711 28.1469 68.3305L31.3914 70.8764C32.3151 71.6009 33.4705 72 34.6447 72C34.9015 72 35.1603 71.981 35.4137 71.9437L59.2446 68.4316L62.1497 68.3363C62.1503 68.3363 62.1508 68.3361 62.1514 68.3361L70.9803 68.0463C71.549 68.0276 72.0004 67.5611 72.0004 66.9922V62.9963C72.0002 62.4138 71.5281 61.9418 70.9455 61.9418Z" fill="#076AAB"/>
</g>
<defs>
<clipPath id="clip0_3750_7384">
<rect width="72" height="72" fill="white"/>
</clipPath>
</defs>
</svg>
