<svg width="44" height="44" viewBox="0 0 44 44" fill="none" xmlns="http://www.w3.org/2000/svg">
<rect x="0.5" y="0.5" width="43" height="43" rx="21.5" stroke="#9CA3AF"/>
<g clip-path="url(#clip0_3848_1628)">
<path d="M33.9771 33.5236L30.4614 24.2625C30.4322 24.1856 30.377 24.1213 30.3054 24.081L26.5607 21.9713L27.654 20.2379C28.3249 19.1732 28.6796 17.9428 28.6796 16.6797C28.6796 12.9965 25.6832 10 22 10C18.3168 10 15.3203 12.9965 15.3203 16.6797C15.3203 17.9431 15.6751 19.1736 16.3465 20.238C16.3644 20.2665 17.4395 21.9714 17.4395 21.9714L13.6947 24.081C13.623 24.1213 13.5677 24.1856 13.5385 24.2625L10.0229 33.5236C9.97036 33.6619 10.0102 33.8184 10.1223 33.9149C10.2346 34.0115 10.3952 34.0274 10.5241 33.9547L16.1758 30.7706L21.8274 33.9547C21.9345 34.015 22.0654 34.015 22.1725 33.9547L27.8241 30.7706L33.4757 33.9547C33.5296 33.985 33.5891 34 33.6483 34C33.7306 34 33.8123 33.9711 33.8776 33.915C33.9899 33.8184 34.0296 33.6619 33.9771 33.5236ZM22.3516 28.2208C22.5715 28.1432 22.7622 27.9936 22.8916 27.7887C22.9095 27.7606 25.9023 23.0153 25.9023 23.0153L27.4267 30.1875L22.3516 33.0467V28.2208ZM16.9412 19.8629C16.3408 18.9108 16.0235 17.8101 16.0235 16.6796C16.0235 13.3841 18.7045 10.7031 22 10.7031C25.2955 10.7031 27.9766 13.3841 27.9766 16.6796C27.9766 17.8099 27.6593 18.9107 27.0593 19.8629C27.0123 19.9372 22.3801 27.2831 22.2993 27.41C22.2985 27.4111 22.2979 27.4122 22.2971 27.4133C22.2319 27.5164 22.1209 27.578 22 27.578C21.879 27.578 21.7675 27.5161 21.7022 27.4135C21.6552 27.339 17.0137 19.9786 16.9428 19.8654C16.9423 19.8646 16.9417 19.8637 16.9412 19.8629ZM14.1507 24.6311L17.428 22.7848L16.857 25.4709C16.8167 25.6609 16.9379 25.8475 17.1278 25.8879C17.1524 25.8932 17.1771 25.8957 17.2012 25.8957C17.3637 25.8957 17.5096 25.7824 17.5447 25.6172L18.0977 23.0155L21.1081 27.7897C21.238 27.994 21.4288 28.1432 21.6484 28.2207V33.0468L16.5733 30.1876L17.2524 26.9926C17.2928 26.8027 17.1716 26.616 16.9817 26.5756C16.7916 26.535 16.605 26.6565 16.5647 26.8464L15.8649 30.1387L11.0248 32.8656L14.1507 24.6311ZM28.1351 30.1387L26.5721 22.7848L29.8493 24.6311L32.9753 32.8656L28.1351 30.1387Z" fill="#1F2937"/>
<path d="M25.8672 16.6797C25.8672 14.5473 24.1323 12.8125 22 12.8125C19.8677 12.8125 18.1328 14.5473 18.1328 16.6797C18.1328 18.812 19.8677 20.5469 22 20.5469C24.1323 20.5469 25.8672 18.812 25.8672 16.6797ZM18.8359 16.6797C18.8359 14.935 20.2553 13.5156 22 13.5156C23.7447 13.5156 25.1641 14.935 25.1641 16.6797C25.1641 18.4244 23.7447 19.8438 22 19.8438C20.2553 19.8438 18.8359 18.4244 18.8359 16.6797Z" fill="#1F2937"/>
<path d="M24.4609 16.6797C24.4609 15.3227 23.3569 14.2188 22 14.2188C20.6431 14.2188 19.5391 15.3227 19.5391 16.6797C19.5391 18.0366 20.6431 19.1406 22 19.1406C23.3569 19.1406 24.4609 18.0366 24.4609 16.6797ZM20.2422 16.6797C20.2422 15.7104 21.0307 14.9219 22 14.9219C22.9693 14.9219 23.7578 15.7104 23.7578 16.6797C23.7578 17.649 22.9693 18.4375 22 18.4375C21.0307 18.4375 20.2422 17.649 20.2422 16.6797Z" fill="#1F2937"/>
</g>
<defs>
<clipPath id="clip0_3848_1628">
<rect width="24" height="24" fill="white" transform="translate(10 10)"/>
</clipPath>
</defs>
</svg>
