<svg width="179" height="40" viewBox="0 0 179 40" fill="none" xmlns="http://www.w3.org/2000/svg">
<path fill-rule="evenodd" clip-rule="evenodd" d="M28.8742 19.1538C28.8742 21.7829 28.2146 24.2213 26.8955 26.4491C25.6186 28.6323 23.8652 30.384 21.651 31.6961L21.6461 31.6991C19.4529 32.9818 17.033 33.6198 14.4082 33.6198C11.8188 33.6198 9.4026 32.9803 7.1776 31.703L7.1678 31.6976C7.1678 35.6417 3.94028 39.6528 0 40L0 19.1538C2.61781e-05 16.5644 0.639525 14.1483 1.91684 11.9233L1.92027 11.9174L1.9237 11.911C3.23582 9.69688 4.98716 7.94337 7.17025 6.66643L7.17417 6.66447L7.1776 6.66251C9.4026 5.38519 11.8188 4.74569 14.4082 4.74567C17.0303 4.74567 19.4479 5.38241 21.6392 6.66251L21.8466 6.7836C23.9699 8.04784 25.6557 9.76105 26.8926 11.911C28.212 14.1376 28.8741 16.5583 28.8742 19.1538ZM19.7964 13.7656C21.2963 15.2656 22.0338 17.0434 22.0338 19.1538C22.0338 21.2643 21.2964 23.0421 19.7964 24.5421L19.7925 24.546L19.7885 24.5504C18.3333 26.0395 16.5614 26.7795 14.4082 26.7795C12.2977 26.7795 10.5199 26.042 9.01993 24.5421C7.52003 23.0421 6.78296 21.2643 6.78296 19.1538C6.783 17.0434 7.51996 15.2656 9.01993 13.7656C10.5199 12.2656 12.2977 11.5287 14.4082 11.5286C16.494 11.5286 18.2219 12.223 19.6508 13.62L19.7964 13.7656Z" fill="#076AAB"/>
<path d="M6.10167 4.74567H0V11.5253C1.94499 7.08772 5.08865 5.15655 6.10167 4.74567Z" fill="#076AAB"/>
<path d="M8.90705 19.5781C9.4254 19.5781 9.8456 19.1579 9.8456 18.6395C9.8456 18.1212 9.4254 17.701 8.90705 17.701C8.38871 17.701 7.96851 18.1212 7.96851 18.6395C7.96851 19.1579 8.38871 19.5781 8.90705 19.5781Z" fill="#076AAB"/>
<path d="M13.42 24.4818C13.312 24.9847 12.8134 25.311 12.3305 25.1339C11.4446 24.809 10.6345 24.298 9.9567 23.6315C9.27886 22.9649 8.75438 22.1635 8.41466 21.2832C8.22946 20.8033 8.54732 20.2993 9.04835 20.1829V20.1829C9.54938 20.0665 10.0419 20.3841 10.253 20.8532C10.4956 21.3926 10.8372 21.8849 11.2627 22.3033C11.6883 22.7218 12.1862 23.055 12.7296 23.2886C13.2022 23.4917 13.528 23.9789 13.42 24.4818V24.4818Z" fill="#076AAB"/>
<path d="M127.33 20.9824C127.33 12.3075 133.185 6.50627 142.457 6.50627C150.264 6.50627 156.77 11.3316 156.77 19.139C156.77 20.2775 156.607 21.4161 156.228 22.6631H134.595C135.3 26.7836 139.095 29.6572 143.432 29.6572C146.794 29.6572 149.939 28.2475 151.945 26.1872L155.957 30.7957C153.246 33.7777 148.366 35.5127 143.378 35.5127C134.92 35.5127 127.33 30.362 127.33 20.9824ZM149.396 18.3257C149.396 14.2052 145.981 11.928 142.023 11.928C138.282 11.928 134.975 14.6389 134.703 18.3257H149.396Z" fill="#111827"/>
<path d="M97.1123 6.83158H104.432V11.9822C106.221 8.51232 110.179 6.50627 114.191 6.50627C120.209 6.50627 124.004 11.0605 124.004 18.2715V35.1874H116.631V18.7052C116.631 15.398 114.679 12.9039 111.263 12.8497C107.522 12.7955 104.432 15.9943 104.432 19.8438V35.1874H97.1123V6.83158Z" fill="#111827"/>
<path fill-rule="evenodd" clip-rule="evenodd" d="M82.1537 35.7756L61.9514 7.16537H71.0016L80.9744 21.0998L91.1454 35.7756H82.1537Z" fill="#111827"/>
<path fill-rule="evenodd" clip-rule="evenodd" d="M91.8175 16.2841L91.9766 7.16513H84.9146L84.7588 16.0965C84.7116 18.8011 81.8276 20.4446 79.4993 19.0999L77.8453 18.1448C71.0634 14.2283 62.61 18.7658 62.0888 26.6275L62.0662 35.7753H69.1459L69.1328 27.1665C69.3067 24.5432 72.116 23.0287 74.385 24.3391L76.039 25.2942C83.0216 29.3271 91.676 24.3972 91.8175 16.2841Z" fill="#BDEB11"/>
<path d="M84.7588 16.0965C84.7116 18.8011 81.8276 20.4446 79.4993 19.0999L77.8453 18.1448C71.0634 14.2283 62.61 18.7658 62.0888 26.6275L62.0662 35.7753H69.1459L69.1328 27.1665C69.3067 24.5432 72.116 23.0287 74.385 24.3391L76.039 25.2942C83.0216 29.3271 91.676 24.3972 91.8175 16.2841L91.9766 7.16513H84.9146L84.7588 16.0965Z" fill="#BDEB11"/>
<path d="M31.1753 20.9824C31.1753 12.3075 37.0308 6.50627 46.302 6.50627C54.1093 6.50627 60.6154 11.3316 60.6154 19.139C60.6154 20.2775 60.4527 21.4161 60.0732 22.6631H38.4404C39.1453 26.7836 42.9405 29.6572 47.2779 29.6572C50.6394 29.6572 53.784 28.2475 55.79 26.1872L59.8021 30.7957C57.0913 33.7777 52.2117 35.5127 47.2237 35.5127C38.7657 35.5127 31.1753 30.362 31.1753 20.9824ZM53.2418 18.3257C53.2418 14.2052 49.8261 11.928 45.8682 11.928C42.1272 11.928 38.82 14.6389 38.5489 18.3257H53.2418Z" fill="#111827"/>
<path d="M169.98 7.04811H177.679V12.9578H169.98V25.7532C169.98 27.705 170.901 29.3315 172.799 29.3857C174.209 29.6026 175.889 29.0062 177.028 28.4098L178.492 34.1569C176.432 35.0786 173.883 35.7834 171.389 35.7834C165.642 35.7834 162.552 31.9882 162.552 26.4038V12.9578H159.299V7.04811H162.551H166.347H169.98Z" fill="#111827"/>
<path d="M171.014 5.42185H161.255L165.986 9.15527e-05L171.014 5.42185Z" fill="#111827"/>
</svg>
