<svg width="44" height="44" viewBox="0 0 44 44" fill="none" xmlns="http://www.w3.org/2000/svg">
<rect x="0.5" y="0.5" width="43" height="43" rx="21.5" stroke="#374151"/>
<g clip-path="url(#clip0_3757_13091)">
<path d="M14.8882 12.6377C13.6473 12.6377 12.6382 13.6468 12.6382 14.8877C12.6382 16.1286 13.6473 17.1377 14.8882 17.1377C16.1291 17.1377 17.1382 16.1286 17.1382 14.8877C17.1382 13.6468 16.1291 12.6377 14.8882 12.6377ZM14.8882 16.3877C14.0609 16.3877 13.3882 15.7149 13.3882 14.8877C13.3882 14.0604 14.0609 13.3877 14.8882 13.3877C15.7154 13.3877 16.3882 14.0604 16.3882 14.8877C16.3882 15.7149 15.7154 16.3877 14.8882 16.3877Z" fill="#F9FAFB"/>
<path d="M31.6401 28.2646L31.1099 27.7344L28.375 30.4692L27.8901 29.9844L27.3599 30.5146L28.375 31.5298L31.6401 28.2646Z" fill="white"/>
<path d="M23.125 14.5H23.875V15.25H23.125V14.5Z" fill="white"/>
<path d="M27.625 14.5H28.375V15.25H27.625V14.5Z" fill="white"/>
<path d="M26.125 14.5H26.875V15.25H26.125V14.5Z" fill="white"/>
<path d="M24.625 14.5H25.375V15.25H24.625V14.5Z" fill="white"/>
<path d="M19 23.8746H25C25.6203 23.8746 26.125 23.3698 26.125 22.7496V22.3746H31C32.4471 22.3746 33.625 21.1971 33.625 19.7496V17.1246C33.625 15.6771 32.4471 14.4996 31 14.4996H29.875V14.1246C29.875 13.5043 29.3703 12.9996 28.75 12.9996H22.75C22.1297 12.9996 21.625 13.5043 21.625 14.1246V14.4996H19.3881V13.8516L18.4037 13.5827C18.3715 13.4964 18.3355 13.4106 18.2965 13.3258L18.8031 12.4386L17.3376 10.9731L16.4507 11.4793C16.3656 11.4403 16.2801 11.4043 16.1939 11.3721L15.9246 10.3877H13.852L13.5827 11.3721C13.4965 11.4043 13.411 11.4399 13.3262 11.4793L12.439 10.9731L10.9735 12.4386L11.4798 13.3258C11.4408 13.4106 11.4048 13.4964 11.3725 13.5827L10.3881 13.8516V15.9238L11.3725 16.1931C11.4048 16.2793 11.4408 16.3652 11.4798 16.4499L10.9731 17.3372L12.4386 18.8023L13.3259 18.2961C13.4106 18.3351 13.4961 18.3711 13.5824 18.4033L13.8516 19.3877H15.9243L16.1935 18.4033C16.2794 18.3711 16.3653 18.3351 16.4504 18.2961L17.3372 18.8019L18.8028 17.3368L18.2961 16.4496C18.3351 16.3648 18.3711 16.2789 18.4034 16.1927L19.3878 15.9234V15.2496H21.625V15.6246C21.625 16.2448 22.1297 16.7496 22.75 16.7496H28.75C29.3703 16.7496 29.875 16.2448 29.875 15.6246V15.2496H31C32.0339 15.2496 32.875 16.0907 32.875 17.1246V19.7496C32.875 20.7834 32.0339 21.6246 31 21.6246H26.125V21.2496C26.125 20.6293 25.6203 20.1246 25 20.1246H19C18.3797 20.1246 17.875 20.6293 17.875 21.2496V21.6246H13C11.5529 21.6246 10.375 22.8024 10.375 24.2496V27.2496C10.375 28.6967 11.5529 29.8746 13 29.8746H14.125V30.2496C14.125 30.8698 14.6297 31.3746 15.25 31.3746H21.25C21.8703 31.3746 22.375 30.8698 22.375 30.2496V29.8746H25.3941C25.5842 31.9738 27.352 33.6246 29.5 33.6246C31.7744 33.6246 33.625 31.7739 33.625 29.4996C33.625 27.2252 31.7744 25.3746 29.5 25.3746C27.352 25.3746 25.5842 27.0253 25.3941 29.1246H22.375V28.7496C22.375 28.1293 21.8703 27.6246 21.25 27.6246H15.25C14.6297 27.6246 14.125 28.1293 14.125 28.7496V29.1246H13C11.9661 29.1246 11.125 28.2834 11.125 27.2496V24.2496C11.125 23.2157 11.9661 22.3746 13 22.3746H17.875V22.7496C17.875 23.3698 18.3797 23.8746 19 23.8746ZM18.6381 15.3516L17.8157 15.5766L17.7554 15.7734C17.7014 15.9471 17.6294 16.1199 17.5409 16.2872L17.4441 16.4694L17.8679 17.2116L17.2124 17.8674L16.4699 17.4441L16.288 17.5404C16.1211 17.6289 15.9482 17.7009 15.7742 17.7546L15.5777 17.8153L15.3524 18.6377H14.425L14.1996 17.8153L14.0031 17.7546C13.8299 17.7009 13.657 17.6293 13.4894 17.5404L13.3071 17.4441L12.565 17.8674L11.9088 17.2116L12.3325 16.4694L12.2357 16.2872C12.1472 16.1199 12.0749 15.9471 12.0212 15.7734L11.9609 15.5766L11.1385 15.3516V14.4238L11.9609 14.1992L12.0216 14.0023C12.0752 13.8287 12.1472 13.6558 12.2357 13.4889L12.3325 13.3063L11.9088 12.5642L12.5642 11.9083L13.3064 12.3317L13.4886 12.2353C13.657 12.1464 13.8299 12.0741 14.0024 12.0208L14.1989 11.9601L14.4243 11.1377H15.3516L15.577 11.9601L15.7735 12.0208C15.9467 12.0744 16.1196 12.1464 16.2873 12.2353L16.4691 12.3317L17.2116 11.9083L17.8671 12.5642L17.4434 13.3063L17.5401 13.4886C17.6286 13.6554 17.701 13.8283 17.7542 14.0019L17.815 14.1988L18.6374 14.4234V15.3516H18.6381ZM29.125 15.6246C29.125 15.8312 28.957 15.9996 28.75 15.9996H22.75C22.543 15.9996 22.375 15.8312 22.375 15.6246V14.1246C22.375 13.9179 22.543 13.7496 22.75 13.7496H28.75C28.957 13.7496 29.125 13.9179 29.125 14.1246V15.6246ZM29.5 26.1246C31.3611 26.1246 32.875 27.6384 32.875 29.4996C32.875 31.3607 31.3611 32.8746 29.5 32.8746C27.6389 32.8746 26.125 31.3607 26.125 29.4996C26.125 27.6384 27.6389 26.1246 29.5 26.1246ZM14.875 28.7496C14.875 28.5426 15.043 28.3746 15.25 28.3746H21.25C21.457 28.3746 21.625 28.5426 21.625 28.7496V30.2496C21.625 30.4566 21.457 30.6246 21.25 30.6246H15.25C15.043 30.6246 14.875 30.4566 14.875 30.2496V28.7496ZM18.625 21.2496C18.625 21.0429 18.793 20.8746 19 20.8746H25C25.207 20.8746 25.375 21.0429 25.375 21.2496V22.7496C25.375 22.9566 25.207 23.1246 25 23.1246H19C18.793 23.1246 18.625 22.9566 18.625 22.7496V21.2496Z" fill="white"/>
<path d="M22.375 21.625H23.125V22.375H22.375V21.625Z" fill="white"/>
<path d="M20.875 21.625H21.625V22.375H20.875V21.625Z" fill="white"/>
<path d="M19.375 21.625H20.125V22.375H19.375V21.625Z" fill="white"/>
<path d="M23.875 21.625H24.625V22.375H23.875V21.625Z" fill="white"/>
<path d="M17.125 29.125H17.875V29.875H17.125V29.125Z" fill="white"/>
<path d="M20.125 29.125H20.875V29.875H20.125V29.125Z" fill="white"/>
<path d="M18.625 29.125H19.375V29.875H18.625V29.125Z" fill="white"/>
<path d="M15.625 29.125H16.375V29.875H15.625V29.125Z" fill="white"/>
</g>
<defs>
<clipPath id="clip0_3757_13091">
<rect width="24" height="24" fill="white" transform="translate(10 10)"/>
</clipPath>
</defs>
</svg>
