<svg width="44" height="44" viewBox="0 0 44 44" fill="none" xmlns="http://www.w3.org/2000/svg">
<rect x="0.5" y="0.5" width="43" height="43" rx="21.5" stroke="#9CA3AF"/>
<path d="M22.2631 30.4998C22.0081 30.4998 21.7538 30.4368 21.5288 30.313L21.0308 30.0438C20.8486 29.9455 20.7811 29.7175 20.8801 29.5353C20.9783 29.353 21.2063 29.2855 21.3886 29.3845L21.8881 29.6545C22.0651 29.7513 22.2871 29.7753 22.4821 29.7183C22.5953 29.6853 22.7483 29.6103 22.8398 29.4438C22.9778 29.1918 22.9283 28.8873 22.8008 28.7388C22.6756 28.5925 22.6816 28.3758 22.8143 28.2363C22.9306 28.1155 23.1271 28.069 23.2748 28.147L24.3818 28.7268C24.7208 28.9113 25.1438 28.8025 25.3133 28.492C25.4453 28.2498 25.3763 27.9453 25.2698 27.7915L24.2453 27.079C24.0818 26.965 24.0361 26.743 24.1403 26.5735C24.2446 26.4033 24.4628 26.3455 24.6391 26.4415L26.5883 27.5065C26.7691 27.6055 26.9378 27.5883 27.0473 27.5553C27.2191 27.505 27.3698 27.3813 27.4598 27.2155C27.6398 26.887 27.5446 26.5255 27.2348 26.356L25.9913 25.5475C25.8248 25.4388 25.7723 25.2198 25.8706 25.0473C25.9688 24.8755 26.1856 24.8088 26.3626 24.8973L28.8968 26.155C29.2186 26.3298 29.6011 26.203 29.7833 25.8715C29.9551 25.5543 29.8291 25.1365 29.5058 24.9603C29.3236 24.8613 29.2568 24.6333 29.3558 24.4518C29.4548 24.2703 29.6836 24.202 29.8643 24.3018C30.5438 24.6723 30.8078 25.5558 30.4418 26.2308C30.0578 26.9313 29.2291 27.1908 28.5511 26.8203L28.2871 26.6898C28.3291 26.9875 28.2706 27.2973 28.1176 27.5755C27.9331 27.9145 27.6196 28.1695 27.2581 28.2753C26.9101 28.3773 26.5441 28.3375 26.2276 28.165L26.1301 28.1125C26.1443 28.3578 26.0986 28.615 25.9696 28.8513C25.6051 29.518 24.7163 29.7648 24.0263 29.3875L23.6678 29.2C23.6558 29.4085 23.5996 29.617 23.4976 29.803C23.3311 30.109 23.0453 30.334 22.6928 30.4383C22.5526 30.4795 22.4078 30.4998 22.2631 30.4998Z" fill="#1F2937"/>
<path d="M14.5058 23.698C14.4488 23.698 14.3918 23.6853 14.3371 23.6575L13.0906 23.029C12.9053 22.936 12.8311 22.7103 12.9248 22.5258C13.0178 22.3405 13.2428 22.2648 13.4281 22.36L14.6746 22.9885C14.8598 23.0815 14.9341 23.3073 14.8403 23.4918C14.7751 23.6223 14.6431 23.698 14.5058 23.698Z" fill="#1F2937"/>
<path d="M17.4997 18.8125C17.4757 18.8125 17.4509 18.8103 17.4262 18.805L14.8807 18.3018C14.6774 18.2613 14.5454 18.0648 14.5859 17.8615C14.6264 17.6583 14.8237 17.5233 15.0262 17.5668L17.5717 18.07C17.7749 18.1105 17.9069 18.307 17.8664 18.5103C17.8319 18.6888 17.6752 18.8125 17.4997 18.8125Z" fill="#1F2937"/>
<path d="M29.6755 25.0015C29.6132 25.0015 29.551 24.9857 29.4955 24.955L27.0377 23.6102L23.6875 21.5312C23.5112 21.4225 23.4557 21.1922 23.5645 21.0152C23.6725 20.8382 23.9035 20.7835 24.0805 20.8922L27.4142 22.9622L29.4715 24.0872C29.6005 23.638 29.5907 23.3072 29.59 23.3035C29.5832 23.149 29.671 23.0065 29.812 22.9435L30.5875 22.5985C30.7772 22.516 30.9992 22.6 31.0825 22.789C31.1665 22.978 31.0817 23.2 30.892 23.284L30.331 23.5337C30.31 23.8075 30.2402 24.2657 30.0197 24.7757C29.9777 24.8725 29.8967 24.9475 29.7977 24.9812C29.758 24.9947 29.7167 25.0015 29.6755 25.0015Z" fill="#1F2937"/>
<path d="M19.08 23.0012C18.5528 23.0012 18.0443 22.7717 17.6288 22.342C17.5335 22.243 17.4998 22.1005 17.5403 21.9692C17.6678 21.559 17.8058 21.1757 17.9333 20.821C18.1388 20.248 18.3173 19.7537 18.3705 19.372C18.3855 19.2662 18.444 19.1717 18.5325 19.1125L18.9173 18.85C19.785 18.253 21.2378 17.2525 22.0275 16.927C22.5 16.7327 24.9975 17.2142 27.009 17.6537C27.0623 17.665 27.1125 17.6882 27.1553 17.7212C27.2408 17.7857 27.3195 17.8525 27.3938 17.9207L28.8315 17.5247C29.031 17.4692 29.238 17.587 29.2928 17.7865C29.3475 17.986 29.2305 18.193 29.031 18.2477L27.3878 18.7007C27.2573 18.7375 27.117 18.7 27.021 18.6025C26.9423 18.523 26.8583 18.4442 26.7653 18.3685C24.8213 17.9462 22.6388 17.5607 22.2893 17.6282C21.597 17.9155 20.13 18.9257 19.3418 19.468L19.0845 19.6435C19.0028 20.062 18.8325 20.536 18.639 21.0752C18.5385 21.355 18.4313 21.6527 18.3278 21.9677C18.6645 22.2392 18.9885 22.2692 19.2098 22.2437C19.5405 22.204 19.848 22.0037 20.0123 21.7225C20.1413 21.5005 20.3153 21.0587 20.4345 20.6477C20.4758 20.5052 20.598 20.4002 20.7458 20.3807C20.9753 20.35 21.888 20.1572 22.428 20.029C22.629 19.9787 22.8323 20.1062 22.8795 20.3072C22.9275 20.509 22.803 20.7107 22.6013 20.7587C22.191 20.8562 21.492 21.0085 21.0855 21.0842C20.976 21.4217 20.8193 21.8282 20.661 22.0997C20.3775 22.5872 19.8683 22.9195 19.3013 22.9885C19.227 22.9975 19.1535 23.0012 19.08 23.0012Z" fill="#1F2937"/>
<path d="M20.2403 30.4502C19.9073 30.4502 19.5953 30.3205 19.3613 30.0857L19.1168 29.839C18.8843 29.6042 18.7576 29.2922 18.7583 28.9615C18.7591 28.6292 18.8888 28.3187 19.1236 28.0862L19.6178 27.6002C20.0858 27.1367 20.9071 27.1405 21.3706 27.61L21.6136 27.8537C22.0951 28.3412 22.0913 29.128 21.6068 29.608L21.1126 30.094C20.8801 30.3227 20.5703 30.4502 20.2403 30.4502ZM20.4901 27.9925C20.3596 27.9925 20.2366 28.0427 20.1451 28.1335L19.6516 28.6187C19.5608 28.7087 19.5098 28.8317 19.5091 28.963C19.5091 29.095 19.5586 29.218 19.6501 29.3102L19.8938 29.5562C20.0761 29.74 20.4008 29.7407 20.5861 29.5577L21.0796 29.0725C21.2701 28.8842 21.2708 28.5722 21.0803 28.3802L20.8381 28.1372C20.7458 28.0435 20.6228 27.9925 20.4901 27.9925Z" fill="#1F2937"/>
<path d="M15.0542 25.9547C14.7212 25.9547 14.4084 25.825 14.1744 25.5895L13.9307 25.3442C13.4492 24.8575 13.4529 24.0715 13.9374 23.5907L14.4317 23.1047C14.8997 22.642 15.7194 22.6442 16.1837 23.113L16.4274 23.359C16.6599 23.5937 16.7867 23.905 16.7852 24.2372C16.7837 24.5687 16.6532 24.8792 16.4192 25.1117L15.9257 25.597C15.6939 25.8272 15.3842 25.9547 15.0542 25.9547ZM15.3039 23.497C15.1734 23.497 15.0504 23.5472 14.9582 23.638L14.4647 24.1232C14.2742 24.3122 14.2734 24.6235 14.4632 24.8155L14.7062 25.06C14.8899 25.2452 15.2139 25.246 15.3984 25.063L15.8927 24.577C15.9842 24.487 16.0344 24.3647 16.0352 24.2335C16.0359 24.1022 15.9864 23.9792 15.8949 23.887L15.6512 23.641C15.5597 23.548 15.4367 23.497 15.3039 23.497Z" fill="#1F2937"/>
<path d="M16.3426 27.9152C16.0089 27.9152 15.6961 27.7854 15.4629 27.5484L15.2191 27.3032C14.9866 27.0699 14.8591 26.7587 14.8599 26.4279C14.8606 26.0957 14.9911 25.7844 15.2266 25.5512L16.2084 24.5769C16.6771 24.1119 17.4954 24.1157 17.9611 24.5844L18.2049 24.8312C18.4374 25.0652 18.5641 25.3764 18.5626 25.7079C18.5611 26.0402 18.4314 26.3507 18.1959 26.5832L17.2149 27.5559C16.9824 27.7877 16.6719 27.9152 16.3426 27.9152ZM17.0806 24.9684C16.9501 24.9684 16.8279 25.0179 16.7364 25.1094L15.7546 26.0837C15.6616 26.1759 15.6106 26.2989 15.6099 26.4302C15.6099 26.5607 15.6594 26.6829 15.7509 26.7744L15.9954 27.0204C16.1784 27.2064 16.5024 27.2057 16.6869 27.0234L17.6686 26.0499C17.7616 25.9584 17.8126 25.8354 17.8126 25.7042C17.8134 25.5729 17.7639 25.4507 17.6724 25.3592L17.4286 25.1124C17.3364 25.0202 17.2126 24.9684 17.0806 24.9684Z" fill="#1F2937"/>
<path d="M18.2918 29.1827C17.9581 29.1827 17.6453 29.0522 17.4113 28.816L17.1683 28.57C16.9358 28.3367 16.8083 28.0247 16.8091 27.694C16.8098 27.3617 16.9396 27.0512 17.1743 26.8187L17.9131 26.089C18.3818 25.6247 19.2016 25.6285 19.6658 26.098L19.9088 26.3432C20.3888 26.8277 20.3851 27.6137 19.9021 28.0952L19.1641 28.825C18.9316 29.0552 18.6218 29.1827 18.2918 29.1827ZM18.7853 26.4805C18.6548 26.4805 18.5326 26.5307 18.4411 26.6215L17.7023 27.3512C17.6101 27.4427 17.5598 27.565 17.5591 27.6962C17.5583 27.8275 17.6086 27.9497 17.7001 28.0412L17.9446 28.288C18.1276 28.474 18.4516 28.474 18.6361 28.2917L19.3741 27.562C19.5646 27.3722 19.5661 27.0617 19.3763 26.8697L19.1333 26.6245C19.0418 26.5315 18.9181 26.4805 18.7853 26.4805Z" fill="#1F2937"/>
<path d="M31.2108 24.5785C31.1568 24.5785 31.102 24.5665 31.0525 24.5432C30.961 24.5005 30.8905 24.4225 30.8575 24.3272L28.4365 17.4115C28.3705 17.2225 28.465 17.014 28.651 16.9397L32.725 15.307C32.9178 15.2305 33.1353 15.3235 33.2125 15.5155C33.2898 15.7075 33.196 15.9257 33.004 16.003L29.2623 17.5022L31.4373 23.7167L32.8 23.203C32.9943 23.1302 33.2103 23.2277 33.283 23.422C33.3565 23.6155 33.2583 23.8322 33.064 23.905L31.342 24.5537C31.3008 24.5702 31.2558 24.5785 31.2108 24.5785Z" fill="#1F2937"/>
<path d="M12.6015 24.5545C12.5618 24.5545 12.522 24.5485 12.4823 24.535L10.9995 24.0385C10.803 23.9725 10.6973 23.7602 10.7633 23.5637C10.8293 23.3672 11.043 23.2622 11.238 23.3275L12.3698 23.7062L14.5523 17.4722L11.0213 15.9842C10.83 15.904 10.7408 15.6842 10.821 15.493C10.902 15.3025 11.1218 15.2147 11.3123 15.2935L15.1673 16.9187C15.3495 16.996 15.441 17.2015 15.3758 17.3882L12.9548 24.304C12.9015 24.4577 12.756 24.5545 12.6015 24.5545Z" fill="#1F2937"/>
</svg>
