<svg width="44" height="44" viewBox="0 0 44 44" fill="none" xmlns="http://www.w3.org/2000/svg">
<rect x="0.5" y="0.5" width="43" height="43" rx="21.5" stroke="#9CA3AF"/>
<path d="M21.9805 10.5C23.6808 10.5 25.2394 10.9115 26.6514 11.7363L26.7881 11.8164V11.8174C28.1595 12.6339 29.2464 13.7375 30.0459 15.127L30.0498 15.1328C30.9021 16.5711 31.3281 18.1311 31.3281 19.8086C31.3281 21.5105 30.9021 23.0826 30.0508 24.5205L30.0498 24.5225C29.2243 25.9338 28.0923 27.066 26.6562 27.917H26.6553C25.2422 28.7435 23.6826 29.1562 21.9805 29.1562C20.4088 29.1562 18.9404 28.7939 17.5781 28.0684L17.3066 27.918L17.2988 27.9131L17.292 27.9102L16.5518 27.502V28.3477C16.5518 29.558 16.0534 30.8005 15.2354 31.7695C14.5443 32.5881 13.6475 33.1845 12.6719 33.4131V19.8086L12.6768 19.4961C12.7251 17.9394 13.1355 16.486 13.9082 15.1387L13.9111 15.1338L13.915 15.127L13.917 15.123C14.767 13.6922 15.8965 12.5637 17.3037 11.7402L17.3066 11.7393V11.7383C18.6549 10.9643 20.1099 10.5532 21.668 10.5049L21.9805 10.5ZM21.9805 14.1172C20.4107 14.1172 19.0735 14.6726 17.959 15.7871C16.8444 16.9017 16.2891 18.2388 16.2891 19.8086L16.2959 20.1006C16.361 21.5449 16.9142 22.7853 17.959 23.8301C19.0037 24.8748 20.2441 25.428 21.6885 25.4932L21.9805 25.5C23.4774 25.5 24.7455 25.0118 25.7939 24.0342L26.001 23.832L26.0166 23.8145L26.0195 23.8115C27.122 22.7006 27.6719 21.37 27.6719 19.8086L27.665 19.5166C27.5999 18.0722 27.0467 16.8319 26.002 15.7871L25.9033 15.6875L25.8994 15.6836L25.6953 15.4941C24.7338 14.6366 23.5934 14.181 22.2676 14.124L21.9805 14.1172Z" stroke="#1F2937"/>
<path d="M16.3257 10H12.1719V14.6153C13.496 11.5944 15.6361 10.2797 16.3257 10Z" fill="#1F2937"/>
<path d="M18.2366 20.0974C18.5895 20.0974 18.8755 19.8113 18.8755 19.4585C18.8755 19.1056 18.5895 18.8195 18.2366 18.8195C17.8837 18.8195 17.5977 19.1056 17.5977 19.4585C17.5977 19.8113 17.8837 20.0974 18.2366 20.0974Z" fill="#1F2937"/>
<path d="M21.3084 23.4357C21.2349 23.7781 20.8955 24.0002 20.5667 23.8796C19.9636 23.6584 19.4121 23.3106 18.9507 22.8568C18.4892 22.4031 18.1322 21.8575 17.9009 21.2582C17.7748 20.9315 17.9912 20.5884 18.3323 20.5091C18.6734 20.4299 19.0087 20.6461 19.1524 20.9655C19.3176 21.3326 19.5501 21.6678 19.8398 21.9526C20.1295 22.2375 20.4685 22.4644 20.8384 22.6234C21.1601 22.7617 21.3819 23.0933 21.3084 23.4357Z" fill="#1F2937"/>
</svg>
