<svg width="44" height="44" viewBox="0 0 44 44" fill="none" xmlns="http://www.w3.org/2000/svg">
<rect x="0.5" y="0.5" width="43" height="43" rx="21.5" stroke="#9CA3AF"/>
<path d="M30.2326 25.1455L26.1526 26.8692C26.1599 26.8183 26.1672 26.7673 26.1672 26.7128C26.1672 25.9201 25.5235 25.2764 24.7308 25.2764H21.7926C21.6726 25.2764 21.5563 25.251 21.4472 25.2001L18.9563 24.0728C18.5672 23.8983 18.1345 23.8037 17.709 23.8037H15.6799V24.531H17.709C18.0326 24.531 18.3599 24.6001 18.6581 24.7346L21.149 25.8619C21.3526 25.9528 21.5708 26.0001 21.7963 26.0001H24.7345C25.1272 26.0001 25.4435 26.3201 25.4435 26.7092C25.4435 27.0983 25.1235 27.4183 24.7345 27.4183H20.9272V28.1455H24.7308C24.9817 28.1455 25.2145 28.0764 25.4181 27.9637V27.9673L30.5126 25.811C30.9345 25.6328 31.3963 25.6364 31.8145 25.8183C32.1345 25.9601 32.3963 26.1892 32.5708 26.4873L23.5781 31.2583C22.8908 31.6219 22.0726 31.6946 21.3308 31.4583L16.9308 30.0437L15.6763 30.0255V30.7528H16.7635L21.109 32.1492C21.469 32.2655 21.8399 32.3201 22.2145 32.3201C22.8035 32.3201 23.3926 32.1783 23.9163 31.8983L33.4981 26.8219L33.3926 26.5237C33.1708 25.9055 32.7126 25.4183 32.109 25.1528C31.5054 24.8946 30.8399 24.8873 30.2326 25.1455Z" fill="#1F2937"/>
<path d="M14.891 31.3237V23.6037C14.891 23.2037 14.5638 22.8765 14.1638 22.8765H10.502V23.6037H14.1638V31.3274H10.502V32.0546H14.1638C14.5638 32.051 14.891 31.7237 14.891 31.3237Z" fill="#1F2937"/>
<path d="M13.2074 30.1929C13.2074 30.4729 12.9783 30.702 12.6983 30.702C12.4146 30.702 12.1855 30.4729 12.1855 30.1929C12.1855 29.9093 12.4146 29.6802 12.6983 29.6802C12.9783 29.6802 13.2074 29.9093 13.2074 30.1929Z" fill="#1F2937"/>
<path d="M19.1057 20.3381L19.4984 20.629L22.2039 19.1309L24.6511 20.6036L24.862 20.7272L25.2548 20.4436L24.6657 17.4109L26.8293 15.5345L27.0039 15.3672L26.8511 14.9163L23.7893 14.5381L22.6766 11.9054L22.5748 11.6872L22.342 11.6836H22.0948L20.7893 14.4872L17.9384 14.7272L17.6948 14.7563L17.5493 15.2109L19.8075 17.3163L19.1057 20.3381ZM18.7966 15.3854L21.0584 15.189L21.273 15.1636L22.3166 12.9236L23.2002 15.0072L23.2911 15.2072L25.7493 15.509L24.0475 16.9854L23.8766 17.1309L24.3493 19.5672L22.4002 18.3927L22.2148 18.2945L20.0584 19.4909L20.5639 17.309L20.6257 17.0836L18.7966 15.3854Z" fill="#1F2937"/>
<path d="M14.3237 18.9964L13.7964 21.2618L13.7237 21.5236L14.1346 21.8254L16.4001 20.5709L18.4001 21.7709L18.6255 21.9127L19.0291 21.6182L18.5346 19.0764L19.0619 18.6218L18.5855 18.0727L17.8837 18.68L17.7782 18.8036V18.9491L18.1201 20.7564L16.6437 19.8654L16.5673 19.7927L16.2582 19.7854L16.1855 19.8582L14.6764 20.6945L15.0837 18.9273V18.7127L13.6691 17.3964L15.4001 17.2436L15.5673 17.24L15.7201 17.0873L16.4946 15.4218L17.1928 17.0691L17.3055 17.2836H17.5091L18.3855 17.3927L18.4764 16.6691L17.7746 16.5854L16.851 14.4036L16.7273 14.1709L16.2255 14.2109L16.1564 14.4254L15.1746 16.5382L12.8619 16.7382L12.5746 16.7527L12.4219 17.2836L12.6219 17.4145L14.3237 18.9964Z" fill="#1F2937"/>
<path d="M26.2767 16.5855L26.3422 17.3092L27.044 17.2437L27.2076 17.2365L27.3604 17.0837L28.1349 15.4183L28.8004 16.9855L28.8076 17.2801H29.1495L30.884 17.4946L29.5349 18.6655L29.4149 18.7928V18.9492L29.7604 20.7528L28.2804 19.8655L28.204 19.7892L27.884 19.7928L27.8186 19.8619L26.3167 20.6946L26.7276 18.9274L26.724 18.7128L25.7931 17.8437L25.2949 18.3746L25.9604 18.9965L25.4367 21.2619L25.364 21.5055L25.7604 21.8328L28.0404 20.571L30.044 21.7746L30.2695 21.9128L30.6658 21.6146L30.1713 19.0765L31.9204 17.5601C32.0404 17.4655 32.0913 17.3055 32.0513 17.1601L31.9676 16.9019L29.4149 16.5892L28.484 14.4001L28.3749 14.2001L27.9422 14.1855L27.8295 14.3637L26.8113 16.5383L26.2767 16.5855Z" fill="#1F2937"/>
</svg>
