<svg width="72" height="72" viewBox="0 0 72 72" fill="none" xmlns="http://www.w3.org/2000/svg">
<path d="M70.5938 18.5884H45.0451V2.77637C45.0451 1.99984 44.4154 1.37012 43.6389 1.37012C42.8624 1.37012 42.2326 1.99984 42.2326 2.77637L42.2325 38H38.7183L38.7176 2.77637C38.7176 1.99984 38.0879 1.37012 37.3113 1.37012C36.5348 1.37012 35.9051 1.99984 35.9051 2.77637V18.5882H17.639C16.9627 14.3606 13.2909 11.1196 8.87512 11.1196C3.98138 11.1196 0 15.101 0 19.9948V61.7549C0 61.7605 0.000703125 61.766 0.00084375 61.7716C0.010125 66.6577 3.98756 70.63 8.87569 70.63C8.88117 70.63 8.88652 70.6296 8.89186 70.6296H70.5938C71.3703 70.6296 72 69.9999 72 69.2234V50.9227C72 50.1462 71.3703 49.5165 70.5938 49.5165C69.8172 49.5165 69.1875 50.1462 69.1875 50.9227V67.817H15.3517C16.2252 66.8852 16.8945 65.7617 17.2977 64.5503H57.832C58.6086 64.5503 59.2383 63.9205 59.2383 63.144C59.2383 60.4837 61.4028 58.3192 64.0633 58.3192H64.3008C65.0773 58.3192 65.707 57.6894 65.707 56.9129V32.3371C65.707 31.5606 65.0773 30.9309 64.3008 30.9309H64.0633C61.4028 30.9309 59.2383 28.7671 59.2383 26.1075C59.2383 25.3309 58.6086 24.7012 57.832 24.7012H45.0451V21.4007H69.1875V38.5491C69.1875 39.3256 69.8172 39.9554 70.5938 39.9554C71.3703 39.9554 72 39.3256 72 38.5491V19.9946C72 19.218 71.3703 18.5884 70.5938 18.5884ZM47.1111 44.5222C47.1217 44.4068 47.1289 44.29 47.1289 44.174V42.8648H55.4842C56.0036 42.8648 56.4263 43.2875 56.4263 43.8069V45.1399H47.0036C47.0572 44.9377 47.0914 44.7304 47.1111 44.5222ZM33.8237 44.2686C33.8317 44.5622 33.8705 44.856 33.9459 45.1402H24.5232V43.8071C24.5232 43.2876 24.9465 42.8649 25.4666 42.8649H33.8206V44.1741C33.8206 44.2058 33.823 44.237 33.8237 44.2686ZM43.3495 45.1396H37.6C37.0723 45.1396 36.6337 44.6877 36.6337 44.1637V41.789C36.6337 41.2608 37.0741 40.8174 37.602 40.813H43.2374C43.8045 40.813 44.316 41.1809 44.316 41.789V44.1637C44.316 44.6878 43.8771 45.1396 43.3495 45.1396ZM24.5232 47.9527H37.6078H37.61H43.3394H43.3425H56.4262V51.9359C56.4262 52.4561 56.0035 52.8792 55.484 52.8792L25.4665 52.8794C24.9463 52.8794 24.523 52.4561 24.523 51.9359L24.5232 47.9527ZM35.9051 24.7012H17.7517V21.4007H35.9051V24.7012ZM10.1566 55.8298C11.5748 56.1361 12.8092 56.9398 13.6689 58.0485C13.8142 58.2358 13.9493 58.4312 14.0722 58.6351C13.2491 60.958 11.438 61.8631 10.1566 62.2156V55.8298ZM2.8125 19.9948C2.8125 16.652 5.53219 13.9323 8.87512 13.9323C12.2164 13.9323 14.9349 16.648 14.939 19.9875C14.939 19.9899 14.9386 19.9922 14.9386 19.9946V55.2614C13.4408 53.8559 11.4826 53.0051 9.35761 52.8927C6.95925 52.7636 4.56567 53.6356 2.8125 55.2787V19.9948ZM2.81292 61.7546C2.81292 60.0833 3.4927 58.5676 4.59042 57.4698C5.34094 56.7194 6.28678 56.1646 7.344 55.8886V63.8469C7.344 64.6234 7.97358 65.2531 8.75025 65.2531C10.2874 65.2531 12.9306 64.6239 14.8784 62.5984C14.8378 62.8891 14.7762 63.173 14.6957 63.449C13.9605 65.9696 11.6301 67.8171 8.8747 67.8171C8.87302 67.8171 8.87133 67.8174 8.86964 67.8174C5.52938 67.8139 2.81292 65.0956 2.81292 61.7546ZM56.5556 27.5137C57.1472 30.6776 59.697 33.1611 62.8945 33.6541V55.5958C59.697 56.089 57.147 58.5731 56.5556 61.7376H17.7517V27.5137H35.9051V38.4069C35.1937 38.7671 34.6108 39.3448 34.2442 40.0523H25.4666C23.3955 40.0523 21.7107 41.7367 21.7107 43.8069V51.9358C21.7107 54.0069 23.3955 55.6917 25.4666 55.6917L55.4842 55.6916C57.5546 55.6916 59.2388 54.0068 59.2388 51.9358V43.8069C59.2388 41.7365 57.5544 40.0523 55.4842 40.0523H46.7054C46.3389 39.3449 45.7563 38.7675 45.0453 38.4072V27.5136H56.5556V27.5137Z" fill="#076AAB"/>
<path d="M71.7625 43.9861C71.3431 43.3447 70.4472 43.1752 69.8135 43.5964C69.1741 44.0215 69.0028 44.91 69.4253 45.5469C69.8495 46.1865 70.7376 46.3573 71.3743 45.935C72.0126 45.5119 72.1864 44.6216 71.7625 43.9861Z" fill="#076AAB"/>
</svg>
