<svg width="72" height="72" viewBox="0 0 72 72" fill="none" xmlns="http://www.w3.org/2000/svg">
<path d="M27.3714 2.54253L2.62142 25.0425C2.45357 25.1951 2.33576 25.3948 2.28344 25.6155C2.23112 25.8362 2.24674 26.0676 2.32825 26.2793C2.40975 26.491 2.55334 26.6731 2.74017 26.8017C2.927 26.9303 3.14835 26.9994 3.37517 27H6.75017V41.625L2.63267 45.2813C2.43112 45.4591 2.29989 45.7032 2.26275 45.9694C2.22561 46.2356 2.285 46.5063 2.43018 46.7325C2.57606 46.9586 2.79815 47.1249 3.05615 47.2013C3.31415 47.2777 3.59098 47.259 3.83643 47.1488L13.5002 42.8513L22.5002 46.8563V58.8938L13.5002 62.8988L3.83643 58.6013C3.59098 58.491 3.31415 58.4724 3.05615 58.5488C2.79815 58.6251 2.57606 58.7914 2.43018 59.0175C2.285 59.2437 2.22561 59.5144 2.26275 59.7806C2.29989 60.0468 2.43112 60.291 2.63267 60.4688L12.7577 69.4688C12.9628 69.6497 13.2267 69.7496 13.5002 69.75C13.6632 69.7509 13.8244 69.7164 13.9727 69.6488L28.5977 62.8988C28.793 62.8084 28.9582 62.6639 29.0739 62.4825C29.1895 62.301 29.2507 62.0902 29.2502 61.875V58.5H50.9402L51.8064 61.11C51.8673 61.2893 51.9724 61.4503 52.112 61.5781C52.2516 61.7059 52.4213 61.7964 52.6052 61.8413L61.6052 64.0913C61.8016 64.1496 62.0101 64.1531 62.2084 64.1016C62.4066 64.05 62.5871 63.9453 62.7302 63.7988L69.4802 57.0488C69.6607 56.8686 69.7746 56.6323 69.8032 56.3789C69.8318 56.1254 69.7735 55.8697 69.6377 55.6538C69.5016 55.4376 69.2961 55.2742 69.0548 55.1904C68.8136 55.1065 68.5509 55.1073 68.3102 55.1925L61.8752 57.375L57.3752 55.4738V50.2538L61.8752 48.375L68.2202 50.625C68.4609 50.7103 68.7235 50.711 68.9648 50.6272C69.2061 50.5434 69.4116 50.3799 69.5477 50.1638C69.6835 49.9478 69.7418 49.6922 69.7132 49.4387C69.6846 49.1852 69.5707 48.949 69.3902 48.7688L62.6402 42.0188C62.4971 41.8722 62.3166 41.7675 62.1184 41.716C61.9201 41.6644 61.7116 41.668 61.5152 41.7263L52.5152 43.9763C52.3313 44.0211 52.1616 44.1116 52.022 44.2395C51.8824 44.3673 51.7773 44.5283 51.7164 44.7075L50.9402 47.25H49.5002V27H52.8752C53.102 26.9994 53.3233 26.9303 53.5102 26.8017C53.697 26.6731 53.8406 26.491 53.9221 26.2793C54.0036 26.0676 54.0192 25.8362 53.9669 25.6155C53.9146 25.3948 53.7968 25.1951 53.6289 25.0425L28.8789 2.54253C28.6722 2.35596 28.4036 2.25269 28.1252 2.25269C27.8467 2.25269 27.5781 2.35596 27.3714 2.54253ZM51.7502 49.5C51.9955 49.5128 52.2383 49.445 52.4414 49.3068C52.6446 49.1687 52.7969 48.9679 52.8752 48.735L53.7977 45.945L61.5827 43.9988L64.4064 46.8225L62.2464 46.125C61.9858 46.0245 61.6971 46.0245 61.4364 46.125L55.8114 48.4763C55.6098 48.5616 55.4375 48.704 55.3156 48.8858C55.1937 49.0677 55.1275 49.2811 55.1252 49.5V56.25C55.1254 56.4709 55.1905 56.6867 55.3126 56.8708C55.4346 57.0548 55.6081 57.1989 55.8114 57.285L61.4364 59.6363C61.6971 59.7368 61.9858 59.7368 62.2464 59.6363L64.3502 58.8938L61.5264 61.7175L53.7414 59.7713L52.8752 57.015C52.7969 56.7822 52.6446 56.5813 52.4414 56.4432C52.2383 56.3051 51.9955 56.2372 51.7502 56.25H28.1252C27.8268 56.25 27.5407 56.3686 27.3297 56.5795C27.1187 56.7905 27.0002 57.0767 27.0002 57.375V61.155L13.7027 67.2975L9.52893 63.5963L13.0389 65.1488C13.184 65.214 13.3412 65.2477 13.5002 65.2477C13.6592 65.2477 13.8164 65.214 13.9614 65.1488L24.0864 60.6488C24.2838 60.5601 24.4514 60.4163 24.5691 60.2347C24.6869 60.0531 24.7497 59.8414 24.7502 59.625V46.125C24.7497 45.9086 24.6869 45.6969 24.5691 45.5154C24.4514 45.3338 24.2838 45.19 24.0864 45.1013L13.9614 40.6013C13.8164 40.5361 13.6592 40.5024 13.5002 40.5024C13.3412 40.5024 13.184 40.5361 13.0389 40.6013L9.52893 42.1538L13.7027 38.4525L27.0002 44.595V48.375C27.0002 48.6734 27.1187 48.9595 27.3297 49.1705C27.5407 49.3815 27.8268 49.5 28.1252 49.5H51.7502ZM48.3752 24.75C48.0768 24.75 47.7907 24.8686 47.5797 25.0795C47.3687 25.2905 47.2502 25.5767 47.2502 25.875V47.25H37.1252V45H34.8752V47.25H29.2502V43.875C29.2507 43.6599 29.1895 43.449 29.0739 43.2676C28.9582 43.0861 28.793 42.9417 28.5977 42.8513L21.3752 39.4763V29.25H34.8752V42.75H37.1252V28.125C37.1252 27.8267 37.0066 27.5405 36.7957 27.3295C36.5847 27.1186 36.2985 27 36.0002 27H20.2502C19.9518 27 19.6657 27.1186 19.4547 27.3295C19.2437 27.5405 19.1252 27.8267 19.1252 28.125V38.4863L13.9727 36.1013C13.7745 36.0103 13.5542 35.9789 13.3384 36.0108C13.1227 36.0428 12.921 36.1368 12.7577 36.2813L9.00017 39.6225V25.875C9.00017 25.5767 8.88165 25.2905 8.67067 25.0795C8.45969 24.8686 8.17354 24.75 7.87517 24.75H6.28892L28.1252 4.89378L49.9614 24.75H48.3752Z" fill="#076AAB"/>
<path d="M13.0838 60.6714C13.351 60.7778 13.649 60.7778 13.9163 60.6714L20.6663 57.9714C20.8756 57.888 21.055 57.7437 21.1814 57.5572C21.3078 57.3706 21.3752 57.1504 21.375 56.9251V48.8251C21.3752 48.5998 21.3078 48.3796 21.1814 48.1931C21.055 48.0065 20.8756 47.8622 20.6663 47.7789L13.9163 45.0789C13.649 44.9724 13.351 44.9724 13.0838 45.0789L6.33375 47.7789C6.12443 47.8622 5.94496 48.0065 5.81859 48.1931C5.69222 48.3796 5.62478 48.5998 5.625 48.8251V56.9251C5.62478 57.1504 5.69222 57.3706 5.81859 57.5572C5.94496 57.7437 6.12443 57.888 6.33375 57.9714L13.0838 60.6714ZM7.875 49.5901L13.5 47.3401L19.125 49.5901V56.1601L13.5 58.4101L7.875 56.1601V49.5901Z" fill="#076AAB"/>
<path d="M16.875 52.9763C16.875 52.3088 16.6771 51.6563 16.3062 51.1013C15.9354 50.5463 15.4083 50.1137 14.7916 49.8582C14.1749 49.6028 13.4963 49.5359 12.8416 49.6662C12.1869 49.7964 11.5855 50.1178 11.1135 50.5898C10.6415 51.0618 10.3201 51.6632 10.1899 52.3179C10.0596 52.9726 10.1265 53.6512 10.3819 54.2679C10.6374 54.8846 11.0699 55.4117 11.625 55.7825C12.18 56.1534 12.8325 56.3513 13.5 56.3513C14.3951 56.3513 15.2536 55.9957 15.8865 55.3628C16.5194 54.7299 16.875 53.8714 16.875 52.9763ZM12.375 52.9763C12.375 52.7538 12.441 52.5363 12.5646 52.3513C12.6882 52.1663 12.8639 52.0221 13.0695 51.937C13.275 51.8518 13.5012 51.8295 13.7195 51.8729C13.9377 51.9163 14.1382 52.0235 14.2955 52.1808C14.4528 52.3382 14.56 52.5386 14.6034 52.7568C14.6468 52.9751 14.6245 53.2013 14.5394 53.4068C14.4542 53.6124 14.31 53.7881 14.125 53.9117C13.94 54.0353 13.7225 54.1013 13.5 54.1013C13.2016 54.1013 12.9155 53.9828 12.7045 53.7718C12.4935 53.5608 12.375 53.2747 12.375 52.9763Z" fill="#076AAB"/>
<path d="M49.5 14.625C49.5 14.9234 49.6185 15.2095 49.8295 15.4205C50.0405 15.6315 50.3266 15.75 50.625 15.75C50.9234 15.75 51.2095 15.6315 51.4205 15.4205C51.6315 15.2095 51.75 14.9234 51.75 14.625C51.75 12.1837 53.2913 10.125 55.125 10.125C55.4234 10.125 55.7095 10.0065 55.9205 9.79549C56.1315 9.58452 56.25 9.29837 56.25 9C56.25 8.70163 56.1315 8.41548 55.9205 8.20451C55.7095 7.99353 55.4234 7.875 55.125 7.875C53.2913 7.875 51.75 5.81625 51.75 3.375C51.75 3.07663 51.6315 2.79048 51.4205 2.5795C51.2095 2.36853 50.9234 2.25 50.625 2.25C50.3266 2.25 50.0405 2.36853 49.8295 2.5795C49.6185 2.79048 49.5 3.07663 49.5 3.375C49.5 5.81625 47.9587 7.875 46.125 7.875C45.8266 7.875 45.5405 7.99353 45.3295 8.20451C45.1185 8.41548 45 8.70163 45 9C45 9.29837 45.1185 9.58452 45.3295 9.79549C45.5405 10.0065 45.8266 10.125 46.125 10.125C47.9587 10.125 49.5 12.1837 49.5 14.625ZM50.625 7.425C50.9979 8.02487 51.4696 8.55737 52.02 9C51.4696 9.44263 50.9979 9.97513 50.625 10.575C50.2521 9.97513 49.7804 9.44263 49.23 9C49.7804 8.55737 50.2521 8.02487 50.625 7.425Z" fill="#076AAB"/>
<path d="M20.25 23.625C18.4163 23.625 16.875 21.5663 16.875 19.125C16.875 18.8266 16.7565 18.5405 16.5455 18.3295C16.3345 18.1185 16.0484 18 15.75 18C15.4516 18 15.1655 18.1185 14.9545 18.3295C14.7435 18.5405 14.625 18.8266 14.625 19.125C14.625 21.5663 13.0837 23.625 11.25 23.625C10.9516 23.625 10.6655 23.7435 10.4545 23.9545C10.2435 24.1655 10.125 24.4516 10.125 24.75C10.125 25.0484 10.2435 25.3345 10.4545 25.5455C10.6655 25.7565 10.9516 25.875 11.25 25.875C13.0837 25.875 14.625 27.9337 14.625 30.375C14.625 30.6734 14.7435 30.9595 14.9545 31.1705C15.1655 31.3815 15.4516 31.5 15.75 31.5C16.0484 31.5 16.3345 31.3815 16.5455 31.1705C16.7565 30.9595 16.875 30.6734 16.875 30.375C16.875 27.9337 18.4163 25.875 20.25 25.875C20.5484 25.875 20.8345 25.7565 21.0455 25.5455C21.2565 25.3345 21.375 25.0484 21.375 24.75C21.375 24.4516 21.2565 24.1655 21.0455 23.9545C20.8345 23.7435 20.5484 23.625 20.25 23.625ZM15.75 26.325C15.3771 25.7251 14.9054 25.1926 14.355 24.75C14.9054 24.3074 15.3771 23.7749 15.75 23.175C16.1229 23.7749 16.5946 24.3074 17.145 24.75C16.5946 25.1926 16.1229 25.7251 15.75 26.325Z" fill="#076AAB"/>
</svg>
