<svg width="72" height="72" viewBox="0 0 72 72" fill="none" xmlns="http://www.w3.org/2000/svg">
<g clip-path="url(#clip0_3720_5451)">
<path d="M4.25361 57.337C3.76635 57.0176 3.11239 57.1535 2.79293 57.6409C0.965816 60.4276 0 63.6594 0 66.9869V70.7777C0 71.3604 0.472358 71.8327 1.055 71.8327C1.63764 71.8327 2.11 71.3604 2.11 70.7777V66.9869C2.11 64.0716 2.95639 61.2398 4.55745 58.7979C4.87691 58.3106 4.74088 57.6565 4.25361 57.337Z" fill="#076AAB"/>
<path d="M16.9147 62.6827H8.22476C7.23798 62.6827 6.43506 63.4857 6.43506 64.4724V67.7131C6.43506 68.6999 7.23798 69.5028 8.22476 69.5028H16.9147C17.9015 69.5028 18.7044 68.6999 18.7044 67.7131V64.4724C18.7044 63.4857 17.9015 62.6827 16.9147 62.6827ZM16.5944 67.3928H8.54506V64.7929H16.5944V67.3928Z" fill="#076AAB"/>
<path d="M31.9305 12.4188C29.5871 12.4188 27.6807 14.3253 27.6807 16.6686C27.6807 19.012 29.5871 20.9185 31.9305 20.9185C34.274 20.9185 36.1804 19.012 36.1804 16.6686C36.1804 14.3253 34.274 12.4188 31.9305 12.4188ZM31.9305 18.8085C30.7506 18.8085 29.7907 17.8485 29.7907 16.6686C29.7907 15.4887 30.7506 14.5288 31.9305 14.5288C33.1104 14.5288 34.0704 15.4887 34.0704 16.6686C34.0704 17.8485 33.1104 18.8085 31.9305 18.8085Z" fill="#076AAB"/>
<path d="M63.4329 38.5559C62.9366 38.2505 62.2869 38.405 61.9814 38.9013C61.6758 39.3974 61.8306 40.0473 62.3266 40.3527C67.0625 43.2687 69.8899 48.3248 69.8899 53.8777C69.8899 62.6296 62.7698 69.7496 54.018 69.7496C45.2661 69.7496 38.1461 62.6295 38.1461 53.8777C38.1461 45.126 45.2661 38.0059 54.018 38.0059C55.5245 38.0059 57.0164 38.2173 58.4523 38.6344C59.0116 38.7965 59.5972 38.475 59.7597 37.9155C59.9222 37.3559 59.6003 36.7706 59.0409 36.6081C57.4137 36.1356 55.7235 35.8959 54.018 35.8959C45.8414 35.8959 38.9229 41.3819 36.7476 48.8662L34.3909 47.9046V43.502C37.8635 40.7523 40.0045 36.5143 40.0045 31.9248V31.3898C42.5369 31.2323 44.5493 29.1231 44.5493 26.5517C44.5493 25.8319 44.3905 25.1489 44.1079 24.534L44.1086 19.729C45.2017 19.453 46.0142 18.4643 46.0142 17.2866V16.0508C46.0142 14.7124 44.9654 13.6174 43.6469 13.537L43.651 13.3011L43.5147 10.8009C43.3414 7.62252 41.3643 4.78767 38.4562 3.51956L38.304 3.37074C36.5206 1.62774 34.0741 0.765029 31.5922 1.00416L30.4693 1.11233L29.7842 0.819045C27.6714 -0.0860033 25.2479 -0.0860033 23.1353 0.819045L22.4503 1.11233L21.3273 1.00416C18.8454 0.765029 16.3991 1.62774 14.6159 3.37074L14.4637 3.51956C11.5557 4.78753 9.57846 7.62238 9.4053 10.8009L9.26562 13.3588L9.25211 13.6305C8.20218 13.9354 7.43189 14.904 7.43189 16.0508V17.2866C7.43189 18.2779 8.0082 19.1349 8.84221 19.5467V24.4668C8.53992 25.0988 8.37028 25.8058 8.37028 26.5517C8.37028 29.1233 10.3827 31.2324 12.9151 31.3898V31.9668C12.9151 36.6223 15.1226 40.9256 18.6904 43.6724V47.9046L10.6076 51.2025C8.91648 51.8925 7.3534 52.8467 5.9615 54.0388C5.51897 54.4178 5.46748 55.0838 5.84658 55.5264C6.05519 55.77 6.35087 55.895 6.64838 55.895C6.89131 55.895 7.13522 55.8116 7.33413 55.6413C8.55385 54.5967 9.92337 53.7604 11.4047 53.1561L17.3757 50.7199L25.5611 71.1962C25.7213 71.5969 26.1093 71.8596 26.5407 71.8596C26.9722 71.8596 27.3603 71.5968 27.5203 71.1962L35.7056 50.7199L36.2753 50.9523C36.1187 51.9048 36.036 52.8817 36.036 53.8777C36.036 63.793 44.1027 71.8596 54.0178 71.8596C63.9331 71.8596 71.9998 63.7929 71.9998 53.8777C71.9999 47.5866 68.7972 41.8589 63.4329 38.5559ZM40.0045 21.7135V19.8082H41.9984L41.998 22.2831C41.3979 21.9588 40.722 21.7581 40.0045 21.7135ZM31.9306 23.0285C28.4237 23.0285 25.5707 20.1755 25.5707 16.6686C25.5707 13.1618 28.4237 10.3088 31.9306 10.3088C35.4375 10.3088 38.2905 13.1618 38.2905 16.6686C38.2905 20.1755 35.4375 23.0285 31.9306 23.0285ZM40.0045 29.2724V23.831C41.3719 23.9827 42.4393 25.1445 42.4393 26.5517C42.4393 27.959 41.3719 29.1206 40.0045 29.2724ZM43.904 16.0507V17.2864C43.904 17.5135 43.7193 17.698 43.4924 17.698H40.3356C40.3767 17.3603 40.4005 17.0172 40.4005 16.6685C40.4005 16.3198 40.3768 15.9767 40.3356 15.639H43.4924C43.7195 15.6391 43.904 15.8238 43.904 16.0507ZM11.5119 10.9157C11.6449 8.47791 13.1923 6.30954 15.4545 5.39155C15.5815 5.33993 15.6973 5.26425 15.7952 5.16845L16.0906 4.87966C17.4282 3.57231 19.2624 2.92539 21.1251 3.10445L22.5165 3.23851C22.6922 3.25553 22.8703 3.22796 23.0329 3.15819L23.966 2.75855C25.5509 2.07984 27.3686 2.07984 28.9534 2.75855L29.8865 3.15819C30.0491 3.22796 30.2269 3.25553 30.4029 3.23851L31.7943 3.10445C33.6563 2.92524 35.4913 3.57231 36.8288 4.87952L37.1242 5.16831C37.2222 5.26411 37.338 5.33993 37.465 5.39155C39.7271 6.30954 41.2747 8.47791 41.4075 10.9157L41.5466 13.4683C41.5469 13.4727 41.5458 13.4946 41.5435 13.5292H39.7946C38.5445 10.4093 35.4918 8.19883 31.9305 8.19883C28.3693 8.19883 25.3164 10.4093 24.0664 13.5292H18.275C17.6924 13.5292 17.22 14.0016 17.22 14.5842C17.22 15.1669 17.6924 15.6392 18.275 15.6392H23.5254C23.4843 15.977 23.4606 16.3201 23.4606 16.6688C23.4606 17.0175 23.4842 17.3606 23.5254 17.6983H9.95362C9.72658 17.6983 9.54203 17.5136 9.54203 17.2867V16.051C9.54203 15.8239 9.72672 15.6394 9.95362 15.6394H13.779C14.3617 15.6394 14.834 15.167 14.834 14.5844C14.834 14.0017 14.3617 13.5294 13.779 13.5294H11.3697L11.3727 13.4685L11.5119 10.9157ZM12.9152 21.7135C12.2098 21.7574 11.5448 21.9525 10.9523 22.2672V19.808H12.9152V21.7135ZM10.4804 26.5516C10.4804 25.1444 11.5478 23.9826 12.9152 23.8308V29.2724C11.5478 29.1206 10.4804 27.959 10.4804 26.5516ZM15.0252 31.9667V19.808H24.0664C25.3165 22.928 28.3693 25.1385 31.9305 25.1385C34.2545 25.1385 36.3625 24.1971 37.8943 22.6764V31.9248C37.8943 37.2687 34.5105 42.0594 29.474 43.8463L29.3702 43.8831C27.4427 44.5669 25.3212 44.5627 23.3964 43.8709C18.3892 42.0712 15.0252 37.2874 15.0252 31.9667ZM22.6828 45.8564C23.8811 46.2871 25.1407 46.5023 26.4006 46.5023C27.6454 46.5023 28.8904 46.292 30.076 45.8714L30.1796 45.8346C30.9112 45.575 31.6129 45.2611 32.2808 44.8983V48.3638L28.0203 52.0253C27.1486 52.7745 25.8384 52.7693 24.9724 52.0135L20.8004 48.3714V45.0239C21.4027 45.3414 22.03 45.6217 22.6828 45.8564ZM26.5407 67.9624L19.3295 49.9228L19.3568 49.9117L23.585 53.603C24.4151 54.3277 25.4591 54.6902 26.5037 54.6902C27.5364 54.6902 28.5696 54.3355 29.3957 53.6255L33.7195 49.9095L33.752 49.9228L26.5407 67.9624Z" fill="#076AAB"/>
<path d="M54.8733 44.7659C54.4222 45.0934 53.8162 45.0934 53.3651 44.7659C50.7068 42.8351 47.0523 42.9126 44.4781 44.9543C41.3809 47.4109 40.7764 51.8395 43.1018 55.0366L46.2416 59.3529L46.7265 63.9478C46.8795 65.3971 48.0939 66.49 49.5512 66.49C50.9171 66.49 52.0911 65.5156 52.3429 64.1733L53.2019 59.5923C53.2848 59.1515 53.6703 58.8313 54.1191 58.8313C54.5678 58.8313 54.9535 59.1513 55.0362 59.5923L55.8954 64.1733C56.1472 65.5156 57.3212 66.49 58.6871 66.49C60.1442 66.49 61.3586 65.3971 61.5116 63.9478L61.9965 59.3529L65.1363 55.0364C67.4617 51.8395 66.8571 47.4109 63.7601 44.9543C61.1863 42.9128 57.5318 42.835 54.8733 44.7659ZM62.4488 46.6074C64.6569 48.3588 65.0879 51.5161 63.4301 53.7953L60.124 58.3404C60.0151 58.4902 59.9474 58.666 59.9279 58.8503L59.4132 63.7264C59.3739 64.099 59.0617 64.38 58.6871 64.38C58.3358 64.38 58.0339 64.1295 57.9691 63.7843L57.1101 59.2035C56.8404 57.7652 55.5826 56.7213 54.1191 56.7213C52.6558 56.7213 51.398 57.7651 51.1282 59.2034L50.2692 63.7843C50.2043 64.1295 49.9026 64.38 49.5512 64.38C49.1765 64.38 48.8642 64.099 48.8249 63.7264L48.3104 58.8503C48.2908 58.666 48.2233 58.4902 48.1143 58.3404L44.8081 53.7953C43.1502 51.5161 43.581 48.3588 45.7894 46.6074C47.6243 45.1518 50.2299 45.0966 52.1251 46.4731C53.3177 47.3391 54.9203 47.3391 56.1131 46.4731C58.0086 45.0966 60.6136 45.1519 62.4488 46.6074Z" fill="#076AAB"/>
<path d="M52.0214 49.319L52.0185 49.3174C51.5249 49.0086 50.8735 49.1587 50.5648 49.6528C50.256 50.147 50.4062 50.7979 50.9004 51.1066C50.9039 51.109 50.9104 51.113 50.9142 51.1152C51.8723 51.6976 52.9945 51.9888 54.1169 51.9888C55.2406 51.9888 56.3644 51.6969 57.3231 51.1131C57.8208 50.8101 57.9786 50.1609 57.6756 49.6634C57.3724 49.1656 56.7231 49.008 56.2257 49.311C54.9654 50.0784 53.2713 50.0786 52.0214 49.319Z" fill="#076AAB"/>
</g>
<defs>
<clipPath id="clip0_3720_5451">
<rect width="72" height="72" fill="white"/>
</clipPath>
</defs>
</svg>
