<svg width="44" height="44" viewBox="0 0 44 44" fill="none" xmlns="http://www.w3.org/2000/svg">
<rect x="0.5" y="0.5" width="43" height="43" rx="21.5" stroke="#9CA3AF"/>
<path fill-rule="evenodd" clip-rule="evenodd" d="M33.3847 17.6648L32.448 17.3043C32.3117 16.8041 32.1129 16.3245 31.855 15.8739L32.2627 14.9559C32.3257 14.8142 32.2949 14.6482 32.1851 14.5385L30.8942 13.2477C30.7846 13.138 30.6188 13.1072 30.4769 13.1701L29.5587 13.5779C29.1081 13.3202 28.6285 13.1214 28.1288 12.9851L27.7681 12.0481C27.7124 11.9033 27.5733 11.8078 27.4181 11.8078H25.5926C25.4374 11.8078 25.2984 11.9034 25.2426 12.0481L24.8819 12.9851C24.3821 13.1214 23.9027 13.3202 23.452 13.578L22.5338 13.1702C22.3919 13.1072 22.2261 13.138 22.1164 13.2477L20.8255 14.5386C20.7158 14.6483 20.685 14.8142 20.748 14.956L21.1558 15.8741C20.898 16.3247 20.6992 16.8041 20.5629 17.3042L19.626 17.6648C19.4813 17.7206 19.3857 17.8596 19.3857 18.0148V19.8403C19.3857 19.9955 19.4813 20.1346 19.626 20.1903L20.5627 20.5509C20.6991 21.051 20.8979 21.5306 21.1557 21.9812L20.748 22.8991C20.685 23.0409 20.7158 23.2068 20.8255 23.3165L22.1164 24.6074C22.2261 24.7171 22.392 24.7479 22.5338 24.685L23.452 24.2771C23.9027 24.5349 24.3822 24.7337 24.882 24.8699L25.2426 25.8069C25.2983 25.9517 25.4374 26.0472 25.5926 26.0472H27.4181C27.5733 26.0472 27.7124 25.9517 27.7681 25.8069L28.1287 24.8702C28.6288 24.7338 29.1084 24.5351 29.5591 24.2772L30.477 24.6849C30.6187 24.7479 30.7846 24.7171 30.8943 24.6074L32.1852 23.3165C32.2949 23.2068 32.3257 23.0409 32.2627 22.8991L31.8549 21.9808C32.1127 21.5302 32.3114 21.0507 32.4477 20.551L33.3847 20.1903C33.5295 20.1346 33.625 19.9955 33.625 19.8403V18.0148C33.625 17.8596 33.5295 17.7205 33.3847 17.6648ZM32.875 19.5828L31.9975 19.9206C31.8821 19.965 31.7961 20.0634 31.7675 20.1837C31.635 20.7405 31.4152 21.2707 31.1142 21.7595C31.0494 21.8648 31.0406 21.9953 31.0908 22.1083L31.4727 22.9683L30.546 23.895L29.6863 23.5132C29.5734 23.463 29.4429 23.4717 29.3375 23.5366C28.8487 23.8376 28.3185 24.0574 27.7614 24.19C27.6411 24.2186 27.5426 24.3047 27.4982 24.4201L27.1606 25.2972H25.85L25.5123 24.4198C25.4679 24.3044 25.3694 24.2184 25.2491 24.1897C24.6924 24.0573 24.1622 23.8375 23.6734 23.5365C23.568 23.4716 23.4375 23.4629 23.3246 23.513L22.4646 23.895L21.5378 22.9682L21.9197 22.1086C21.9698 21.9956 21.9611 21.8651 21.8962 21.7597C21.5953 21.2711 21.3755 20.7408 21.2428 20.1836C21.2142 20.0633 21.1281 19.9648 21.0128 19.9204L20.1356 19.5828V18.2722L21.013 17.9344C21.1284 17.89 21.2144 17.7916 21.243 17.6713C21.3756 17.1143 21.5954 16.5842 21.8964 16.0955C21.9612 15.9902 21.97 15.8597 21.9198 15.7466L21.5379 14.8868L22.4647 13.96L23.3246 14.3419C23.4376 14.392 23.5681 14.3833 23.6734 14.3185C24.1623 14.0175 24.6924 13.7977 25.2492 13.6652C25.3694 13.6366 25.4679 13.5505 25.5123 13.4351L25.8501 12.5577H27.1607L27.4984 13.4351C27.5428 13.5505 27.6413 13.6366 27.7615 13.6652C28.3183 13.7977 28.8484 14.0175 29.3372 14.3185C29.4426 14.3833 29.5731 14.392 29.686 14.3419L30.546 13.96L31.4728 14.8867L31.091 15.7464C31.0408 15.8594 31.0495 15.9899 31.1144 16.0952C31.4154 16.5839 31.6352 17.1142 31.7678 17.6713C31.7964 17.7916 31.8824 17.8901 31.9978 17.9345L32.875 18.2722V19.5828ZM26.5053 15.067C24.3766 15.067 22.6447 16.7988 22.6447 18.9275C22.6447 21.0563 24.3766 22.7881 26.5053 22.7881C28.634 22.7881 30.3658 21.0563 30.3658 18.9275C30.3658 16.7988 28.634 15.067 26.5053 15.067ZM26.5053 22.0381C24.7901 22.0381 23.3947 20.6427 23.3947 18.9275C23.3947 17.2124 24.7901 15.817 26.5053 15.817C28.2205 15.817 29.6158 17.2124 29.6158 18.9275C29.6158 20.6427 28.2205 22.0381 26.5053 22.0381ZM11.4938 18.079L11.2599 18.6057C11.1969 18.7475 11.2277 18.9134 11.3374 19.0231L12.1649 19.8506C12.2746 19.9603 12.4404 19.9911 12.5823 19.9282L13.1093 19.6941C13.3705 19.8378 13.6458 19.9519 13.9315 20.035L14.1385 20.5727C14.1942 20.7175 14.3333 20.813 14.4885 20.813H15.6588C15.8139 20.813 15.953 20.7175 16.0087 20.5727L16.2156 20.0352C16.5016 19.952 16.777 19.8379 17.0382 19.6942L17.5649 19.9281C17.7066 19.9911 17.8726 19.9603 17.9823 19.8506L18.8098 19.0231C18.9195 18.9134 18.9503 18.7475 18.8873 18.6057L18.6533 18.0787C18.7969 17.8175 18.9111 17.5422 18.9941 17.2564L19.5319 17.0494C19.6767 16.9937 19.7722 16.8546 19.7722 16.6994V15.5292C19.7722 15.374 19.6767 15.235 19.5319 15.1792L18.9943 14.9723C18.9113 14.6864 18.797 14.411 18.6534 14.1498L18.8873 13.623C18.9503 13.4812 18.9195 13.3153 18.8098 13.2056L17.9823 12.3782C17.8726 12.2685 17.7068 12.2377 17.565 12.3006L17.038 12.5347C16.7768 12.3911 16.5015 12.2769 16.2157 12.1938L16.0088 11.6561C15.9531 11.5113 15.814 11.4158 15.6588 11.4158H14.4885C14.3334 11.4158 14.1943 11.5113 14.1385 11.6561L13.9315 12.1938C13.6458 12.2769 13.3705 12.3911 13.1093 12.5347L12.5823 12.3006C12.4405 12.2377 12.2747 12.2685 12.1649 12.3782L11.3374 13.2057C11.2277 13.3154 11.1969 13.4813 11.2599 13.6231L11.4939 14.15C11.3502 14.4112 11.2361 14.6865 11.1529 14.9723L10.6153 15.1793C10.4705 15.2351 10.375 15.3742 10.375 15.5293V16.6995C10.375 16.8547 10.4705 16.9938 10.6153 17.0495L11.1528 17.2564C11.236 17.5423 11.3502 17.8178 11.4938 18.079ZM11.125 15.7868L11.6011 15.6035C11.7165 15.5591 11.8026 15.4607 11.8312 15.3404C11.9128 14.9973 12.0483 14.6706 12.2337 14.3696C12.2986 14.2643 12.3073 14.1338 12.2571 14.0208L12.0498 13.554L12.5132 13.0907L12.98 13.298C13.093 13.3481 13.2234 13.3394 13.3288 13.2746C13.63 13.0891 13.9566 12.9537 14.2995 12.8721C14.4198 12.8435 14.5182 12.7574 14.5626 12.642L14.746 12.1658H15.4012L15.5845 12.642C15.6289 12.7574 15.7274 12.8435 15.8476 12.8721C16.1906 12.9537 16.5172 13.0892 16.8183 13.2746C16.9237 13.3394 17.0542 13.3481 17.1671 13.298L17.634 13.0907L18.0973 13.554L17.8901 14.0206C17.8399 14.1336 17.8487 14.2641 17.9135 14.3695C18.099 14.6707 18.2344 14.9973 18.316 15.3404C18.3446 15.4607 18.4307 15.5591 18.5461 15.6036L19.0222 15.7868V16.4421L18.546 16.6254C18.4306 16.6698 18.3445 16.7682 18.3159 16.8885C18.2343 17.2315 18.0988 17.5581 17.9134 17.8592C17.8486 17.9645 17.8398 18.095 17.89 18.2081L18.0973 18.6748L17.634 19.1382L17.1674 18.931C17.0544 18.8808 16.9239 18.8895 16.8185 18.9544C16.5175 19.1399 16.1908 19.2753 15.8476 19.357C15.7273 19.3856 15.6288 19.4717 15.5845 19.5871L15.4012 20.0631H14.746L14.5626 19.5869C14.5182 19.4715 14.4198 19.3854 14.2995 19.3568C13.9565 19.2752 13.63 19.1398 13.3288 18.9543C13.2235 18.8895 13.093 18.8808 12.98 18.9309L12.5132 19.1382L12.0498 18.6748L12.257 18.2082C12.3072 18.0952 12.2985 17.9647 12.2336 17.8594C12.0482 17.5583 11.9128 17.2316 11.8311 16.8884C11.8025 16.7681 11.7164 16.6697 11.601 16.6253L11.125 16.4421V15.7868ZM15.0736 18.5303C16.4057 18.5303 17.4895 17.4466 17.4895 16.1144C17.4895 14.7823 16.4057 13.6984 15.0736 13.6984C13.7415 13.6984 12.6577 14.7822 12.6577 16.1144C12.6577 17.4466 13.7415 18.5303 15.0736 18.5303ZM15.0736 14.4485C15.9922 14.4485 16.7395 15.1958 16.7395 16.1145C16.7395 17.033 15.9922 17.7804 15.0736 17.7804C14.155 17.7804 13.4077 17.033 13.4077 16.1145C13.4077 15.1958 14.155 14.4485 15.0736 14.4485ZM29.072 27.1952L24.7137 28.3809C24.5218 28.433 24.3342 28.4592 24.1471 28.4592C24.1467 28.4592 24.1463 28.4592 24.1459 28.4592C24.234 28.3684 24.3132 28.2632 24.382 28.1441C24.7752 27.4632 24.5448 26.5808 23.8577 26.1352C23.8435 26.126 23.8287 26.1177 23.8135 26.1106C22.7844 25.6258 21.8196 24.9534 21.0444 24.4131C20.7747 24.2251 20.52 24.0475 20.3006 23.9053C19.4099 23.3275 18.426 23.4821 17.581 23.7097L14.3691 24.5745L14.2371 24.0645C14.1737 23.8195 14.0182 23.6136 13.7992 23.4846C13.5802 23.3557 13.3248 23.3197 13.0798 23.383L11.8616 23.6982C11.3547 23.8294 11.049 24.3486 11.1801 24.8555L12.8177 31.1834C12.881 31.4284 13.0365 31.6343 13.2555 31.7633C13.404 31.8507 13.5692 31.8955 13.7365 31.8955C13.816 31.8955 13.896 31.8853 13.9749 31.8649L15.1931 31.5498C15.4381 31.4863 15.6439 31.3309 15.7729 31.1119C15.9018 30.8929 15.9379 30.6374 15.8746 30.3925L15.7128 29.7676L16.4122 29.5802L20.8838 32.1618C21.3698 32.4425 21.8877 32.5843 22.4135 32.5843C22.7036 32.5843 22.9961 32.5411 23.287 32.4543L31.2574 30.0748C31.9982 29.8537 32.4645 28.9221 32.2359 28.1203C32.125 27.7315 31.569 26.5159 29.072 27.1952ZM15.1266 30.7313C15.1108 30.7581 15.074 30.8058 15.0052 30.8237L13.787 31.1389C13.7182 31.1565 13.663 31.1329 13.636 31.1171C13.6092 31.1013 13.5616 31.0645 13.5437 30.9956L11.9063 24.6675C11.8792 24.5628 11.9448 24.4513 12.0496 24.4242L13.2677 24.109C13.285 24.1045 13.3015 24.1027 13.3169 24.1027C13.3626 24.1027 13.3986 24.119 13.4187 24.1308C13.4455 24.1466 13.4932 24.1834 13.511 24.2522L15.1485 30.5803C15.1663 30.6492 15.1424 30.7045 15.1266 30.7313ZM31.0428 29.3561L23.0724 31.7356C22.4482 31.9219 21.838 31.8467 21.2589 31.5123L16.6527 28.8529C16.5665 28.8032 16.4641 28.7898 16.3682 28.8155L15.525 29.0414L14.557 25.3006L17.776 24.4338C18.4959 24.24 19.2506 24.1181 19.8925 24.5345C20.1013 24.6699 20.3396 24.836 20.6156 25.0284C21.4078 25.5806 22.3922 26.2667 23.4687 26.7772C23.8119 27.0122 23.9257 27.4346 23.7326 27.7691C23.4786 28.2089 23.0664 28.1621 22.7599 28.0415C22.2365 27.7791 21.7499 27.4876 21.235 27.1789C20.9904 27.0323 20.7375 26.8807 20.476 26.7297C20.2967 26.6261 20.0673 26.6876 19.9637 26.867C19.8602 27.0464 19.9217 27.2757 20.101 27.3792C20.3572 27.5271 20.6074 27.6771 20.8495 27.8222C21.3813 28.141 21.8837 28.4422 22.4379 28.7191C22.4399 28.7201 22.4419 28.7208 22.444 28.7217C22.4465 28.723 22.449 28.7244 22.4516 28.7256L22.9 28.9275C23.5774 29.2303 24.2352 29.2883 24.9106 29.1046L29.269 27.919C30.5064 27.5824 31.346 27.7345 31.5146 28.3261C31.6303 28.7319 31.3923 29.2518 31.0428 29.3561ZM13.2831 25.2247C13.258 25.4392 13.0638 25.5927 12.8493 25.5676C12.6348 25.5424 12.4813 25.3482 12.5065 25.1337C12.5316 24.9193 12.7258 24.7658 12.9402 24.7909C13.1547 24.816 13.3082 25.0103 13.2831 25.2247Z" fill="#1F2937"/>
</svg>
