<svg width="72" height="72" viewBox="0 0 72 72" fill="none" xmlns="http://www.w3.org/2000/svg">
<path d="M29.25 36C29.8721 36 30.375 35.4971 30.375 34.875V25.875C30.375 25.2528 29.8721 24.75 29.25 24.75H20.25C19.6279 24.75 19.125 25.2528 19.125 25.875V34.875C19.125 35.4971 19.6279 36 20.25 36H29.25ZM21.375 31.5H23.625V33.75H21.375V31.5ZM28.125 33.75H25.875V31.5H28.125V33.75ZM28.125 29.25H25.875V27H28.125V29.25ZM21.375 27H23.625V29.25H21.375V27Z" fill="#076AAB"/>
<path d="M69.4721 54.3847L61.5971 45.3847C61.3822 45.1395 61.074 45 60.75 45H54V41.625C54 41.0028 53.4971 40.5 52.875 40.5H42.75V28.8956L45.6435 30.2658C45.7965 30.339 45.9607 30.375 46.125 30.375C46.3354 30.375 46.5435 30.3165 46.7269 30.2006C47.052 29.9947 47.25 29.6358 47.25 29.25V24.75C47.25 24.3146 46.9991 23.9197 46.6065 23.7341L25.2315 13.6091C24.9277 13.464 24.5723 13.464 24.2696 13.6091L17.658 16.7411C17.0966 17.0066 16.8559 17.6771 17.1225 18.2385C17.388 18.801 18.0596 19.0406 18.6199 18.774L23.625 16.4025V18.414L4.5 27.4725V25.4621L14.553 20.7C15.1144 20.4345 15.3551 19.764 15.0885 19.2026C14.823 18.6401 14.1503 18.4016 13.5911 18.6671L2.89462 23.7341C2.50087 23.9197 2.25 24.3146 2.25 24.75V29.25C2.25 29.6358 2.448 29.9947 2.77312 30.2006C3.09937 30.4087 3.50662 30.4312 3.8565 30.267L5.625 29.4288V50.625C5.625 51.2471 6.12787 51.75 6.75 51.75C7.37213 51.75 7.875 51.2471 7.875 50.625V28.3623L24.75 20.3692L40.5 27.8291V40.5H37.125C36.5029 40.5 36 41.0028 36 41.625C36 42.2471 36.5029 42.75 37.125 42.75H51.75V63H43.875C43.2529 63 42.75 63.5028 42.75 64.125C42.75 64.7471 43.2529 65.25 43.875 65.25H55.2386C55.7617 67.8138 58.0331 69.75 60.75 69.75C63.4669 69.75 65.7383 67.8138 66.2614 65.25H68.625C69.2471 65.25 69.75 64.7471 69.75 64.125V55.125C69.75 54.8527 69.651 54.5883 69.4721 54.3847ZM45 27.4725L25.875 18.414V16.4025L45 25.4621V27.4725ZM66.1455 54H58.5V47.25H60.2393L66.1455 54ZM60.75 67.5C58.8892 67.5 57.375 65.9857 57.375 64.125C57.375 62.2642 58.8892 60.75 60.75 60.75C62.6108 60.75 64.125 62.2642 64.125 64.125C64.125 65.9857 62.6108 67.5 60.75 67.5ZM66.2614 63C65.7383 60.4361 63.4669 58.5 60.75 58.5C58.0331 58.5 55.7617 60.4361 55.2386 63H54V47.25H56.25V55.125C56.25 55.7471 56.7529 56.25 57.375 56.25H67.5V63H66.2614Z" fill="#076AAB"/>
<path d="M34.875 58.5C32.1593 58.5 29.8867 60.4361 29.3636 63H24.75V42.75H32.625C33.2471 42.75 33.75 42.2471 33.75 41.625C33.75 41.0028 33.2471 40.5 32.625 40.5H23.625C23.0029 40.5 22.5 41.0028 22.5 41.625V46.125H16.875C16.2529 46.125 15.75 46.6278 15.75 47.25V54H3.375C2.75288 54 2.25 54.5028 2.25 55.125V68.625C2.25 69.2471 2.75288 69.75 3.375 69.75H16.875C17.4971 69.75 18 69.2471 18 68.625V60.75H22.5V64.125C22.5 64.7471 23.0029 65.25 23.625 65.25H29.3636C29.8867 67.8138 32.1581 69.75 34.875 69.75C37.9766 69.75 40.5 67.2266 40.5 64.125C40.5 61.0233 37.9766 58.5 34.875 58.5ZM11.25 56.25V58.5H9V56.25H11.25ZM15.75 67.5H4.5V56.25H6.75V59.625C6.75 60.2471 7.25287 60.75 7.875 60.75H12.375C12.9971 60.75 13.5 60.2471 13.5 59.625V56.25H15.75V67.5ZM18 58.5V48.375H22.5V58.5H18ZM34.875 67.5C33.0143 67.5 31.5 65.9857 31.5 64.125C31.5 62.2642 33.0143 60.75 34.875 60.75C36.7357 60.75 38.25 62.2642 38.25 64.125C38.25 65.9857 36.7357 67.5 34.875 67.5Z" fill="#076AAB"/>
<path d="M34.875 65.25C35.4963 65.25 36 64.7463 36 64.125C36 63.5036 35.4963 63 34.875 63C34.2537 63 33.75 63.5036 33.75 64.125C33.75 64.7463 34.2537 65.25 34.875 65.25Z" fill="#076AAB"/>
<path d="M60.75 65.25C61.3713 65.25 61.875 64.7463 61.875 64.125C61.875 63.5036 61.3713 63 60.75 63C60.1287 63 59.625 63.5036 59.625 64.125C59.625 64.7463 60.1287 65.25 60.75 65.25Z" fill="#076AAB"/>
<path d="M42.75 46.125H29.25C28.6279 46.125 28.125 46.6278 28.125 47.25C28.125 47.8721 28.6279 48.375 29.25 48.375H42.75C43.3721 48.375 43.875 47.8721 43.875 47.25C43.875 46.6278 43.3721 46.125 42.75 46.125Z" fill="#076AAB"/>
<path d="M32.625 51.75C32.625 52.3721 33.1279 52.875 33.75 52.875H46.125C46.7471 52.875 47.25 52.3721 47.25 51.75C47.25 51.1278 46.7471 50.625 46.125 50.625H33.75C33.1279 50.625 32.625 51.1278 32.625 51.75Z" fill="#076AAB"/>
<path d="M49.5 56.25C49.5 55.6278 48.9971 55.125 48.375 55.125H40.5C39.8779 55.125 39.375 55.6278 39.375 56.25C39.375 56.8721 39.8779 57.375 40.5 57.375H48.375C48.9971 57.375 49.5 56.8721 49.5 56.25Z" fill="#076AAB"/>
<path d="M59.0006 39.186C59.1896 39.312 59.4079 39.375 59.625 39.375C59.8421 39.375 60.0604 39.312 60.2494 39.186C60.5441 38.988 67.5 34.2686 67.5 27C67.5 25.8255 67.2401 24.6847 66.726 23.6103C66.4571 23.049 65.7844 22.8105 65.2264 23.0793C64.665 23.3471 64.4276 24.0187 64.6954 24.579C65.0632 25.3496 65.25 26.1641 65.25 27C65.25 31.8915 61.2079 35.586 59.625 36.846C58.0421 35.586 54 31.8915 54 27C54 23.8983 56.5234 21.375 59.625 21.375C60.4609 21.375 61.2754 21.5617 62.0449 21.9285C62.604 22.1962 63.2756 21.9577 63.5445 21.3975C63.8122 20.8372 63.5749 20.1656 63.0135 19.8978C61.9403 19.3848 60.7995 19.125 59.625 19.125C55.2836 19.125 51.75 22.6586 51.75 27C51.75 34.2686 58.7059 38.988 59.0006 39.186Z" fill="#076AAB"/>
<path d="M59.625 23.625C57.7643 23.625 56.25 25.1392 56.25 27C56.25 28.8607 57.7643 30.375 59.625 30.375C61.4857 30.375 63 28.8607 63 27C63 25.1392 61.4857 23.625 59.625 23.625ZM59.625 28.125C59.004 28.125 58.5 27.621 58.5 27C58.5 26.379 59.004 25.875 59.625 25.875C60.246 25.875 60.75 26.379 60.75 27C60.75 27.621 60.246 28.125 59.625 28.125Z" fill="#076AAB"/>
</svg>
