<svg width="44" height="44" viewBox="0 0 44 44" fill="none" xmlns="http://www.w3.org/2000/svg">
<rect x="0.5" y="0.5" width="43" height="43" rx="21.5" stroke="#9CA3AF"/>
<g clip-path="url(#clip0_2167_1917)">
<path d="M12.3672 25.6331C12.173 25.6331 12.0156 25.7905 12.0156 25.9846C12.0156 26.1788 12.173 26.3362 12.3672 26.3362H15.4376C15.6317 26.3362 15.7892 26.1788 15.7892 25.9846C15.7892 25.7905 15.6317 25.6331 15.4376 25.6331H12.3672Z" fill="#1F2937"/>
<path d="M33.6055 28.2054L32.1252 26.7251L32.1256 14.8294C32.1256 14.5063 31.8627 14.2434 31.5396 14.2434L28.1557 14.2432C26.8234 12.968 24.9515 12.2201 23.0898 12.2264C21.1325 12.2264 19.3511 12.9934 18.0299 14.2425L14.7594 14.2422C14.5653 14.2422 14.4078 14.3995 14.4078 14.5937C14.4078 14.7879 14.5652 14.9453 14.7593 14.9453L17.3766 14.9456C17.1824 15.1837 17.0028 15.4341 16.8391 15.6955L10.7034 15.6951V14.9452L13.1187 14.9453C13.3128 14.9453 13.4702 14.788 13.4702 14.5937C13.4702 14.3995 13.3129 14.2422 13.1187 14.2422L10.5862 14.242C10.2631 14.242 10.0002 14.5049 10.0002 14.828L10 27.9522C10 28.2754 10.2628 28.5382 10.586 28.5382L15.3499 28.5385C15.544 28.5385 15.7015 28.3812 15.7015 28.1869C15.7015 27.9927 15.5441 27.8354 15.3499 27.8354L10.7031 27.8351L10.7034 16.3982L16.4498 16.3986C16.2239 16.8656 16.0463 17.3599 15.9226 17.8749H12.3907C12.1965 17.8749 12.0391 18.0323 12.0391 18.2265V21.0391C12.0391 21.2332 12.1965 21.3907 12.3907 21.3907H15.94C16.0227 21.7203 16.1277 22.0412 16.2532 22.3516H12.3672C12.1731 22.3516 12.0157 22.509 12.0157 22.7032C12.0157 22.8973 12.1731 23.0548 12.3672 23.0548H16.5818C16.7567 23.3827 16.9554 23.6961 17.1761 23.9923H12.3672C12.1731 23.9923 12.0157 24.1497 12.0157 24.3439C12.0157 24.538 12.1731 24.6954 12.3672 24.6954H17.7714C19.1138 26.0953 21.0017 26.9683 23.0898 26.9683C24.3791 26.9683 25.627 26.6348 26.7261 26.0105L27.429 26.7135C27.5604 26.8449 27.733 26.9106 27.9056 26.9106C28.0597 26.9106 28.2135 26.8579 28.3382 26.7533L29.4212 27.8363L16.9906 27.8354C16.7964 27.8354 16.639 27.9928 16.639 28.187C16.639 28.3812 16.7963 28.5386 16.9906 28.5386L18.5246 28.5387L18.2164 29.6632L17.6085 29.6631C16.7345 29.6631 16.0235 30.3741 16.0235 31.248V31.4208C16.0235 31.615 16.1809 31.7724 16.3751 31.7724L25.7502 31.7738H25.7502C25.8434 31.7738 25.9328 31.7367 25.9988 31.6708C26.0648 31.6049 26.1018 31.5155 26.1018 31.4222V31.2493C26.1018 30.3754 25.3908 29.6644 24.5169 29.6644L23.9091 29.6643L23.6006 28.539L30.1244 28.5395L31.698 30.113C31.9528 30.3678 32.2915 30.5081 32.6517 30.5081C33.012 30.5081 33.3508 30.3678 33.6056 30.113C34.1315 29.5871 34.1315 28.7314 33.6055 28.2054ZM25.3804 31.0706L16.7448 31.0693C16.8277 30.6685 17.1834 30.3662 17.6083 30.3662L24.5168 30.3676C24.9418 30.3676 25.2975 30.6698 25.3804 31.0706ZM23.1799 29.6642L18.9454 29.6634L19.2537 28.5387L22.8714 28.539L23.1799 29.6642ZM31.4224 15.6965L29.3438 15.6963C29.1812 15.436 29.0025 15.1854 28.8081 14.9464L31.4224 14.9466V15.6965ZM12.7423 20.6876V18.5781H15.7897C15.7434 18.9114 15.7189 19.2516 15.7189 19.5974C15.7189 19.9677 15.7466 20.3317 15.7997 20.6876H12.7423ZM16.422 19.5974C16.422 15.9207 19.4132 12.9295 23.0898 12.9295C26.3992 12.9295 29.17 15.2989 29.678 18.5633C29.7079 18.7551 29.8876 18.8866 30.0795 18.8566C30.2713 18.8267 30.4027 18.647 30.3728 18.4551C30.2612 17.738 30.0432 17.0459 29.7315 16.3995L31.4224 16.3997L31.4221 26.0221L30.2459 24.8458C30.3477 24.7246 30.4034 24.5732 30.4034 24.4131C30.4034 24.2331 30.3333 24.0639 30.206 23.9365L29.5034 23.2339C30.0347 22.2985 30.3574 21.2516 30.4398 20.1583C30.4543 19.9647 30.3092 19.7959 30.1156 19.7813C29.922 19.7671 29.7532 19.9119 29.7386 20.1055C29.4785 23.5595 26.558 26.2651 23.0898 26.2651C19.4132 26.2652 16.422 23.274 16.422 19.5974ZM27.3342 25.6242C27.6059 25.4324 27.8663 25.2215 28.1131 24.9917C28.4899 24.6406 28.8255 24.2551 29.1171 23.842L29.6882 24.4131L27.9056 26.1957L27.3342 25.6242ZM33.1084 29.6158C32.9864 29.7378 32.8242 29.805 32.6517 29.805C32.4793 29.805 32.3171 29.7378 32.1951 29.6158L28.8375 26.2582L29.7507 25.3449L33.1083 28.7026C33.3601 28.9544 33.3601 29.3641 33.1084 29.6158Z" fill="#1F2937"/>
<path d="M23.0896 13.6304C19.7994 13.6304 17.1226 16.3072 17.1226 19.5974C17.1226 21.4978 18.0405 23.3015 19.5781 24.4223C19.735 24.5367 19.9549 24.5022 20.0693 24.3453C20.1837 24.1884 20.1492 23.9684 19.9923 23.8541C18.6357 22.8651 17.8257 21.2738 17.8257 19.5974C17.8257 16.6949 20.1871 14.3335 23.0896 14.3335C25.9921 14.3335 28.3535 16.6949 28.3535 19.5974C28.3535 22.4999 25.9921 24.8613 23.0896 24.8613C22.4918 24.8613 21.9054 24.762 21.3468 24.5661C21.1635 24.5017 20.9629 24.5983 20.8987 24.7815C20.8344 24.9647 20.9309 25.1653 21.1141 25.2296C21.7477 25.4518 22.4123 25.5644 23.0896 25.5644C26.3799 25.5644 29.0567 22.8876 29.0567 19.5974C29.0567 16.3071 26.3799 13.6304 23.0896 13.6304Z" fill="#1F2937"/>
<path d="M23.2569 18.6892C23.4511 18.6892 23.6085 18.5318 23.6085 18.3377C23.6085 18.1435 23.4511 17.9861 23.2569 17.9861H22.1953C22.0012 17.9861 21.8438 18.1435 21.8438 18.3377V20.8571C21.8438 21.0513 22.0012 21.2087 22.1953 21.2087H23.2569C23.4511 21.2087 23.6085 21.0513 23.6085 20.8571C23.6085 20.6629 23.4511 20.5055 23.2569 20.5055H22.5469V19.949H23.1786C23.3728 19.949 23.5302 19.7916 23.5302 19.5974C23.5302 19.4032 23.3728 19.2458 23.1786 19.2458H22.5469V18.6892H23.2569Z" fill="#1F2937"/>
<path d="M19.888 20.5172C19.6447 20.5172 19.4108 20.4194 19.2625 20.2557C19.1321 20.1119 18.9098 20.101 18.7659 20.2313C18.622 20.3617 18.6111 20.584 18.7415 20.7279C19.0251 21.0408 19.443 21.2203 19.888 21.2203C20.4402 21.2203 20.9041 20.8667 20.9911 20.3795C21.0568 20.0115 20.8915 19.5314 20.2304 19.2876C20.018 19.2103 19.6697 19.0832 19.5372 19.0088C19.5002 18.9886 19.4842 18.9524 19.4895 18.9012C19.4968 18.8302 19.5497 18.7408 19.6762 18.7027C20.0163 18.6003 20.3348 18.8503 20.3449 18.8583C20.4935 18.9814 20.7138 18.9618 20.8382 18.8137C20.9631 18.6651 20.9439 18.4433 20.7952 18.3184C20.7707 18.2977 20.1852 17.815 19.4733 18.0294C19.0967 18.1428 18.8285 18.4566 18.79 18.8288C18.7553 19.1638 18.9127 19.4694 19.2009 19.6263C19.3457 19.7098 19.678 19.8357 19.9871 19.9473C20.0678 19.9771 20.329 20.0874 20.2989 20.2559C20.2761 20.3843 20.1161 20.5172 19.888 20.5172Z" fill="#1F2937"/>
<path d="M27.6364 19.5973C27.6364 18.7024 26.9084 17.9744 26.0135 17.9744C25.1187 17.9744 24.3906 18.7024 24.3906 19.5973C24.3906 20.4921 25.1187 21.2202 26.0135 21.2202C26.9084 21.2202 27.6364 20.4921 27.6364 19.5973ZM25.0938 19.5973C25.0938 19.0901 25.5064 18.6775 26.0135 18.6775C26.5207 18.6775 26.9333 19.0901 26.9333 19.5973C26.9333 20.1044 26.5207 20.517 26.0135 20.517C25.5064 20.517 25.0938 20.1044 25.0938 19.5973Z" fill="#1F2937"/>
</g>
<defs>
<clipPath id="clip0_2167_1917">
<rect width="24" height="24" fill="white" transform="translate(10 10)"/>
</clipPath>
</defs>
</svg>
