<svg width="44" height="44" viewBox="0 0 44 44" fill="none" xmlns="http://www.w3.org/2000/svg">
<rect x="0.5" y="0.5" width="43" height="43" rx="21.5" stroke="#9CA3AF"/>
<g clip-path="url(#clip0_2180_2080)">
<path fill-rule="evenodd" clip-rule="evenodd" d="M33.3847 17.6651L32.448 17.3045C32.3117 16.8043 32.1129 16.3248 31.855 15.8741L32.2627 14.9562C32.3257 14.8144 32.2949 14.6485 32.1851 14.5388L30.8942 13.2479C30.7846 13.1382 30.6188 13.1074 30.4769 13.1704L29.5587 13.5782C29.1081 13.3204 28.6285 13.1217 28.1288 12.9853L27.7681 12.0484C27.7124 11.9036 27.5733 11.8081 27.4181 11.8081H25.5926C25.4374 11.8081 25.2984 11.9036 25.2426 12.0484L24.8819 12.9854C24.3821 13.1217 23.9027 13.3205 23.452 13.5782L22.5338 13.1704C22.3919 13.1074 22.2261 13.1383 22.1164 13.248L20.8255 14.5389C20.7158 14.6486 20.685 14.8145 20.748 14.9562L21.1558 15.8743C20.898 16.325 20.6992 16.8044 20.5629 17.3044L19.626 17.6651C19.4813 17.7208 19.3857 17.8599 19.3857 18.015V19.8406C19.3857 19.9957 19.4813 20.1348 19.626 20.1905L20.5627 20.5511C20.6991 21.0512 20.8979 21.5309 21.1557 21.9815L20.748 22.8994C20.685 23.0412 20.7158 23.207 20.8255 23.3167L22.1164 24.6076C22.2261 24.7173 22.392 24.7482 22.5338 24.6852L23.452 24.2773C23.9027 24.5352 24.3822 24.7339 24.882 24.8702L25.2426 25.8072C25.2983 25.952 25.4374 26.0474 25.5926 26.0474H27.4181C27.5733 26.0474 27.7124 25.9519 27.7681 25.8072L28.1287 24.8704C28.6288 24.7341 29.1084 24.5353 29.5591 24.2775L30.477 24.6852C30.6187 24.7482 30.7846 24.7173 30.8943 24.6076L32.1852 23.3167C32.2949 23.207 32.3257 23.0412 32.2627 22.8994L31.8549 21.9811C32.1127 21.5305 32.3114 21.051 32.4477 20.5512L33.3847 20.1905C33.5295 20.1349 33.625 19.9957 33.625 19.8406V18.015C33.625 17.8599 33.5295 17.7208 33.3847 17.6651ZM32.875 19.5831L31.9975 19.9208C31.8821 19.9652 31.7961 20.0637 31.7675 20.184C31.635 20.7408 31.4152 21.2709 31.1142 21.7597C31.0494 21.8651 31.0406 21.9955 31.0908 22.1085L31.4727 22.9685L30.546 23.8953L29.6863 23.5135C29.5734 23.4633 29.4429 23.472 29.3375 23.5369C28.8487 23.8378 28.3185 24.0577 27.7614 24.1902C27.6411 24.2189 27.5426 24.305 27.4982 24.4204L27.1606 25.2975H25.85L25.5123 24.4201C25.4679 24.3047 25.3694 24.2186 25.2491 24.19C24.6924 24.0575 24.1622 23.8377 23.6734 23.5367C23.568 23.4718 23.4375 23.4632 23.3246 23.5133L22.4646 23.8952L21.5378 22.9685L21.9197 22.1089C21.9698 21.9958 21.9611 21.8653 21.8962 21.76C21.5953 21.2713 21.3755 20.741 21.2428 20.1838C21.2142 20.0635 21.1281 19.9651 21.0128 19.9207L20.1356 19.583V18.2724L21.013 17.9347C21.1284 17.8903 21.2144 17.7918 21.243 17.6715C21.3756 17.1146 21.5954 16.5844 21.8964 16.0957C21.9612 15.9904 21.97 15.8599 21.9198 15.7468L21.5379 14.887L22.4647 13.9603L23.3246 14.3421C23.4376 14.3922 23.5681 14.3836 23.6734 14.3187C24.1623 14.0178 24.6924 13.798 25.2492 13.6655C25.3694 13.6368 25.4679 13.5507 25.5123 13.4353L25.8501 12.5579H27.1607L27.4984 13.4353C27.5428 13.5507 27.6413 13.6368 27.7615 13.6655C28.3183 13.798 28.8484 14.0178 29.3373 14.3187C29.4426 14.3836 29.5731 14.3922 29.686 14.3421L30.546 13.9602L31.4728 14.887L31.091 15.7466C31.0408 15.8596 31.0495 15.9902 31.1144 16.0955C31.4154 16.5841 31.6352 17.1144 31.7678 17.6716C31.7964 17.7919 31.8824 17.8903 31.9978 17.9347L32.875 18.2725V19.5831ZM26.5053 15.0672C24.3766 15.0672 22.6447 16.799 22.6447 18.9278C22.6447 21.0565 24.3766 22.7884 26.5053 22.7884C28.634 22.7884 30.3658 21.0565 30.3658 18.9278C30.3658 16.799 28.634 15.0672 26.5053 15.0672ZM26.5053 22.0384C24.7901 22.0384 23.3947 20.6429 23.3947 18.9278C23.3947 17.2126 24.7901 15.8172 26.5053 15.8172C28.2205 15.8172 29.6158 17.2126 29.6158 18.9278C29.6158 20.6429 28.2205 22.0384 26.5053 22.0384ZM11.4938 18.0792L11.2599 18.606C11.1969 18.7477 11.2277 18.9137 11.3374 19.0234L12.1649 19.8508C12.2746 19.9605 12.4404 19.9914 12.5823 19.9284L13.1093 19.6943C13.3705 19.838 13.6458 19.9521 13.9315 20.0352L14.1385 20.573C14.1942 20.7177 14.3333 20.8132 14.4885 20.8132H15.6588C15.8139 20.8132 15.953 20.7177 16.0087 20.573L16.2156 20.0354C16.5016 19.9523 16.777 19.8381 17.0382 19.6944L17.5649 19.9284C17.7066 19.9914 17.8726 19.9606 17.9823 19.8508L18.8098 19.0233C18.9195 18.9136 18.9503 18.7477 18.8873 18.6059L18.6533 18.0789C18.7969 17.8177 18.9111 17.5424 18.9941 17.2566L19.5319 17.0496C19.6767 16.994 19.7722 16.8548 19.7722 16.6997V15.5294C19.7722 15.3743 19.6767 15.2352 19.5319 15.1795L18.9943 14.9725C18.9113 14.6867 18.797 14.4113 18.6534 14.15L18.8873 13.6232C18.9503 13.4815 18.9195 13.3155 18.8098 13.2058L17.9823 12.3785C17.8726 12.2688 17.7068 12.238 17.565 12.3009L17.038 12.5349C16.7768 12.3913 16.5015 12.2771 16.2157 12.194L16.0088 11.6563C15.9531 11.5115 15.814 11.416 15.6588 11.416H14.4885C14.3334 11.416 14.1943 11.5115 14.1385 11.6563L13.9315 12.194C13.6458 12.2772 13.3705 12.3913 13.1093 12.535L12.5823 12.3009C12.4405 12.238 12.2747 12.2688 12.1649 12.3785L11.3374 13.206C11.2277 13.3157 11.1969 13.4816 11.2599 13.6234L11.4939 14.1502C11.3502 14.4114 11.2361 14.6867 11.1529 14.9726L10.6153 15.1796C10.4705 15.2353 10.375 15.3744 10.375 15.5295V16.6998C10.375 16.8549 10.4705 16.994 10.6153 17.0497L11.1528 17.2566C11.236 17.5426 11.3502 17.818 11.4938 18.0792ZM11.125 15.787L11.6011 15.6037C11.7165 15.5593 11.8026 15.4609 11.8312 15.3406C11.9128 14.9975 12.0483 14.6709 12.2337 14.3699C12.2986 14.2646 12.3073 14.134 12.2571 14.021L12.0498 13.5543L12.5132 13.0909L12.98 13.2982C13.093 13.3483 13.2234 13.3397 13.3288 13.2748C13.63 13.0894 13.9566 12.954 14.2995 12.8724C14.4197 12.8437 14.5182 12.7577 14.5626 12.6423L14.746 12.1661H15.4012L15.5845 12.6423C15.6289 12.7577 15.7274 12.8437 15.8476 12.8724C16.1906 12.954 16.5172 13.0894 16.8183 13.2748C16.9237 13.3397 17.0542 13.3483 17.1671 13.2982L17.634 13.0909L18.0973 13.5543L17.8901 14.0209C17.8399 14.1339 17.8487 14.2644 17.9135 14.3697C18.099 14.6709 18.2344 14.9976 18.316 15.3406C18.3446 15.4609 18.4307 15.5594 18.5461 15.6038L19.0222 15.7871V16.4424L18.546 16.6257C18.4306 16.67 18.3445 16.7685 18.3159 16.8888C18.2343 17.2317 18.0988 17.5584 17.9134 17.8595C17.8486 17.9648 17.8398 18.0953 17.89 18.2083L18.0973 18.6751L17.634 19.1385L17.1674 18.9312C17.0544 18.881 16.9239 18.8898 16.8185 18.9547C16.5175 19.1401 16.1908 19.2755 15.8476 19.3572C15.7273 19.3858 15.6288 19.4719 15.5845 19.5873L15.4012 20.0633H14.746L14.5626 19.5871C14.5182 19.4718 14.4197 19.3857 14.2995 19.357C13.9565 19.2754 13.63 19.14 13.3288 18.9546C13.2235 18.8897 13.093 18.881 12.98 18.9312L12.5132 19.1385L12.0498 18.6751L12.257 18.2085C12.3072 18.0955 12.2985 17.965 12.2336 17.8596C12.0482 17.5586 11.9128 17.2319 11.8311 16.8887C11.8025 16.7684 11.7164 16.6699 11.601 16.6255L11.125 16.4423V15.787ZM15.0736 18.5306C16.4058 18.5306 17.4895 17.4468 17.4895 16.1147C17.4895 14.7825 16.4058 13.6987 15.0736 13.6987C13.7415 13.6987 12.6577 14.7825 12.6577 16.1147C12.6577 17.4468 13.7415 18.5306 15.0736 18.5306ZM15.0736 14.4487C15.9922 14.4487 16.7395 15.1961 16.7395 16.1147C16.7395 17.0333 15.9922 17.7806 15.0736 17.7806C14.155 17.7806 13.4077 17.0333 13.4077 16.1147C13.4077 15.1961 14.155 14.4487 15.0736 14.4487ZM29.072 27.1955L24.7137 28.3811C24.5218 28.4333 24.3342 28.4595 24.1471 28.4595C24.1467 28.4595 24.1463 28.4595 24.1459 28.4595C24.234 28.3687 24.3132 28.2635 24.382 28.1443C24.7752 27.4635 24.5448 26.5811 23.8577 26.1354C23.8435 26.1262 23.8287 26.118 23.8135 26.1108C22.7844 25.6261 21.8196 24.9536 21.0444 24.4133C20.7747 24.2253 20.52 24.0477 20.3006 23.9055C19.4099 23.3277 18.426 23.4823 17.581 23.7099L14.3691 24.5748L14.2371 24.0647C14.1737 23.8197 14.0182 23.6138 13.7992 23.4849C13.5802 23.356 13.3248 23.3199 13.0798 23.3832L11.8616 23.6985C11.3547 23.8297 11.049 24.3488 11.1801 24.8557L12.8177 31.1837C12.881 31.4286 13.0365 31.6346 13.2555 31.7635C13.404 31.8509 13.5692 31.8957 13.7365 31.8957C13.816 31.8957 13.896 31.8856 13.9749 31.8652L15.1931 31.55C15.4381 31.4866 15.6439 31.3311 15.7729 31.1121C15.9018 30.8931 15.9379 30.6377 15.8746 30.3928L15.7128 29.7678L16.4122 29.5804L20.8838 32.1621C21.3698 32.4427 21.8877 32.5845 22.4135 32.5845C22.7036 32.5845 22.9961 32.5414 23.287 32.4546L31.2574 30.075C31.9982 29.8539 32.4645 28.9224 32.2359 28.1206C32.125 27.7317 31.569 26.5162 29.072 27.1955ZM15.1266 30.7316C15.1108 30.7584 15.074 30.806 15.0052 30.8239L13.787 31.1391C13.7182 31.1568 13.663 31.1331 13.636 31.1173C13.6092 31.1015 13.5616 31.0647 13.5437 30.9959L11.9063 24.6678C11.8792 24.563 11.9448 24.4516 12.0496 24.4245L13.2677 24.1093C13.285 24.1048 13.3015 24.1029 13.3169 24.1029C13.3626 24.1029 13.3986 24.1193 13.4187 24.1311C13.4455 24.1469 13.4932 24.1837 13.511 24.2525L15.1485 30.5806C15.1663 30.6494 15.1424 30.7047 15.1266 30.7316ZM31.0428 29.3563L23.0724 31.7359C22.4482 31.9221 21.838 31.847 21.2589 31.5125L16.6527 28.8532C16.5665 28.8035 16.4641 28.79 16.3682 28.8157L15.525 29.0417L14.557 25.3008L17.776 24.4341C18.4959 24.2403 19.2506 24.1183 19.8925 24.5347C20.1013 24.6702 20.3396 24.8363 20.6156 25.0286C21.4078 25.5808 22.3922 26.2669 23.4687 26.7775C23.8119 27.0124 23.9257 27.4349 23.7326 27.7693C23.4786 28.2092 23.0664 28.1624 22.7599 28.0417C22.2365 27.7793 21.7499 27.4878 21.235 27.1792C20.9904 27.0326 20.7375 26.8809 20.476 26.73C20.2967 26.6264 20.0673 26.6878 19.9637 26.8672C19.8602 27.0466 19.9217 27.2759 20.101 27.3795C20.3572 27.5273 20.6074 27.6773 20.8495 27.8225C21.3813 28.1412 21.8837 28.4424 22.4379 28.7194C22.4399 28.7203 22.4419 28.721 22.444 28.7219C22.4465 28.7232 22.449 28.7247 22.4516 28.7259L22.9 28.9278C23.5774 29.2306 24.2352 29.2885 24.9106 29.1049L29.269 27.9192C30.5064 27.5826 31.346 27.7347 31.5146 28.3263C31.6303 28.7322 31.3923 29.252 31.0428 29.3563ZM13.2831 25.225C13.258 25.4394 13.0638 25.5929 12.8493 25.5678C12.6348 25.5427 12.4813 25.3484 12.5065 25.134C12.5316 24.9195 12.7258 24.766 12.9402 24.7911C13.1547 24.8163 13.3082 25.0105 13.2831 25.225Z" fill="#1F2937"/>
</g>
<defs>
<clipPath id="clip0_2180_2080">
<rect width="24" height="24" fill="white" transform="translate(10 10)"/>
</clipPath>
</defs>
</svg>
