<svg width="44" height="44" viewBox="0 0 44 44" fill="none" xmlns="http://www.w3.org/2000/svg">
<rect x="0.5" y="0.5" width="43" height="43" rx="21.5" stroke="#9CA3AF"/>
<path d="M31.6562 11.875H24.1157C23.8568 11.875 23.6469 12.0849 23.6469 12.3438C23.6469 12.6026 23.8568 12.8125 24.1157 12.8125H31.6562C32.4317 12.8125 33.0625 13.4433 33.0625 14.2188V25.5625H10.9375V14.2188C10.9375 13.4433 11.5683 12.8125 12.3438 12.8125H19.8969C20.1558 12.8125 20.3657 12.6026 20.3657 12.3438C20.3657 12.0849 20.1558 11.875 19.8969 11.875H12.3438C11.0514 11.875 10 12.9264 10 14.2188V29.7812C10 31.0736 11.0514 32.125 12.3438 32.125H31.6562C32.9486 32.125 34 31.0736 34 29.7812V14.2188C34 12.9264 32.9486 11.875 31.6562 11.875ZM31.6562 31.1875H12.3438C11.5683 31.1875 10.9375 30.5567 10.9375 29.7812V26.5H33.0625V29.7812C33.0625 30.5567 32.4317 31.1875 31.6562 31.1875Z" fill="#1F2937"/>
<path d="M14.6841 27.4375C13.9087 27.4375 13.2778 28.0683 13.2778 28.8438C13.2778 29.6192 13.9087 30.25 14.6841 30.25C15.4595 30.25 16.0903 29.6192 16.0903 28.8438C16.0903 28.0683 15.4595 27.4375 14.6841 27.4375ZM14.6841 29.3125C14.4256 29.3125 14.2153 29.1022 14.2153 28.8438C14.2153 28.5853 14.4256 28.375 14.6841 28.375C14.9426 28.375 15.1528 28.5853 15.1528 28.8438C15.1528 29.1022 14.9425 29.3125 14.6841 29.3125Z" fill="#1F2937"/>
<path d="M30.2535 28.375H18.5776C18.3187 28.375 18.1089 28.5849 18.1089 28.8438C18.1089 29.1026 18.3187 29.3125 18.5776 29.3125H30.2535C30.5124 29.3125 30.7223 29.1026 30.7223 28.8438C30.7223 28.5849 30.5124 28.375 30.2535 28.375Z" fill="#1F2937"/>
<path d="M19.604 17.7662V20.609C19.604 21.0924 19.8539 21.5251 20.2724 21.7668C20.4817 21.8876 20.7113 21.9481 20.9409 21.9481C21.1705 21.9481 21.4001 21.8876 21.6094 21.7668L24.0712 20.3454C24.4898 20.1038 24.7397 19.6709 24.7397 19.1876C24.7397 18.7044 24.4898 18.2715 24.0712 18.0299L21.6094 16.6085C21.1909 16.3668 20.6911 16.3668 20.2725 16.6085C19.8539 16.8501 19.604 17.283 19.604 17.7662ZM20.5415 17.7662C20.5415 17.5581 20.6812 17.455 20.7412 17.4204C20.7777 17.3993 20.8507 17.3654 20.9429 17.3654C21.0024 17.3654 21.0699 17.3796 21.1406 17.4204L23.6025 18.8417C23.7827 18.9458 23.8022 19.1183 23.8022 19.1876C23.8022 19.257 23.7827 19.4295 23.6025 19.5335L21.1406 20.9549C20.9603 21.0589 20.8013 20.9896 20.7412 20.9549C20.6812 20.9202 20.5416 20.8171 20.5416 20.609V17.7662H20.5415Z" fill="#1F2937"/>
<path d="M22.0061 12.8125C22.1294 12.8125 22.2503 12.7623 22.3375 12.6752C22.4247 12.588 22.4749 12.467 22.4749 12.3438C22.4749 12.2205 22.4247 12.0995 22.3375 12.0123C22.2503 11.9252 22.1294 11.875 22.0061 11.875C21.8828 11.875 21.7619 11.9252 21.6742 12.0123C21.587 12.0995 21.5374 12.2205 21.5374 12.3438C21.5374 12.467 21.587 12.588 21.6742 12.6752C21.7619 12.7623 21.8828 12.8125 22.0061 12.8125Z" fill="#1F2937"/>
</svg>
